<svg width="2197" height="1440" viewBox="0 0 2197 1440" fill="none" xmlns="http://www.w3.org/2000/svg">
<path opacity="0.05" d="M493.326 954.047L569.538 910.05L973.979 1143.54L1061.45 1093.04L1122.07 1128.04L1034.6 1178.53L1175.77 1260.03L1108.22 1299.03L967.051 1217.53L642.285 1405.02L581.662 1370.02L493.326 954.047ZM906.428 1182.53L586.859 998.045L657.008 1326.53L906.428 1182.53ZM1326.95 1079.76C1221.29 1071.76 1125.16 1042.26 1035.96 990.764C946.753 939.267 895.657 883.77 881.8 822.773C867.943 761.777 895.657 711.779 964.94 671.782C1035.09 631.284 1121.69 615.285 1226.48 622.784C1331.28 631.284 1428.27 661.282 1517.47 712.779C1606.68 764.277 1658.64 820.273 1672.5 880.27C1686.35 941.267 1658.64 991.264 1588.49 1031.76C1519.21 1071.76 1432.6 1087.76 1326.95 1079.76ZM975.332 819.773C990.921 865.771 1033.36 909.269 1105.24 950.766C1177.12 992.264 1252.47 1016.76 1332.14 1025.76C1411.82 1034.76 1476.77 1024.26 1526.13 995.764C1575.5 967.265 1593.69 929.767 1578.1 883.77C1562.51 837.772 1520.07 794.275 1448.19 752.777C1376.31 711.279 1300.96 686.781 1221.29 677.781C1141.61 668.782 1076.66 679.281 1027.29 707.78C977.931 736.278 959.744 773.776 975.332 819.773ZM1589.41 321.27L1665.62 277.272L2070.06 510.759L2157.53 460.262L2218.16 495.26L2130.69 545.757L2271.85 627.253L2204.3 666.251L2063.13 584.755L1738.37 772.245L1677.75 737.247L1589.41 321.27ZM2002.51 549.757L1682.94 365.267L1753.09 693.749L2002.51 549.757Z" fill="black"/>
<path d="M493.666 860.047L569.878 816.05L974.319 1049.54L1061.79 999.04L1122.41 1034.04L1034.94 1084.53L1176.11 1166.03L1108.56 1205.03L967.391 1123.53L642.625 1311.02L582.002 1276.02L493.666 860.047ZM906.768 1088.53L587.199 904.045L657.348 1232.53L906.768 1088.53ZM1327.29 985.759C1221.63 977.76 1125.5 948.261 1036.3 896.764C947.093 845.267 895.996 789.77 882.14 728.773C868.283 667.777 895.996 617.779 965.28 577.782C1035.43 537.284 1122.03 521.285 1226.82 528.784C1331.62 537.284 1428.61 567.282 1517.81 618.779C1607.02 670.277 1658.98 726.273 1672.84 786.27C1686.69 847.267 1658.98 897.264 1588.83 937.762C1519.55 977.76 1432.94 993.759 1327.29 985.759ZM975.672 725.773C991.261 771.771 1033.7 815.269 1105.58 856.766C1177.46 898.264 1252.81 922.763 1332.48 931.762C1412.16 940.762 1477.11 930.262 1526.47 901.764C1575.84 873.265 1594.03 835.767 1578.44 789.77C1562.85 743.772 1520.41 700.275 1448.53 658.777C1376.65 617.279 1301.3 592.781 1221.63 583.781C1141.95 574.782 1077 585.281 1027.63 613.78C978.27 642.278 960.084 679.776 975.672 725.773ZM1589.75 227.27L1665.96 183.272L2070.4 416.759L2157.87 366.262L2218.5 401.26L2131.03 451.757L2272.19 533.253L2204.64 572.251L2063.47 490.755L1738.71 678.245L1678.09 643.247L1589.75 227.27ZM2002.85 455.757L1683.28 271.267L1753.43 599.749L2002.85 455.757Z" fill="white"/>
<path d="M493.666 860.047L492.8 859.547L492.378 859.791L492.45 860.133L493.666 860.047ZM569.878 816.05L570.744 815.55L569.878 815.05L569.012 815.55L569.878 816.05ZM974.319 1049.54L973.453 1050.04L974.319 1050.54L975.185 1050.04L974.319 1049.54ZM1061.79 999.04L1062.66 998.54L1061.79 998.04L1060.92 998.54L1061.79 999.04ZM1122.41 1034.04L1123.28 1034.54L1124.14 1034.04L1123.28 1033.54L1122.41 1034.04ZM1034.94 1084.53L1034.08 1084.03L1033.21 1084.53L1034.08 1085.03L1034.94 1084.53ZM1176.11 1166.03L1176.97 1166.53L1177.84 1166.03L1176.97 1165.53L1176.11 1166.03ZM1108.56 1205.03L1107.69 1205.53L1108.56 1206.03L1109.42 1205.53L1108.56 1205.03ZM967.391 1123.53L968.257 1123.03L967.391 1122.53L966.525 1123.03L967.391 1123.53ZM642.625 1311.02L641.759 1311.52L642.625 1312.02L643.491 1311.52L642.625 1311.02ZM582.002 1276.02L580.787 1276.11L580.838 1276.35L581.136 1276.52L582.002 1276.02ZM906.768 1088.53L907.634 1089.03L908.5 1088.53L907.634 1088.03L906.768 1088.53ZM587.199 904.045L588.065 903.545L585.547 902.092L585.983 904.131L587.199 904.045ZM657.348 1232.53L656.132 1232.61L656.439 1234.05L658.214 1233.03L657.348 1232.53ZM494.532 860.547L570.744 816.55L569.012 815.55L492.8 859.547L494.532 860.547ZM569.012 816.55L973.453 1050.04L975.185 1049.04L570.744 815.55L569.012 816.55ZM975.185 1050.04L1062.66 999.54L1060.92 998.54L973.453 1049.04L975.185 1050.04ZM1060.92 999.54L1121.55 1034.54L1123.28 1033.54L1062.66 998.54L1060.92 999.54ZM1121.55 1033.54L1034.08 1084.03L1035.81 1085.03L1123.28 1034.54L1121.55 1033.54ZM1034.08 1085.03L1175.24 1166.53L1176.97 1165.53L1035.81 1084.03L1034.08 1085.03ZM1175.24 1165.53L1107.69 1204.53L1109.42 1205.53L1176.97 1166.53L1175.24 1165.53ZM1109.42 1204.53L968.257 1123.03L966.525 1124.03L1107.69 1205.53L1109.42 1204.53ZM966.525 1123.03L641.759 1310.52L643.491 1311.52L968.257 1124.03L966.525 1123.03ZM643.491 1310.52L582.868 1275.52L581.136 1276.52L641.759 1311.52L643.491 1310.52ZM583.218 1275.94L494.882 859.961L492.45 860.133L580.787 1276.11L583.218 1275.94ZM907.634 1088.03L588.065 903.545L586.332 904.545L905.902 1089.03L907.634 1088.03ZM585.983 904.131L656.132 1232.61L658.563 1232.44L588.414 903.958L585.983 904.131ZM658.214 1233.03L907.634 1089.03L905.902 1088.03L656.482 1232.03L658.214 1233.03ZM1327.29 985.759L1327.13 986.46L1327.29 985.759ZM882.14 728.773L880.925 728.865L882.14 728.773ZM1226.82 528.784L1226.99 528.084L1226.98 528.083L1226.97 528.083L1226.82 528.784ZM1672.84 786.27L1674.05 786.178L1674.05 786.177L1672.84 786.27ZM975.672 725.773L974.47 725.909L975.672 725.773ZM1578.44 789.77L1579.64 789.634L1578.44 789.77ZM1221.63 583.781L1221.86 583.087L1221.63 583.781ZM1327.44 985.058C1222.1 977.082 1126.21 947.673 1037.16 896.264L1035.43 897.264C1124.78 948.85 1221.15 978.437 1327.13 986.46L1327.44 985.058ZM1037.16 896.264C948.112 844.855 897.169 789.496 883.354 728.681L880.925 728.865C894.823 790.044 946.074 845.678 1035.43 897.264L1037.16 896.264ZM883.354 728.681C869.542 667.882 897.156 618.11 966.146 578.282L964.414 577.282C894.837 617.449 867.024 667.671 880.925 728.865L883.354 728.681ZM966.146 578.282C1036.01 537.951 1122.22 522.011 1226.67 529.486L1226.97 528.083C1121.84 520.559 1034.85 536.616 964.414 577.282L966.146 578.282ZM1226.65 529.485C1331.13 537.959 1427.9 567.869 1516.95 619.279L1518.68 618.279C1429.33 566.695 1332.1 536.609 1226.99 528.084L1226.65 529.485ZM1516.95 619.279C1606 670.69 1657.81 726.551 1671.62 786.364L1674.05 786.177C1660.15 725.996 1608.03 669.863 1518.68 618.279L1516.95 619.279ZM1671.62 786.362C1685.43 847.16 1657.82 896.932 1587.96 937.262L1589.7 938.262C1660.14 897.596 1687.95 847.374 1674.05 786.178L1671.62 786.362ZM1587.96 937.262C1518.97 977.09 1432.76 993.032 1327.44 985.058L1327.13 986.46C1433.12 994.486 1520.12 978.429 1589.7 938.262L1587.96 937.262ZM974.47 725.909C990.115 772.071 1032.7 815.69 1104.71 857.266L1106.44 856.266C1034.7 814.847 992.407 771.471 976.874 725.638L974.47 725.909ZM1104.71 857.266C1176.73 898.842 1252.29 923.424 1332.25 932.456L1332.72 931.068C1253.33 922.101 1178.19 897.686 1106.44 856.266L1104.71 857.266ZM1332.25 932.456C1412.26 941.494 1477.65 930.952 1527.34 902.264L1525.61 901.264C1476.57 929.573 1412.05 940.029 1332.72 931.068L1332.25 932.456ZM1527.34 902.264C1577.03 873.576 1595.29 835.829 1579.64 789.634L1577.24 789.906C1592.76 835.706 1574.64 872.955 1525.61 901.264L1527.34 902.264ZM1579.64 789.634C1563.99 743.472 1521.41 699.853 1449.4 658.277L1447.66 659.277C1519.41 700.697 1561.7 744.073 1577.24 789.906L1579.64 789.634ZM1449.4 658.277C1377.38 616.701 1301.82 592.119 1221.86 583.087L1221.39 584.475C1300.78 593.443 1375.92 617.858 1447.66 659.277L1449.4 658.277ZM1221.86 583.087C1141.85 574.049 1076.46 584.592 1026.77 613.28L1028.5 614.28C1077.54 585.971 1142.06 575.514 1221.39 584.475L1221.86 583.087ZM1026.77 613.28C977.076 641.968 958.815 679.715 974.47 725.909L976.874 725.638C961.352 679.837 979.465 642.589 1028.5 614.28L1026.77 613.28ZM1589.75 227.27L1588.88 226.77L1588.46 227.013L1588.53 227.356L1589.75 227.27ZM1665.96 183.272L1666.83 182.772L1665.96 182.272L1665.1 182.772L1665.96 183.272ZM2070.4 416.759L2069.54 417.259L2070.4 417.759L2071.27 417.259L2070.4 416.759ZM2157.87 366.262L2158.74 365.762L2157.87 365.262L2157.01 365.762L2157.87 366.262ZM2218.5 401.26L2219.36 401.76L2220.23 401.26L2219.36 400.76L2218.5 401.26ZM2131.03 451.757L2130.16 451.257L2129.29 451.757L2130.16 452.257L2131.03 451.757ZM2272.19 533.253L2273.06 533.753L2273.92 533.253L2273.06 532.753L2272.19 533.253ZM2204.64 572.251L2203.77 572.751L2204.64 573.251L2205.51 572.751L2204.64 572.251ZM2063.47 490.755L2064.34 490.255L2063.47 489.755L2062.61 490.255L2063.47 490.755ZM1738.71 678.245L1737.84 678.745L1738.71 679.245L1739.57 678.745L1738.71 678.245ZM1678.09 643.247L1676.87 643.333L1676.92 643.575L1677.22 643.747L1678.09 643.247ZM2002.85 455.757L2003.72 456.257L2004.58 455.757L2003.72 455.257L2002.85 455.757ZM1683.28 271.267L1684.15 270.767L1681.63 269.314L1682.07 271.354L1683.28 271.267ZM1753.43 599.749L1752.22 599.836L1752.52 601.274L1754.3 600.249L1753.43 599.749ZM1590.62 227.77L1666.83 183.772L1665.1 182.772L1588.88 226.77L1590.62 227.77ZM1665.1 183.772L2069.54 417.259L2071.27 416.259L1666.83 182.772L1665.1 183.772ZM2071.27 417.259L2158.74 366.762L2157.01 365.762L2069.54 416.259L2071.27 417.259ZM2157.01 366.762L2217.63 401.76L2219.36 400.76L2158.74 365.762L2157.01 366.762ZM2217.63 400.76L2130.16 451.257L2131.89 452.257L2219.36 401.76L2217.63 400.76ZM2130.16 452.257L2271.32 533.753L2273.06 532.753L2131.89 451.257L2130.16 452.257ZM2271.32 532.753L2203.77 571.751L2205.51 572.751L2273.06 533.753L2271.32 532.753ZM2205.51 571.751L2064.34 490.255L2062.61 491.255L2203.77 572.751L2205.51 571.751ZM2062.61 490.255L1737.84 677.745L1739.57 678.745L2064.34 491.255L2062.61 490.255ZM1739.57 677.745L1678.95 642.747L1677.22 643.747L1737.84 678.745L1739.57 677.745ZM1679.3 643.161L1590.97 227.184L1588.53 227.356L1676.87 643.333L1679.3 643.161ZM2003.72 455.257L1684.15 270.767L1682.42 271.767L2001.99 456.257L2003.72 455.257ZM1682.07 271.354L1752.22 599.836L1754.65 599.663L1684.5 271.181L1682.07 271.354ZM1754.3 600.249L2003.72 456.257L2001.99 455.257L1752.57 599.249L1754.3 600.249Z" fill="#D73232"/>
<path d="M1436.57 1040.58L1414.28 1068.95L1424.66 1074.96L1403.86 1099.03L1415.73 1105.91L1399.34 1125.67L1473.81 1168.82L1457.43 1130.08L1469.3 1136.96L1448.49 1088.77L1458.87 1094.79L1436.57 1040.58ZM1432.11 1144.66L1432.11 1182.5L1441.05 1187.68L1441.05 1149.83L1432.11 1144.66Z" fill="white" stroke="#D73232" stroke-width="2"/>
<path d="M724.143 736.65C723.569 734.369 723.251 732.105 723.251 729.931C723.251 720.367 729.237 715.911 737.09 718.87C737.766 709.282 744.963 705.587 753.748 710.678C762.472 715.734 769.618 727.61 770.397 737.935C779.193 743.602 786.185 756.078 786.185 766.415C786.185 768.589 785.868 770.484 785.294 772.1C789.979 778.248 793.095 786.09 793.096 792.981C793.096 803.686 785.602 808.029 776.366 802.676C772.337 800.341 768.646 796.551 765.755 792.131C764.392 792.98 762.762 793.366 760.978 793.343L760.979 826.765L748.452 819.505L748.451 786.986C746.267 784.865 744.278 782.37 742.597 779.649C739.89 780.255 736.61 779.637 733.073 777.587C723.836 772.234 716.342 759.206 716.342 748.501C716.342 741.61 719.458 737.38 724.143 736.65Z" stroke="#D73232" stroke-width="2"/>
<path d="M910.143 910.65C909.569 908.369 909.251 906.105 909.251 903.931C909.251 894.367 915.237 889.911 923.09 892.87C923.766 883.282 930.963 879.587 939.748 884.678C948.472 889.734 955.618 901.61 956.397 911.935C965.193 917.602 972.185 930.078 972.185 940.415C972.185 942.589 971.868 944.484 971.294 946.1C975.979 952.248 979.095 960.09 979.096 966.981C979.096 977.686 971.602 982.029 962.366 976.676C958.337 974.341 954.646 970.551 951.755 966.131C950.392 966.98 948.762 967.366 946.978 967.343L946.979 1000.76L934.452 993.505L934.451 960.986C932.267 958.865 930.278 956.37 928.597 953.649C925.89 954.255 922.61 953.637 919.073 951.587C909.836 946.234 902.342 933.206 902.342 922.501C902.342 915.61 905.458 911.38 910.143 910.65Z" fill="white" stroke="#D73232" stroke-width="2"/>
<path d="M422.143 1116.65C421.569 1114.37 421.251 1112.11 421.251 1109.93C421.251 1100.37 427.237 1095.91 435.09 1098.87C435.766 1089.28 442.963 1085.59 451.748 1090.68C460.472 1095.73 467.618 1107.61 468.397 1117.93C477.193 1123.6 484.185 1136.08 484.185 1146.41C484.185 1148.59 483.868 1150.48 483.294 1152.1C487.979 1158.25 491.095 1166.09 491.096 1172.98C491.096 1183.69 483.602 1188.03 474.366 1182.68C470.337 1180.34 466.646 1176.55 463.755 1172.13C462.392 1172.98 460.762 1173.37 458.978 1173.34L458.979 1206.76L446.452 1199.5L446.451 1166.99C444.267 1164.86 442.278 1162.37 440.597 1159.65C437.89 1160.25 434.61 1159.64 431.073 1157.59C421.836 1152.23 414.342 1139.21 414.342 1128.5C414.342 1121.61 417.458 1117.38 422.143 1116.65Z" stroke="#D73232" stroke-width="2"/>
<path d="M2013.58 592.578L2035.87 620.947L2025.49 626.963L2046.3 651.034L2034.43 657.913L2050.81 677.666L1976.34 720.823L1992.73 682.081L1980.86 688.96L2001.66 640.773L1991.28 646.789L2013.58 592.578ZM2018.04 696.655L2018.04 734.504L2009.11 739.683L2009.11 701.834L2018.04 696.655Z" fill="white" stroke="#D73232" stroke-width="2"/>
<path d="M1922.58 841.578L1944.87 869.947L1934.49 875.963L1955.3 900.034L1943.43 906.913L1959.81 926.666L1885.34 969.823L1901.73 931.081L1889.86 937.96L1910.66 889.773L1900.28 895.789L1922.58 841.578ZM1927.04 945.655L1927.04 983.504L1918.11 988.683L1918.11 950.834L1927.04 945.655Z" stroke="#D73232" stroke-width="2"/>
<path d="M1824.29 1090.65C1824.87 1088.37 1825.19 1086.11 1825.19 1083.93C1825.19 1074.37 1819.2 1069.91 1811.35 1072.87C1810.67 1063.28 1803.47 1059.59 1794.69 1064.68C1785.97 1069.73 1778.82 1081.61 1778.04 1091.93C1769.24 1097.6 1762.25 1110.08 1762.25 1120.41C1762.25 1122.59 1762.57 1124.48 1763.14 1126.1C1758.46 1132.25 1755.34 1140.09 1755.34 1146.98C1755.34 1157.69 1762.84 1162.03 1772.07 1156.68C1776.1 1154.34 1779.79 1150.55 1782.68 1146.13C1784.05 1146.98 1785.68 1147.37 1787.46 1147.34L1787.46 1180.76L1799.99 1173.5L1799.99 1140.99C1802.17 1138.86 1804.16 1136.37 1805.84 1133.65C1808.55 1134.25 1811.83 1133.64 1815.36 1131.59C1824.6 1126.23 1832.1 1113.21 1832.1 1102.5C1832.1 1095.61 1828.98 1091.38 1824.29 1090.65Z" stroke="#D73232" stroke-width="2"/>
<path d="M1384.29 365.65C1384.87 363.369 1385.19 361.105 1385.19 358.931C1385.19 349.367 1379.2 344.911 1371.35 347.87C1370.67 338.282 1363.47 334.587 1354.69 339.678C1345.97 344.734 1338.82 356.61 1338.04 366.935C1329.24 372.602 1322.25 385.078 1322.25 395.415C1322.25 397.589 1322.57 399.484 1323.14 401.1C1318.46 407.248 1315.34 415.09 1315.34 421.981C1315.34 432.686 1322.84 437.029 1332.07 431.676C1336.1 429.341 1339.79 425.551 1342.68 421.131C1344.05 421.98 1345.68 422.366 1347.46 422.343L1347.46 455.765L1359.99 448.505L1359.99 415.986C1362.17 413.865 1364.16 411.37 1365.84 408.649C1368.55 409.255 1371.83 408.637 1375.36 406.587C1384.6 401.234 1392.1 388.206 1392.1 377.501C1392.1 370.61 1388.98 366.38 1384.29 365.65Z" stroke="#D73232" stroke-width="2"/>
<path d="M1583.29 477.65C1583.87 475.369 1584.19 473.105 1584.19 470.931C1584.19 461.367 1578.2 456.911 1570.35 459.87C1569.67 450.282 1562.47 446.587 1553.69 451.678C1544.97 456.734 1537.82 468.61 1537.04 478.935C1528.24 484.602 1521.25 497.078 1521.25 507.415C1521.25 509.589 1521.57 511.484 1522.14 513.1C1517.46 519.248 1514.34 527.09 1514.34 533.981C1514.34 544.686 1521.84 549.029 1531.07 543.676C1535.1 541.341 1538.79 537.551 1541.68 533.131C1543.05 533.98 1544.68 534.366 1546.46 534.343L1546.46 567.765L1558.99 560.505L1558.99 527.986C1561.17 525.865 1563.16 523.37 1564.84 520.649C1567.55 521.255 1570.83 520.637 1574.36 518.587C1583.6 513.234 1591.1 500.206 1591.1 489.501C1591.1 482.61 1587.98 478.38 1583.29 477.65Z" stroke="#D73232" stroke-width="2"/>
<path d="M2166.29 781.65C2166.87 779.369 2167.19 777.105 2167.19 774.931C2167.19 765.367 2161.2 760.911 2153.35 763.87C2152.67 754.282 2145.47 750.587 2136.69 755.678C2127.97 760.734 2120.82 772.61 2120.04 782.935C2111.24 788.602 2104.25 801.078 2104.25 811.415C2104.25 813.589 2104.57 815.484 2105.14 817.1C2100.46 823.248 2097.34 831.09 2097.34 837.981C2097.34 848.686 2104.84 853.029 2114.07 847.676C2118.1 845.341 2121.79 841.551 2124.68 837.131C2126.05 837.98 2127.68 838.366 2129.46 838.343L2129.46 871.765L2141.99 864.505L2141.99 831.986C2144.17 829.865 2146.16 827.37 2147.84 824.649C2150.55 825.255 2153.83 824.637 2157.36 822.587C2166.6 817.234 2174.1 804.206 2174.1 793.501C2174.1 786.61 2170.98 782.38 2166.29 781.65Z" stroke="#D73232" stroke-width="2"/>
<path d="M2119.29 236.65C2119.87 234.369 2120.19 232.105 2120.19 229.931C2120.19 220.367 2114.2 215.911 2106.35 218.87C2105.67 209.282 2098.47 205.587 2089.69 210.678C2080.97 215.734 2073.82 227.61 2073.04 237.935C2064.24 243.602 2057.25 256.078 2057.25 266.415C2057.25 268.589 2057.57 270.484 2058.14 272.1C2053.46 278.248 2050.34 286.09 2050.34 292.981C2050.34 303.686 2057.84 308.029 2067.07 302.676C2071.1 300.341 2074.79 296.551 2077.68 292.131C2079.05 292.98 2080.68 293.366 2082.46 293.343L2082.46 326.765L2094.99 319.505L2094.99 286.986C2097.17 284.865 2099.16 282.37 2100.84 279.649C2103.55 280.255 2106.83 279.637 2110.36 277.587C2119.6 272.234 2127.1 259.206 2127.1 248.501C2127.1 241.61 2123.98 237.38 2119.29 236.65Z" stroke="#D73232" stroke-width="2"/>
<path fill-rule="evenodd" clip-rule="evenodd" d="M1297.14 -50.8162C1338.49 -70.9037 1377.21 -96.7161 1431.25 -96.7701C1485.35 -96.8242 1529.84 -74.4025 1565.83 -51.0847C1599.42 -29.3222 1622.74 -2.53466 1621.68 26.6075C1620.64 55.1884 1595.07 80.7532 1560.29 101.105C1525.24 121.621 1480.04 131.977 1431.25 138.06C1363.42 146.518 1286.36 166.396 1231.11 142.151C1173.93 117.061 1163.36 67.2829 1177.27 26.6076C1189.35 -8.69321 1249.45 -27.6486 1297.14 -50.8162Z" stroke="#D73232" stroke-width="2"/>
<path d="M1771.74 1277.97L1632.51 1197.59L1985.06 994.055L2124.29 1074.43L1771.74 1277.97Z" stroke="#D73232" stroke-width="2"/>
<path d="M1456.34 1353.13L1679.23 1224.46M1521.25 1354.62L1713.52 1244.26" stroke="url(#paint0_linear_396_1230)" stroke-width="2"/>
<path d="M1718.98 1024.3L1663.48 1086.8L1770.48 1148.8L1718.98 1024.3Z" fill="#F2F2F2" stroke="#D73232" stroke-width="2"/>
<path d="M1714.48 1069.3L1686.48 1100.14L1738.48 1130.79L1714.48 1069.3Z" fill="#CFCFCF" stroke="#D73232" stroke-width="2"/>
<path d="M1712.54 1082.38L1692.48 1104.3L1730.98 1126.97L1712.54 1082.38Z" fill="white" stroke="#D73232" stroke-width="2"/>
<path d="M2037.49 839L1718.5 1024.16L1771.98 1150.31L2090.98 963.805L2037.49 839Z" fill="white" stroke="#D73232" stroke-width="2"/>
<path d="M1785.98 985.305L1746.48 1007.96L1799.48 1133.8L1839.47 1110.11L1785.98 985.305Z" fill="white" stroke="#D73232" stroke-width="2"/>
<path d="M1861.98 940.805L1822.48 963.46L1875.48 1089.3L1915.47 1065.61L1861.98 940.805Z" fill="white" stroke="#D73232" stroke-width="2"/>
<path d="M1938.98 896.805L1899.48 919.46L1952.48 1045.3L1992.47 1021.61L1938.98 896.805Z" fill="white" stroke="#D73232" stroke-width="2"/>
<path d="M2013.98 852.805L1974.48 875.46L2027.48 1001.31L2067.47 977.61L2013.98 852.805Z" fill="white" stroke="#D73232" stroke-width="2"/>
<path d="M1770.53 1260.14L1770.52 1149.13L1663.4 1087.28L1663.4 1142.78L1663.41 1198.29L1770.53 1260.14Z" fill="#F2F2F2" stroke="#D73232" stroke-width="2"/>
<path d="M1744.11 1244.76L1744.1 1148.7L1678.48 1110.8L1678.48 1158.84L1678.48 1206.87L1744.11 1244.76Z" fill="white" stroke="#D73232" stroke-width="2"/>
<rect width="47.054" height="83.5718" transform="matrix(0.86601 0.500028 3.18907e-05 1 1690.48 1129.4)" fill="white" stroke="#D73232" stroke-width="2"/>
<rect width="38.1066" height="79.1708" transform="matrix(0.86601 0.500028 3.18907e-05 1 1694.48 1136.8)" fill="white" stroke="#D73232" stroke-width="2"/>
<path d="M1699.98 1178.8V1185.3" stroke="#D73232" stroke-width="2"/>
<path d="M2090.02 964.61L1770.98 1149.8L1770.48 1260.3L2090.02 1075.8L2090.02 964.61Z" fill="white" stroke="#D73232" stroke-width="2"/>
<path d="M1815.48 1234.3V1148.8L2056.48 1008.8L2056.98 1095.3L2000.98 1127.27L1956.98 1152.66L1932.48 1166.8L1864.98 1205.74L1815.48 1234.3Z" fill="white" stroke="#D73232" stroke-width="2"/>
<path d="M1820.98 1231.3V1151.8L1870.48 1122.97L1937.98 1083.64L1962.48 1069.37L2006.48 1043.73L2006.73 1043.59L2050.98 1017.8L2051.48 1098.3L2006.48 1124.27L1962.48 1149.66L1937.98 1163.8L1870.48 1202.74L1820.98 1231.3Z" fill="white"/>
<path d="M1870.48 1122.97L1820.98 1151.8V1231.3L1870.48 1202.74M1870.48 1122.97V1202.74M1870.48 1122.97L1937.98 1083.64M1870.48 1202.74L1937.98 1163.8M1937.98 1083.64V1163.8M1937.98 1083.64L1962.48 1069.37M1937.98 1163.8L1962.48 1149.66M1962.48 1069.37V1109.51V1149.66M1962.48 1069.37L2006.73 1043.59L2050.98 1017.8L2051.48 1098.3L2006.48 1124.27M1962.48 1149.66L2006.48 1124.27M2006.48 1043.73V1124.27" stroke="#D73232" stroke-width="2"/>
<path d="M1791.48 1220.8V1179.8L1798.48 1175.8V1216.8L1791.48 1220.8Z" stroke="#D73232" stroke-width="2"/>
<path d="M1757.98 1219.8V1178.8L1754.48 1176.8V1217.8L1757.98 1219.8Z" fill="white" stroke="#D73232" stroke-width="2"/>
<path d="M1672.98 1175.8V1134.8L1669.48 1132.8V1173.8L1672.98 1175.8Z" fill="white" stroke="#D73232" stroke-width="2"/>
<path d="M2069.48 1056.8V1015.8L2076.48 1011.8V1052.8L2069.48 1056.8Z" stroke="#D73232" stroke-width="2"/>
<path d="M1864.48 1166.8V1173.3" stroke="#D73232" stroke-width="2"/>
<path d="M1876.48 1159.8V1166.3" stroke="#D73232" stroke-width="2"/>
<path d="M2000.48 1087.8V1094.3" stroke="#D73232" stroke-width="2"/>
<path d="M2011.48 1080.8V1087.3" stroke="#D73232" stroke-width="2"/>
<circle cx="3.50511" cy="3.50511" r="3.50511" transform="matrix(-0.866041 -0.499972 -0.866041 0.499972 1655.91 1226.31)" stroke="#D73232" stroke-width="2"/>
<circle cx="3.50511" cy="3.50511" r="3.50511" transform="matrix(-0.866041 -0.499972 -0.866041 0.499972 1713.91 1261.31)" stroke="#D73232" stroke-width="2"/>
<circle cx="3.50511" cy="3.50511" r="3.50511" transform="matrix(-0.866041 -0.499972 -0.866041 0.499972 1621.62 1246.31)" stroke="#D73232" stroke-width="2"/>
<circle cx="3.50511" cy="3.50511" r="3.50511" transform="matrix(-0.866041 -0.499972 -0.866041 0.499972 1679.62 1281.31)" stroke="#D73232" stroke-width="2"/>
<circle cx="3.50511" cy="3.50511" r="3.50511" transform="matrix(-0.866041 -0.499972 -0.866041 0.499972 1586.62 1266.31)" stroke="#D73232" stroke-width="2"/>
<circle cx="3.50511" cy="3.50511" r="3.50511" transform="matrix(-0.866041 -0.499972 -0.866041 0.499972 1644.62 1301.31)" stroke="#D73232" stroke-width="2"/>
<circle cx="3.50511" cy="3.50511" r="3.50511" transform="matrix(-0.866041 -0.499972 -0.866041 0.499972 1547.62 1288.99)" stroke="#D73232" stroke-width="2"/>
<circle cx="3.50511" cy="3.50511" r="3.50511" transform="matrix(-0.866041 -0.499972 -0.866041 0.499972 1605.62 1323.99)" stroke="#D73232" stroke-width="2"/>
<circle cx="3.50511" cy="3.50511" r="3.50511" transform="matrix(-0.866041 -0.499972 -0.866041 0.499972 1508.62 1310.99)" stroke="#D73232" stroke-width="2"/>
<circle cx="3.50511" cy="3.50511" r="3.50511" transform="matrix(-0.866041 -0.499972 -0.866041 0.499972 1566.62 1345.99)" stroke="#D73232" stroke-width="2"/>
<circle cx="3.50511" cy="3.50511" r="3.50511" transform="matrix(-0.866041 -0.499972 -0.866041 0.499972 1471.62 1332.31)" stroke="#D73232" stroke-width="2"/>
<circle cx="3.50511" cy="3.50511" r="3.50511" transform="matrix(-0.866041 -0.499972 -0.866041 0.499972 1529.62 1367.31)" stroke="#D73232" stroke-width="2"/>
<defs>
<linearGradient id="paint0_linear_396_1230" x1="1567.78" y1="1288.79" x2="1489.23" y2="1363.45" gradientUnits="userSpaceOnUse">
<stop stop-color="#F50000"/>
<stop offset="1" stop-color="#F50000" stop-opacity="0"/>
</linearGradient>
</defs>
</svg>
