<svg width="391" height="597" viewBox="0 0 391 597" fill="none" xmlns="http://www.w3.org/2000/svg">
<path d="M118.279 84.4239L365.002 -57.6194L365 144L117.88 285.808L118.279 84.4239Z" fill="#BB3434"/>
<path d="M118.279 84.4239L55.0137 47.7739L302.134 -94.0348L365.002 -57.6194L118.279 84.4239Z" fill="#CD3636"/>
<path d="M118.279 84.4239L55.0137 47.7739L55.0156 249.393L117.88 285.808L118.279 84.4239Z" fill="#D73232"/>
<path d="M55.8797 49.691L117.413 85.3372L117.019 283.894L55.8816 248.479L55.8797 49.691ZM118.748 284.31L119.143 84.9265L364.136 -56.1209L364.134 143.496L118.748 284.31ZM118.639 83.2169L57.1083 47.5719L301.774 -92.8281L362.91 -57.4154L118.639 83.2169Z" stroke="white" stroke-width="2"/>
<path d="M184.63 184.352L240.352 152.308L240.35 353.928L184.23 385.736L184.63 184.352Z" fill="#BB3434"/>
<path d="M184.63 184.352L0.0170593 78.7773L56.1372 46.9686L240.352 152.308L184.63 184.352Z" fill="#CD3636"/>
<path d="M184.63 184.352L0.0170593 78.7773L0.0189934 280.396L184.23 385.736L184.63 184.352Z" fill="#D73232"/>
<path d="M0.883092 80.6834L183.763 185.267L183.369 383.833L0.884999 279.481L0.883092 80.6834ZM185.098 384.244L185.494 184.855L239.486 153.806L239.484 353.418L185.098 384.244ZM184.988 183.146L2.13437 78.5772L55.7764 48.1731L238.25 152.517L184.988 183.146Z" stroke="white" stroke-width="2"/>
<path d="M366.63 122.352L422.352 90.3087L422.351 457.928L366.23 489.736L366.63 122.352Z" fill="#BB3434"/>
<path d="M366.63 122.352L182.017 16.7775L238.137 -15.0312L422.352 90.3087L366.63 122.352Z" fill="#CD3636"/>
<path d="M366.63 122.352L182.017 16.7775L182.019 384.397L366.23 489.736L366.63 122.352Z" fill="#D73232"/>
<path d="M182.883 18.6837L365.764 123.267L365.367 487.832L182.885 383.481L182.883 18.6837ZM367.098 488.245L367.495 122.855L421.486 91.8067L421.485 457.419L367.098 488.245ZM366.988 121.146L184.135 16.5775L237.777 -13.8266L420.25 90.5175L366.988 121.146Z" stroke="white" stroke-width="2"/>
</svg>
