<svg width="355" height="505" viewBox="0 0 355 505" fill="none" xmlns="http://www.w3.org/2000/svg">
<path d="M29.6157 180.825L453.218 -64.7916L453.216 -30.1726L29.2161 215.209L29.6157 180.825Z" fill="#EAEAEA"/>
<path d="M29.6157 180.825L0.00479662 164.473L424.003 -81.1315L453.218 -64.7916L29.6157 180.825Z" fill="#FCFCFC"/>
<path d="M29.6157 180.825L0.00479662 164.473L0.00483058 198.869L29.2161 215.209L29.6157 180.825Z" fill="white"/>
<path d="M0.870808 166.35L28.7447 181.743L28.3776 213.337L0.87084 197.95L0.870808 166.35ZM2.12495 164.245L423.649 -79.9264L451.108 -64.5684L29.9681 179.62L2.12495 164.245ZM30.4701 181.329L452.352 -63.2895L452.35 -30.6715L30.0939 213.701L30.4701 181.329Z" stroke="#F50000" stroke-width="2"/>
<path d="M29.613 56.8254L453.215 -188.791L453.214 -154.172L29.2135 91.2095L29.613 56.8254Z" fill="#EAEAEA"/>
<path d="M29.613 56.8254L0.00217211 40.4735L424 -205.131L453.215 -188.791L29.613 56.8254Z" fill="#FCFCFC"/>
<path d="M29.613 56.8254L0.00217211 40.4735L0.00220606 74.8698L29.2135 91.2095L29.613 56.8254Z" fill="white"/>
<path d="M0.868184 42.3507L28.7421 57.7434L28.375 89.3372L0.868215 73.951L0.868184 42.3507ZM2.12233 40.2454L423.646 -203.926L451.106 -188.568L29.9655 55.6211L2.12233 40.2454ZM30.4675 57.3299L452.349 -187.289L452.348 -154.671L30.0913 89.7015L30.4675 57.3299Z" stroke="#F50000" stroke-width="2"/>
<path d="M29.6265 -68.539L57.349 -84.5825L57.3471 283.037L29.2269 298.845L29.6265 -68.539Z" fill="#EAEAEA"/>
<path d="M29.6265 -68.539L0.015625 -84.8909L28.1339 -100.922L57.349 -84.5825L29.6265 -68.539Z" fill="#FCFCFC"/>
<path d="M29.6265 -68.539L0.015625 -84.8909L0.015659 282.505L29.2269 298.845L29.6265 -68.539Z" fill="white"/>
<path d="M0.881635 -83.0138L28.76 -67.6186L28.3635 296.959L0.881668 281.587L0.881635 -83.0138ZM30.094 297.358L30.4914 -68.0396L56.4829 -83.0813L56.4811 282.523L30.094 297.358ZM29.9793 -69.7432L2.15302 -85.1095L27.7769 -99.7188L55.2372 -84.3603L29.9793 -69.7432Z" stroke="#F50000" stroke-width="2"/>
<path d="M190.626 101.674L218.349 85.6304L218.347 120.249L190.227 136.058L190.626 101.674Z" fill="#EAEAEA"/>
<path d="M190.626 101.674L29.0156 24.3219L57.1339 8.2905L218.349 85.6304L190.626 101.674Z" fill="#FCFCFC"/>
<path d="M190.626 101.674L29.0156 24.3219L29.0157 58.7182L190.227 136.058L190.626 101.674Z" fill="white"/>
<path d="M29.8816 26.0915L189.755 102.612L189.387 134.299L29.8817 57.7779L29.8816 26.0915ZM190.962 100.479L31.2612 24.0416L56.795 9.48371L216.123 85.9184L190.962 100.479ZM191.481 102.179L217.483 87.1316L217.481 119.736L191.105 134.564L191.481 102.179Z" stroke="#F50000" stroke-width="2"/>
<path d="M190.619 266.886L218.341 250.843L218.339 285.462L190.219 301.271L190.619 266.886Z" fill="#EAEAEA"/>
<path d="M190.619 266.886L29.0078 189.535L57.1261 173.503L218.341 250.843L190.619 266.886Z" fill="#FCFCFC"/>
<path d="M190.619 266.886L29.0078 189.535L29.0078 223.931L190.219 301.271L190.619 266.886Z" fill="white"/>
<path d="M29.8738 191.304L189.747 267.825L189.379 299.512L29.8739 222.991L29.8738 191.304ZM190.955 265.692L31.2534 189.254L56.7872 174.696L216.115 251.131L190.955 265.692ZM191.473 267.392L217.475 252.344L217.473 284.949L191.097 299.777L191.473 267.392Z" stroke="#F50000" stroke-width="2"/>
<path d="M195.627 27.4611L223.35 11.4177L223.348 379.037L195.228 394.845L195.627 27.4611Z" fill="#EAEAEA"/>
<path d="M195.627 27.4611L166.017 11.1092L194.135 -4.92217L223.35 11.4177L195.627 27.4611Z" fill="#FCFCFC"/>
<path d="M195.627 27.4611L166.017 11.1092L166.017 378.506L195.228 394.845L195.627 27.4611Z" fill="white"/>
<path d="M166.883 12.9864L194.761 28.3816L194.364 392.959L166.883 377.587L166.883 12.9864ZM196.095 393.358L196.492 27.9605L222.484 12.9188L222.482 378.523L196.095 393.358ZM195.98 26.257L168.154 10.8906L193.778 -3.71862L221.238 11.6398L195.98 26.257Z" stroke="#F50000" stroke-width="2"/>
<path d="M356.627 184.461L384.349 168.418L384.347 203.037L356.227 218.845L356.627 184.461Z" fill="#EAEAEA"/>
<path d="M356.627 184.461L195.016 107.109L223.134 91.0779L384.349 168.418L356.627 184.461Z" fill="#FCFCFC"/>
<path d="M356.627 184.461L195.016 107.109L195.016 141.506L356.227 218.845L356.627 184.461Z" fill="white"/>
<path d="M195.882 108.879L355.755 185.399L355.387 217.087L195.882 140.565L195.882 108.879ZM356.962 183.267L197.261 106.829L222.795 92.2711L382.123 168.706L356.962 183.267ZM357.481 184.967L383.483 169.919L383.481 202.524L357.105 217.352L357.481 184.967Z" stroke="#F50000" stroke-width="2"/>
<path d="M356.619 349.674L384.341 333.63L384.339 368.249L356.219 384.058L356.619 349.674Z" fill="#EAEAEA"/>
<path d="M356.619 349.674L195.008 272.322L223.126 256.291L384.341 333.63L356.619 349.674Z" fill="#FCFCFC"/>
<path d="M356.619 349.674L195.008 272.322L195.008 306.718L356.219 384.058L356.619 349.674Z" fill="white"/>
<path d="M195.874 274.092L355.748 350.612L355.379 382.299L195.874 305.778L195.874 274.092ZM356.955 348.479L197.254 272.042L222.787 257.484L382.116 333.918L356.955 348.479ZM357.473 350.179L383.475 335.132L383.473 367.736L357.097 382.564L357.473 350.179Z" stroke="#F50000" stroke-width="2"/>
<path d="M356.632 119.351L384.355 103.308L384.353 470.927L356.233 486.735L356.632 119.351Z" fill="#EAEAEA"/>
<path d="M356.632 119.351L327.021 102.999L355.14 86.9678L384.355 103.308L356.632 119.351Z" fill="#FCFCFC"/>
<path d="M356.632 119.351L327.021 102.999L327.021 470.395L356.233 486.735L356.632 119.351Z" fill="white"/>
<path d="M327.887 104.876L355.766 120.271L355.369 484.849L327.887 469.477L327.887 104.876ZM357.1 485.248L357.497 119.85L383.489 104.809L383.487 470.413L357.1 485.248ZM356.985 118.147L329.159 102.781L354.783 88.1713L382.243 103.53L356.985 118.147Z" stroke="#F50000" stroke-width="2"/>
</svg>
