<svg width="341" height="423" viewBox="0 0 341 423" fill="none" xmlns="http://www.w3.org/2000/svg">
<path d="M0.869997 156.069L60.7478 190.642L60.3679 245.209L0.871836 210.86L0.869997 156.069ZM61.974 188.522L2.09456 153.948L99.7653 97.5535L159.257 131.898L61.974 188.522ZM62.4758 190.23L160.473 133.19L160.471 188.805L62.0902 245.61L62.4758 190.23Z" fill="white" stroke="#F50000" stroke-width="2"/>
<path d="M61.6167 133.73L161.339 75.6863L161.337 133.305L61.2172 191.114L61.6167 133.73Z" fill="#EAEAEA"/>
<path d="M61.6167 133.73L0.00390625 98.1551L100.124 40.3464L161.339 75.6863L61.6167 133.73Z" fill="#FCFCFC"/>
<path d="M61.6167 133.73L0.00390625 98.1551L0.00584064 155.774L61.2172 191.114L61.6167 133.73Z" fill="white"/>
<path d="M0.869997 100.069L60.7478 134.642L60.3679 189.209L0.871836 154.86L0.869997 100.069ZM61.974 132.522L2.09456 97.9479L99.7653 41.5535L159.257 75.8983L61.974 132.522ZM62.4758 134.23L160.473 77.1903L160.471 132.805L62.0902 189.61L62.4758 134.23Z" stroke="#F50000" stroke-width="2"/>
<path d="M122.617 224.73L222.339 166.686L222.337 224.305L122.217 282.114L122.617 224.73Z" fill="white"/>
<path d="M122.617 224.73L61.0039 189.155L161.124 131.346L222.339 166.686L122.617 224.73Z" fill="#FCFCFC"/>
<path d="M122.617 224.73L61.0039 189.155L61.0058 246.774L122.217 282.114L122.617 224.73Z" fill="white"/>
<path d="M61.87 191.069L121.748 225.642L121.368 280.209L61.8718 245.86L61.87 191.069ZM122.974 223.522L63.0946 188.948L160.765 132.554L220.257 166.898L122.974 223.522ZM123.476 225.23L221.473 168.19L221.471 223.805L123.09 280.61L123.476 225.23Z" stroke="#F50000" stroke-width="2"/>
<path d="M122.87 226.601L182.748 261.174L182.368 315.741L122.872 281.391L122.87 226.601ZM183.974 259.053L124.095 224.479L221.766 168.085L281.257 202.43L183.974 259.053ZM184.476 260.761L282.473 203.722L282.472 259.337L184.091 316.141L184.476 260.761Z" fill="white" stroke="#F50000" stroke-width="2"/>
<path d="M122.873 171.069L182.751 205.642L182.371 260.209L122.875 225.86L122.873 171.069ZM183.977 203.522L124.098 168.948L221.769 112.554L281.26 146.898L183.977 203.522ZM184.479 205.23L282.476 148.19L282.475 203.805L184.093 260.61L184.479 205.23Z" fill="white" stroke="#F50000" stroke-width="2"/>
<path d="M183.62 149.73L283.342 91.6863L283.341 149.305L183.22 207.114L183.62 149.73Z" fill="white"/>
<path d="M183.62 149.73L122.007 114.155L222.127 56.3464L283.342 91.6863L183.62 149.73Z" fill="#FCFCFC"/>
<path d="M183.62 149.73L122.007 114.155L122.009 171.774L183.22 207.114L183.62 149.73Z" fill="white"/>
<path d="M122.873 116.069L182.751 150.642L182.371 205.209L122.875 170.86L122.873 116.069ZM183.977 148.522L124.098 113.948L221.769 57.5535L281.26 91.8983L183.977 148.522ZM184.479 150.23L282.476 93.1903L282.475 148.805L184.093 205.61L184.479 150.23Z" stroke="#F50000" stroke-width="2"/>
<path d="M183.87 261.601L243.748 296.174L243.368 350.741L183.872 316.391L183.87 261.601ZM244.974 294.053L185.095 259.479L282.766 203.085L342.257 237.43L244.974 294.053ZM245.476 295.761L343.473 238.722L343.472 294.337L245.091 351.141L245.476 295.761Z" fill="white" stroke="#F50000" stroke-width="2"/>
<path d="M183.873 206.069L243.751 240.642L243.371 295.209L183.875 260.86L183.873 206.069ZM244.977 238.522L185.098 203.948L282.769 147.554L342.26 181.898L244.977 238.522ZM245.479 240.23L343.476 183.19L343.475 238.805L245.093 295.61L245.479 240.23Z" fill="white" stroke="#F50000" stroke-width="2"/>
<path d="M183.873 151.069L243.751 185.642L243.371 240.209L183.875 205.86L183.873 151.069ZM244.977 183.522L185.098 148.948L282.769 92.5535L342.26 126.898L244.977 183.522ZM245.479 185.23L343.476 128.19L343.475 183.805L245.093 240.61L245.479 185.23Z" fill="white" stroke="#F50000" stroke-width="2"/>
<path d="M244.617 128.73L344.339 70.6863L344.338 128.305L244.218 186.114L244.617 128.73Z" fill="#EAEAEA"/>
<path d="M244.617 128.73L183.004 93.1551L283.124 35.3464L344.339 70.6863L244.617 128.73Z" fill="#FCFCFC"/>
<path d="M244.617 128.73L183.004 93.1551L183.006 150.774L244.218 186.114L244.617 128.73Z" fill="white"/>
<path d="M183.87 95.0694L243.748 129.642L243.368 184.209L183.872 149.86L183.87 95.0694ZM244.974 127.522L185.095 92.9479L282.766 36.5535L342.257 70.8983L244.974 127.522ZM245.476 129.23L343.473 72.1903L343.472 127.805L245.091 184.61L245.476 129.23Z" stroke="#F50000" stroke-width="2"/>
<path d="M305.614 330.261L405.336 272.218L405.335 329.837L305.215 387.645L305.614 330.261Z" fill="#EAEAEA"/>
<path d="M305.614 330.261L244.001 294.687L344.121 236.878L405.336 272.218L305.614 330.261Z" fill="white"/>
<path d="M305.614 330.261L244.001 294.687L244.003 352.306L305.215 387.645L305.614 330.261Z" fill="white"/>
<path d="M244.867 296.601L304.745 331.174L304.365 385.741L244.869 351.391L244.867 296.601ZM305.971 329.053L246.092 294.479L343.763 238.085L403.254 272.43L305.971 329.053ZM306.473 330.761L404.47 273.722L404.469 329.337L306.088 386.141L306.473 330.761Z" stroke="#F50000" stroke-width="2"/>
<path d="M305.617 274.73L405.339 216.686L405.338 274.305L305.218 332.114L305.617 274.73Z" fill="#EAEAEA"/>
<path d="M305.617 274.73L244.004 239.155L344.124 181.346L405.339 216.686L305.617 274.73Z" fill="white"/>
<path d="M305.617 274.73L244.004 239.155L244.006 296.774L305.218 332.114L305.617 274.73Z" fill="white"/>
<path d="M244.87 241.069L304.748 275.642L304.368 330.209L244.872 295.86L244.87 241.069ZM305.974 273.522L246.095 238.948L343.766 182.554L403.257 216.898L305.974 273.522ZM306.476 275.23L404.473 218.19L404.472 273.805L306.091 330.61L306.476 275.23Z" stroke="#F50000" stroke-width="2"/>
<path d="M305.617 219.73L405.339 161.686L405.338 219.305L305.218 277.114L305.617 219.73Z" fill="#EAEAEA"/>
<path d="M305.617 219.73L244.004 184.155L344.124 126.346L405.339 161.686L305.617 219.73Z" fill="#FCFCFC"/>
<path d="M305.617 219.73L244.004 184.155L244.006 241.774L305.218 277.114L305.617 219.73Z" fill="white"/>
<path d="M244.87 186.069L304.748 220.642L304.368 275.209L244.872 240.86L244.87 186.069ZM305.974 218.522L246.095 183.948L343.766 127.554L403.257 161.898L305.974 218.522ZM306.476 220.23L404.473 163.19L404.472 218.805L306.091 275.61L306.476 220.23Z" stroke="#F50000" stroke-width="2"/>
</svg>
