<svg width="380" height="432" viewBox="0 0 380 432" fill="none" xmlns="http://www.w3.org/2000/svg">
<path d="M114.868 296.303L143.812 313.016L143.646 327.328L114.869 310.714L114.868 296.303ZM145.04 310.896L116.092 294.182L163.5 266.809L192.26 283.412L145.04 310.896ZM145.538 312.607L193.476 284.704L193.475 299.939L145.362 327.72L145.538 312.607Z" fill="white" stroke="#F50000" stroke-width="2"/>
<path d="M114.868 280.304L143.812 297.016L143.646 311.329L114.869 294.714L114.868 280.304ZM145.04 294.896L116.092 278.182L163.5 250.809L192.26 267.412L145.04 294.896ZM145.538 296.607L193.476 268.704L193.475 283.94L145.362 311.72L145.538 296.607Z" fill="white" stroke="#F50000" stroke-width="2"/>
<path d="M114.868 264.304L143.812 281.016L143.646 295.329L114.869 278.715L114.868 264.304ZM145.04 278.897L116.092 262.182L163.5 234.809L192.26 251.413L145.04 278.897ZM145.538 280.607L193.476 252.705L193.475 267.94L145.362 295.72L145.538 280.607Z" fill="white" stroke="#F50000" stroke-width="2"/>
<path d="M114.868 249.304L143.812 266.016L143.646 280.329L114.869 263.714L114.868 249.304ZM145.04 263.896L116.092 247.182L163.5 219.809L192.26 236.413L145.04 263.896ZM145.538 265.607L193.476 237.705L193.475 252.94L145.362 280.72L145.538 265.607Z" fill="white" stroke="#F50000" stroke-width="2"/>
<path d="M114.868 234.304L143.812 251.016L143.646 265.329L114.869 248.714L114.868 234.304ZM145.04 248.896L116.092 232.182L163.5 204.809L192.26 221.413L145.04 248.896ZM145.538 250.607L193.476 222.705L193.475 237.94L145.362 265.72L145.538 250.607Z" fill="white" stroke="#F50000" stroke-width="2"/>
<path d="M114.868 218.304L143.812 235.016L143.646 249.329L114.869 232.714L114.868 218.304ZM145.04 232.896L116.092 216.182L163.5 188.809L192.26 205.413L145.04 232.896ZM145.538 234.607L193.476 206.705L193.475 221.94L145.362 249.72L145.538 234.607Z" fill="white" stroke="#F50000" stroke-width="2"/>
<path d="M114.868 202.304L143.812 219.016L143.646 233.329L114.869 216.714L114.868 202.304ZM145.04 216.896L116.092 200.182L163.5 172.809L192.26 189.413L145.04 216.896ZM145.538 218.607L193.476 190.705L193.475 205.94L145.362 233.72L145.538 218.607Z" fill="white" stroke="#F50000" stroke-width="2"/>
<path d="M114.868 186.304L143.812 203.016L143.646 217.329L114.869 200.714L114.868 186.304ZM145.04 200.896L116.092 184.182L163.5 156.809L192.26 173.412L145.04 200.896ZM145.538 202.607L193.476 174.704L193.475 189.94L145.362 217.72L145.538 202.607Z" fill="white" stroke="#F50000" stroke-width="2"/>
<path d="M114.868 170.303L143.812 187.016L143.646 201.328L114.869 184.714L114.868 170.303ZM145.04 184.896L116.092 168.182L163.5 140.809L192.26 157.412L145.04 184.896ZM145.538 186.607L193.476 158.704L193.475 173.94L145.362 201.72L145.538 186.607Z" fill="white" stroke="#F50000" stroke-width="2"/>
<path d="M114.868 154.303L143.812 171.015L143.646 185.328L114.869 168.714L114.868 154.303ZM145.04 168.896L116.092 152.182L163.5 124.809L192.26 141.412L145.04 168.896ZM145.538 170.607L193.476 142.704L193.475 157.939L145.362 185.72L145.538 170.607Z" fill="white" stroke="#F50000" stroke-width="2"/>
<path d="M144.683 154.104L194.342 125.2L194.341 142.439L144.484 171.226L144.683 154.104Z" fill="#EAEAEA"/>
<path d="M144.683 154.104L114.002 136.389L163.859 107.602L194.342 125.2L144.683 154.104Z" fill="white"/>
<path d="M144.683 154.104L114.002 136.389L114.003 153.628L144.484 171.226L144.683 154.104Z" fill="white"/>
<path d="M114.868 138.303L143.812 155.015L143.646 169.328L114.869 152.714L114.868 138.303ZM145.04 152.896L116.092 136.182L163.5 108.809L192.26 125.412L145.04 152.896ZM145.538 154.607L193.476 126.704L193.475 141.939L145.362 169.72L145.538 154.607Z" stroke="#F50000" stroke-width="2"/>
<path d="M144.683 138.104L194.342 109.2L194.341 126.439L144.484 155.226L144.683 138.104Z" fill="#EAEAEA"/>
<path d="M144.683 138.104L114.002 120.389L163.859 91.6016L194.342 109.2L144.683 138.104Z" fill="white"/>
<path d="M144.683 138.104L114.002 120.389L114.003 137.628L144.484 155.226L144.683 138.104Z" fill="white"/>
<path d="M114.868 122.303L143.812 139.015L143.646 153.328L114.869 136.714L114.868 122.303ZM145.04 136.896L116.092 120.182L163.5 92.8087L192.26 109.412L145.04 136.896ZM145.538 138.607L193.476 110.704L193.475 125.939L145.362 153.719L145.538 138.607Z" stroke="#F50000" stroke-width="2"/>
<path d="M144.683 122.104L194.342 93.1998L194.341 110.439L144.484 139.226L144.683 122.104Z" fill="#EAEAEA"/>
<path d="M144.683 122.104L114.002 104.389L163.859 75.6015L194.342 93.1998L144.683 122.104Z" fill="white"/>
<path d="M144.683 122.104L114.002 104.389L114.003 121.628L144.484 139.226L144.683 122.104Z" fill="white"/>
<path d="M114.868 106.303L143.812 123.015L143.646 137.328L114.869 120.714L114.868 106.303ZM145.04 120.896L116.092 104.181L163.5 76.8086L192.26 93.4118L145.04 120.896ZM145.538 122.606L193.476 94.7039L193.475 109.939L145.362 137.719L145.538 122.606Z" stroke="#F50000" stroke-width="2"/>
<path d="M30.6831 254.104L80.342 225.2L80.3411 242.439L30.4842 271.226L30.6831 254.104Z" fill="#EAEAEA"/>
<path d="M30.6831 254.104L0.00167847 236.389L49.8587 207.602L80.342 225.2L30.6831 254.104Z" fill="white"/>
<path d="M30.6831 254.104L0.00167847 236.389L0.00264174 253.628L30.4842 271.226L30.6831 254.104Z" fill="white"/>
<path d="M0.867823 238.303L29.8123 255.016L29.6459 269.328L0.868628 252.714L0.867823 238.303ZM31.0404 252.896L2.09233 236.182L49.5 208.809L78.2597 225.412L31.0404 252.896ZM31.5376 254.607L79.476 226.704L79.4752 241.939L31.362 269.72L31.5376 254.607Z" stroke="#F50000" stroke-width="2"/>
<path d="M30.6831 238.104L80.342 209.2L80.3411 226.44L30.4842 255.227L30.6831 238.104Z" fill="#EAEAEA"/>
<path d="M30.6831 238.104L0.00167847 220.389L49.8587 191.602L80.342 209.2L30.6831 238.104Z" fill="white"/>
<path d="M30.6831 238.104L0.00167847 220.389L0.00264174 237.629L30.4842 255.227L30.6831 238.104Z" fill="white"/>
<path d="M0.867823 222.304L29.8123 239.016L29.6459 253.329L0.868628 236.714L0.867823 222.304ZM31.0404 236.896L2.09233 220.182L49.5 192.809L78.2597 209.412L31.0404 236.896ZM31.5376 238.607L79.476 210.704L79.4752 225.94L31.362 253.72L31.5376 238.607Z" stroke="#F50000" stroke-width="2"/>
<path d="M30.6831 222.105L80.342 193.201L80.3411 210.44L30.4842 239.227L30.6831 222.105Z" fill="#EAEAEA"/>
<path d="M30.6831 222.105L0.00167847 204.389L49.8587 175.602L80.342 193.201L30.6831 222.105Z" fill="white"/>
<path d="M30.6831 222.105L0.00167847 204.389L0.00264174 221.629L30.4842 239.227L30.6831 222.105Z" fill="white"/>
<path d="M0.867823 206.304L29.8123 223.016L29.6459 237.329L0.868628 220.715L0.867823 206.304ZM31.0404 220.897L2.09233 204.182L49.5 176.809L78.2597 193.413L31.0404 220.897ZM31.5376 222.607L79.476 194.705L79.4752 209.94L31.362 237.72L31.5376 222.607Z" stroke="#F50000" stroke-width="2"/>
<path d="M30.6831 207.104L80.342 178.2L80.3411 195.44L30.4842 224.227L30.6831 207.104Z" fill="#EAEAEA"/>
<path d="M30.6831 207.104L0.00167847 189.389L49.8587 160.602L80.342 178.2L30.6831 207.104Z" fill="white"/>
<path d="M30.6831 207.104L0.00167847 189.389L0.00264174 206.629L30.4842 224.227L30.6831 207.104Z" fill="white"/>
<path d="M0.867823 191.304L29.8123 208.016L29.6459 222.329L0.868628 205.714L0.867823 191.304ZM31.0404 205.896L2.09233 189.182L49.5 161.809L78.2597 178.413L31.0404 205.896ZM31.5376 207.607L79.476 179.705L79.4752 194.94L31.362 222.72L31.5376 207.607Z" stroke="#F50000" stroke-width="2"/>
<path d="M30.6831 192.104L80.342 163.2L80.3411 180.44L30.4842 209.227L30.6831 192.104Z" fill="#EAEAEA"/>
<path d="M30.6831 192.104L0.00167847 174.389L49.8587 145.602L80.342 163.2L30.6831 192.104Z" fill="white"/>
<path d="M30.6831 192.104L0.00167847 174.389L0.00264174 191.629L30.4842 209.227L30.6831 192.104Z" fill="white"/>
<path d="M0.867823 176.304L29.8123 193.016L29.6459 207.329L0.868628 190.714L0.867823 176.304ZM31.0404 190.896L2.09233 174.182L49.5 146.809L78.2597 163.413L31.0404 190.896ZM31.5376 192.607L79.476 164.705L79.4752 179.94L31.362 207.72L31.5376 192.607Z" stroke="#F50000" stroke-width="2"/>
<path d="M30.6831 176.104L80.342 147.2L80.3411 164.44L30.4842 193.227L30.6831 176.104Z" fill="#EAEAEA"/>
<path d="M30.6831 176.104L0.00167847 158.389L49.8587 129.602L80.342 147.2L30.6831 176.104Z" fill="white"/>
<path d="M30.6831 176.104L0.00167847 158.389L0.00264174 175.629L30.4842 193.227L30.6831 176.104Z" fill="white"/>
<path d="M0.867823 160.304L29.8123 177.016L29.6459 191.329L0.868628 174.714L0.867823 160.304ZM31.0404 174.896L2.09233 158.182L49.5 130.809L78.2597 147.413L31.0404 174.896ZM31.5376 176.607L79.476 148.705L79.4752 163.94L31.362 191.72L31.5376 176.607Z" stroke="#F50000" stroke-width="2"/>
<path d="M30.6831 160.104L80.342 131.2L80.3411 148.44L30.4842 177.227L30.6831 160.104Z" fill="#EAEAEA"/>
<path d="M30.6831 160.104L0.00167847 142.389L49.8587 113.602L80.342 131.2L30.6831 160.104Z" fill="white"/>
<path d="M30.6831 160.104L0.00167847 142.389L0.00264174 159.629L30.4842 177.227L30.6831 160.104Z" fill="white"/>
<path d="M0.867823 144.304L29.8123 161.016L29.6459 175.329L0.868628 158.714L0.867823 144.304ZM31.0404 158.896L2.09233 142.182L49.5 114.809L78.2597 131.413L31.0404 158.896ZM31.5376 160.607L79.476 132.705L79.4752 147.94L31.362 175.72L31.5376 160.607Z" stroke="#F50000" stroke-width="2"/>
<path d="M30.6831 144.104L80.342 115.2L80.3411 132.44L30.4842 161.227L30.6831 144.104Z" fill="#EAEAEA"/>
<path d="M30.6831 144.104L0.00167847 126.389L49.8587 97.6021L80.342 115.2L30.6831 144.104Z" fill="white"/>
<path d="M30.6831 144.104L0.00167847 126.389L0.00264174 143.629L30.4842 161.227L30.6831 144.104Z" fill="white"/>
<path d="M0.867823 128.304L29.8123 145.016L29.6459 159.329L0.868628 142.714L0.867823 128.304ZM31.0404 142.896L2.09233 126.182L49.5 98.8092L78.2597 115.412L31.0404 142.896ZM31.5376 144.607L79.476 116.704L79.4752 131.94L31.362 159.72L31.5376 144.607Z" stroke="#F50000" stroke-width="2"/>
<path d="M30.6831 128.104L80.342 99.2003L80.3411 116.44L30.4842 145.227L30.6831 128.104Z" fill="#EAEAEA"/>
<path d="M30.6831 128.104L0.00167847 110.389L49.8587 81.602L80.342 99.2003L30.6831 128.104Z" fill="white"/>
<path d="M30.6831 128.104L0.00167847 110.389L0.00264174 127.628L30.4842 145.227L30.6831 128.104Z" fill="white"/>
<path d="M0.867823 112.303L29.8123 129.016L29.6459 143.328L0.868628 126.714L0.867823 112.303ZM31.0404 126.896L2.09233 110.182L49.5 82.8091L78.2597 99.4123L31.0404 126.896ZM31.5376 128.607L79.476 100.704L79.4752 115.94L31.362 143.72L31.5376 128.607Z" stroke="#F50000" stroke-width="2"/>
<path d="M30.6831 112.104L80.342 83.2L80.3411 100.439L30.4842 129.226L30.6831 112.104Z" fill="#EAEAEA"/>
<path d="M30.6831 112.104L0.00167847 94.3889L49.8587 65.6017L80.342 83.2L30.6831 112.104Z" fill="white"/>
<path d="M30.6831 112.104L0.00167847 94.3889L0.00264174 111.628L30.4842 129.226L30.6831 112.104Z" fill="white"/>
<path d="M0.867823 96.3032L29.8123 113.015L29.6459 127.328L0.868628 110.714L0.867823 96.3032ZM31.0404 110.896L2.09233 94.1817L49.5 66.8089L78.2597 83.4121L31.0404 110.896ZM31.5376 112.607L79.476 84.7041L79.4752 99.9393L31.362 127.72L31.5376 112.607Z" stroke="#F50000" stroke-width="2"/>
<path d="M30.6831 96.104L80.342 67.2L80.3411 84.4393L55.4126 98.8328L30.4842 113.226L30.6831 96.104Z" fill="#EAEAEA"/>
<path d="M30.6831 96.104L0.00167847 78.3889L49.8587 49.6017L80.342 67.2L30.6831 96.104Z" fill="white"/>
<path d="M30.6831 96.104L0.00167847 78.3889L0.00264174 95.6282L30.4842 113.226L30.6831 96.104Z" fill="white"/>
<path d="M0.867823 80.3032L29.8123 97.0154L29.6459 111.328L0.868628 94.7139L0.867823 80.3032ZM31.0404 94.896L2.09233 78.1817L49.5 50.8089L78.2597 67.4121L31.0404 94.896ZM31.5376 96.6066L79.476 68.7041L79.4752 83.9393L55.4127 97.8328L31.362 111.72L31.5376 96.6066Z" stroke="#F50000" stroke-width="2"/>
<path d="M30.6831 80.1038L80.342 51.1999L80.3411 68.4392L30.4842 97.2262L30.6831 80.1038Z" fill="#EAEAEA"/>
<path d="M30.6831 80.1038L0.00167847 62.3887L49.8587 33.6016L80.342 51.1999L30.6831 80.1038Z" fill="white"/>
<path d="M30.6831 80.1038L0.00167847 62.3887L0.00264174 79.628L30.4842 97.2262L30.6831 80.1038Z" fill="white"/>
<path d="M0.867823 64.3031L29.8123 81.0153L29.6459 95.3281L0.868628 78.7138L0.867823 64.3031ZM31.0404 78.8959L2.09233 62.1816L49.5 34.8087L78.2597 51.4119L31.0404 78.8959ZM31.5376 80.6065L79.476 52.704L79.4752 67.9392L31.362 95.7194L31.5376 80.6065Z" stroke="#F50000" stroke-width="2"/>
<path d="M30.6831 64.1037L80.342 35.1998L80.3411 52.4391L30.4842 81.2261L30.6831 64.1037Z" fill="#EAEAEA"/>
<path d="M30.6831 64.1037L0.00167847 46.3886L49.8587 17.6015L80.342 35.1998L30.6831 64.1037Z" fill="white"/>
<path d="M30.6831 64.1037L0.00167847 46.3886L0.00264174 63.6279L30.4842 81.2261L30.6831 64.1037Z" fill="white"/>
<path d="M0.867823 48.303L29.8123 65.0152L29.6459 79.3279L0.868628 62.7137L0.867823 48.303ZM31.0404 62.8958L2.09233 46.1815L49.5 18.8086L78.2597 35.4118L31.0404 62.8958ZM31.5376 64.6064L79.476 36.7038L79.4752 51.9391L31.362 79.7193L31.5376 64.6064Z" stroke="#F50000" stroke-width="2"/>
<path d="M144.868 313.303L173.812 330.016L173.646 344.328L144.869 327.714L144.868 313.303ZM175.04 327.896L146.092 311.182L193.5 283.809L222.26 300.412L175.04 327.896ZM175.538 329.607L223.476 301.704L223.475 316.939L175.362 344.72L175.538 329.607Z" fill="white" stroke="#F50000" stroke-width="2"/>
<path d="M144.868 297.304L173.812 314.016L173.646 328.329L144.869 311.714L144.868 297.304ZM175.04 311.896L146.092 295.182L193.5 267.809L222.26 284.412L175.04 311.896ZM175.538 313.607L223.476 285.704L223.475 300.94L175.362 328.72L175.538 313.607Z" fill="white" stroke="#F50000" stroke-width="2"/>
<path d="M144.868 281.304L173.812 298.016L173.646 312.329L144.869 295.715L144.868 281.304ZM175.04 295.897L146.092 279.182L193.5 251.809L222.26 268.413L175.04 295.897ZM175.538 297.607L223.476 269.705L223.475 284.94L175.362 312.72L175.538 297.607Z" fill="white" stroke="#F50000" stroke-width="2"/>
<path d="M144.868 266.304L173.812 283.016L173.646 297.329L144.869 280.714L144.868 266.304ZM175.04 280.896L146.092 264.182L193.5 236.809L222.26 253.413L175.04 280.896ZM175.538 282.607L223.476 254.705L223.475 269.94L175.362 297.72L175.538 282.607Z" fill="white" stroke="#F50000" stroke-width="2"/>
<path d="M144.868 251.304L173.812 268.016L173.646 282.329L144.869 265.714L144.868 251.304ZM175.04 265.896L146.092 249.182L193.5 221.809L222.26 238.413L175.04 265.896ZM175.538 267.607L223.476 239.705L223.475 254.94L175.362 282.72L175.538 267.607Z" fill="white" stroke="#F50000" stroke-width="2"/>
<path d="M144.868 235.304L173.812 252.016L173.646 266.329L144.869 249.714L144.868 235.304ZM175.04 249.896L146.092 233.182L193.5 205.809L222.26 222.413L175.04 249.896ZM175.538 251.607L223.476 223.705L223.475 238.94L175.362 266.72L175.538 251.607Z" fill="white" stroke="#F50000" stroke-width="2"/>
<path d="M144.868 219.304L173.812 236.016L173.646 250.329L144.869 233.714L144.868 219.304ZM175.04 233.896L146.092 217.182L193.5 189.809L222.26 206.413L175.04 233.896ZM175.538 235.607L223.476 207.705L223.475 222.94L175.362 250.72L175.538 235.607Z" fill="white" stroke="#F50000" stroke-width="2"/>
<path d="M144.868 203.304L173.812 220.016L173.646 234.329L144.869 217.714L144.868 203.304ZM175.04 217.896L146.092 201.182L193.5 173.809L222.26 190.412L175.04 217.896ZM175.538 219.607L223.476 191.704L223.475 206.94L175.362 234.72L175.538 219.607Z" fill="white" stroke="#F50000" stroke-width="2"/>
<path d="M144.868 187.303L173.812 204.016L173.646 218.328L144.869 201.714L144.868 187.303ZM175.04 201.896L146.092 185.182L193.5 157.809L222.26 174.412L175.04 201.896ZM175.538 203.607L223.476 175.704L223.475 190.94L175.362 218.72L175.538 203.607Z" fill="white" stroke="#F50000" stroke-width="2"/>
<path d="M174.683 187.104L224.342 158.2L224.341 175.439L174.484 204.226L174.683 187.104Z" fill="white"/>
<path d="M174.683 187.104L144.002 169.389L193.859 140.602L224.342 158.2L174.683 187.104Z" fill="white"/>
<path d="M174.683 187.104L144.002 169.389L144.003 186.628L174.484 204.226L174.683 187.104Z" fill="white"/>
<path d="M144.868 171.303L173.812 188.015L173.646 202.328L144.869 185.714L144.868 171.303ZM175.04 185.896L146.092 169.182L193.5 141.809L222.26 158.412L175.04 185.896ZM175.538 187.607L223.476 159.704L223.475 174.939L175.362 202.72L175.538 187.607Z" stroke="#F50000" stroke-width="2"/>
<path d="M174.868 330.303L203.812 347.016L203.646 361.328L174.869 344.714L174.868 330.303ZM205.04 344.896L176.092 328.182L223.5 300.809L252.26 317.412L205.04 344.896ZM205.538 346.607L253.476 318.704L253.475 333.939L205.362 361.72L205.538 346.607Z" fill="white" stroke="#F50000" stroke-width="2"/>
<path d="M174.868 314.304L203.812 331.016L203.646 345.329L174.869 328.714L174.868 314.304ZM205.04 328.896L176.092 312.182L223.5 284.809L252.26 301.412L205.04 328.896ZM205.538 330.607L253.476 302.704L253.475 317.94L205.362 345.72L205.538 330.607Z" fill="white" stroke="#F50000" stroke-width="2"/>
<path d="M174.868 298.304L203.812 315.016L203.646 329.329L174.869 312.715L174.868 298.304ZM205.04 312.897L176.092 296.182L223.5 268.809L252.26 285.413L205.04 312.897ZM205.538 314.607L253.476 286.705L253.475 301.94L205.362 329.72L205.538 314.607Z" fill="white" stroke="#F50000" stroke-width="2"/>
<path d="M174.868 283.304L203.812 300.016L203.646 314.329L174.869 297.714L174.868 283.304ZM205.04 297.896L176.092 281.182L223.5 253.809L252.26 270.413L205.04 297.896ZM205.538 299.607L253.476 271.705L253.475 286.94L205.362 314.72L205.538 299.607Z" fill="white" stroke="#F50000" stroke-width="2"/>
<path d="M174.868 268.304L203.812 285.016L203.646 299.329L174.869 282.714L174.868 268.304ZM205.04 282.896L176.092 266.182L223.5 238.809L252.26 255.413L205.04 282.896ZM205.538 284.607L253.476 256.705L253.475 271.94L205.362 299.72L205.538 284.607Z" fill="white" stroke="#F50000" stroke-width="2"/>
<path d="M174.868 252.304L203.812 269.016L203.646 283.329L174.869 266.714L174.868 252.304ZM205.04 266.896L176.092 250.182L223.5 222.809L252.26 239.413L205.04 266.896ZM205.538 268.607L253.476 240.705L253.475 255.94L205.362 283.72L205.538 268.607Z" fill="white" stroke="#F50000" stroke-width="2"/>
<path d="M174.868 236.304L203.812 253.016L203.646 267.329L174.869 250.714L174.868 236.304ZM205.04 250.896L176.092 234.182L223.5 206.809L252.26 223.413L205.04 250.896ZM205.538 252.607L253.476 224.705L253.475 239.94L205.362 267.72L205.538 252.607Z" fill="white" stroke="#F50000" stroke-width="2"/>
<path d="M174.868 220.304L203.812 237.016L203.646 251.329L174.869 234.714L174.868 220.304ZM205.04 234.896L176.092 218.182L223.5 190.809L252.26 207.412L205.04 234.896ZM205.538 236.607L253.476 208.704L253.475 223.94L205.362 251.72L205.538 236.607Z" fill="white" stroke="#F50000" stroke-width="2"/>
<path d="M174.868 204.303L203.812 221.016L203.646 235.328L174.869 218.714L174.868 204.303ZM205.04 218.896L176.092 202.182L223.5 174.809L252.26 191.412L205.04 218.896ZM205.538 220.607L253.476 192.704L253.475 207.94L205.362 235.72L205.538 220.607Z" fill="white" stroke="#F50000" stroke-width="2"/>
<path d="M204.683 204.104L254.342 175.2L254.341 192.439L204.484 221.226L204.683 204.104Z" fill="white"/>
<path d="M204.683 204.104L174.002 186.389L223.859 157.602L254.342 175.2L204.683 204.104Z" fill="white"/>
<path d="M204.683 204.104L174.002 186.389L174.003 203.628L204.484 221.226L204.683 204.104Z" fill="white"/>
<path d="M174.868 188.303L203.812 205.015L203.646 219.328L174.869 202.714L174.868 188.303ZM205.04 202.896L176.092 186.182L223.5 158.809L252.26 175.412L205.04 202.896ZM205.538 204.607L253.476 176.704L253.475 191.939L205.362 219.72L205.538 204.607Z" stroke="#F50000" stroke-width="2"/>
<path d="M203.872 347.303L232.816 364.016L232.65 378.328L203.873 361.714L203.872 347.303ZM234.044 361.896L205.096 345.182L252.504 317.809L281.264 334.412L234.044 361.896ZM234.541 363.607L282.48 335.704L282.479 350.939L234.366 378.72L234.541 363.607Z" fill="white" stroke="#F50000" stroke-width="2"/>
<path d="M203.872 331.304L232.816 348.016L232.65 362.329L203.873 345.714L203.872 331.304ZM234.044 345.896L205.096 329.182L252.504 301.809L281.264 318.412L234.044 345.896ZM234.541 347.607L282.48 319.704L282.479 334.94L234.366 362.72L234.541 347.607Z" fill="white" stroke="#F50000" stroke-width="2"/>
<path d="M203.872 315.304L232.816 332.016L232.65 346.329L203.873 329.715L203.872 315.304ZM234.044 329.897L205.096 313.182L252.504 285.809L281.264 302.413L234.044 329.897ZM234.541 331.607L282.48 303.705L282.479 318.94L234.366 346.72L234.541 331.607Z" fill="white" stroke="#F50000" stroke-width="2"/>
<path d="M203.872 300.304L232.816 317.016L232.65 331.329L203.873 314.714L203.872 300.304ZM234.044 314.896L205.096 298.182L252.504 270.809L281.264 287.413L234.044 314.896ZM234.541 316.607L282.48 288.705L282.479 303.94L234.366 331.72L234.541 316.607Z" fill="white" stroke="#F50000" stroke-width="2"/>
<path d="M203.872 285.304L232.816 302.016L232.65 316.329L203.873 299.714L203.872 285.304ZM234.044 299.896L205.096 283.182L252.504 255.809L281.264 272.413L234.044 299.896ZM234.541 301.607L282.48 273.705L282.479 288.94L234.366 316.72L234.541 301.607Z" fill="white" stroke="#F50000" stroke-width="2"/>
<path d="M203.872 269.304L232.816 286.016L232.65 300.329L203.873 283.714L203.872 269.304ZM234.044 283.896L205.096 267.182L252.504 239.809L281.264 256.413L234.044 283.896ZM234.541 285.607L282.48 257.705L282.479 272.94L234.366 300.72L234.541 285.607Z" fill="white" stroke="#F50000" stroke-width="2"/>
<path d="M203.872 253.304L232.816 270.016L232.65 284.329L203.873 267.714L203.872 253.304ZM234.044 267.896L205.096 251.182L252.504 223.809L281.264 240.413L234.044 267.896ZM234.541 269.607L282.48 241.705L282.479 256.94L234.366 284.72L234.541 269.607Z" fill="white" stroke="#F50000" stroke-width="2"/>
<path d="M203.872 237.304L232.816 254.016L232.65 268.329L203.873 251.714L203.872 237.304ZM234.044 251.896L205.096 235.182L252.504 207.809L281.264 224.412L234.044 251.896ZM234.541 253.607L282.48 225.704L282.479 240.94L234.366 268.72L234.541 253.607Z" fill="white" stroke="#F50000" stroke-width="2"/>
<path d="M203.872 221.303L232.816 238.016L232.65 252.328L203.873 235.714L203.872 221.303ZM234.044 235.896L205.096 219.182L252.504 191.809L281.264 208.412L234.044 235.896ZM234.541 237.607L282.48 209.704L282.479 224.94L234.366 252.72L234.541 237.607Z" fill="white" stroke="#F50000" stroke-width="2"/>
<path d="M203.872 205.303L232.816 222.015L232.65 236.328L203.873 219.714L203.872 205.303ZM234.044 219.896L205.096 203.182L252.504 175.809L281.264 192.412L234.044 219.896ZM234.541 221.607L282.48 193.704L282.479 208.939L234.366 236.72L234.541 221.607Z" fill="white" stroke="#F50000" stroke-width="2"/>
<path d="M233.687 205.104L283.346 176.2L283.345 193.439L233.488 222.226L233.687 205.104Z" fill="white"/>
<path d="M233.687 205.104L203.006 187.389L252.863 158.602L283.346 176.2L233.687 205.104Z" fill="white"/>
<path d="M233.687 205.104L203.006 187.389L203.007 204.628L233.488 222.226L233.687 205.104Z" fill="white"/>
<path d="M203.872 189.303L232.816 206.015L232.65 220.328L203.873 203.714L203.872 189.303ZM234.044 203.896L205.096 187.182L252.504 159.809L281.264 176.412L234.044 203.896ZM234.541 205.607L282.48 177.704L282.479 192.939L234.366 220.72L234.541 205.607Z" stroke="#F50000" stroke-width="2"/>
<path d="M233.869 364.304L262.814 381.016L262.647 395.329L233.87 378.714L233.869 364.304ZM264.042 378.896L235.094 362.182L282.501 334.809L311.261 351.412L264.042 378.896ZM264.539 380.607L312.477 352.704L312.476 367.94L264.363 395.72L264.539 380.607Z" fill="white" stroke="#F50000" stroke-width="2"/>
<path d="M233.869 348.304L262.814 365.016L262.647 379.329L233.87 362.715L233.869 348.304ZM264.042 362.897L235.094 346.182L282.501 318.809L311.261 335.413L264.042 362.897ZM264.539 364.607L312.477 336.705L312.476 351.94L264.363 379.72L264.539 364.607Z" fill="white" stroke="#F50000" stroke-width="2"/>
<path d="M233.869 332.304L262.814 349.016L262.647 363.329L233.87 346.715L233.869 332.304ZM264.042 346.897L235.094 330.183L282.501 302.81L311.261 319.413L264.042 346.897ZM264.539 348.608L312.477 320.705L312.476 335.94L264.363 363.72L264.539 348.608Z" fill="white" stroke="#F50000" stroke-width="2"/>
<path d="M233.869 317.304L262.814 334.016L262.647 348.329L233.87 331.715L233.869 317.304ZM264.042 331.897L235.094 315.182L282.501 287.81L311.261 304.413L264.042 331.897ZM264.539 333.607L312.477 305.705L312.476 320.94L264.363 348.72L264.539 333.607Z" fill="white" stroke="#F50000" stroke-width="2"/>
<path d="M233.869 302.304L262.814 319.016L262.647 333.329L233.87 316.715L233.869 302.304ZM264.042 316.897L235.094 300.182L282.501 272.81L311.261 289.413L264.042 316.897ZM264.539 318.607L312.477 290.705L312.476 305.94L264.363 333.72L264.539 318.607Z" fill="white" stroke="#F50000" stroke-width="2"/>
<path d="M233.869 286.304L262.814 303.016L262.647 317.329L233.87 300.715L233.869 286.304ZM264.042 300.897L235.094 284.182L282.501 256.81L311.261 273.413L264.042 300.897ZM264.539 302.607L312.477 274.705L312.476 289.94L264.363 317.72L264.539 302.607Z" fill="white" stroke="#F50000" stroke-width="2"/>
<path d="M233.869 270.304L262.814 287.016L262.647 301.329L233.87 284.715L233.869 270.304ZM264.042 284.897L235.094 268.182L282.501 240.81L311.261 257.413L264.042 284.897ZM264.539 286.607L312.477 258.705L312.476 273.94L264.363 301.72L264.539 286.607Z" fill="white" stroke="#F50000" stroke-width="2"/>
<path d="M233.869 254.304L262.814 271.016L262.647 285.329L233.87 268.715L233.869 254.304ZM264.042 268.897L235.094 252.182L282.501 224.809L311.261 241.413L264.042 268.897ZM264.539 270.607L312.477 242.705L312.476 257.94L264.363 285.72L264.539 270.607Z" fill="white" stroke="#F50000" stroke-width="2"/>
<path d="M233.869 238.304L262.814 255.016L262.647 269.329L233.87 252.714L233.869 238.304ZM264.042 252.897L235.094 236.182L282.501 208.809L311.261 225.413L264.042 252.897ZM264.539 254.607L312.477 226.705L312.476 241.94L264.363 269.72L264.539 254.607Z" fill="white" stroke="#F50000" stroke-width="2"/>
<path d="M233.869 222.303L262.814 239.016L262.647 253.328L233.87 236.714L233.869 222.303ZM264.042 236.896L235.094 220.182L282.501 192.809L311.261 209.412L264.042 236.896ZM264.539 238.607L312.477 210.704L312.476 225.94L264.363 253.72L264.539 238.607Z" fill="white" stroke="#F50000" stroke-width="2"/>
<path d="M233.869 206.303L262.814 223.016L262.647 237.328L233.87 220.714L233.869 206.303ZM264.042 220.896L235.094 204.182L282.501 176.809L311.261 193.412L264.042 220.896ZM264.539 222.607L312.477 194.704L312.476 209.94L264.363 237.72L264.539 222.607Z" fill="white" stroke="#F50000" stroke-width="2"/>
<path d="M263.684 206.104L313.343 177.2L313.342 194.439L263.485 223.227L263.684 206.104Z" fill="white"/>
<path d="M263.684 206.104L233.003 188.389L282.86 159.602L313.343 177.2L263.684 206.104Z" fill="white"/>
<path d="M263.684 206.104L233.003 188.389L233.004 205.628L263.485 223.227L263.684 206.104Z" fill="white"/>
<path d="M233.869 190.303L262.814 207.016L262.647 221.328L233.87 204.714L233.869 190.303ZM264.042 204.896L235.094 188.182L282.501 160.809L311.261 177.412L264.042 204.896ZM264.539 206.607L312.477 178.704L312.476 193.94L264.363 221.72L264.539 206.607Z" stroke="#F50000" stroke-width="2"/>
<path d="M341.683 369.104L391.342 340.2L391.341 357.439L341.484 386.226L341.683 369.104Z" fill="#EAEAEA"/>
<path d="M341.683 369.104L311.002 351.389L360.859 322.602L391.342 340.2L341.683 369.104Z" fill="white"/>
<path d="M341.683 369.104L311.002 351.389L311.003 368.628L341.484 386.226L341.683 369.104Z" fill="white"/>
<path d="M311.868 353.303L340.812 370.016L340.646 384.328L311.869 367.714L311.868 353.303ZM342.04 367.896L313.092 351.182L360.5 323.809L389.26 340.412L342.04 367.896ZM342.538 369.607L390.476 341.704L390.475 356.939L342.362 384.72L342.538 369.607Z" stroke="#F50000" stroke-width="2"/>
<path d="M341.683 353.104L391.342 324.2L391.341 341.44L341.484 370.227L341.683 353.104Z" fill="#EAEAEA"/>
<path d="M341.683 353.104L311.002 335.389L360.859 306.602L391.342 324.2L341.683 353.104Z" fill="white"/>
<path d="M341.683 353.104L311.002 335.389L311.003 352.629L341.484 370.227L341.683 353.104Z" fill="white"/>
<path d="M311.868 337.304L340.812 354.016L340.646 368.329L311.869 351.714L311.868 337.304ZM342.04 351.896L313.092 335.182L360.5 307.809L389.26 324.412L342.04 351.896ZM342.538 353.607L390.476 325.704L390.475 340.94L342.362 368.72L342.538 353.607Z" stroke="#F50000" stroke-width="2"/>
<path d="M341.683 337.105L391.342 308.201L391.341 325.44L341.484 354.227L341.683 337.105Z" fill="#EAEAEA"/>
<path d="M341.683 337.105L311.002 319.389L360.859 290.602L391.342 308.201L341.683 337.105Z" fill="white"/>
<path d="M341.683 337.105L311.002 319.389L311.003 336.629L341.484 354.227L341.683 337.105Z" fill="white"/>
<path d="M311.868 321.304L340.812 338.016L340.646 352.329L311.869 335.715L311.868 321.304ZM342.04 335.897L313.092 319.182L360.5 291.809L389.26 308.413L342.04 335.897ZM342.538 337.607L390.476 309.705L390.475 324.94L342.362 352.72L342.538 337.607Z" stroke="#F50000" stroke-width="2"/>
<path d="M341.683 322.104L391.342 293.2L391.341 310.44L341.484 339.227L341.683 322.104Z" fill="#EAEAEA"/>
<path d="M341.683 322.104L311.002 304.389L360.859 275.602L391.342 293.2L341.683 322.104Z" fill="white"/>
<path d="M341.683 322.104L311.002 304.389L311.003 321.629L341.484 339.227L341.683 322.104Z" fill="white"/>
<path d="M311.868 306.304L340.812 323.016L340.646 337.329L311.869 320.714L311.868 306.304ZM342.04 320.896L313.092 304.182L360.5 276.809L389.26 293.413L342.04 320.896ZM342.538 322.607L390.476 294.705L390.475 309.94L342.362 337.72L342.538 322.607Z" stroke="#F50000" stroke-width="2"/>
<path d="M341.683 307.104L391.342 278.2L391.341 295.44L341.484 324.227L341.683 307.104Z" fill="#EAEAEA"/>
<path d="M341.683 307.104L311.002 289.389L360.859 260.602L391.342 278.2L341.683 307.104Z" fill="white"/>
<path d="M341.683 307.104L311.002 289.389L311.003 306.629L341.484 324.227L341.683 307.104Z" fill="white"/>
<path d="M311.868 291.304L340.812 308.016L340.646 322.329L311.869 305.714L311.868 291.304ZM342.04 305.896L313.092 289.182L360.5 261.809L389.26 278.413L342.04 305.896ZM342.538 307.607L390.476 279.705L390.475 294.94L342.362 322.72L342.538 307.607Z" stroke="#F50000" stroke-width="2"/>
<path d="M341.683 291.104L391.342 262.2L391.341 279.44L341.484 308.227L341.683 291.104Z" fill="#EAEAEA"/>
<path d="M341.683 291.104L311.002 273.389L360.859 244.602L391.342 262.2L341.683 291.104Z" fill="white"/>
<path d="M341.683 291.104L311.002 273.389L311.003 290.629L341.484 308.227L341.683 291.104Z" fill="white"/>
<path d="M311.868 275.304L340.812 292.016L340.646 306.329L311.869 289.714L311.868 275.304ZM342.04 289.896L313.092 273.182L360.5 245.809L389.26 262.413L342.04 289.896ZM342.538 291.607L390.476 263.705L390.475 278.94L342.362 306.72L342.538 291.607Z" stroke="#F50000" stroke-width="2"/>
<path d="M341.683 275.104L391.342 246.2L391.341 263.44L341.484 292.227L341.683 275.104Z" fill="#EAEAEA"/>
<path d="M341.683 275.104L311.002 257.389L360.859 228.602L391.342 246.2L341.683 275.104Z" fill="white"/>
<path d="M341.683 275.104L311.002 257.389L311.003 274.629L341.484 292.227L341.683 275.104Z" fill="white"/>
<path d="M311.868 259.304L340.812 276.016L340.646 290.329L311.869 273.714L311.868 259.304ZM342.04 273.896L313.092 257.182L360.5 229.809L389.26 246.413L342.04 273.896ZM342.538 275.607L390.476 247.705L390.475 262.94L342.362 290.72L342.538 275.607Z" stroke="#F50000" stroke-width="2"/>
<path d="M341.683 259.104L391.342 230.2L391.341 247.44L341.484 276.227L341.683 259.104Z" fill="#EAEAEA"/>
<path d="M341.683 259.104L311.002 241.389L360.859 212.602L391.342 230.2L341.683 259.104Z" fill="white"/>
<path d="M341.683 259.104L311.002 241.389L311.003 258.629L341.484 276.227L341.683 259.104Z" fill="white"/>
<path d="M311.868 243.304L340.812 260.016L340.646 274.329L311.869 257.714L311.868 243.304ZM342.04 257.896L313.092 241.182L360.5 213.809L389.26 230.412L342.04 257.896ZM342.538 259.607L390.476 231.704L390.475 246.94L342.362 274.72L342.538 259.607Z" stroke="#F50000" stroke-width="2"/>
<path d="M341.683 243.104L391.342 214.2L391.341 231.44L341.484 260.227L341.683 243.104Z" fill="#EAEAEA"/>
<path d="M341.683 243.104L311.002 225.389L360.859 196.602L391.342 214.2L341.683 243.104Z" fill="white"/>
<path d="M341.683 243.104L311.002 225.389L311.003 242.628L341.484 260.227L341.683 243.104Z" fill="white"/>
<path d="M311.868 227.303L340.812 244.016L340.646 258.328L311.869 241.714L311.868 227.303ZM342.04 241.896L313.092 225.182L360.5 197.809L389.26 214.412L342.04 241.896ZM342.538 243.607L390.476 215.704L390.475 230.94L342.362 258.72L342.538 243.607Z" stroke="#F50000" stroke-width="2"/>
<path d="M341.683 227.104L391.342 198.2L391.341 215.439L341.484 244.226L341.683 227.104Z" fill="#EAEAEA"/>
<path d="M341.683 227.104L311.002 209.389L360.859 180.602L391.342 198.2L341.683 227.104Z" fill="white"/>
<path d="M341.683 227.104L311.002 209.389L311.003 226.628L341.484 244.226L341.683 227.104Z" fill="white"/>
<path d="M311.868 211.303L340.812 228.015L340.646 242.328L311.869 225.714L311.868 211.303ZM342.04 225.896L313.092 209.182L360.5 181.809L389.26 198.412L342.04 225.896ZM342.538 227.607L390.476 199.704L390.475 214.939L342.362 242.72L342.538 227.607Z" stroke="#F50000" stroke-width="2"/>
<path d="M341.683 211.104L391.342 182.2L391.341 199.439L366.413 213.833L341.484 228.226L341.683 211.104Z" fill="#EAEAEA"/>
<path d="M341.683 211.104L311.002 193.389L360.859 164.602L391.342 182.2L341.683 211.104Z" fill="white"/>
<path d="M341.683 211.104L311.002 193.389L311.003 210.628L341.484 228.226L341.683 211.104Z" fill="white"/>
<path d="M311.868 195.303L340.812 212.015L340.646 226.328L311.869 209.714L311.868 195.303ZM342.04 209.896L313.092 193.182L360.5 165.809L389.26 182.412L342.04 209.896ZM342.538 211.607L390.476 183.704L390.475 198.939L366.413 212.833L342.362 226.72L342.538 211.607Z" stroke="#F50000" stroke-width="2"/>
<path d="M341.683 195.104L391.342 166.2L391.341 183.439L341.484 212.226L341.683 195.104Z" fill="#EAEAEA"/>
<path d="M341.683 195.104L311.002 177.389L360.859 148.602L391.342 166.2L341.683 195.104Z" fill="white"/>
<path d="M341.683 195.104L311.002 177.389L311.003 194.628L341.484 212.226L341.683 195.104Z" fill="white"/>
<path d="M311.868 179.303L340.812 196.015L340.646 210.328L311.869 193.714L311.868 179.303ZM342.04 193.896L313.092 177.182L360.5 149.809L389.26 166.412L342.04 193.896ZM342.538 195.607L390.476 167.704L390.475 182.939L342.362 210.719L342.538 195.607Z" stroke="#F50000" stroke-width="2"/>
<path d="M341.683 179.104L391.342 150.2L391.341 167.439L341.484 196.226L341.683 179.104Z" fill="#EAEAEA"/>
<path d="M341.683 179.104L311.002 161.389L360.859 132.602L391.342 150.2L341.683 179.104Z" fill="white"/>
<path d="M341.683 179.104L311.002 161.389L311.003 178.628L341.484 196.226L341.683 179.104Z" fill="white"/>
<path d="M311.868 163.303L340.812 180.015L340.646 194.328L311.869 177.714L311.868 163.303ZM342.04 177.896L313.092 161.181L360.5 133.809L389.26 150.412L342.04 177.896ZM342.538 179.606L390.476 151.704L390.475 166.939L342.362 194.719L342.538 179.606Z" stroke="#F50000" stroke-width="2"/>
<path d="M293.683 397.104L343.342 368.2L343.341 385.439L293.484 414.226L293.683 397.104Z" fill="#EAEAEA"/>
<path d="M293.683 397.104L263.002 379.389L312.859 350.602L343.342 368.2L293.683 397.104Z" fill="white"/>
<path d="M293.683 397.104L263.002 379.389L263.003 396.628L293.484 414.226L293.683 397.104Z" fill="white"/>
<path d="M263.868 381.303L292.812 398.016L292.646 412.328L263.869 395.714L263.868 381.303ZM294.04 395.896L265.092 379.182L312.5 351.809L341.26 368.412L294.04 395.896ZM294.538 397.607L342.476 369.704L342.475 384.939L294.362 412.72L294.538 397.607Z" stroke="#F50000" stroke-width="2"/>
<path d="M293.683 381.104L343.342 352.2L343.341 369.44L293.484 398.227L293.683 381.104Z" fill="#EAEAEA"/>
<path d="M293.683 381.104L263.002 363.389L312.859 334.602L343.342 352.2L293.683 381.104Z" fill="white"/>
<path d="M293.683 381.104L263.002 363.389L263.003 380.629L293.484 398.227L293.683 381.104Z" fill="white"/>
<path d="M263.868 365.304L292.812 382.016L292.646 396.329L263.869 379.714L263.868 365.304ZM294.04 379.896L265.092 363.182L312.5 335.809L341.26 352.412L294.04 379.896ZM294.538 381.607L342.476 353.704L342.475 368.94L294.362 396.72L294.538 381.607Z" stroke="#F50000" stroke-width="2"/>
<path d="M293.683 365.105L343.342 336.201L343.341 353.44L293.484 382.227L293.683 365.105Z" fill="#EAEAEA"/>
<path d="M293.683 365.105L263.002 347.389L312.859 318.602L343.342 336.201L293.683 365.105Z" fill="white"/>
<path d="M293.683 365.105L263.002 347.389L263.003 364.629L293.484 382.227L293.683 365.105Z" fill="white"/>
<path d="M263.868 349.304L292.812 366.016L292.646 380.329L263.869 363.715L263.868 349.304ZM294.04 363.897L265.092 347.182L312.5 319.809L341.26 336.413L294.04 363.897ZM294.538 365.607L342.476 337.705L342.475 352.94L294.362 380.72L294.538 365.607Z" stroke="#F50000" stroke-width="2"/>
<path d="M293.683 350.104L343.342 321.2L343.341 338.44L293.484 367.227L293.683 350.104Z" fill="#EAEAEA"/>
<path d="M293.683 350.104L263.002 332.389L312.859 303.602L343.342 321.2L293.683 350.104Z" fill="white"/>
<path d="M293.683 350.104L263.002 332.389L263.003 349.629L293.484 367.227L293.683 350.104Z" fill="white"/>
<path d="M263.868 334.304L292.812 351.016L292.646 365.329L263.869 348.714L263.868 334.304ZM294.04 348.896L265.092 332.182L312.5 304.809L341.26 321.413L294.04 348.896ZM294.538 350.607L342.476 322.705L342.475 337.94L294.362 365.72L294.538 350.607Z" stroke="#F50000" stroke-width="2"/>
<path d="M293.683 335.104L343.342 306.2L343.341 323.44L293.484 352.227L293.683 335.104Z" fill="#EAEAEA"/>
<path d="M293.683 335.104L263.002 317.389L312.859 288.602L343.342 306.2L293.683 335.104Z" fill="white"/>
<path d="M293.683 335.104L263.002 317.389L263.003 334.629L293.484 352.227L293.683 335.104Z" fill="white"/>
<path d="M263.868 319.304L292.812 336.016L292.646 350.329L263.869 333.714L263.868 319.304ZM294.04 333.896L265.092 317.182L312.5 289.809L341.26 306.413L294.04 333.896ZM294.538 335.607L342.476 307.705L342.475 322.94L294.362 350.72L294.538 335.607Z" stroke="#F50000" stroke-width="2"/>
<path d="M293.683 319.104L343.342 290.2L343.341 307.44L293.484 336.227L293.683 319.104Z" fill="#EAEAEA"/>
<path d="M293.683 319.104L263.002 301.389L312.859 272.602L343.342 290.2L293.683 319.104Z" fill="white"/>
<path d="M293.683 319.104L263.002 301.389L263.003 318.629L293.484 336.227L293.683 319.104Z" fill="white"/>
<path d="M263.868 303.304L292.812 320.016L292.646 334.329L263.869 317.714L263.868 303.304ZM294.04 317.896L265.092 301.182L312.5 273.809L341.26 290.413L294.04 317.896ZM294.538 319.607L342.476 291.705L342.475 306.94L294.362 334.72L294.538 319.607Z" stroke="#F50000" stroke-width="2"/>
<path d="M293.683 303.104L343.342 274.2L343.341 291.44L293.484 320.227L293.683 303.104Z" fill="#EAEAEA"/>
<path d="M293.683 303.104L263.002 285.389L312.859 256.602L343.342 274.2L293.683 303.104Z" fill="white"/>
<path d="M293.683 303.104L263.002 285.389L263.003 302.629L293.484 320.227L293.683 303.104Z" fill="white"/>
<path d="M263.868 287.304L292.812 304.016L292.646 318.329L263.869 301.714L263.868 287.304ZM294.04 301.896L265.092 285.182L312.5 257.809L341.26 274.413L294.04 301.896ZM294.538 303.607L342.476 275.705L342.475 290.94L294.362 318.72L294.538 303.607Z" stroke="#F50000" stroke-width="2"/>
<path d="M293.683 287.104L343.342 258.2L343.341 275.44L293.484 304.227L293.683 287.104Z" fill="#EAEAEA"/>
<path d="M293.683 287.104L263.002 269.389L312.859 240.602L343.342 258.2L293.683 287.104Z" fill="white"/>
<path d="M293.683 287.104L263.002 269.389L263.003 286.629L293.484 304.227L293.683 287.104Z" fill="white"/>
<path d="M263.868 271.304L292.812 288.016L292.646 302.329L263.869 285.714L263.868 271.304ZM294.04 285.896L265.092 269.182L312.5 241.809L341.26 258.412L294.04 285.896ZM294.538 287.607L342.476 259.704L342.475 274.94L294.362 302.72L294.538 287.607Z" stroke="#F50000" stroke-width="2"/>
<path d="M293.683 271.104L343.342 242.2L343.341 259.44L293.484 288.227L293.683 271.104Z" fill="#EAEAEA"/>
<path d="M293.683 271.104L263.002 253.389L312.859 224.602L343.342 242.2L293.683 271.104Z" fill="white"/>
<path d="M293.683 271.104L263.002 253.389L263.003 270.628L293.484 288.227L293.683 271.104Z" fill="white"/>
<path d="M263.868 255.303L292.812 272.016L292.646 286.328L263.869 269.714L263.868 255.303ZM294.04 269.896L265.092 253.182L312.5 225.809L341.26 242.412L294.04 269.896ZM294.538 271.607L342.476 243.704L342.475 258.94L294.362 286.72L294.538 271.607Z" stroke="#F50000" stroke-width="2"/>
<path d="M293.683 255.104L343.342 226.2L343.341 243.439L293.484 272.226L293.683 255.104Z" fill="#EAEAEA"/>
<path d="M293.683 255.104L263.002 237.389L312.859 208.602L343.342 226.2L293.683 255.104Z" fill="white"/>
<path d="M293.683 255.104L263.002 237.389L263.003 254.628L293.484 272.226L293.683 255.104Z" fill="white"/>
<path d="M263.868 239.303L292.812 256.015L292.646 270.328L263.869 253.714L263.868 239.303ZM294.04 253.896L265.092 237.182L312.5 209.809L341.26 226.412L294.04 253.896ZM294.538 255.607L342.476 227.704L342.475 242.939L294.362 270.72L294.538 255.607Z" stroke="#F50000" stroke-width="2"/>
<path d="M293.683 239.104L343.342 210.2L343.341 227.439L318.413 241.833L293.484 256.226L293.683 239.104Z" fill="#EAEAEA"/>
<path d="M293.683 239.104L263.002 221.389L312.859 192.602L343.342 210.2L293.683 239.104Z" fill="white"/>
<path d="M293.683 239.104L263.002 221.389L263.003 238.628L293.484 256.226L293.683 239.104Z" fill="white"/>
<path d="M263.868 223.303L292.812 240.015L292.646 254.328L263.869 237.714L263.868 223.303ZM294.04 237.896L265.092 221.182L312.5 193.809L341.26 210.412L294.04 237.896ZM294.538 239.607L342.476 211.704L342.475 226.939L318.413 240.833L294.362 254.72L294.538 239.607Z" stroke="#F50000" stroke-width="2"/>
<path d="M293.683 223.104L343.342 194.2L343.341 211.439L293.484 240.226L293.683 223.104Z" fill="#EAEAEA"/>
<path d="M293.683 223.104L263.002 205.389L312.859 176.602L343.342 194.2L293.683 223.104Z" fill="white"/>
<path d="M293.683 223.104L263.002 205.389L263.003 222.628L293.484 240.226L293.683 223.104Z" fill="white"/>
<path d="M263.868 207.303L292.812 224.015L292.646 238.328L263.869 221.714L263.868 207.303ZM294.04 221.896L265.092 205.182L312.5 177.809L341.26 194.412L294.04 221.896ZM294.538 223.607L342.476 195.704L342.475 210.939L294.362 238.719L294.538 223.607Z" stroke="#F50000" stroke-width="2"/>
<path d="M293.683 207.104L343.342 178.2L343.341 195.439L293.484 224.226L293.683 207.104Z" fill="#EAEAEA"/>
<path d="M293.683 207.104L263.002 189.389L312.859 160.602L343.342 178.2L293.683 207.104Z" fill="white"/>
<path d="M293.683 207.104L263.002 189.389L263.003 206.628L293.484 224.226L293.683 207.104Z" fill="white"/>
<path d="M263.868 191.303L292.812 208.015L292.646 222.328L263.869 205.714L263.868 191.303ZM294.04 205.896L265.092 189.181L312.5 161.809L341.26 178.412L294.04 205.896ZM294.538 207.606L342.476 179.704L342.475 194.939L294.362 222.719L294.538 207.606Z" stroke="#F50000" stroke-width="2"/>
</svg>
