<svg width="800" height="569" viewBox="0 0 800 569" fill="none" xmlns="http://www.w3.org/2000/svg">
<path d="M316.396 473.162L177.166 392.784L529.723 189.25L668.953 269.628L316.396 473.162Z" stroke="#F50000" stroke-width="2" stroke-dasharray="4 4"/>
<path d="M208.141 393.5V282.5L527.641 98.5V209.5L208.141 393.5Z" fill="#1D1D1D" stroke="#F50000" stroke-width="2"/>
<rect width="123.695" height="111.019" transform="matrix(0.86601 0.500028 3.18907e-05 1 527.809 97.5903)" fill="#1D1D1D" stroke="#F50000" stroke-width="2"/>
<path d="M315.58 455.47L207.812 393.254L527.58 208.65L635.348 270.866L315.58 455.47Z" fill="#1D1D1D" stroke="#F50000" stroke-width="2"/>
<path d="M1 548.327L223.887 419.653M65.9057 549.813L258.181 439.451" stroke="url(#paint0_linear_295_592)" stroke-width="2" stroke-dasharray="4 4"/>
<path d="M207.642 282.5L263.641 219.5L315.142 344" stroke="#F50000" stroke-width="2"/>
<path d="M257.195 277.579L237.14 299.5L275.638 322.164L257.195 277.579Z" fill="#121212" stroke="#F50000" stroke-width="2"/>
<path d="M263.156 219.35L582.147 34.1948" stroke="#F50000" stroke-width="2"/>
<path d="M582.113 34.7425L527.141 97.9165L634.535 159.925L582.113 34.7425Z" stroke="#F50000" stroke-width="2"/>
<path d="M208.063 282.47L208.065 337.98L208.067 393.489L315.188 455.34L315.184 344.321" stroke="#F50000" stroke-width="2"/>
<path d="M544.141 294V182.5L608.141 143.5L608.641 254L544.141 294Z" fill="#1D1D1D" stroke="#F50000" stroke-width="2"/>
<path d="M570.265 307.87L570.262 196.851L463.141 135L463.142 190.509L463.144 246.019L570.265 307.87Z" fill="#1D1D1D" stroke="#F50000" stroke-width="2"/>
<rect width="38.1066" height="79.1708" transform="matrix(0.86601 0.500028 3.18907e-05 1 239.141 332)" fill="#121212" stroke="#F50000" stroke-width="2"/>
<path d="M244.641 374V380.5" stroke="#F50000" stroke-width="2"/>
<path d="M385.641 338.5V228L503.641 159.5L504.141 270L385.641 338.5Z" fill="#1D1D1D" stroke="#F50000" stroke-width="2"/>
<path d="M450.265 376.87L450.262 265.851L343.141 204L343.142 259.509L343.144 315.019L450.265 376.87Z" fill="#1D1D1D" stroke="#F50000" stroke-width="2"/>
<rect width="38.1066" height="79.1708" transform="matrix(0.86601 0.500028 3.18907e-05 1 380.141 257)" fill="#121212" stroke="#F50000" stroke-width="2"/>
<rect width="38.1066" height="79.1708" transform="matrix(0.86601 0.500028 3.18907e-05 1 517.141 194)" fill="#121212" stroke="#F50000" stroke-width="2"/>
<path d="M365.641 426.5V347L415.141 318.161L482.641 278.835L507.141 264.561L595.641 213L596.141 293.5L551.141 319.465L507.141 344.854L482.641 358.99L415.141 397.938L365.641 426.5Z" fill="#121212"/>
<path d="M415.141 318.161L365.641 347V426.5L415.141 397.938M415.141 318.161V397.938M415.141 318.161L482.641 278.835M415.141 397.938L482.641 358.99M482.641 278.835V358.99M482.641 278.835L507.141 264.561M482.641 358.99L507.141 344.854M507.141 264.561L595.641 213L596.141 293.5L551.141 319.465M507.141 264.561V304.707V344.854M507.141 344.854L551.141 319.465M551.141 241V319.465" stroke="#F50000" stroke-width="2"/>
<path d="M207.641 282.5L315.142 345L634.677 159.805L526.909 97.59" stroke="#F50000" stroke-width="2"/>
<path d="M92.3755 182.499L70.0806 210.764L80.4616 216.758L59.6559 240.741L71.5264 247.595L55.144 267.276L129.614 310.274L113.229 271.674L125.1 278.528L104.292 230.518L114.673 236.512L92.3755 182.499ZM87.9107 286.195L87.9119 323.905L96.8482 329.065L96.847 291.355L87.9107 286.195Z" stroke="#F50000" stroke-width="2" stroke-dasharray="4 4"/>
<path d="M261.375 21.4991L239.081 49.7644L249.462 55.7583L228.656 79.7412L240.526 86.5951L224.144 106.276L298.614 149.274L282.229 110.674L294.1 117.528L273.292 69.5178L283.673 75.5117L261.375 21.4991ZM256.911 125.195L256.912 162.905L265.848 168.065L265.847 130.355L256.911 125.195Z" stroke="#F50000" stroke-width="2" stroke-dasharray="4 4"/>
<path d="M760.38 172.499L782.675 200.764L772.294 206.758L793.1 230.741L781.229 237.595L797.612 257.276L723.142 300.274L739.526 261.674L727.656 268.528L748.464 220.518L738.083 226.512L760.38 172.499ZM764.845 276.195L764.844 313.905L755.908 319.065L755.909 281.355L764.845 276.195Z" stroke="#F50000" stroke-width="2" stroke-dasharray="4 4"/>
<path d="M618.38 317.499L640.675 345.764L630.294 351.758L651.1 375.741L639.229 382.595L655.612 402.276L581.142 445.274L597.526 406.674L585.656 413.528L606.464 365.518L596.083 371.512L618.38 317.499ZM622.845 421.195L622.844 458.905L613.908 464.065L613.909 426.355L622.845 421.195Z" stroke="#F50000" stroke-width="2" stroke-dasharray="4 4"/>
<path d="M409.141 362V368.5" stroke="#F50000" stroke-width="2"/>
<path d="M421.141 355V361.5" stroke="#F50000" stroke-width="2"/>
<path d="M409.141 308V314.5" stroke="#F50000" stroke-width="2"/>
<path d="M545.141 283V289.5" stroke="#F50000" stroke-width="2"/>
<path d="M556.141 276V282.5" stroke="#F50000" stroke-width="2"/>
<defs>
<linearGradient id="paint0_linear_295_592" x1="112.443" y1="483.99" x2="33.8929" y2="558.642" gradientUnits="userSpaceOnUse">
<stop stop-color="#F50000"/>
<stop offset="1" stop-color="#F50000" stop-opacity="0"/>
</linearGradient>
</defs>
</svg>
