<svg width="685" height="591" viewBox="0 0 685 591" fill="none" xmlns="http://www.w3.org/2000/svg">
<path fill-rule="evenodd" clip-rule="evenodd" d="M375.038 325.244C373.909 324.593 373.195 323.224 373.162 321.291C373.097 317.427 375.784 312.774 379.163 310.898C380.853 309.96 382.395 309.894 383.524 310.546L567.504 416.767C568.633 417.418 569.347 418.787 569.38 420.72C569.445 424.584 566.758 429.237 563.379 431.113C561.689 432.051 560.147 432.117 559.018 431.465L375.038 325.244Z" fill="#242424" stroke="white" stroke-width="2"/>
<circle cx="1.74433" cy="1.74433" r="1.74433" transform="matrix(0.866009 -0.500028 3.17238e-05 -1 561.435 426.448)" fill="white"/>
<path d="M566.143 422.059C566.143 420.06 564.74 419.25 563.009 420.25C561.278 421.249 559.875 423.679 559.875 425.678C559.875 427.676 561.278 428.486 563.009 427.487C564.739 426.488 566.143 424.057 566.143 422.059Z" stroke="white" stroke-width="2"/>
<path fill-rule="evenodd" clip-rule="evenodd" d="M529.357 421.695C529.357 426.42 532.361 431.145 538.369 434.75C550.386 441.959 569.867 441.959 581.884 434.75C587.892 431.145 590.896 426.42 590.896 421.695V374.003C590.896 369.279 587.892 364.554 581.884 360.949C569.867 353.74 550.386 353.74 538.369 360.949C532.361 364.554 529.357 369.279 529.357 374.003V421.695Z" fill="#242424" stroke="white" stroke-width="2"/>
<circle cx="16.3676" cy="16.3676" r="16.3676" transform="matrix(0.866041 -0.499972 0.866041 0.499972 531.777 373.753)" fill="white"/>
<circle cx="23.3823" cy="23.3823" r="22.3823" transform="matrix(0.866041 -0.499972 0.866041 0.499972 519.627 373.381)" stroke="white" stroke-width="2"/>
<path fill-rule="evenodd" clip-rule="evenodd" d="M561.997 432.342C563.125 431.69 563.839 430.321 563.872 428.389C563.937 424.525 561.25 419.872 557.871 417.996C556.182 417.058 554.639 416.992 553.51 417.643L456.132 473.865C455.004 474.516 454.29 475.885 454.257 477.817C454.192 481.682 456.879 486.335 460.258 488.211C461.947 489.149 463.49 489.215 464.619 488.563L561.997 432.342Z" fill="#242424" stroke="white" stroke-width="2"/>
<circle cx="1.74433" cy="1.74433" r="1.74433" transform="matrix(-0.866009 -0.500028 -3.17238e-05 -1 462.202 483.545)" fill="white"/>
<path d="M457.494 479.156C457.494 477.158 458.897 476.348 460.628 477.347C462.359 478.347 463.762 480.777 463.762 482.775C463.762 484.774 462.359 485.584 460.628 484.585C458.897 483.585 457.494 481.155 457.494 479.156Z" stroke="white" stroke-width="2"/>
<path fill-rule="evenodd" clip-rule="evenodd" d="M543.901 419.244C545.029 418.593 545.744 417.224 545.776 415.291C545.841 411.427 543.155 406.774 539.775 404.898C538.086 403.96 536.543 403.894 535.415 404.546L438.037 460.767C436.908 461.418 436.194 462.787 436.161 464.72C436.096 468.584 438.783 473.237 442.162 475.113C443.852 476.051 445.394 476.117 446.523 475.465L543.901 419.244Z" fill="#242424" stroke="white" stroke-width="2"/>
<circle cx="1.74433" cy="1.74433" r="1.74433" transform="matrix(-0.866009 -0.500028 -3.17238e-05 -1 444.106 470.448)" fill="white"/>
<path d="M439.398 466.059C439.398 464.06 440.801 463.25 442.532 464.25C444.263 465.249 445.666 467.679 445.666 469.678C445.666 471.676 444.263 472.486 442.532 471.487C440.802 470.488 439.398 468.057 439.398 466.059Z" stroke="white" stroke-width="2"/>
<path d="M329.882 470.162L190.652 389.784L543.209 186.25L682.439 266.628L329.882 470.162Z" stroke="#F50000" stroke-width="2" stroke-dasharray="4 4"/>
<path d="M221.627 390.5V279.5L541.127 95.5V206.5L221.627 390.5Z" stroke="#F50000" stroke-width="2"/>
<rect width="123.695" height="111.019" transform="matrix(0.86601 0.500028 3.18907e-05 1 541.295 94.5903)" fill="#242424" stroke="#F50000" stroke-width="2"/>
<path d="M329.067 452.47L221.299 390.254L541.066 205.65L648.834 267.866L329.067 452.47Z" fill="#242424" stroke="#F50000" stroke-width="2"/>
<path d="M14.4863 545.327L237.373 416.653M79.3921 546.813L271.668 436.451" stroke="url(#paint0_linear_295_880)" stroke-width="2" stroke-dasharray="4 4"/>
<path d="M221.128 279.5L277.128 216.5L328.628 341" stroke="#F50000" stroke-width="2"/>
<path d="M270.682 274.579L250.627 296.5L289.125 319.164L270.682 274.579Z" stroke="#F50000" stroke-width="2"/>
<path d="M276.645 216.35L595.635 31.1948" stroke="#F50000" stroke-width="2"/>
<path d="M595.601 31.7425L540.628 94.9165L648.022 156.925L595.601 31.7425Z" fill="#242424" stroke="#F50000" stroke-width="2"/>
<path d="M221.551 279.47L221.553 334.98L221.554 390.489L328.675 452.34L328.672 341.321" stroke="#F50000" stroke-width="2"/>
<path d="M557.627 291V179.5L621.627 140.5L622.127 251L557.627 291Z" fill="#242424" stroke="#F50000" stroke-width="2"/>
<path d="M583.751 304.87L583.748 193.851L476.627 132L476.629 187.509L476.63 243.019L583.751 304.87Z" fill="#242424" stroke="#F50000" stroke-width="2"/>
<rect width="38.1066" height="79.1708" transform="matrix(0.86601 0.500028 3.18907e-05 1 252.628 329)" fill="#242424" stroke="#F50000" stroke-width="2"/>
<path d="M258.127 371V377.5" stroke="#F50000" stroke-width="2"/>
<path d="M399.127 335.5V225L517.127 156.5L517.627 267L399.127 335.5Z" fill="#242424" stroke="#F50000" stroke-width="2"/>
<path d="M463.751 373.87L463.748 262.851L356.627 201L356.629 256.509L356.63 312.019L463.751 373.87Z" fill="#242424" stroke="#F50000" stroke-width="2"/>
<rect width="38.1066" height="79.1708" transform="matrix(0.86601 0.500028 3.18907e-05 1 393.627 254)" fill="#242424" stroke="#F50000" stroke-width="2"/>
<rect width="38.1066" height="79.1708" transform="matrix(0.86601 0.500028 3.18907e-05 1 530.627 191)" fill="#242424" stroke="#F50000" stroke-width="2"/>
<path d="M379.127 423.5V344L428.627 315.161L496.127 275.835L520.627 261.561L609.127 210L609.627 290.5L564.627 316.465L520.627 341.854L496.127 355.99L428.627 394.938L379.127 423.5Z" fill="#242424"/>
<path d="M428.627 315.161L379.127 344V423.5L428.627 394.938M428.627 315.161V394.938M428.627 315.161L496.127 275.835M428.627 394.938L496.127 355.99M496.127 275.835V355.99M496.127 275.835L520.627 261.561M496.127 355.99L520.627 341.854M520.627 261.561L609.127 210L609.627 290.5L564.627 316.465M520.627 261.561V301.707V341.854M520.627 341.854L564.627 316.465M564.627 238V316.465" stroke="#F50000" stroke-width="2"/>
<path d="M221.128 279.5L328.628 342L648.163 156.805L540.395 94.59" stroke="#F50000" stroke-width="2"/>
<path d="M422.627 359V365.5" stroke="#F50000" stroke-width="2"/>
<path d="M434.627 352V358.5" stroke="#F50000" stroke-width="2"/>
<path d="M422.627 305V311.5" stroke="#F50000" stroke-width="2"/>
<path d="M558.627 280V286.5" stroke="#F50000" stroke-width="2"/>
<path d="M569.627 273V279.5" stroke="#F50000" stroke-width="2"/>
<path d="M65.627 548.819L306.313 410.212C310.812 407.621 316.375 407.732 320.766 410.501L339.627 422.391M359.627 384.5L359.627 431.375C359.627 432.949 357.892 433.906 356.56 433.067L339.627 422.391M339.627 422.391L499.127 332M499.127 332L515.127 344L515.127 313M499.127 332L630.127 257.5C630.127 247.833 630.127 228.5 630.127 228.5" stroke="url(#paint1_linear_295_880)" stroke-width="2"/>
<path d="M52.127 549.5L306.315 403.286C310.813 400.698 316.373 400.811 320.762 403.578L337.622 414.207C338.858 414.987 340.421 415.03 341.698 414.32L487.127 333.5L487.127 309.5" stroke="url(#paint2_linear_295_880)" stroke-width="2"/>
<path d="M44.1277 547.5L306.819 396.668C311.316 394.086 316.871 394.201 321.257 396.966L338.125 407.6C339.36 408.379 340.921 408.423 342.198 407.715L373.628 390.279M506.628 261.5L506.628 316.5L373.628 390.279M373.628 390.279L299.627 345L299.627 323.5M299.627 299L299.627 323.5M299.627 323.5L340.128 299L340.128 275" stroke="url(#paint3_linear_295_880)" stroke-width="2"/>
<path d="M36.127 546.5L366.726 356.036C368.704 354.896 368.735 352.052 366.781 350.87L356.386 344.578C354.453 343.408 354.458 340.601 356.396 339.439L365.877 333.75L379.627 325.5V288" stroke="url(#paint4_linear_295_880)" stroke-width="2"/>
<path d="M336.627 367.5L357.358 355.061C359.296 353.899 359.301 351.092 357.368 349.922L346.886 343.578C344.953 342.408 344.958 339.601 346.896 338.439L356.377 332.75L373.627 322.5" stroke="white" stroke-width="2"/>
<path d="M255.627 401L276.358 388.561C278.296 387.399 278.301 384.592 276.368 383.422L265.886 377.078C263.953 375.908 263.958 373.101 265.896 371.939L275.377 366.25L306.127 349" stroke="white" stroke-width="2"/>
<path d="M332.627 404L353.358 391.561C355.296 390.399 355.301 387.592 353.368 386.422L342.886 380.078C340.953 378.908 340.958 376.101 342.896 374.939L352.377 369.25L601.127 225V205" stroke="white" stroke-width="2"/>
<path d="M26.627 545L267.127 407.294M336.627 367.5L267.127 407.294M267.127 407.294L244.7 393.937C243.734 393.362 242.528 393.374 241.575 393.97L235.127 398V370" stroke="url(#paint5_linear_295_880)" stroke-width="2"/>
<rect width="7.99923" height="15.9985" transform="matrix(0.86601 -0.500028 -3.18351e-05 1 356.629 370)" fill="#242424" stroke="white" stroke-width="2"/>
<rect width="7.99923" height="8.54597" transform="matrix(0.86601 -0.500028 -3.18351e-05 1 296.627 296.453)" fill="#242424" stroke="white" stroke-width="2"/>
<rect width="7.99923" height="8.54597" transform="matrix(0.86601 -0.500028 -3.18351e-05 1 598.628 199)" fill="#242424" stroke="white" stroke-width="2"/>
<rect width="7.99923" height="8.54597" transform="matrix(0.86601 -0.500028 -3.18351e-05 1 336.628 273)" fill="#242424" stroke="white" stroke-width="2"/>
<rect width="7.99923" height="8.54597" transform="matrix(-0.86601 -0.500028 3.18351e-05 1 383.555 282)" fill="#242424" stroke="white" stroke-width="2"/>
<rect width="7.99923" height="8.54597" transform="matrix(-0.86601 -0.500028 3.18351e-05 1 238.555 363)" fill="#242424" stroke="white" stroke-width="2"/>
<rect width="7.99923" height="15.9985" transform="matrix(0.86601 -0.500028 -3.18351e-05 1 483.629 296)" fill="#242424" stroke="white" stroke-width="2"/>
<rect width="7.99923" height="15.9985" transform="matrix(0.86601 -0.500028 -3.18351e-05 1 503.629 249)" fill="#242424" stroke="white" stroke-width="2"/>
<rect width="7.99923" height="15.9985" transform="matrix(0.86601 -0.500028 -3.18351e-05 1 511.629 301)" fill="#242424" stroke="white" stroke-width="2"/>
<rect width="7.99923" height="15.9985" transform="matrix(-0.86601 -0.500028 3.18351e-05 1 633.555 214)" fill="#242424" stroke="white" stroke-width="2"/>
<defs>
<linearGradient id="paint0_linear_295_880" x1="151.196" y1="487.306" x2="138.589" y2="561.656" gradientUnits="userSpaceOnUse">
<stop stop-color="#F50000"/>
<stop offset="1" stop-color="white" stop-opacity="0"/>
</linearGradient>
<linearGradient id="paint1_linear_295_880" x1="377.589" y1="398.459" x2="338.342" y2="591.778" gradientUnits="userSpaceOnUse">
<stop stop-color="white"/>
<stop offset="1" stop-color="white" stop-opacity="0"/>
</linearGradient>
<linearGradient id="paint2_linear_295_880" x1="289.066" y1="431.268" x2="275.877" y2="563.569" gradientUnits="userSpaceOnUse">
<stop stop-color="white"/>
<stop offset="1" stop-color="white" stop-opacity="0"/>
</linearGradient>
<linearGradient id="paint3_linear_295_880" x1="282" y1="381" x2="135" y2="562" gradientUnits="userSpaceOnUse">
<stop stop-color="white"/>
<stop offset="1" stop-color="white" stop-opacity="0"/>
</linearGradient>
<linearGradient id="paint4_linear_295_880" x1="218.263" y1="422.711" x2="200.478" y2="545.428" gradientUnits="userSpaceOnUse">
<stop stop-color="white"/>
<stop offset="1" stop-color="white" stop-opacity="0"/>
</linearGradient>
<linearGradient id="paint5_linear_295_880" x1="191" y1="460" x2="181.627" y2="545" gradientUnits="userSpaceOnUse">
<stop stop-color="white"/>
<stop offset="1" stop-color="white" stop-opacity="0"/>
</linearGradient>
</defs>
</svg>
