<svg width="775" height="569" viewBox="0 0 775 569" fill="none" xmlns="http://www.w3.org/2000/svg">
<path d="M300.64 197.552L320.643 186L261.143 253.478L241.141 265.03L300.64 197.552Z" fill="#1D1D1D"/>
<path d="M346.64 170.552L366.643 159L307.143 226.478L287.141 238.03L346.64 170.552Z" fill="#1D1D1D"/>
<path d="M392.64 143.552L412.643 132L353.143 199.478L333.141 211.03L392.64 143.552Z" fill="#1D1D1D"/>
<path d="M436.64 117.552L456.643 106L397.143 173.478L377.141 185.03L436.64 117.552Z" fill="#1D1D1D"/>
<path d="M483.64 90.5515L503.643 79L444.143 146.478L424.141 158.03L483.64 90.5515Z" fill="#1D1D1D"/>
<path d="M529.64 63.5515L549.643 52L490.143 119.478L470.141 131.03L529.64 63.5515Z" fill="#1D1D1D"/>
<path d="M316.396 473.162L177.166 392.784L529.723 189.25L668.953 269.628L316.396 473.162Z" stroke="#F50000" stroke-width="2" stroke-dasharray="4 4"/>
<path d="M315.58 455.47L207.812 393.254L527.58 208.65L635.348 270.866L315.58 455.47Z" fill="#1D1D1D" stroke="#F50000" stroke-width="2"/>
<path d="M1 548.327L223.887 419.653M65.9057 549.813L258.181 439.451" stroke="url(#paint0_linear_295_622)" stroke-width="2" stroke-dasharray="4 4"/>
<path d="M207.641 282.5L263.64 219.5L315.141 344" stroke="#F50000" stroke-width="2"/>
<path d="M263.141 231L263.241 236.83L267.52 236.315L263.141 231ZM304.141 333L304.04 327.17L299.761 327.685L304.141 333ZM264.107 234.371L264.998 236.588L265.739 236.499L264.848 234.281L264.107 234.371ZM265.89 238.806L266.781 241.023L267.522 240.934L266.631 238.716L265.89 238.806ZM267.672 243.24L268.564 245.458L269.305 245.368L268.413 243.151L267.672 243.24ZM269.455 247.675L270.346 249.892L271.087 249.803L270.196 247.586L269.455 247.675ZM271.237 252.11L272.129 254.327L272.87 254.238L271.979 252.021L271.237 252.11ZM273.02 256.545L273.911 258.762L274.653 258.673L273.761 256.455L273.02 256.545ZM274.803 260.979L275.694 263.197L276.435 263.108L275.544 260.89L274.803 260.979ZM276.585 265.414L277.477 267.632L278.218 267.542L277.326 265.325L276.585 265.414ZM278.368 269.849L279.259 272.066L280 271.977L279.109 269.76L278.368 269.849ZM280.15 274.284L281.042 276.501L281.783 276.412L280.892 274.194L280.15 274.284ZM281.933 278.719L282.824 280.936L283.566 280.847L282.674 278.629L281.933 278.719ZM283.716 283.153L284.607 285.371L285.348 285.281L284.457 283.064L283.716 283.153ZM285.498 287.588L286.39 289.806L287.131 289.716L286.239 287.499L285.498 287.588ZM287.281 292.023L288.172 294.24L288.913 294.151L288.022 291.934L287.281 292.023ZM289.064 296.458L289.955 298.675L290.696 298.586L289.805 296.368L289.064 296.458ZM290.846 300.892L291.737 303.11L292.479 303.021L291.587 300.803L290.846 300.892ZM292.629 305.327L293.52 307.545L294.261 307.455L293.37 305.238L292.629 305.327ZM294.411 309.762L295.303 311.979L296.044 311.89L295.152 309.673L294.411 309.762ZM296.194 314.197L297.085 316.414L297.826 316.325L296.935 314.108L296.194 314.197ZM297.977 318.632L298.868 320.849L299.609 320.76L298.718 318.542L297.977 318.632ZM299.759 323.066L300.65 325.284L301.392 325.194L300.5 322.977L299.759 323.066ZM301.542 327.501L302.433 329.719L303.174 329.629L302.283 327.412L301.542 327.501Z" fill="#F50000"/>
<path d="M262.141 274L262.454 279.943L266.619 279.153L262.141 274ZM281.141 318L280.827 312.057L276.662 312.847L281.141 318ZM263.205 277.368L264.155 279.568L264.876 279.432L263.926 277.232L263.205 277.368ZM265.105 281.768L266.055 283.968L266.776 283.832L265.826 281.632L265.105 281.768ZM267.005 286.168L267.955 288.368L268.676 288.232L267.726 286.032L267.005 286.168ZM268.905 290.568L269.855 292.768L270.576 292.632L269.626 290.432L268.905 290.568ZM270.805 294.968L271.755 297.168L272.476 297.032L271.526 294.832L270.805 294.968ZM272.705 299.368L273.655 301.568L274.376 301.432L273.426 299.232L272.705 299.368ZM274.605 303.768L275.555 305.968L276.276 305.832L275.326 303.632L274.605 303.768ZM276.505 308.168L277.455 310.368L278.176 310.232L277.226 308.032L276.505 308.168ZM278.405 312.568L279.355 314.768L280.076 314.632L279.126 312.432L278.405 312.568Z" fill="#F50000"/>
<path d="M257.196 277.58L237.641 300L275.639 322.165L257.196 277.58Z" fill="white" stroke="#F50000" stroke-width="2"/>
<path d="M263.156 219.35L582.147 34.1948" stroke="#F50000" stroke-width="2"/>
<path d="M527.141 97.9165L582.113 34.7425L634.535 159.925" stroke="#F50000" stroke-width="2"/>
<path d="M544.143 91.8796L548.628 91.918L544.472 86.3087L544.143 91.8796ZM581.14 49.3629L576.654 49.3245L580.811 54.9338L581.14 49.3629ZM545.963 90.6871L546.937 89.5682L546.217 88.5966L545.243 89.7155L545.963 90.6871ZM547.91 88.4494L548.884 87.3305L548.164 86.3589L547.19 87.4778L547.91 88.4494ZM549.857 86.2116L550.831 85.0928L550.111 84.1212L549.138 85.2401L549.857 86.2116ZM551.805 83.9739L552.778 82.8551L552.058 81.8835L551.085 83.0024L551.805 83.9739ZM553.752 81.7362L554.725 80.6173L554.006 79.6458L553.032 80.7646L553.752 81.7362ZM555.699 79.4985L556.673 78.3796L555.953 77.4081L554.979 78.5269L555.699 79.4985ZM557.646 77.2608L558.62 76.1419L557.9 75.1703L556.926 76.2892L557.646 77.2608ZM559.593 75.0231L560.567 73.9042L559.847 72.9326L558.874 74.0515L559.593 75.0231ZM561.541 72.7853L562.514 71.6665L561.794 70.6949L560.821 71.8138L561.541 72.7853ZM563.488 70.5476L564.461 69.4288L563.742 68.4572L562.768 69.576L563.488 70.5476ZM565.435 68.3099L566.409 67.191L565.689 66.2195L564.715 67.3383L565.435 68.3099ZM567.382 66.0722L568.356 64.9533L567.636 63.9818L566.662 65.1006L567.382 66.0722ZM569.33 63.8345L570.303 62.7156L569.583 61.744L568.61 62.8629L569.33 63.8345ZM571.277 61.5967L572.25 60.4779L571.53 59.5063L570.557 60.6252L571.277 61.5967ZM573.224 59.359L574.198 58.2402L573.478 57.2686L572.504 58.3875L573.224 59.359ZM575.171 57.1213L576.145 56.0025L575.425 55.0309L574.451 56.1497L575.171 57.1213ZM577.118 54.8836L578.092 53.7647L577.372 52.7932L576.398 53.912L577.118 54.8836ZM579.066 52.6459L580.039 51.527L579.319 50.5555L578.346 51.6743L579.066 52.6459Z" fill="#F50000"/>
<path d="M208.063 282.47L208.065 337.98L208.067 393.489L315.188 455.34L315.184 344.321" stroke="#F50000" stroke-width="2"/>
<path d="M214.141 295L211.641 298.557L216.641 301.443L214.141 295ZM214.144 386.019L216.644 382.462L211.644 379.575L214.144 386.019ZM214.142 330.509L214.575 330.759L214.575 330.759L214.142 330.509ZM213.708 297.709L213.708 299.682L214.574 300.182L214.574 298.209L213.708 297.709ZM213.708 301.655L213.708 303.627L214.574 304.127L214.574 302.155L213.708 301.655ZM213.708 305.6L213.708 307.573L214.574 308.073L214.574 306.1L213.708 305.6ZM213.708 309.546L213.708 311.518L214.574 312.018L214.574 310.046L213.708 309.546ZM213.709 313.491L213.709 315.464L214.575 315.964L214.575 313.991L213.709 313.491ZM213.709 317.437L213.709 319.409L214.575 319.909L214.575 317.937L213.709 317.437ZM213.709 321.382L213.709 323.355L214.575 323.855L214.575 321.882L213.709 321.382ZM213.709 325.328L213.709 327.3L214.575 327.8L214.575 325.828L213.709 325.328ZM213.709 329.273L213.709 330.259L214.575 330.759L214.575 329.773L213.709 329.273ZM213.709 330.259L213.709 331.251L214.575 331.751L214.575 330.759L213.709 330.259ZM213.709 333.233L213.71 335.216L214.576 335.716L214.575 333.733L213.709 333.233ZM213.71 337.198L213.71 339.181L214.576 339.681L214.576 337.698L213.71 337.198ZM213.71 341.163L213.71 343.146L214.576 343.646L214.576 341.663L213.71 341.163ZM213.71 345.128L213.71 347.11L214.576 347.611L214.576 345.628L213.71 345.128ZM213.71 349.093L213.71 351.075L214.576 351.575L214.576 349.593L213.71 349.093ZM213.71 353.058L213.71 355.04L214.576 355.54L214.576 353.558L213.71 353.058ZM213.71 357.023L213.71 359.005L214.576 359.505L214.576 357.523L213.71 357.023ZM213.71 360.988L213.71 362.97L214.576 363.47L214.576 361.488L213.71 360.988ZM213.71 364.953L213.711 366.935L214.577 367.435L214.577 365.453L213.71 364.953ZM213.711 368.918L213.711 370.9L214.577 371.4L214.577 369.418L213.711 368.918ZM213.711 372.883L213.711 374.865L214.577 375.365L214.577 373.383L213.711 372.883ZM213.711 376.848L213.711 378.83L214.577 379.33L214.577 377.348L213.711 376.848ZM213.711 380.813L213.711 382.795L214.577 383.295L214.577 381.313L213.711 380.813Z" fill="#F50000"/>
<path d="M323.145 350L325.644 353.557L320.644 356.443L323.145 350ZM323.141 441.019L320.641 437.462L325.641 434.575L323.141 441.019ZM323.143 385.509L322.71 385.759L322.71 385.759L323.143 385.509ZM323.577 352.709L323.577 354.682L322.711 355.182L322.711 353.209L323.577 352.709ZM323.577 356.655L323.577 358.627L322.711 359.127L322.711 357.155L323.577 356.655ZM323.577 360.6L323.577 362.573L322.711 363.073L322.711 361.1L323.577 360.6ZM323.577 364.546L323.577 366.518L322.711 367.018L322.711 365.046L323.577 364.546ZM323.577 368.491L323.577 370.464L322.71 370.964L322.711 368.991L323.577 368.491ZM323.576 372.437L323.576 374.409L322.71 374.909L322.71 372.937L323.576 372.437ZM323.576 376.382L323.576 378.355L322.71 378.855L322.71 376.882L323.576 376.382ZM323.576 380.328L323.576 382.3L322.71 382.8L322.71 380.828L323.576 380.328ZM323.576 384.273L323.576 385.259L322.71 385.759L322.71 384.773L323.576 384.273ZM323.576 385.259L323.576 386.251L322.71 386.751L322.71 385.759L323.576 385.259ZM323.576 388.233L323.576 390.216L322.71 390.716L322.71 388.733L323.576 388.233ZM323.576 392.198L323.575 394.181L322.709 394.681L322.71 392.698L323.576 392.198ZM323.575 396.163L323.575 398.146L322.709 398.646L322.709 396.663L323.575 396.163ZM323.575 400.128L323.575 402.11L322.709 402.611L322.709 400.628L323.575 400.128ZM323.575 404.093L323.575 406.075L322.709 406.575L322.709 404.593L323.575 404.093ZM323.575 408.058L323.575 410.04L322.709 410.54L322.709 408.558L323.575 408.058ZM323.575 412.023L323.575 414.005L322.709 414.505L322.709 412.523L323.575 412.023ZM323.575 415.988L323.575 417.97L322.709 418.47L322.709 416.488L323.575 415.988ZM323.575 419.953L323.575 421.935L322.709 422.435L322.709 420.453L323.575 419.953ZM323.575 423.918L323.574 425.9L322.708 426.4L322.709 424.418L323.575 423.918ZM323.574 427.883L323.574 429.865L322.708 430.365L322.708 428.383L323.574 427.883ZM323.574 431.848L323.574 433.83L322.708 434.33L322.708 432.348L323.574 431.848ZM323.574 435.813L323.574 437.795L322.708 438.295L322.708 436.313L323.574 435.813Z" fill="#F50000"/>
<path d="M544.141 294V182.5L608.641 145V254L544.141 294Z" fill="#1D1D1D" stroke="#F50000" stroke-width="2"/>
<rect width="123.695" height="111.019" transform="matrix(0.86601 0.500028 3.18907e-05 1 527.809 97.5903)" stroke="#F50000" stroke-width="2"/>
<path d="M570.265 307.87L570.262 196.851L463.141 135L463.142 190.509L463.144 246.019L570.265 307.87Z" fill="#1D1D1D" stroke="#F50000" stroke-width="2"/>
<rect width="38.1066" height="79.1708" transform="matrix(0.86601 0.500028 3.18907e-05 1 239.141 332)" fill="white" stroke="#F50000" stroke-width="2"/>
<path d="M242.141 340L246.327 345.574L246.602 339.969L242.141 340ZM261.641 352.5L257.455 346.926L257.18 352.531L261.641 352.5ZM244.554 342.048L246.179 343.09L246.227 342.119L244.602 341.077L244.554 342.048ZM247.804 344.131L249.429 345.173L249.477 344.202L247.852 343.16L247.804 344.131ZM251.054 346.215L252.679 347.256L252.727 346.285L251.102 345.244L251.054 346.215ZM254.304 348.298L255.929 349.34L255.977 348.369L254.352 347.327L254.304 348.298ZM257.554 350.381L259.179 351.423L259.227 350.452L257.602 349.41L257.554 350.381Z" fill="#F50000"/>
<path d="M216.141 295L220.475 300.38L220.466 294.601L216.141 295ZM309.141 348.5L304.806 343.12L304.815 348.898L309.141 348.5ZM218.725 296.986L220.447 297.977L220.445 296.976L218.723 295.985L218.725 296.986ZM222.169 298.968L223.891 299.959L223.89 298.958L222.168 297.967L222.169 298.968ZM225.614 300.949L227.336 301.94L227.334 300.939L225.612 299.948L225.614 300.949ZM229.058 302.931L230.78 303.922L230.779 302.921L229.056 301.93L229.058 302.931ZM232.503 304.912L234.225 305.903L234.223 304.902L232.501 303.911L232.503 304.912ZM235.947 306.894L237.669 307.885L237.668 306.884L235.945 305.893L235.947 306.894ZM239.391 308.875L241.114 309.866L241.112 308.865L239.39 307.874L239.391 308.875ZM242.836 310.857L244.558 311.848L244.556 310.847L242.834 309.856L242.836 310.857ZM246.28 312.838L248.003 313.829L248.001 312.828L246.279 311.837L246.28 312.838ZM249.725 314.82L251.447 315.811L251.445 314.81L249.723 313.819L249.725 314.82ZM253.169 316.801L254.891 317.792L254.89 316.791L253.168 315.8L253.169 316.801ZM256.614 318.783L258.336 319.774L258.334 318.773L256.612 317.782L256.614 318.783ZM260.058 320.764L261.78 321.755L261.779 320.754L260.056 319.763L260.058 320.764ZM263.503 322.746L265.225 323.736L265.223 322.736L263.501 321.745L263.503 322.746ZM266.947 324.727L268.669 325.718L268.668 324.717L266.945 323.726L266.947 324.727ZM270.391 326.709L272.114 327.699L272.112 326.699L270.39 325.708L270.391 326.709ZM273.836 328.69L275.558 329.681L275.556 328.68L273.834 327.689L273.836 328.69ZM277.28 330.672L279.003 331.662L279.001 330.662L277.279 329.671L277.28 330.672ZM280.725 332.653L282.447 333.644L282.445 332.643L280.723 331.652L280.725 332.653ZM284.169 334.635L285.891 335.625L285.89 334.625L284.168 333.634L284.169 334.635ZM287.614 336.616L289.336 337.607L289.334 336.606L287.612 335.615L287.614 336.616ZM291.058 338.598L292.78 339.588L292.779 338.587L291.056 337.597L291.058 338.598ZM294.503 340.579L296.225 341.57L296.223 340.569L294.501 339.578L294.503 340.579ZM297.947 342.561L299.669 343.551L299.668 342.55L297.945 341.56L297.947 342.561ZM301.391 344.542L303.114 345.533L303.112 344.532L301.39 343.541L301.391 344.542ZM304.836 346.524L306.558 347.514L306.557 346.513L304.834 345.523L304.836 346.524Z" fill="#F50000"/>
<path d="M385.641 338.5V228L503.641 159.5L504.141 270L385.641 338.5Z" fill="#1D1D1D" stroke="#F50000" stroke-width="2"/>
<path d="M450.265 376.87L450.262 265.851L343.141 204L343.142 259.509L343.144 315.019L450.265 376.87Z" fill="#1D1D1D" stroke="#F50000" stroke-width="2"/>
<rect width="38.1066" height="79.1708" transform="matrix(0.86601 0.500028 3.18907e-05 1 380.141 257)" fill="white" stroke="#F50000" stroke-width="2"/>
<rect width="38.1066" height="79.1708" transform="matrix(0.86601 0.500028 3.18907e-05 1 517.141 194)" fill="white" stroke="#F50000" stroke-width="2"/>
<path d="M365.641 426.5V347L415.141 318.161L482.641 278.835L507.141 264.561L595.641 213L596.141 293.5L551.141 319.465L507.141 344.854L482.641 358.99L415.141 397.938L365.641 426.5Z" fill="white"/>
<path d="M415.141 318.161L365.641 347V426.5L415.141 397.938M415.141 318.161V397.938M415.141 318.161L482.641 278.835M415.141 397.938L482.641 358.99M482.641 278.835V358.99M482.641 278.835L507.141 264.561M482.641 358.99L507.141 344.854M507.141 264.561L595.641 213L596.141 293.5L551.141 319.465M507.141 264.561V304.707V344.854M507.141 344.854L551.141 319.465M551.141 239V319.465" stroke="#F50000" stroke-width="2"/>
<path d="M634.676 159.805L315.141 345L207.64 282.5L526.908 97.59" stroke="#F50000" stroke-width="2"/>
<path d="M321.768 460.694L328.595 459.63L323.585 456.749L321.768 460.694ZM641.534 275.366L634.707 276.431L639.717 279.312L641.534 275.366ZM324.809 459.433L326.547 458.426L325.679 457.927L323.941 458.934L324.809 459.433ZM328.285 457.419L330.022 456.411L329.155 455.912L327.417 456.92L328.285 457.419ZM331.76 455.404L333.498 454.397L332.63 453.898L330.893 454.905L331.76 455.404ZM335.236 453.39L336.974 452.382L336.106 451.884L334.368 452.891L335.236 453.39ZM338.712 451.375L340.45 450.368L339.582 449.869L337.844 450.876L338.712 451.375ZM342.187 449.361L343.925 448.354L343.058 447.855L341.32 448.862L342.187 449.361ZM345.663 447.346L347.401 446.339L346.533 445.84L344.795 446.847L345.663 447.346ZM349.139 445.332L350.877 444.325L350.009 443.826L348.271 444.833L349.139 445.332ZM352.615 443.318L354.352 442.31L353.485 441.811L351.747 442.819L352.615 443.318ZM356.09 441.303L357.828 440.296L356.96 439.797L355.223 440.804L356.09 441.303ZM359.566 439.289L361.304 438.281L360.436 437.782L358.698 438.79L359.566 439.289ZM363.042 437.274L364.78 436.267L363.912 435.768L362.174 436.775L363.042 437.274ZM366.517 435.26L368.255 434.253L367.388 433.754L365.65 434.761L366.517 435.26ZM369.993 433.245L371.731 432.238L370.863 431.739L369.125 432.746L369.993 433.245ZM373.469 431.231L375.207 430.224L374.339 429.725L372.601 430.732L373.469 431.231ZM376.945 429.216L378.682 428.209L377.815 427.71L376.077 428.717L376.945 429.216ZM380.42 427.202L382.158 426.195L381.29 425.696L379.553 426.703L380.42 427.202ZM383.896 425.188L385.634 424.18L384.766 423.681L383.028 424.689L383.896 425.188ZM387.372 423.173L389.11 422.166L388.242 421.667L386.504 422.674L387.372 423.173ZM390.848 421.159L392.585 420.152L391.718 419.653L389.98 420.66L390.848 421.159ZM394.323 419.144L396.061 418.137L395.193 417.638L393.455 418.645L394.323 419.144ZM397.799 417.13L399.537 416.123L398.669 415.624L396.931 416.631L397.799 417.13ZM401.275 415.115L403.013 414.108L402.145 413.609L400.407 414.616L401.275 415.115ZM404.75 413.101L406.488 412.094L405.621 411.595L403.883 412.602L404.75 413.101ZM408.226 411.087L409.964 410.079L409.096 409.58L407.358 410.588L408.226 411.087ZM411.702 409.072L413.44 408.065L412.572 407.566L410.834 408.573L411.702 409.072ZM415.178 407.058L416.915 406.05L416.048 405.551L414.31 406.559L415.178 407.058ZM418.653 405.043L420.391 404.036L419.523 403.537L417.786 404.544L418.653 405.043ZM422.129 403.029L423.867 402.022L422.999 401.523L421.261 402.53L422.129 403.029ZM425.605 401.014L427.343 400.007L426.475 399.508L424.737 400.515L425.605 401.014ZM429.08 399L430.818 397.993L429.951 397.494L428.213 398.501L429.08 399ZM432.556 396.986L434.294 395.978L433.426 395.479L431.688 396.487L432.556 396.986ZM436.032 394.971L437.77 393.964L436.902 393.465L435.164 394.472L436.032 394.971ZM439.508 392.957L441.245 391.949L440.378 391.45L438.64 392.458L439.508 392.957ZM442.983 390.942L444.721 389.935L443.853 389.436L442.116 390.443L442.983 390.942ZM446.459 388.928L448.197 387.921L447.329 387.422L445.591 388.429L446.459 388.928ZM449.935 386.913L451.673 385.906L450.805 385.407L449.067 386.414L449.935 386.913ZM453.41 384.899L455.148 383.892L454.28 383.393L452.543 384.4L453.41 384.899ZM456.886 382.885L458.624 381.877L457.756 381.378L456.018 382.386L456.886 382.885ZM460.362 380.87L462.1 379.863L461.232 379.364L459.494 380.371L460.362 380.87ZM463.837 378.856L465.575 377.848L464.708 377.349L462.97 378.357L463.837 378.856ZM467.313 376.841L469.051 375.834L468.183 375.335L466.445 376.342L467.313 376.841ZM470.789 374.827L472.527 373.82L471.659 373.321L469.921 374.328L470.789 374.827ZM474.265 372.812L476.002 371.805L475.135 371.306L473.397 372.313L474.265 372.812ZM477.74 370.798L479.478 369.791L478.61 369.292L476.873 370.299L477.74 370.798ZM481.216 368.784L482.954 367.776L482.086 367.277L480.348 368.285L481.216 368.784ZM484.692 366.769L486.43 365.762L485.562 365.263L483.824 366.27L484.692 366.769ZM488.167 364.755L489.905 363.747L489.038 363.248L487.3 364.256L488.167 364.755ZM491.643 362.74L493.381 361.733L492.513 361.234L490.775 362.241L491.643 362.74ZM495.119 360.726L496.857 359.719L495.989 359.22L494.251 360.227L495.119 360.726ZM498.595 358.711L500.332 357.704L499.465 357.205L497.727 358.212L498.595 358.711ZM502.07 356.697L503.808 355.69L502.94 355.191L501.203 356.198L502.07 356.697ZM505.546 354.683L507.284 353.675L506.416 353.176L504.678 354.184L505.546 354.683ZM509.022 352.668L510.76 351.661L509.892 351.162L508.154 352.169L509.022 352.668ZM512.497 350.654L514.235 349.646L513.367 349.147L511.63 350.155L512.497 350.654ZM515.973 348.639L517.711 347.632L516.843 347.133L515.105 348.14L515.973 348.639ZM519.449 346.625L521.187 345.618L520.319 345.119L518.581 346.126L519.449 346.625ZM522.924 344.61L524.662 343.603L523.795 343.104L522.057 344.111L522.924 344.61ZM526.4 342.596L528.138 341.589L527.27 341.09L525.532 342.097L526.4 342.596ZM529.876 340.582L531.614 339.574L530.746 339.075L529.008 340.083L529.876 340.582ZM533.352 338.567L535.089 337.56L534.222 337.061L532.484 338.068L533.352 338.567ZM536.827 336.553L538.565 335.545L537.697 335.046L535.96 336.054L536.827 336.553ZM540.303 334.538L542.041 333.531L541.173 333.032L539.435 334.039L540.303 334.538ZM543.779 332.524L545.517 331.517L544.649 331.018L542.911 332.025L543.779 332.524ZM547.254 330.509L548.992 329.502L548.125 329.003L546.387 330.01L547.254 330.509ZM550.73 328.495L552.468 327.488L551.6 326.989L549.862 327.996L550.73 328.495ZM554.206 326.48L555.944 325.473L555.076 324.974L553.338 325.981L554.206 326.48ZM557.682 324.466L559.42 323.459L558.552 322.96L556.814 323.967L557.682 324.466ZM561.157 322.452L562.895 321.444L562.028 320.945L560.29 321.953L561.157 322.452ZM564.633 320.437L566.371 319.43L565.503 318.931L563.765 319.938L564.633 320.437ZM568.109 318.423L569.847 317.415L568.979 316.916L567.241 317.924L568.109 318.423ZM571.585 316.408L573.322 315.401L572.455 314.902L570.717 315.909L571.585 316.408ZM575.06 314.394L576.798 313.387L575.93 312.888L574.193 313.895L575.06 314.394ZM578.536 312.379L580.274 311.372L579.406 310.873L577.668 311.88L578.536 312.379ZM582.012 310.365L583.75 309.358L582.882 308.859L581.144 309.866L582.012 310.365ZM585.488 308.35L587.225 307.343L586.358 306.844L584.62 307.851L585.488 308.35ZM588.963 306.336L590.701 305.329L589.833 304.83L588.096 305.837L588.963 306.336ZM592.439 304.322L594.177 303.314L593.309 302.815L591.571 303.823L592.439 304.322ZM595.915 302.307L597.653 301.3L596.785 300.801L595.047 301.808L595.915 302.307ZM599.39 300.293L601.128 299.285L600.261 298.786L598.523 299.794L599.39 300.293ZM602.866 298.278L604.604 297.271L603.736 296.772L601.998 297.779L602.866 298.278ZM606.342 296.264L608.08 295.257L607.212 294.758L605.474 295.765L606.342 296.264ZM609.818 294.249L611.556 293.242L610.688 292.743L608.95 293.75L609.818 294.249ZM613.293 292.235L615.031 291.228L614.163 290.729L612.426 291.736L613.293 292.235ZM616.769 290.22L618.507 289.213L617.639 288.714L615.901 289.721L616.769 290.22ZM620.245 288.206L621.983 287.199L621.115 286.7L619.377 287.707L620.245 288.206ZM623.721 286.192L625.458 285.184L624.591 284.685L622.853 285.693L623.721 286.192ZM627.196 284.177L628.934 283.17L628.066 282.671L626.329 283.678L627.196 284.177ZM630.672 282.163L632.41 281.155L631.542 280.656L629.804 281.664L630.672 282.163ZM634.148 280.148L635.886 279.141L635.018 278.642L633.28 279.649L634.148 280.148ZM637.623 278.134L639.361 277.127L638.494 276.628L636.756 277.635L637.623 278.134Z" fill="#F50000"/>
<path d="M260.768 212.328L267.595 211.264L262.585 208.383L260.768 212.328ZM580.534 27.0001L573.707 28.0644L578.717 30.9454L580.534 27.0001ZM263.809 211.067L265.547 210.06L264.679 209.561L262.941 210.568L263.809 211.067ZM267.285 209.052L269.022 208.045L268.155 207.546L266.417 208.553L267.285 209.052ZM270.76 207.038L272.498 206.031L271.63 205.532L269.893 206.539L270.76 207.038ZM274.236 205.023L275.974 204.016L275.106 203.517L273.368 204.525L274.236 205.023ZM277.712 203.009L279.45 202.002L278.582 201.503L276.844 202.51L277.712 203.009ZM281.187 200.995L282.925 199.987L282.058 199.488L280.32 200.496L281.187 200.995ZM284.663 198.98L286.401 197.973L285.533 197.474L283.795 198.481L284.663 198.98ZM288.139 196.966L289.877 195.959L289.009 195.46L287.271 196.467L288.139 196.966ZM291.615 194.951L293.352 193.944L292.485 193.445L290.747 194.452L291.615 194.951ZM295.09 192.937L296.828 191.93L295.96 191.431L294.223 192.438L295.09 192.937ZM298.566 190.922L300.304 189.915L299.436 189.416L297.698 190.423L298.566 190.922ZM302.042 188.908L303.78 187.901L302.912 187.402L301.174 188.409L302.042 188.908ZM305.517 186.894L307.255 185.886L306.388 185.387L304.65 186.395L305.517 186.894ZM308.993 184.879L310.731 183.872L309.863 183.373L308.125 184.38L308.993 184.879ZM312.469 182.865L314.207 181.857L313.339 181.358L311.601 182.366L312.469 182.865ZM315.945 180.85L317.682 179.843L316.815 179.344L315.077 180.351L315.945 180.85ZM319.42 178.836L321.158 177.829L320.29 177.33L318.553 178.337L319.42 178.836ZM322.896 176.821L324.634 175.814L323.766 175.315L322.028 176.322L322.896 176.821ZM326.372 174.807L328.11 173.8L327.242 173.301L325.504 174.308L326.372 174.807ZM329.848 172.793L331.585 171.785L330.718 171.286L328.98 172.294L329.848 172.793ZM333.323 170.778L335.061 169.771L334.193 169.272L332.455 170.279L333.323 170.778ZM336.799 168.764L338.537 167.756L337.669 167.257L335.931 168.265L336.799 168.764ZM340.275 166.749L342.013 165.742L341.145 165.243L339.407 166.25L340.275 166.749ZM343.75 164.735L345.488 163.728L344.621 163.229L342.883 164.236L343.75 164.735ZM347.226 162.72L348.964 161.713L348.096 161.214L346.358 162.221L347.226 162.72ZM350.702 160.706L352.44 159.699L351.572 159.2L349.834 160.207L350.702 160.706ZM354.178 158.691L355.915 157.684L355.048 157.185L353.31 158.192L354.178 158.691ZM357.653 156.677L359.391 155.67L358.523 155.171L356.786 156.178L357.653 156.677ZM361.129 154.663L362.867 153.655L361.999 153.156L360.261 154.164L361.129 154.663ZM364.605 152.648L366.343 151.641L365.475 151.142L363.737 152.149L364.605 152.648ZM368.08 150.634L369.818 149.627L368.951 149.128L367.213 150.135L368.08 150.634ZM371.556 148.619L373.294 147.612L372.426 147.113L370.688 148.12L371.556 148.619ZM375.032 146.605L376.77 145.598L375.902 145.099L374.164 146.106L375.032 146.605ZM378.508 144.59L380.245 143.583L379.378 143.084L377.64 144.091L378.508 144.59ZM381.983 142.576L383.721 141.569L382.853 141.07L381.116 142.077L381.983 142.576ZM385.459 140.562L387.197 139.554L386.329 139.055L384.591 140.063L385.459 140.562ZM388.935 138.547L390.673 137.54L389.805 137.041L388.067 138.048L388.935 138.547ZM392.41 136.533L394.148 135.526L393.28 135.027L391.543 136.034L392.41 136.533ZM395.886 134.518L397.624 133.511L396.756 133.012L395.018 134.019L395.886 134.518ZM399.362 132.504L401.1 131.497L400.232 130.998L398.494 132.005L399.362 132.504ZM402.837 130.489L404.575 129.482L403.708 128.983L401.97 129.99L402.837 130.489ZM406.313 128.475L408.051 127.468L407.183 126.969L405.445 127.976L406.313 128.475ZM409.789 126.461L411.527 125.453L410.659 124.954L408.921 125.962L409.789 126.461ZM413.265 124.446L415.002 123.439L414.135 122.94L412.397 123.947L413.265 124.446ZM416.74 122.432L418.478 121.425L417.61 120.926L415.873 121.933L416.74 122.432ZM420.216 120.417L421.954 119.41L421.086 118.911L419.348 119.918L420.216 120.417ZM423.692 118.403L425.43 117.396L424.562 116.897L422.824 117.904L423.692 118.403ZM427.167 116.388L428.905 115.381L428.038 114.882L426.3 115.889L427.167 116.388ZM430.643 114.374L432.381 113.367L431.513 112.868L429.775 113.875L430.643 114.374ZM434.119 112.36L435.857 111.352L434.989 110.853L433.251 111.861L434.119 112.36ZM437.595 110.345L439.332 109.338L438.465 108.839L436.727 109.846L437.595 110.345ZM441.07 108.331L442.808 107.324L441.94 106.825L440.203 107.832L441.07 108.331ZM444.546 106.316L446.284 105.309L445.416 104.81L443.678 105.817L444.546 106.316ZM448.022 104.302L449.76 103.295L448.892 102.796L447.154 103.803L448.022 104.302ZM451.497 102.287L453.235 101.28L452.367 100.781L450.63 101.788L451.497 102.287ZM454.973 100.273L456.711 99.2658L455.843 98.7668L454.105 99.774L454.973 100.273ZM458.449 98.2586L460.187 97.2514L459.319 96.7524L457.581 97.7596L458.449 98.2586ZM461.924 96.2442L463.662 95.2369L462.795 94.7379L461.057 95.7452L461.924 96.2442ZM465.4 94.2297L467.138 93.2225L466.27 92.7235L464.532 93.7307L465.4 94.2297ZM468.876 92.2153L470.614 91.2081L469.746 90.7091L468.008 91.7163L468.876 92.2153ZM472.352 90.2009L474.089 89.1937L473.222 88.6947L471.484 89.7019L472.352 90.2009ZM475.827 88.1864L477.565 87.1792L476.697 86.6802L474.96 87.6875L475.827 88.1864ZM479.303 86.172L481.041 85.1648L480.173 84.6658L478.435 85.673L479.303 86.172ZM482.779 84.1576L484.517 83.1504L483.649 82.6514L481.911 83.6586L482.779 84.1576ZM486.254 82.1431L487.992 81.1359L487.125 80.6369L485.387 81.6441L486.254 82.1431ZM489.73 80.1287L491.468 79.1215L490.6 78.6225L488.862 79.6297L489.73 80.1287ZM493.206 78.1142L494.944 77.107L494.076 76.608L492.338 77.6153L493.206 78.1142ZM496.682 76.0998L498.42 75.0926L497.552 74.5936L495.814 75.6008L496.682 76.0998ZM500.157 74.0854L501.895 73.0781L501.028 72.5791L499.29 73.5864L500.157 74.0854ZM503.633 72.0709L505.371 71.0637L504.503 70.5647L502.765 71.5719L503.633 72.0709ZM507.109 70.0565L508.847 69.0492L507.979 68.5503L506.241 69.5575L507.109 70.0565ZM510.585 68.042L512.322 67.0348L511.455 66.5358L509.717 67.543L510.585 68.042ZM514.06 66.0276L515.798 65.0204L514.93 64.5214L513.193 65.5286L514.06 66.0276ZM517.536 64.0131L519.274 63.0059L518.406 62.5069L516.668 63.5141L517.536 64.0131ZM521.012 61.9987L522.75 60.9915L521.882 60.4925L520.144 61.4997L521.012 61.9987ZM524.488 59.9842L526.225 58.977L525.358 58.478L523.62 59.4853L524.488 59.9842ZM527.963 57.9698L529.701 56.9626L528.833 56.4636L527.096 57.4708L527.963 57.9698ZM531.439 55.9554L533.177 54.9481L532.309 54.4492L530.571 55.4564L531.439 55.9554ZM534.915 53.9409L536.653 52.9337L535.785 52.4347L534.047 53.4419L534.915 53.9409ZM538.39 51.9265L540.128 50.9193L539.261 50.4203L537.523 51.4275L538.39 51.9265ZM541.866 49.912L543.604 48.9048L542.736 48.4058L540.998 49.413L541.866 49.912ZM545.342 47.8976L547.08 46.8904L546.212 46.3914L544.474 47.3986L545.342 47.8976ZM548.818 45.8831L550.556 44.8759L549.688 44.3769L547.95 45.3842L548.818 45.8831ZM552.293 43.8687L554.031 42.8615L553.163 42.3625L551.426 43.3697L552.293 43.8687ZM555.769 41.8543L557.507 40.847L556.639 40.348L554.901 41.3553L555.769 41.8543ZM559.245 39.8398L560.983 38.8326L560.115 38.3336L558.377 39.3408L559.245 39.8398ZM562.721 37.8254L564.458 36.8182L563.591 36.3192L561.853 37.3264L562.721 37.8254ZM566.196 35.8109L567.934 34.8037L567.066 34.3047L565.329 35.3119L566.196 35.8109ZM569.672 33.7965L571.41 32.7893L570.542 32.2903L568.804 33.2975L569.672 33.7965ZM573.148 31.782L574.886 30.7748L574.018 30.2758L572.28 31.283L573.148 31.782ZM576.623 29.7676L578.361 28.7604L577.494 28.2614L575.756 29.2686L576.623 29.7676Z" fill="#F50000"/>
<path d="M310.111 459.849L303.291 458.77L308.32 455.9L310.111 459.849ZM200.768 396L207.587 397.079L202.559 399.949L200.768 396ZM307.112 458.601L305.404 457.604L306.275 457.107L307.983 458.104L307.112 458.601ZM303.696 456.606L301.987 455.609L302.858 455.111L304.566 456.109L303.696 456.606ZM300.279 454.611L298.57 453.613L299.441 453.116L301.15 454.114L300.279 454.611ZM296.862 452.616L295.153 451.618L296.024 451.121L297.733 452.118L296.862 452.616ZM293.445 450.62L291.736 449.623L292.607 449.126L294.316 450.123L293.445 450.62ZM290.028 448.625L288.319 447.627L289.19 447.13L290.899 448.128L290.028 448.625ZM286.611 446.63L284.902 445.632L285.773 445.135L287.482 446.133L286.611 446.63ZM283.194 444.634L281.485 443.637L282.356 443.14L284.065 444.137L283.194 444.634ZM279.777 442.639L278.068 441.642L278.939 441.144L280.648 442.142L279.777 442.639ZM276.36 440.644L274.651 439.646L275.522 439.149L277.231 440.147L276.36 440.644ZM272.943 438.649L271.234 437.651L272.105 437.154L273.814 438.151L272.943 438.649ZM269.526 436.653L267.817 435.656L268.688 435.159L270.397 436.156L269.526 436.653ZM266.109 434.658L264.4 433.66L265.271 433.163L266.98 434.161L266.109 434.658ZM262.692 432.663L260.983 431.665L261.854 431.168L263.563 432.166L262.692 432.663ZM259.275 430.667L257.566 429.67L258.437 429.173L260.146 430.17L259.275 430.667ZM255.858 428.672L254.149 427.675L255.02 427.177L256.729 428.175L255.858 428.672ZM252.441 426.677L250.732 425.679L251.603 425.182L253.312 426.18L252.441 426.677ZM249.024 424.682L247.316 423.684L248.186 423.187L249.895 424.184L249.024 424.682ZM245.607 422.686L243.899 421.689L244.77 421.192L246.478 422.189L245.607 422.686ZM242.19 420.691L240.482 419.693L241.353 419.196L243.061 420.194L242.19 420.691ZM238.773 418.696L237.065 417.698L237.936 417.201L239.644 418.199L238.773 418.696ZM235.356 416.7L233.648 415.703L234.519 415.206L236.227 416.203L235.356 416.7ZM231.939 414.705L230.231 413.707L231.102 413.21L232.81 414.208L231.939 414.705ZM228.522 412.71L226.814 411.712L227.685 411.215L229.393 412.213L228.522 412.71ZM225.105 410.715L223.397 409.717L224.268 409.22L225.976 410.217L225.105 410.715ZM221.688 408.719L219.98 407.722L220.851 407.225L222.559 408.222L221.688 408.719ZM218.271 406.724L216.563 405.726L217.434 405.229L219.142 406.227L218.271 406.724ZM214.854 404.729L213.146 403.731L214.017 403.234L215.725 404.232L214.854 404.729ZM211.437 402.733L209.729 401.736L210.6 401.239L212.308 402.236L211.437 402.733ZM208.02 400.738L206.312 399.74L207.183 399.243L208.891 400.241L208.02 400.738ZM204.603 398.743L202.895 397.745L203.766 397.248L205.474 398.246L204.603 398.743Z" fill="#F50000"/>
<path d="M92.3755 182.499L70.0806 210.764L80.4616 216.758L59.6559 240.741L71.5264 247.595L55.144 267.276L129.614 310.274L113.229 271.674L125.1 278.528L104.292 230.518L114.673 236.512L92.3755 182.499ZM87.9107 286.195L87.9119 323.905L96.8482 329.065L96.847 291.355L87.9107 286.195Z" stroke="#F50000" stroke-width="2" stroke-dasharray="4 4"/>
<path d="M261.375 21.4991L239.081 49.7644L249.462 55.7583L228.656 79.7412L240.526 86.5951L224.144 106.276L298.614 149.274L282.229 110.674L294.1 117.528L273.292 69.5178L283.673 75.5117L261.375 21.4991ZM256.911 125.195L256.912 162.905L265.848 168.065L265.847 130.355L256.911 125.195Z" stroke="#F50000" stroke-width="2" stroke-dasharray="4 4"/>
<path d="M735.24 35.4991L757.535 63.7644L747.154 69.7583L767.959 93.7412L756.089 100.595L772.471 120.276L698.002 163.274L714.386 124.674L702.515 131.528L723.323 83.5178L712.942 89.5117L735.24 35.4991ZM739.705 139.195L739.703 176.905L730.767 182.065L730.768 144.355L739.705 139.195Z" stroke="#F50000" stroke-width="2" stroke-dasharray="4 4"/>
<path d="M618.38 317.499L640.675 345.764L630.294 351.758L651.1 375.741L639.229 382.595L655.612 402.276L581.142 445.274L597.526 406.674L585.656 413.528L606.464 365.518L596.083 371.512L618.38 317.499ZM622.845 421.195L622.844 458.905L613.908 464.065L613.909 426.355L622.845 421.195Z" stroke="#F50000" stroke-width="2" stroke-dasharray="4 4"/>
<path d="M266.141 352L263.641 355.557L268.641 358.443L266.141 352ZM266.144 422.019L268.644 418.462L263.644 415.575L266.144 422.019ZM266.142 366.509L266.575 366.759L266.575 366.759L266.142 366.509ZM265.708 354.471L265.708 356.284L266.574 356.784L266.574 354.97L265.708 354.471ZM265.708 358.098L265.709 359.912L266.575 360.412L266.574 358.598L265.708 358.098ZM265.709 361.725L265.709 363.539L266.575 364.039L266.575 362.225L265.709 361.725ZM265.709 365.353L265.709 366.259L266.575 366.759L266.575 365.853L265.709 365.353ZM265.709 366.259L265.709 367.251L266.575 367.751L266.575 366.759L265.709 366.259ZM265.709 369.233L265.71 371.216L266.576 371.716L266.575 369.733L265.709 369.233ZM265.71 373.198L265.71 375.181L266.576 375.681L266.576 373.698L265.71 373.198ZM265.71 377.163L265.71 379.146L266.576 379.646L266.576 377.663L265.71 377.163ZM265.71 381.128L265.71 383.11L266.576 383.611L266.576 381.628L265.71 381.128ZM265.71 385.093L265.71 387.075L266.576 387.575L266.576 385.593L265.71 385.093ZM265.71 389.058L265.71 391.04L266.576 391.54L266.576 389.558L265.71 389.058ZM265.71 393.023L265.71 395.005L266.576 395.505L266.576 393.523L265.71 393.023ZM265.71 396.988L265.71 398.97L266.576 399.47L266.576 397.488L265.71 396.988ZM265.71 400.953L265.711 402.935L266.577 403.435L266.577 401.453L265.71 400.953ZM265.711 404.918L265.711 406.9L266.577 407.4L266.577 405.418L265.711 404.918ZM265.711 408.883L265.711 410.865L266.577 411.365L266.577 409.383L265.711 408.883ZM265.711 412.848L265.711 414.83L266.577 415.33L266.577 413.348L265.711 412.848ZM265.711 416.813L265.711 418.795L266.577 419.295L266.577 417.313L265.711 416.813Z" fill="#F50000"/>
<path d="M350.141 218L347.641 221.557L352.641 224.443L350.141 218ZM350.144 309.019L352.644 305.462L347.644 302.575L350.144 309.019ZM350.142 253.509L350.575 253.759L350.575 253.759L350.142 253.509ZM349.708 220.709L349.708 222.682L350.574 223.182L350.574 221.209L349.708 220.709ZM349.708 224.655L349.708 226.627L350.574 227.127L350.574 225.155L349.708 224.655ZM349.708 228.6L349.708 230.573L350.574 231.073L350.574 229.1L349.708 228.6ZM349.708 232.546L349.708 234.518L350.574 235.018L350.574 233.046L349.708 232.546ZM349.709 236.491L349.709 238.464L350.575 238.964L350.575 236.991L349.709 236.491ZM349.709 240.437L349.709 242.409L350.575 242.909L350.575 240.937L349.709 240.437ZM349.709 244.382L349.709 246.355L350.575 246.855L350.575 244.882L349.709 244.382ZM349.709 248.328L349.709 250.3L350.575 250.8L350.575 248.828L349.709 248.328ZM349.709 252.273L349.709 253.259L350.575 253.759L350.575 252.773L349.709 252.273ZM349.709 253.259L349.709 254.251L350.575 254.751L350.575 253.759L349.709 253.259ZM349.709 256.233L349.71 258.216L350.576 258.716L350.575 256.733L349.709 256.233ZM349.71 260.198L349.71 262.181L350.576 262.681L350.576 260.698L349.71 260.198ZM349.71 264.163L349.71 266.146L350.576 266.646L350.576 264.663L349.71 264.163ZM349.71 268.128L349.71 270.11L350.576 270.611L350.576 268.628L349.71 268.128ZM349.71 272.093L349.71 274.075L350.576 274.575L350.576 272.593L349.71 272.093ZM349.71 276.058L349.71 278.04L350.576 278.54L350.576 276.558L349.71 276.058ZM349.71 280.023L349.71 282.005L350.576 282.505L350.576 280.523L349.71 280.023ZM349.71 283.988L349.71 285.97L350.576 286.47L350.576 284.488L349.71 283.988ZM349.71 287.953L349.711 289.935L350.577 290.435L350.577 288.453L349.71 287.953ZM349.711 291.918L349.711 293.9L350.577 294.4L350.577 292.418L349.711 291.918ZM349.711 295.883L349.711 297.865L350.577 298.365L350.577 296.383L349.711 295.883ZM349.711 299.848L349.711 301.83L350.577 302.33L350.577 300.348L349.711 299.848ZM349.711 303.813L349.711 305.795L350.577 306.295L350.577 304.313L349.711 303.813Z" fill="#F50000"/>
<path d="M374.145 352L376.644 355.557L371.644 358.443L374.145 352ZM374.141 413.019L371.641 409.462L376.641 406.575L374.141 413.019ZM374.143 366.509L373.71 366.759L373.71 366.759L374.143 366.509ZM374.577 354.471L374.577 356.284L373.711 356.784L373.711 354.97L374.577 354.471ZM374.577 358.098L374.577 359.912L373.711 360.412L373.711 358.598L374.577 358.098ZM374.576 361.725L374.576 363.539L373.71 364.039L373.71 362.225L374.576 361.725ZM374.576 365.353L374.576 366.259L373.71 366.759L373.71 365.853L374.576 365.353ZM374.576 366.259L374.576 367.228L373.71 367.728L373.71 366.759L374.576 366.259ZM374.576 369.166L374.576 371.104L373.71 371.604L373.71 369.666L374.576 369.166ZM374.576 373.042L374.575 374.98L373.709 375.48L373.709 373.542L374.576 373.042ZM374.575 376.918L374.575 378.856L373.709 379.356L373.709 377.418L374.575 376.918ZM374.575 380.794L374.575 382.731L373.709 383.232L373.709 381.294L374.575 380.794ZM374.575 384.669L374.575 386.607L373.709 387.107L373.709 385.169L374.575 384.669ZM374.575 388.545L374.575 390.483L373.709 390.983L373.709 389.045L374.575 388.545ZM374.575 392.421L374.575 394.359L373.709 394.859L373.709 392.921L374.575 392.421ZM374.575 396.297L374.575 398.235L373.709 398.735L373.709 396.797L374.575 396.297ZM374.574 400.173L374.574 402.11L373.708 402.61L373.708 400.673L374.574 400.173ZM374.574 404.048L374.574 405.986L373.708 406.486L373.708 404.548L374.574 404.048ZM374.574 407.924L374.574 409.862L373.708 410.362L373.708 408.424L374.574 407.924Z" fill="#F50000"/>
<path d="M515.145 270.408L517.644 273.965L512.644 276.852L515.145 270.408ZM515.141 331.427L512.641 327.87L517.641 324.984L515.141 331.427ZM515.143 284.918L514.71 285.168L514.71 285.168L515.143 284.918ZM515.577 272.879L515.577 274.692L514.711 275.192L514.711 273.379L515.577 272.879ZM515.577 276.506L515.577 278.32L514.711 278.82L514.711 277.006L515.577 276.506ZM515.576 280.133L515.576 281.947L514.71 282.447L514.71 280.633L515.576 280.133ZM515.576 283.761L515.576 284.668L514.71 285.168L514.71 284.261L515.576 283.761ZM515.576 284.668L515.576 285.637L514.71 286.137L514.71 285.168L515.576 284.668ZM515.576 287.574L515.576 289.512L514.71 290.012L514.71 288.074L515.576 287.574ZM515.576 291.45L515.575 293.388L514.709 293.888L514.709 291.95L515.576 291.45ZM515.575 295.326L515.575 297.264L514.709 297.764L514.709 295.826L515.575 295.326ZM515.575 299.202L515.575 301.14L514.709 301.64L514.709 299.702L515.575 299.202ZM515.575 303.078L515.575 305.015L514.709 305.516L514.709 303.578L515.575 303.078ZM515.575 306.953L515.575 308.891L514.709 309.391L514.709 307.453L515.575 306.953ZM515.575 310.829L515.575 312.767L514.709 313.267L514.709 311.329L515.575 310.829ZM515.575 314.705L515.575 316.643L514.709 317.143L514.709 315.205L515.575 314.705ZM515.574 318.581L515.574 320.519L514.708 321.019L514.708 319.081L515.574 318.581ZM515.574 322.457L515.574 324.394L514.708 324.894L514.708 322.957L515.574 322.457ZM515.574 326.332L515.574 328.27L514.708 328.77L514.708 326.832L515.574 326.332Z" fill="#F50000"/>
<path d="M475.145 294L477.644 297.557L472.644 300.443L475.145 294ZM475.141 355.019L472.641 351.462L477.641 348.575L475.141 355.019ZM475.143 308.509L474.71 308.759L474.71 308.759L475.143 308.509ZM475.577 296.471L475.577 298.284L474.711 298.784L474.711 296.97L475.577 296.471ZM475.577 300.098L475.577 301.912L474.711 302.412L474.711 300.598L475.577 300.098ZM475.576 303.725L475.576 305.539L474.71 306.039L474.71 304.225L475.576 303.725ZM475.576 307.353L475.576 308.259L474.71 308.759L474.71 307.853L475.576 307.353ZM475.576 308.259L475.576 309.228L474.71 309.728L474.71 308.759L475.576 308.259ZM475.576 311.166L475.576 313.104L474.71 313.604L474.71 311.666L475.576 311.166ZM475.576 315.042L475.575 316.98L474.709 317.48L474.709 315.542L475.576 315.042ZM475.575 318.918L475.575 320.856L474.709 321.356L474.709 319.418L475.575 318.918ZM475.575 322.794L475.575 324.731L474.709 325.232L474.709 323.294L475.575 322.794ZM475.575 326.669L475.575 328.607L474.709 329.107L474.709 327.169L475.575 326.669ZM475.575 330.545L475.575 332.483L474.709 332.983L474.709 331.045L475.575 330.545ZM475.575 334.421L475.575 336.359L474.709 336.859L474.709 334.921L475.575 334.421ZM475.575 338.297L475.575 340.235L474.709 340.735L474.709 338.797L475.575 338.297ZM475.574 342.173L475.574 344.11L474.708 344.61L474.708 342.673L475.574 342.173ZM475.574 346.048L475.574 347.986L474.708 348.486L474.708 346.548L475.574 346.048ZM475.574 349.924L475.574 351.862L474.708 352.362L474.708 350.424L475.574 349.924Z" fill="#F50000"/>
<path d="M589.145 226L591.644 229.557L586.644 232.443L589.145 226ZM589.141 287.019L586.641 283.462L591.641 280.575L589.141 287.019ZM589.143 240.509L588.71 240.759L588.71 240.759L589.143 240.509ZM589.577 228.471L589.577 230.284L588.711 230.784L588.711 228.97L589.577 228.471ZM589.577 232.098L589.577 233.912L588.711 234.412L588.711 232.598L589.577 232.098ZM589.576 235.725L589.576 237.539L588.71 238.039L588.71 236.225L589.576 235.725ZM589.576 239.353L589.576 240.259L588.71 240.759L588.71 239.853L589.576 239.353ZM589.576 240.259L589.576 241.228L588.71 241.728L588.71 240.759L589.576 240.259ZM589.576 243.166L589.576 245.104L588.71 245.604L588.71 243.666L589.576 243.166ZM589.576 247.042L589.575 248.98L588.709 249.48L588.709 247.542L589.576 247.042ZM589.575 250.918L589.575 252.856L588.709 253.356L588.709 251.418L589.575 250.918ZM589.575 254.794L589.575 256.731L588.709 257.232L588.709 255.294L589.575 254.794ZM589.575 258.669L589.575 260.607L588.709 261.107L588.709 259.169L589.575 258.669ZM589.575 262.545L589.575 264.483L588.709 264.983L588.709 263.045L589.575 262.545ZM589.575 266.421L589.575 268.359L588.709 268.859L588.709 266.921L589.575 266.421ZM589.575 270.297L589.575 272.235L588.709 272.735L588.709 270.797L589.575 270.297ZM589.574 274.173L589.574 276.11L588.708 276.61L588.708 274.673L589.574 274.173ZM589.574 278.048L589.574 279.986L588.708 280.486L588.708 278.548L589.574 278.048ZM589.574 281.924L589.574 283.862L588.708 284.362L588.708 282.424L589.574 281.924Z" fill="#F50000"/>
<path d="M352.141 217.198L356.475 222.578L356.466 216.799L352.141 217.198ZM445.141 270.698L440.806 265.317L440.815 271.096L445.141 270.698ZM354.725 219.184L356.447 220.175L356.445 219.174L354.723 218.183L354.725 219.184ZM358.169 221.166L359.891 222.156L359.89 221.155L358.168 220.165L358.169 221.166ZM361.614 223.147L363.336 224.138L363.334 223.137L361.612 222.146L361.614 223.147ZM365.058 225.129L366.78 226.119L366.779 225.118L365.056 224.128L365.058 225.129ZM368.503 227.11L370.225 228.101L370.223 227.1L368.501 226.109L368.503 227.11ZM371.947 229.092L373.669 230.082L373.668 229.081L371.945 228.091L371.947 229.092ZM375.391 231.073L377.114 232.064L377.112 231.063L375.39 230.072L375.391 231.073ZM378.836 233.055L380.558 234.045L380.556 233.044L378.834 232.054L378.836 233.055ZM382.28 235.036L384.003 236.027L384.001 235.026L382.279 234.035L382.28 235.036ZM385.725 237.018L387.447 238.008L387.445 237.007L385.723 236.017L385.725 237.018ZM389.169 238.999L390.891 239.99L390.89 238.989L389.168 237.998L389.169 238.999ZM392.614 240.981L394.336 241.971L394.334 240.97L392.612 239.98L392.614 240.981ZM396.058 242.962L397.78 243.953L397.779 242.952L396.056 241.961L396.058 242.962ZM399.503 244.943L401.225 245.934L401.223 244.933L399.501 243.943L399.503 244.943ZM402.947 246.925L404.669 247.916L404.668 246.915L402.945 245.924L402.947 246.925ZM406.391 248.906L408.114 249.897L408.112 248.896L406.39 247.906L406.391 248.906ZM409.836 250.888L411.558 251.879L411.556 250.878L409.834 249.887L409.836 250.888ZM413.28 252.869L415.003 253.86L415.001 252.859L413.279 251.869L413.28 252.869ZM416.725 254.851L418.447 255.842L418.445 254.841L416.723 253.85L416.725 254.851ZM420.169 256.832L421.891 257.823L421.89 256.822L420.168 255.832L420.169 256.832ZM423.614 258.814L425.336 259.805L425.334 258.804L423.612 257.813L423.614 258.814ZM427.058 260.795L428.78 261.786L428.779 260.785L427.056 259.794L427.058 260.795ZM430.503 262.777L432.225 263.768L432.223 262.767L430.501 261.776L430.503 262.777ZM433.947 264.758L435.669 265.749L435.668 264.748L433.945 263.757L433.947 264.758ZM437.391 266.74L439.114 267.731L439.112 266.73L437.39 265.739L437.391 266.74ZM440.836 268.721L442.558 269.712L442.557 268.711L440.834 267.72L440.836 268.721Z" fill="#F50000"/>
<path d="M467.141 145.198L471.487 150.561L471.454 144.769L467.141 145.198ZM493.141 160.012L488.794 154.649L488.827 160.441L493.141 160.012ZM469.581 147.088L471.206 148.014L471.2 147.011L469.575 146.085L469.581 147.088ZM472.831 148.94L474.456 149.866L474.45 148.863L472.825 147.937L472.831 148.94ZM476.081 150.792L477.706 151.718L477.7 150.715L476.075 149.789L476.081 150.792ZM479.331 152.644L480.956 153.57L480.95 152.566L479.325 151.64L479.331 152.644ZM482.581 154.496L484.206 155.421L484.2 154.418L482.575 153.492L482.581 154.496ZM485.831 156.347L487.456 157.273L487.45 156.27L485.825 155.344L485.831 156.347ZM489.081 158.199L490.706 159.125L490.7 158.122L489.075 157.196L489.081 158.199Z" fill="#F50000"/>
<path d="M508.141 170.198L512.479 169.832L512.463 175.596L508.141 170.198ZM561.141 201L556.802 201.366L556.819 195.602L561.141 201ZM510.792 171.239L512.559 172.266L512.556 173.264L510.789 172.237L510.792 171.239ZM514.325 173.292L516.092 174.319L516.089 175.317L514.323 174.291L514.325 173.292ZM517.859 175.346L519.625 176.372L519.623 177.371L517.856 176.344L517.859 175.346ZM521.392 177.399L523.159 178.426L523.156 179.424L521.389 178.398L521.392 177.399ZM524.925 179.453L526.692 180.479L526.689 181.478L524.923 180.451L524.925 179.453ZM528.459 181.506L530.225 182.533L530.223 183.531L528.456 182.505L528.459 181.506ZM531.992 183.56L533.759 184.586L533.756 185.585L531.989 184.558L531.992 183.56ZM535.525 185.613L537.292 186.64L537.289 187.638L535.523 186.611L535.525 185.613ZM539.059 187.667L540.825 188.693L540.823 189.692L539.056 188.665L539.059 187.667ZM542.592 189.72L544.359 190.747L544.356 191.745L542.589 190.718L542.592 189.72ZM546.125 191.774L547.892 192.8L547.889 193.799L546.123 192.772L546.125 191.774ZM549.659 193.827L551.425 194.854L551.423 195.852L549.656 194.825L549.659 193.827ZM553.192 195.881L554.959 196.907L554.956 197.906L553.189 196.879L553.192 195.881ZM556.725 197.934L558.492 198.961L558.489 199.959L556.723 198.932L556.725 197.934Z" fill="#F50000"/>
<path d="M537.141 96.0001L541.476 95.6267L541.466 101.394L537.141 96.0001ZM621.855 145.114L617.52 145.487L617.53 139.72L621.855 145.114ZM539.789 97.0354L541.554 98.0586L541.552 99.0576L539.787 98.0344L539.789 97.0354ZM543.319 99.0818L545.083 100.105L545.082 101.104L543.317 100.081L543.319 99.0818ZM546.848 101.128L548.613 102.151L548.611 103.15L546.847 102.127L546.848 101.128ZM550.378 103.175L552.143 104.198L552.141 105.197L550.376 104.174L550.378 103.175ZM553.908 105.221L555.673 106.244L555.671 107.243L553.906 106.22L553.908 105.221ZM557.438 107.267L559.202 108.291L559.201 109.29L557.436 108.266L557.438 107.267ZM560.967 109.314L562.732 110.337L562.731 111.336L560.966 110.313L560.967 109.314ZM564.497 111.36L566.262 112.383L566.26 113.382L564.495 112.359L564.497 111.36ZM568.027 113.407L569.792 114.43L569.79 115.429L568.025 114.406L568.027 113.407ZM571.557 115.453L573.322 116.476L573.32 117.475L571.555 116.452L571.557 115.453ZM575.086 117.499L576.851 118.523L576.85 119.522L575.085 118.498L575.086 117.499ZM578.616 119.546L580.381 120.569L580.379 121.568L578.614 120.545L578.616 119.546ZM582.146 121.592L583.911 122.615L583.909 123.614L582.144 122.591L582.146 121.592ZM585.676 123.639L587.441 124.662L587.439 125.661L585.674 124.638L585.676 123.639ZM589.205 125.685L590.97 126.708L590.969 127.707L589.204 126.684L589.205 125.685ZM592.735 127.732L594.5 128.755L594.498 129.754L592.733 128.73L592.735 127.732ZM596.265 129.778L598.03 130.801L598.028 131.8L596.263 130.777L596.265 129.778ZM599.795 131.824L601.56 132.848L601.558 133.846L599.793 132.823L599.795 131.824ZM603.324 133.871L605.089 134.894L605.088 135.893L603.323 134.87L603.324 133.871ZM606.854 135.917L608.619 136.94L608.617 137.939L606.853 136.916L606.854 135.917ZM610.384 137.964L612.149 138.987L612.147 139.986L610.382 138.963L610.384 137.964ZM613.914 140.01L615.679 141.033L615.677 142.032L613.912 141.009L613.914 140.01ZM617.444 142.056L619.208 143.08L619.207 144.079L617.442 143.055L617.444 142.056Z" fill="#F50000"/>
<path d="M410.203 329.592L405.954 335.088L405.796 329.409L410.203 329.592ZM376.141 350.5L380.39 345.004L380.547 350.683L376.141 350.5ZM407.662 331.652L405.959 332.697L405.932 331.713L407.635 330.668L407.662 331.652ZM404.256 333.743L402.553 334.788L402.525 333.804L404.229 332.759L404.256 333.743ZM400.85 335.833L399.146 336.879L399.119 335.895L400.822 334.85L400.85 335.833ZM397.443 337.924L395.74 338.97L395.713 337.986L397.416 336.941L397.443 337.924ZM394.037 340.015L392.334 341.061L392.307 340.077L394.01 339.031L394.037 340.015ZM390.631 342.106L388.928 343.151L388.9 342.168L390.603 341.122L390.631 342.106ZM387.225 344.197L385.521 345.242L385.494 344.258L387.197 343.213L387.225 344.197ZM383.818 346.288L382.115 347.333L382.088 346.349L383.791 345.304L383.818 346.288ZM380.412 348.378L378.709 349.424L378.682 348.44L380.385 347.395L380.412 348.378Z" fill="#F50000"/>
<path d="M543.641 253L539.361 258.456L539.262 252.741L543.641 253ZM517.14 268.908L521.42 263.452L521.519 269.167L517.14 268.908ZM541.165 254.986L539.509 255.981L539.491 254.991L541.148 253.996L541.165 254.986ZM537.852 256.975L536.196 257.969L536.179 256.979L537.835 255.985L537.852 256.975ZM534.54 258.963L532.883 259.958L532.866 258.968L534.523 257.974L534.54 258.963ZM531.227 260.952L529.571 261.946L529.554 260.956L531.21 259.962L531.227 260.952ZM527.915 262.941L526.258 263.935L526.241 262.945L527.898 261.951L527.915 262.941ZM524.602 264.929L522.946 265.923L522.929 264.934L524.585 263.939L524.602 264.929ZM521.29 266.918L519.633 267.912L519.616 266.922L521.272 265.928L521.29 266.918Z" fill="#F50000"/>
<path d="M473.641 292L469.362 297.457L469.261 291.743L473.641 292ZM420.14 324.131L424.42 318.674L424.52 324.389L420.14 324.131ZM470.974 294.101L469.191 295.172L469.174 294.183L470.957 293.112L470.974 294.101ZM467.408 296.244L465.624 297.315L465.607 296.325L467.39 295.254L467.408 296.244ZM463.841 298.386L462.058 299.457L462.04 298.467L463.824 297.396L463.841 298.386ZM460.274 300.528L458.491 301.599L458.474 300.609L460.257 299.538L460.274 300.528ZM456.708 302.67L454.924 303.741L454.907 302.751L456.69 301.68L456.708 302.67ZM453.141 304.812L451.358 305.883L451.34 304.893L453.124 303.822L453.141 304.812ZM449.574 306.954L447.791 308.025L447.774 307.035L449.557 305.964L449.574 306.954ZM446.008 309.096L444.224 310.167L444.207 309.177L445.99 308.106L446.008 309.096ZM442.441 311.238L440.658 312.309L440.64 311.32L442.424 310.248L442.441 311.238ZM438.874 313.38L437.091 314.451L437.074 313.462L438.857 312.391L438.874 313.38ZM435.308 315.522L433.524 316.593L433.507 315.604L435.29 314.533L435.308 315.522ZM431.741 317.665L429.958 318.736L429.94 317.746L431.723 316.675L431.741 317.665ZM428.174 319.807L426.391 320.878L426.373 319.888L428.157 318.817L428.174 319.807ZM424.608 321.949L422.824 323.02L422.807 322.03L424.59 320.959L424.608 321.949Z" fill="#F50000"/>
<path d="M587.141 227.5L582.792 232.86L582.83 227.065L587.141 227.5ZM556.14 245.131L560.489 239.771L560.452 245.566L556.14 245.131ZM584.554 229.471L582.832 230.451L582.838 229.447L584.561 228.468L584.554 229.471ZM581.11 231.43L579.387 232.41L579.394 231.406L581.116 230.427L581.11 231.43ZM577.665 233.389L575.943 234.369L575.949 233.365L577.672 232.386L577.665 233.389ZM574.221 235.348L572.498 236.328L572.505 235.324L574.227 234.345L574.221 235.348ZM570.776 237.307L569.054 238.287L569.06 237.283L570.783 236.304L570.776 237.307ZM567.332 239.266L565.609 240.246L565.616 239.242L567.338 238.263L567.332 239.266ZM563.887 241.225L562.165 242.205L562.172 241.201L563.894 240.222L563.887 241.225ZM560.443 243.185L558.721 244.164L558.727 243.16L560.449 242.181L560.443 243.185Z" fill="#F50000"/>
<path d="M457.391 147.43L453.087 152.854L453.034 147.111L457.391 147.43ZM356.141 207.132L360.444 201.707L360.497 207.45L356.141 207.132ZM454.777 149.471L453.031 150.5L453.022 149.506L454.768 148.476L454.777 149.471ZM451.285 151.53L449.54 152.559L449.53 151.564L451.276 150.535L451.285 151.53ZM447.794 153.588L446.048 154.618L446.039 153.623L447.785 152.594L447.794 153.588ZM444.303 155.647L442.557 156.676L442.548 155.682L444.293 154.652L444.303 155.647ZM440.811 157.706L439.065 158.735L439.056 157.74L440.802 156.711L440.811 157.706ZM437.32 159.764L435.574 160.794L435.565 159.799L437.311 158.77L437.32 159.764ZM433.828 161.823L432.083 162.852L432.074 161.858L433.819 160.829L433.828 161.823ZM430.337 163.882L428.591 164.911L428.582 163.917L430.328 162.887L430.337 163.882ZM426.846 165.941L425.1 166.97L425.091 165.975L426.836 164.946L426.846 165.941ZM423.354 167.999L421.609 169.029L421.599 168.034L423.345 167.005L423.354 167.999ZM419.863 170.058L418.117 171.087L418.108 170.093L419.854 169.063L419.863 170.058ZM416.371 172.117L414.626 173.146L414.617 172.151L416.362 171.122L416.371 172.117ZM412.88 174.175L411.134 175.205L411.125 174.21L412.871 173.181L412.88 174.175ZM409.389 176.234L407.643 177.263L407.634 176.269L409.38 175.239L409.389 176.234ZM405.897 178.293L404.152 179.322L404.142 178.327L405.888 177.298L405.897 178.293ZM402.406 180.351L400.66 181.381L400.651 180.386L402.397 179.357L402.406 180.351ZM398.915 182.41L397.169 183.439L397.16 182.445L398.905 181.415L398.915 182.41ZM395.423 184.469L393.677 185.498L393.668 184.503L395.414 183.474L395.423 184.469ZM391.932 186.527L390.186 187.557L390.177 186.562L391.923 185.533L391.932 186.527ZM388.44 188.586L386.695 189.615L386.686 188.621L388.431 187.591L388.44 188.586ZM384.949 190.645L383.203 191.674L383.194 190.679L384.94 189.65L384.949 190.645ZM381.458 192.703L379.712 193.733L379.703 192.738L381.448 191.709L381.458 192.703ZM377.966 194.762L376.221 195.791L376.211 194.797L377.957 193.767L377.966 194.762ZM374.475 196.821L372.729 197.85L372.72 196.856L374.466 195.826L374.475 196.821ZM370.984 198.879L369.238 199.909L369.229 198.914L370.974 197.885L370.984 198.879ZM367.492 200.938L365.746 201.968L365.737 200.973L367.483 199.944L367.492 200.938ZM364.001 202.997L362.255 204.026L362.246 203.032L363.992 202.002L364.001 202.997ZM360.509 205.056L358.764 206.085L358.755 205.09L360.5 204.061L360.509 205.056Z" fill="#F50000"/>
<path d="M498.391 172L494.087 177.424L494.034 171.682L498.391 172ZM397.141 231.702L401.444 226.278L401.497 232.02L397.141 231.702ZM495.777 174.041L494.031 175.071L494.022 174.076L495.768 173.047L495.777 174.041ZM492.285 176.1L490.54 177.129L490.53 176.135L492.276 175.105L492.285 176.1ZM488.794 178.159L487.048 179.188L487.039 178.193L488.785 177.164L488.794 178.159ZM485.303 180.217L483.557 181.247L483.548 180.252L485.293 179.223L485.303 180.217ZM481.811 182.276L480.065 183.305L480.056 182.311L481.802 181.281L481.811 182.276ZM478.32 184.335L476.574 185.364L476.565 184.369L478.311 183.34L478.32 184.335ZM474.828 186.393L473.083 187.423L473.074 186.428L474.819 185.399L474.828 186.393ZM471.337 188.452L469.591 189.481L469.582 188.487L471.328 187.458L471.337 188.452ZM467.846 190.511L466.1 191.54L466.091 190.546L467.836 189.516L467.846 190.511ZM464.354 192.57L462.609 193.599L462.599 192.604L464.345 191.575L464.354 192.57ZM460.863 194.628L459.117 195.658L459.108 194.663L460.854 193.634L460.863 194.628ZM457.371 196.687L455.626 197.716L455.617 196.722L457.362 195.692L457.371 196.687ZM453.88 198.746L452.134 199.775L452.125 198.78L453.871 197.751L453.88 198.746ZM450.389 200.804L448.643 201.834L448.634 200.839L450.38 199.81L450.389 200.804ZM446.897 202.863L445.152 203.892L445.142 202.898L446.888 201.868L446.897 202.863ZM443.406 204.922L441.66 205.951L441.651 204.956L443.397 203.927L443.406 204.922ZM439.915 206.98L438.169 208.01L438.16 207.015L439.905 205.986L439.915 206.98ZM436.423 209.039L434.677 210.068L434.668 209.074L436.414 208.044L436.423 209.039ZM432.932 211.098L431.186 212.127L431.177 211.132L432.923 210.103L432.932 211.098ZM429.44 213.156L427.695 214.186L427.686 213.191L429.431 212.162L429.44 213.156ZM425.949 215.215L424.203 216.244L424.194 215.25L425.94 214.22L425.949 215.215ZM422.458 217.274L420.712 218.303L420.703 217.308L422.448 216.279L422.458 217.274ZM418.966 219.332L417.221 220.362L417.211 219.367L418.957 218.338L418.966 219.332ZM415.475 221.391L413.729 222.42L413.72 221.426L415.466 220.396L415.475 221.391ZM411.984 223.45L410.238 224.479L410.229 223.485L411.974 222.455L411.984 223.45ZM408.492 225.508L406.746 226.538L406.737 225.543L408.483 224.514L408.492 225.508ZM405.001 227.567L403.255 228.597L403.246 227.602L404.992 226.573L405.001 227.567ZM401.509 229.626L399.764 230.655L399.755 229.661L401.5 228.631L401.509 229.626Z" fill="#F50000"/>
<path d="M244.641 374V380.5" stroke="#F50000" stroke-width="2"/>
<path d="M409.141 362V368.5" stroke="#F50000" stroke-width="2"/>
<path d="M421.141 355V361.5" stroke="#F50000" stroke-width="2"/>
<path d="M409.141 308V314.5" stroke="#F50000" stroke-width="2"/>
<path d="M545.141 283V289.5" stroke="#F50000" stroke-width="2"/>
<path d="M556.141 276V282.5" stroke="#F50000" stroke-width="2"/>
<circle cx="11.9988" cy="11.9988" r="11.9988" transform="matrix(0.86601 0.500028 3.18351e-05 1 197.141 261)" fill="white" stroke="#F50000" stroke-width="2"/>
<circle cx="11.9988" cy="11.9988" r="11.9988" transform="matrix(0.86601 -0.500028 -3.18351e-05 1 437.75 260.999)" fill="white" stroke="#F50000" stroke-width="2"/>
<circle cx="11.9988" cy="11.9988" r="11.9988" transform="matrix(0.86601 0.500028 3.18351e-05 1 517.141 80)" fill="white" stroke="#F50000" stroke-width="2"/>
<circle cx="11.9988" cy="11.9988" r="11.9988" transform="matrix(0.86601 0.500028 3.18351e-05 1 261.75 334.999)" fill="white" stroke="#F50000" stroke-width="2"/>
<circle cx="11.9988" cy="11.9988" r="11.9988" transform="matrix(0.86601 -0.500028 -3.18351e-05 1 624.75 260.999)" fill="white" stroke="#F50000" stroke-width="2"/>
<path d="M296.29 355.122C296.69 355.353 297.038 355.711 297.318 356.196C297.597 356.68 297.741 357.225 297.741 357.819C297.741 358.43 297.552 358.827 297.182 359.015C296.811 359.202 296.343 359.132 295.776 358.805C294.68 358.172 293.962 357.086 293.863 355.877L294.974 356.37C295.027 356.916 295.322 357.4 295.776 357.662C296.267 357.945 296.622 357.74 296.622 357.173C296.622 356.606 296.29 356.003 295.813 355.729C295.451 355.519 295.186 355.532 295.027 355.781L294.022 355.061L294.392 351.81L297.333 353.507L297.333 354.616L295.246 353.411L295.02 355.314C295.239 354.821 295.662 354.76 296.29 355.122ZM301.451 357.491L303.189 358.495L303.189 362.998L302.29 362.479L302.29 358.22L301.625 362.095L299.969 361.139L299.304 356.496L299.304 360.755L298.405 360.236L298.405 355.732L300.136 356.732L300.793 361.301L301.451 357.491ZM306.192 361.101L303.803 359.722L303.803 359.006L304.627 358.548C304.778 358.467 304.896 358.395 304.982 358.334C305.068 358.267 305.128 358.198 305.164 358.125C305.199 358.052 305.216 357.966 305.216 357.867C305.216 357.763 305.186 357.664 305.126 357.571C305.07 357.48 304.992 357.406 304.891 357.348C304.796 357.293 304.692 357.262 304.581 357.256C304.476 357.253 304.357 357.281 304.226 357.339L303.773 356.432C303.934 356.362 304.113 356.334 304.309 356.349C304.511 356.36 304.745 356.443 305.012 356.597C305.34 356.787 305.602 357.031 305.798 357.331C306 357.627 306.101 357.947 306.101 358.291C306.101 358.465 306.073 358.612 306.018 358.731C305.962 358.845 305.874 358.948 305.753 359.041C305.632 359.129 305.473 359.22 305.277 359.316L304.891 359.495L306.192 360.246L306.192 361.101Z" fill="#F50000"/>
<path d="M268.921 348.12L272.783 349.202L272.783 356.985L274.633 358.053L274.633 359.748L268.921 356.451L268.921 354.755L271.13 356.03L271.129 350.41L268.921 349.802L268.921 348.12Z" fill="#F50000"/>
<path d="M209.563 281.393L207.563 282.281L210.997 284.263L210.997 285.959L205.124 282.568L205.124 281.099L208.511 279.437C208.962 279.217 209.182 278.85 209.182 278.356C209.182 277.621 208.708 276.907 208.014 276.507C207.263 276.073 206.8 276.353 206.8 277.314L205.089 276.326C205.089 275.325 205.366 274.684 205.91 274.411C206.453 274.15 207.17 274.27 208.06 274.784C209.771 275.772 210.881 277.521 210.881 279.297C210.881 280.298 210.442 281.006 209.563 281.393Z" fill="#F50000"/>
<path d="M526.208 93.4261L529.261 95.1884L529.261 101.076L530.255 101.65L530.255 103.332L529.261 102.758L529.261 104.534L527.608 103.579L527.608 101.803L523.584 99.4803L523.584 97.7982L526.208 93.4261ZM527.608 100.121L527.607 94.8079L525.249 98.7595L527.608 100.121Z" fill="#F50000"/>
<path d="M220.844 305.338L222.84 306.491L222.84 310.34L223.49 310.715L223.49 311.815L222.84 311.439L222.84 312.6L221.759 311.976L221.759 310.815L219.129 309.297L219.129 308.197L220.844 305.338ZM221.759 309.716L221.759 306.242L220.217 308.825L221.759 309.716ZM224.081 312.618C224.081 312.173 224.375 312.003 224.761 312.226C225.124 312.435 225.434 312.972 225.434 313.399C225.434 313.81 225.124 313.997 224.761 313.788C224.391 313.574 224.081 313.037 224.081 312.618ZM227.598 309.238L229.594 310.39L229.594 314.239L230.244 314.615L230.244 315.714L229.594 315.339L229.594 316.5L228.513 315.876L228.513 314.715L225.883 313.196L225.883 312.096L227.598 309.238ZM228.513 313.615L228.513 310.141L226.971 312.725L228.513 313.615ZM233.883 314.473L235.622 315.477L235.622 319.98L234.722 319.461L234.722 315.202L234.057 319.077L232.402 318.121L231.736 313.478L231.737 317.737L230.837 317.218L230.837 312.714L232.568 313.713L233.226 318.283L233.883 314.473ZM238.624 318.083L236.235 316.704L236.235 315.988L237.059 315.53C237.21 315.448 237.329 315.377 237.414 315.316C237.5 315.249 237.561 315.179 237.596 315.107C237.631 315.034 237.649 314.948 237.649 314.849C237.649 314.744 237.619 314.645 237.558 314.552C237.503 314.462 237.425 314.388 237.324 314.33C237.228 314.275 237.125 314.244 237.014 314.238C236.908 314.235 236.79 314.263 236.659 314.321L236.205 313.413C236.366 313.344 236.545 313.316 236.742 313.33C236.943 313.342 237.178 313.425 237.445 313.579C237.772 313.768 238.034 314.013 238.231 314.312C238.432 314.609 238.533 314.929 238.533 315.272C238.533 315.447 238.505 315.594 238.45 315.713C238.395 315.827 238.306 315.93 238.185 316.023C238.065 316.11 237.906 316.202 237.709 316.298L237.324 316.477L238.624 317.228L238.624 318.083Z" fill="#F50000"/>
<path d="M538.436 115.034L540.961 115.741L540.961 120.829L542.17 121.528L542.17 122.636L538.436 120.48L538.436 119.372L539.88 120.205L539.88 116.531L538.436 116.134L538.436 115.034ZM543.036 122.325C542.621 121.482 542.417 120.623 542.417 119.724C542.417 118.825 542.621 118.201 543.036 117.838C543.444 117.472 543.958 117.472 544.586 117.834C545.213 118.196 545.727 118.79 546.135 119.628C546.543 120.466 546.748 121.325 546.748 122.224C546.748 123.123 546.544 123.747 546.135 124.114C545.727 124.48 545.213 124.48 544.586 124.118C543.959 123.756 543.445 123.162 543.036 122.325ZM543.838 119.113C543.633 119.37 543.535 119.793 543.535 120.369C543.535 120.946 543.634 121.482 543.838 121.975C544.034 122.464 544.284 122.8 544.586 122.975C544.888 123.149 545.138 123.101 545.334 122.84C545.531 122.578 545.629 122.154 545.629 121.578C545.629 121.002 545.531 120.466 545.334 119.977C545.138 119.488 544.888 119.152 544.586 118.977C544.283 118.803 544.034 118.851 543.838 119.113ZM547.007 124.731C547.007 124.286 547.302 124.115 547.687 124.338C548.05 124.547 548.36 125.084 548.36 125.512C548.36 125.922 548.05 126.11 547.687 125.9C547.317 125.686 547.007 125.15 547.007 124.731ZM552.002 125.869L550.694 126.449L552.939 127.745L552.939 128.854L549.099 126.637L549.099 125.677L551.314 124.59C551.609 124.446 551.752 124.206 551.752 123.883C551.752 123.403 551.442 122.936 550.989 122.674C550.497 122.391 550.195 122.574 550.195 123.202L549.077 122.557C549.076 121.902 549.258 121.483 549.613 121.304C549.968 121.134 550.437 121.212 551.019 121.549C552.138 122.194 552.863 123.338 552.863 124.499C552.863 125.153 552.576 125.616 552.002 125.869ZM556.802 126.581L558.541 127.585L558.541 132.088L557.641 131.569L557.641 127.31L556.976 131.185L555.321 130.229L554.656 125.586L554.656 129.845L553.756 129.326L553.756 124.822L555.487 125.822L556.145 130.391L556.802 126.581ZM561.543 130.191L559.155 128.812L559.155 128.096L559.978 127.638C560.13 127.557 560.248 127.485 560.334 127.424C560.419 127.357 560.48 127.287 560.515 127.215C560.55 127.142 560.568 127.056 560.568 126.957C560.568 126.853 560.538 126.754 560.477 126.661C560.422 126.57 560.344 126.496 560.243 126.438C560.147 126.383 560.044 126.352 559.933 126.346C559.827 126.343 559.709 126.371 559.578 126.429L559.124 125.521C559.285 125.452 559.464 125.424 559.661 125.439C559.862 125.45 560.097 125.533 560.364 125.687C560.691 125.876 560.953 126.121 561.15 126.421C561.351 126.717 561.452 127.037 561.452 127.381C561.452 127.555 561.425 127.702 561.369 127.821C561.314 127.935 561.226 128.038 561.105 128.131C560.984 128.218 560.825 128.31 560.628 128.406L560.243 128.585L561.543 129.336L561.543 130.191Z" fill="#F50000"/>
<path d="M444.168 211.655L446.693 209.447L446.693 214.535L447.902 213.837L447.902 214.945L444.168 217.101L444.168 215.993L445.612 215.159L445.612 211.485L444.168 212.755L444.168 211.655ZM451.275 210.554L449.967 212.644L452.212 211.348L452.212 212.457L448.372 214.674L448.372 213.714L450.587 210.07C450.882 209.585 451.026 209.179 451.026 208.856C451.026 208.376 450.716 208.267 450.262 208.529C449.771 208.813 449.468 209.345 449.468 209.974L448.35 210.619C448.35 209.965 448.531 209.336 448.887 208.747C449.242 208.167 449.71 207.704 450.292 207.368C451.411 206.722 452.137 207.028 452.137 208.189C452.137 208.843 451.849 209.637 451.275 210.554ZM456.076 205.722L457.814 204.719L457.814 209.222L456.914 209.742L456.915 205.482L456.249 210.126L454.594 211.081L453.929 207.206L453.929 211.465L453.029 211.985L453.029 207.481L454.76 206.482L455.418 210.291L456.076 205.722ZM460.816 203.858L458.428 205.237L458.428 204.521L459.252 203.112C459.403 202.856 459.521 202.648 459.607 202.488C459.693 202.322 459.753 202.182 459.788 202.069C459.824 201.955 459.841 201.849 459.841 201.75C459.841 201.645 459.811 201.581 459.751 201.558C459.695 201.532 459.617 201.548 459.516 201.606C459.421 201.661 459.317 201.75 459.206 201.872C459.101 201.992 458.982 202.156 458.851 202.365L458.398 201.981C458.559 201.725 458.738 201.491 458.934 201.279C459.136 201.058 459.37 200.87 459.637 200.716C459.965 200.527 460.227 200.468 460.423 200.541C460.625 200.605 460.726 200.809 460.726 201.152C460.726 201.327 460.698 201.506 460.643 201.689C460.587 201.866 460.499 202.071 460.378 202.304C460.257 202.531 460.098 202.806 459.902 203.129L459.516 203.753L460.816 203.002L460.816 203.858Z" fill="#F50000"/>
<path d="M528.766 271.492L528.766 272.452L527.511 274.651C527.927 274.472 528.274 274.464 528.546 274.63C528.819 274.804 528.955 275.144 528.955 275.659C528.955 276.218 528.773 276.785 528.418 277.348C528.063 277.911 527.594 278.365 527.027 278.692C525.886 279.351 525.168 279.068 525.1 277.859L526.218 277.065C526.226 277.68 526.543 277.828 527.035 277.545C527.541 277.252 527.836 276.742 527.836 276.209C527.836 275.686 527.496 275.55 526.868 275.913L526.385 276.192L526.385 275.223L527.443 273.364L525.357 274.569L525.357 273.46L528.766 271.492ZM529.59 276.427C529.59 275.982 529.885 275.471 530.271 275.249C530.634 275.039 530.943 275.218 530.943 275.646C530.943 276.056 530.634 276.601 530.271 276.811C529.9 277.025 529.59 276.846 529.59 276.427ZM533.188 268.938L534.42 268.227L533.014 271.858C533.355 271.199 533.959 270.727 534.451 270.653C534.942 270.579 535.358 270.959 535.357 271.762C535.357 272.364 535.176 272.966 534.806 273.59C534.435 274.214 533.967 274.686 533.4 275.013C532.833 275.34 532.372 275.406 532.001 275.218C531.631 275.03 531.442 274.633 531.442 274.022C531.442 273.647 531.571 273.128 531.82 272.469L533.188 268.938ZM532.803 273.935C532.961 274.027 533.158 274.009 533.4 273.87C533.642 273.73 533.846 273.516 534.004 273.241C534.163 272.966 534.239 272.696 534.239 272.408C534.239 272.12 534.163 271.928 534.005 271.836C533.846 271.744 533.642 271.775 533.4 271.914C533.158 272.054 532.961 272.255 532.803 272.53C532.644 272.805 532.561 273.088 532.561 273.376C532.561 273.664 532.644 273.843 532.803 273.935ZM539.068 267.149L540.807 266.145L540.807 270.649L539.907 271.168L539.907 266.909L539.242 271.552L537.587 272.508L536.922 268.633L536.922 272.892L536.022 273.412L536.022 268.908L537.753 267.908L538.411 271.718L539.068 267.149ZM543.809 265.285L541.421 266.664L541.421 265.948L542.245 264.538C542.396 264.282 542.514 264.074 542.6 263.914C542.686 263.748 542.746 263.609 542.781 263.495C542.817 263.382 542.834 263.276 542.834 263.177C542.834 263.072 542.804 263.008 542.743 262.985C542.688 262.959 542.61 262.975 542.509 263.033C542.413 263.088 542.31 263.177 542.199 263.299C542.093 263.418 541.975 263.583 541.844 263.792L541.391 263.408C541.552 263.152 541.731 262.918 541.927 262.705C542.129 262.484 542.363 262.297 542.63 262.143C542.958 261.953 543.22 261.895 543.416 261.968C543.618 262.032 543.719 262.236 543.719 262.579C543.719 262.753 543.691 262.932 543.635 263.116C543.58 263.293 543.492 263.498 543.371 263.731C543.25 263.958 543.091 264.233 542.895 264.556L542.509 265.18L543.809 264.429L543.809 265.285Z" fill="#F50000"/>
<path d="M452.653 361.711L454.649 360.559L454.649 364.408L455.299 364.033L455.299 365.133L454.649 365.508L454.649 366.669L453.568 367.293L453.568 366.132L450.937 367.651L450.938 366.551L452.653 361.711ZM453.568 365.032L453.568 361.559L452.026 365.923L453.568 365.032ZM455.889 365.254C455.889 364.809 456.184 364.299 456.57 364.076C456.932 363.867 457.242 364.045 457.242 364.473C457.242 364.883 456.932 365.429 456.57 365.638C456.199 365.852 455.889 365.673 455.889 365.254ZM457.859 359.369L460.384 357.161L460.384 362.249L461.593 361.551L461.593 362.659L457.859 364.815L457.859 363.707L459.303 362.873L459.303 359.199L457.859 360.469L457.859 359.369ZM465.079 356.143L466.818 355.139L466.818 359.643L465.918 360.162L465.918 355.903L465.253 360.546L463.598 361.502L462.933 357.627L462.933 361.886L462.033 362.405L462.033 357.901L463.764 356.902L464.422 360.712L465.079 356.143ZM469.82 354.278L467.432 355.657L467.432 354.942L468.256 353.532C468.407 353.276 468.525 353.068 468.611 352.908C468.697 352.742 468.757 352.602 468.792 352.489C468.828 352.375 468.845 352.269 468.845 352.17C468.845 352.066 468.815 352.002 468.755 351.978C468.699 351.952 468.621 351.968 468.52 352.026C468.424 352.082 468.321 352.17 468.21 352.293C468.105 352.412 467.986 352.576 467.855 352.786L467.402 352.402C467.563 352.146 467.742 351.911 467.938 351.699C468.14 351.478 468.374 351.29 468.641 351.136C468.969 350.947 469.231 350.889 469.427 350.962C469.629 351.026 469.73 351.229 469.73 351.572C469.73 351.747 469.702 351.926 469.646 352.109C469.591 352.287 469.503 352.492 469.382 352.725C469.261 352.952 469.102 353.226 468.906 353.549L468.52 354.173L469.82 353.423L469.82 354.278Z" fill="#F50000"/>
<path d="M636.409 265.581C637.022 265.227 637.554 265.161 637.981 265.408C638.409 265.655 638.629 266.235 638.629 267.143C638.629 268.078 638.34 269.019 637.773 269.96C637.207 270.901 636.49 271.622 635.623 272.123C633.946 273.091 632.848 272.697 632.698 271.021L634.397 269.813C634.478 270.554 634.929 270.774 635.623 270.374C636.374 269.94 636.918 268.999 636.918 268.131C636.918 267.263 636.409 266.93 635.681 267.35C635.126 267.67 634.721 268.158 634.478 268.819L632.941 269.493L633.507 263.866L638.005 261.269L638.005 262.964L634.814 264.807L634.467 268.118C634.802 266.976 635.449 266.135 636.409 265.581Z" fill="#F50000"/>
<path d="M451.147 261.187L451.147 262.655L449.228 266.019C449.864 265.746 450.396 265.732 450.812 265.986C451.228 266.253 451.436 266.774 451.436 267.561C451.436 268.416 451.159 269.283 450.615 270.145C450.072 271.006 449.355 271.7 448.488 272.201C446.742 273.209 445.644 272.775 445.54 270.926L447.251 269.711C447.263 270.652 447.748 270.879 448.5 270.445C449.274 269.998 449.725 269.217 449.725 268.402C449.725 267.601 449.205 267.394 448.245 267.949L447.505 268.376L447.505 266.894L449.124 264.05L445.933 265.893L445.933 264.197L451.147 261.187Z" fill="#F50000"/>
<circle cx="3.50511" cy="3.50511" r="3.50511" transform="matrix(-0.866041 -0.499972 -0.866041 0.499972 197.568 424.505)" stroke="#F50000" stroke-width="2" stroke-dasharray="4 4"/>
<circle cx="3.50511" cy="3.50511" r="3.50511" transform="matrix(-0.866041 -0.499972 -0.866041 0.499972 255.568 459.505)" stroke="#F50000" stroke-width="2" stroke-dasharray="4 4"/>
<circle cx="3.50511" cy="3.50511" r="3.50511" transform="matrix(-0.866041 -0.499972 -0.866041 0.499972 163.283 444.505)" stroke="#F50000" stroke-width="2" stroke-dasharray="4 4"/>
<circle cx="3.50511" cy="3.50511" r="3.50511" transform="matrix(-0.866041 -0.499972 -0.866041 0.499972 221.283 479.505)" stroke="#F50000" stroke-width="2" stroke-dasharray="4 4"/>
<circle cx="3.50511" cy="3.50511" r="3.50511" transform="matrix(-0.866041 -0.499972 -0.866041 0.499972 128.283 464.505)" stroke="#F50000" stroke-width="2" stroke-dasharray="4 4"/>
<circle cx="3.50511" cy="3.50511" r="3.50511" transform="matrix(-0.866041 -0.499972 -0.866041 0.499972 186.283 499.505)" stroke="#F50000" stroke-width="2" stroke-dasharray="4 4"/>
<circle cx="3.50511" cy="3.50511" r="3.50511" transform="matrix(-0.866041 -0.499972 -0.866041 0.499972 89.2832 487.186)" stroke="#F50000" stroke-width="2" stroke-dasharray="4 4"/>
<circle cx="3.50511" cy="3.50511" r="3.50511" transform="matrix(-0.866041 -0.499972 -0.866041 0.499972 147.283 522.186)" stroke="#F50000" stroke-width="2" stroke-dasharray="4 4"/>
<circle cx="3.50511" cy="3.50511" r="3.50511" transform="matrix(-0.866041 -0.499972 -0.866041 0.499972 50.2832 509.186)" stroke="#F50000" stroke-width="2" stroke-dasharray="4 4"/>
<circle cx="3.50511" cy="3.50511" r="3.50511" transform="matrix(-0.866041 -0.499972 -0.866041 0.499972 108.283 544.186)" stroke="#F50000" stroke-width="2" stroke-dasharray="4 4"/>
<circle cx="3.50511" cy="3.50511" r="3.50511" transform="matrix(-0.866041 -0.499972 -0.866041 0.499972 13.2832 530.505)" stroke="#F50000" stroke-width="2" stroke-dasharray="4 4"/>
<circle cx="3.50511" cy="3.50511" r="3.50511" transform="matrix(-0.866041 -0.499972 -0.866041 0.499972 71.2832 565.505)" stroke="#F50000" stroke-width="2" stroke-dasharray="4 4"/>
<defs>
<linearGradient id="paint0_linear_295_622" x1="112.443" y1="483.99" x2="33.8929" y2="558.642" gradientUnits="userSpaceOnUse">
<stop stop-color="#F50000"/>
<stop offset="1" stop-color="#F50000" stop-opacity="0"/>
</linearGradient>
</defs>
</svg>
