<svg width="882" height="643" viewBox="0 0 882 643" fill="none" xmlns="http://www.w3.org/2000/svg">
<path fill-rule="evenodd" clip-rule="evenodd" d="M208.138 82.1838C249.489 62.0963 288.208 36.2839 342.25 36.2299C396.349 36.1758 440.837 58.5975 476.827 81.9153C510.417 103.678 533.739 130.465 532.68 159.608C531.641 188.188 506.068 213.753 471.294 234.105C436.24 254.621 391.041 264.977 342.25 271.06C274.417 279.518 197.356 299.396 142.108 275.151C84.9327 250.061 74.3566 200.283 88.275 159.608C100.354 124.307 160.447 105.351 208.138 82.1838Z" fill="#1D1D1D" stroke="#F50000" stroke-width="2"/>
<path d="M266.265 282.707C265.691 280.426 265.373 278.163 265.373 275.988C265.373 266.424 271.359 261.969 279.212 264.927C279.888 255.339 287.085 251.644 295.87 256.736C304.594 261.791 311.74 273.667 312.519 283.992C321.315 289.66 328.307 302.135 328.307 312.472C328.307 314.646 327.99 316.541 327.416 318.157C332.101 324.306 335.217 332.147 335.218 339.039C335.218 349.744 327.724 354.086 318.488 348.733C314.459 346.398 310.768 342.608 307.877 338.188C306.514 339.038 304.884 339.424 303.1 339.4L303.101 372.822L290.574 365.562L290.573 333.043C288.389 330.922 286.4 328.427 284.719 325.706C282.013 326.312 278.732 325.694 275.195 323.644C265.959 318.292 258.464 305.264 258.464 294.559C258.464 287.667 261.58 283.438 266.265 282.707Z" fill="#1D1D1D" stroke="#F50000" stroke-width="2"/>
<path d="M364.717 547.687L225.487 467.308L578.044 263.774L717.274 344.153L364.717 547.687Z" stroke="#F50000" stroke-width="2"/>
<path d="M49.3213 622.851L272.208 494.176M114.227 624.336L306.503 513.975" stroke="url(#paint0_linear_295_825)" stroke-width="2"/>
<path d="M311.962 294.024L256.462 356.524L363.463 418.524L311.962 294.024Z" fill="#BCBCBC" stroke="#F50000" stroke-width="2"/>
<path d="M307.462 339.024L279.463 369.857L331.464 400.51L307.462 339.024Z" fill="#CFCFCF" stroke="#F50000" stroke-width="2"/>
<path d="M305.517 352.104L285.462 374.024L323.96 396.689L305.517 352.104Z" fill="white" stroke="#F50000" stroke-width="2"/>
<path d="M630.469 108.72L311.479 293.875L364.962 420.025L683.962 233.525L630.469 108.72Z" fill="white" stroke="#F50000" stroke-width="2"/>
<path d="M378.962 255.024L339.462 277.68L392.462 403.524L432.455 379.83L378.962 255.024Z" fill="white" stroke="#F50000" stroke-width="2"/>
<path d="M454.962 210.524L415.462 233.18L468.462 359.024L508.455 335.33L454.962 210.524Z" fill="white" stroke="#F50000" stroke-width="2"/>
<path d="M531.962 166.524L492.462 189.18L545.462 315.024L585.455 291.33L531.962 166.524Z" fill="white" stroke="#F50000" stroke-width="2"/>
<path d="M606.962 122.525L567.462 145.18L620.462 271.025L660.455 247.33L606.962 122.525Z" fill="white" stroke="#F50000" stroke-width="2"/>
<path d="M363.509 529.864L363.506 418.845L256.385 356.995L256.387 412.504L256.388 468.013L363.509 529.864Z" fill="#BCBCBC" stroke="#F50000" stroke-width="2"/>
<path d="M337.089 514.479L337.086 418.415L271.462 380.524L271.463 428.556L271.465 476.588L337.089 514.479Z" fill="white" stroke="#F50000" stroke-width="2"/>
<rect width="47.054" height="83.5718" transform="matrix(0.86601 0.500028 3.18907e-05 1 283.462 399.124)" fill="white" stroke="#F50000" stroke-width="2"/>
<rect width="38.1066" height="79.1708" transform="matrix(0.86601 0.500028 3.18907e-05 1 287.463 406.524)" fill="white" stroke="#F50000" stroke-width="2"/>
<path d="M292.962 448.524V455.024" stroke="#F50000" stroke-width="2"/>
<path d="M682.998 234.329L363.962 419.524L363.462 530.024L682.998 345.524L682.998 234.329Z" fill="white" stroke="#F50000" stroke-width="2"/>
<path d="M408.462 504.024V418.524L649.462 278.524L649.962 365.024L593.962 396.99L549.962 422.378L525.462 436.515L457.962 475.463L408.462 504.024Z" fill="white" stroke="#F50000" stroke-width="2"/>
<path d="M413.962 501.024V421.524L463.462 392.685L530.962 353.359L555.462 339.085L599.462 313.451L599.712 313.305L643.962 287.524L644.462 368.024L599.462 393.99L555.462 419.378L530.962 433.515L463.462 472.463L413.962 501.024Z" fill="white"/>
<path d="M463.462 392.685L413.962 421.524V501.024L463.462 472.463M463.462 392.685V472.463M463.462 392.685L530.962 353.359M463.462 472.463L530.962 433.515M530.962 353.359V433.515M530.962 353.359L555.462 339.085M530.962 433.515L555.462 419.378M555.462 339.085V379.232V419.378M555.462 339.085L599.712 313.305L643.962 287.524L644.462 368.024L599.462 393.99M555.462 419.378L599.462 393.99M599.462 313.451V393.99" stroke="#F50000" stroke-width="2"/>
<path d="M384.462 490.524V449.524L391.462 445.524V486.524L384.462 490.524Z" stroke="#F50000" stroke-width="2"/>
<path d="M350.962 489.524V448.524L347.462 446.524V487.524L350.962 489.524Z" fill="white" stroke="#F50000" stroke-width="2"/>
<path d="M265.962 445.524V404.524L262.462 402.524V443.524L265.962 445.524Z" fill="white" stroke="#F50000" stroke-width="2"/>
<path d="M662.462 326.524V285.524L669.462 281.524V322.524L662.462 326.524Z" stroke="#F50000" stroke-width="2"/>
<path d="M140.697 277.713L118.402 306.082L128.783 312.098L107.977 336.169L119.848 343.048L103.465 362.801L177.935 405.958L161.551 367.216L173.421 374.095L152.613 325.908L162.994 331.924L140.697 277.713ZM136.232 381.79L136.233 419.639L145.17 424.818L145.168 386.969L136.232 381.79Z" fill="#1D1D1D" stroke="#F50000" stroke-width="2"/>
<path d="M583.417 454.373C583.991 452.092 584.309 449.829 584.309 447.654C584.309 438.09 578.322 433.635 570.47 436.593C569.793 427.005 562.597 423.31 553.811 428.402C545.087 433.457 537.942 445.333 537.162 455.658C528.366 461.326 521.375 473.801 521.374 484.138C521.374 486.312 521.692 488.207 522.266 489.823C517.581 495.972 514.464 503.813 514.464 510.705C514.464 521.41 521.957 525.752 531.194 520.399C535.223 518.064 538.913 514.274 541.804 509.854C543.168 510.704 544.798 511.09 546.582 511.066L546.581 544.488L559.108 537.228L559.109 504.709C561.293 502.588 563.281 500.093 564.963 497.372C567.669 497.978 570.95 497.36 574.486 495.31C583.723 489.958 591.217 476.93 591.218 466.225C591.218 459.333 588.102 455.104 583.417 454.373Z" fill="#1D1D1D" stroke="#F50000" stroke-width="2"/>
<path d="M834.417 459.355C834.991 457.073 835.309 454.81 835.309 452.636C835.309 443.071 829.322 438.616 821.47 441.575C820.793 431.987 813.597 428.292 804.811 433.383C796.087 438.439 788.942 450.314 788.162 460.639C779.366 466.307 772.375 478.783 772.374 489.119C772.374 491.294 772.692 493.189 773.266 494.804C768.581 500.953 765.464 508.795 765.464 515.686C765.464 526.391 772.957 530.733 782.194 525.381C786.223 523.046 789.913 519.256 792.804 514.836C794.168 515.685 795.798 516.071 797.582 516.047L797.581 549.469L810.108 542.209L810.109 509.69C812.293 507.57 814.281 505.074 815.963 502.354C818.669 502.959 821.95 502.342 825.486 500.292C834.723 494.939 842.217 481.911 842.218 471.206C842.218 464.315 839.102 460.085 834.417 459.355Z" fill="#1D1D1D" stroke="#F50000" stroke-width="2"/>
<path d="M872.417 175.314C872.991 173.033 873.309 170.77 873.309 168.595C873.309 159.031 867.322 154.576 859.47 157.534C858.793 147.946 851.597 144.251 842.811 149.343C834.087 154.398 826.942 166.274 826.162 176.599C817.366 182.266 810.375 194.742 810.374 205.079C810.374 207.253 810.692 209.148 811.266 210.764C806.581 216.913 803.464 224.754 803.464 231.645C803.464 242.35 810.957 246.693 820.194 241.34C824.223 239.005 827.913 235.215 830.804 230.795C832.168 231.645 833.798 232.031 835.582 232.007L835.581 265.429L848.108 258.169L848.109 225.65C850.293 223.529 852.281 221.034 853.963 218.313C856.669 218.919 859.95 218.301 863.486 216.251C872.723 210.899 880.217 197.87 880.218 187.165C880.218 180.274 877.102 176.045 872.417 175.314Z" fill="#1D1D1D" stroke="#F50000" stroke-width="2"/>
<path d="M28.265 192.45C27.6908 190.169 27.373 187.905 27.3729 185.731C27.3726 176.167 33.3593 171.711 41.2119 174.67C41.8882 165.082 49.0846 161.387 57.8702 166.478C66.5943 171.534 73.7399 183.41 74.5194 193.735C83.3152 199.402 90.3071 211.878 90.3074 222.214C90.3075 224.389 89.9898 226.284 89.4157 227.9C94.1008 234.048 97.2175 241.89 97.2177 248.781C97.218 259.486 89.7244 263.829 80.4877 258.476C76.4588 256.141 72.7682 252.351 69.8772 247.931C68.5138 248.78 66.8838 249.166 65.1001 249.143L65.1011 282.565L52.5737 275.305L52.5727 242.786C50.389 240.665 48.4002 238.17 46.7189 235.449C44.0125 236.055 40.732 235.437 37.1952 233.387C27.9586 228.034 20.4644 215.006 20.464 204.301C20.4638 197.41 23.5801 193.18 28.265 192.45Z" fill="#1D1D1D" stroke="#F50000" stroke-width="2"/>
<path d="M710.697 70.9556L688.402 99.3248L698.783 105.341L677.977 129.412L689.848 136.291L673.465 156.044L747.935 199.2L731.551 160.459L743.421 167.338L722.613 119.151L732.994 125.167L710.697 70.9556ZM706.232 175.033L706.233 212.882L715.17 218.061L715.168 180.211L706.232 175.033Z" fill="#1D1D1D" stroke="#F50000" stroke-width="2"/>
<path d="M808.702 267.676L830.997 296.046L820.616 302.062L841.421 326.133L829.551 333.012L845.933 352.765L771.463 395.921L787.848 357.179L775.977 364.058L796.785 315.872L786.404 321.888L808.702 267.676ZM813.166 371.753L813.165 409.603L804.229 414.781L804.23 376.932L813.166 371.753Z" fill="#1D1D1D" stroke="#F50000" stroke-width="2"/>
<path d="M666.702 413.21L688.997 441.579L678.616 447.595L699.421 471.666L687.551 478.545L703.933 498.298L629.463 541.454L645.848 502.712L633.977 509.592L654.785 461.405L644.404 467.421L666.702 413.21ZM671.166 517.287L671.165 555.136L662.229 560.315L662.23 522.465L671.166 517.287Z" fill="#1D1D1D" stroke="#F50000" stroke-width="2"/>
<path d="M457.462 436.524V443.024" stroke="#F50000" stroke-width="2"/>
<path d="M469.462 429.524V436.024" stroke="#F50000" stroke-width="2"/>
<path d="M593.462 357.524V364.024" stroke="#F50000" stroke-width="2"/>
<path d="M604.462 350.524V357.024" stroke="#F50000" stroke-width="2"/>
<circle cx="3.50511" cy="3.50511" r="3.50511" transform="matrix(-0.866041 -0.499972 -0.866041 0.499972 248.89 496.029)" fill="#1D1D1D" stroke="#F50000" stroke-width="2"/>
<circle cx="3.50511" cy="3.50511" r="3.50511" transform="matrix(-0.866041 -0.499972 -0.866041 0.499972 306.89 531.029)" fill="#1D1D1D" stroke="#F50000" stroke-width="2"/>
<circle cx="3.50511" cy="3.50511" r="3.50511" transform="matrix(-0.866041 -0.499972 -0.866041 0.499972 214.604 516.029)" fill="#1D1D1D" stroke="#F50000" stroke-width="2"/>
<circle cx="3.50511" cy="3.50511" r="3.50511" transform="matrix(-0.866041 -0.499972 -0.866041 0.499972 272.604 551.029)" fill="#1D1D1D" stroke="#F50000" stroke-width="2"/>
<circle cx="3.50511" cy="3.50511" r="3.50511" transform="matrix(-0.866041 -0.499972 -0.866041 0.499972 179.604 536.029)" fill="#1D1D1D" stroke="#F50000" stroke-width="2"/>
<circle cx="3.50511" cy="3.50511" r="3.50511" transform="matrix(-0.866041 -0.499972 -0.866041 0.499972 237.604 571.029)" fill="#1D1D1D" stroke="#F50000" stroke-width="2"/>
<circle cx="3.50511" cy="3.50511" r="3.50511" transform="matrix(-0.866041 -0.499972 -0.866041 0.499972 140.604 558.71)" fill="#1D1D1D" stroke="#F50000" stroke-width="2"/>
<circle cx="3.50511" cy="3.50511" r="3.50511" transform="matrix(-0.866041 -0.499972 -0.866041 0.499972 198.604 593.71)" fill="#1D1D1D" stroke="#F50000" stroke-width="2"/>
<circle cx="3.50511" cy="3.50511" r="3.50511" transform="matrix(-0.866041 -0.499972 -0.866041 0.499972 101.604 580.71)" fill="#1D1D1D" stroke="#F50000" stroke-width="2"/>
<circle cx="3.50511" cy="3.50511" r="3.50511" transform="matrix(-0.866041 -0.499972 -0.866041 0.499972 159.604 615.71)" fill="#1D1D1D" stroke="#F50000" stroke-width="2"/>
<circle cx="3.50511" cy="3.50511" r="3.50511" transform="matrix(-0.866041 -0.499972 -0.866041 0.499972 64.6045 602.029)" fill="#1D1D1D" stroke="#F50000" stroke-width="2"/>
<circle cx="3.50511" cy="3.50511" r="3.50511" transform="matrix(-0.866041 -0.499972 -0.866041 0.499972 122.604 637.029)" fill="#1D1D1D" stroke="#F50000" stroke-width="2"/>
<defs>
<linearGradient id="paint0_linear_295_825" x1="160.765" y1="558.514" x2="82.2142" y2="633.166" gradientUnits="userSpaceOnUse">
<stop stop-color="#F50000"/>
<stop offset="1" stop-color="#F50000" stop-opacity="0"/>
</linearGradient>
</defs>
</svg>
