<svg width="853" height="582" viewBox="0 0 853 582" fill="none" xmlns="http://www.w3.org/2000/svg">
<path fill-rule="evenodd" clip-rule="evenodd" d="M209.28 76.2822C247.661 57.6372 283.6 33.6784 333.761 33.6282C383.975 33.5781 425.269 54.3897 458.674 76.033C489.852 96.2328 511.5 121.097 510.516 148.146C509.552 174.675 485.815 198.404 453.538 217.295C421.002 236.337 379.049 245.949 333.761 251.596C270.799 259.446 199.272 277.896 147.991 255.393C94.9217 232.104 85.105 185.901 98.024 148.146C109.236 115.38 165.014 97.7862 209.28 76.2822Z" fill="white" stroke="#D73232" stroke-width="2"/>
<g clip-path="url(#clip0_812_947)">
<path d="M238.803 221.475C238.229 219.202 237.911 216.947 237.911 214.781C237.911 205.251 243.897 200.812 251.75 203.76C252.426 194.207 259.623 190.526 268.408 195.599C277.132 200.636 284.278 212.468 285.057 222.755C293.853 228.402 300.845 240.832 300.846 251.13C300.846 253.297 300.528 255.185 299.954 256.795C304.639 262.921 307.756 270.734 307.756 277.6C307.756 288.266 300.262 292.592 291.026 287.259C286.997 284.933 283.306 281.156 280.415 276.753C279.052 277.599 277.422 277.984 275.638 277.96L275.639 311.259L263.112 304.026L263.111 271.626C260.927 269.513 258.938 267.027 257.257 264.316C254.551 264.92 251.27 264.304 247.733 262.262C238.497 256.929 231.002 243.949 231.002 233.283C231.002 226.417 234.118 222.203 238.803 221.475Z" fill="white" stroke="#D73232" stroke-width="2"/>
</g>
<path d="M337.254 486.162L198.024 405.783L550.581 202.249L689.811 282.628L337.254 486.162Z" stroke="#D73232" stroke-width="2"/>
<path d="M21.8594 561.326L244.746 432.652M86.7651 562.812L279.041 452.45" stroke="#D73232" stroke-width="2"/>
<path d="M284.5 232.5L229 295L336.001 356.999L284.5 232.5Z" fill="#BCBCBC" stroke="#D73232" stroke-width="2"/>
<path d="M280 277.5L252.001 308.332L304.002 338.986L280 277.5Z" fill="#CFCFCF" stroke="#D73232" stroke-width="2"/>
<path d="M278.055 290.579L258 312.499L296.498 335.164L278.055 290.579Z" fill="white" stroke="#D73232" stroke-width="2"/>
<path d="M603.006 47.195L284.016 232.35L337.5 358.5L656.5 172L603.006 47.195Z" fill="white" stroke="#D73232" stroke-width="2"/>
<path d="M351.5 193.5L312 216.155L365 342L404.994 318.305L351.5 193.5Z" fill="white" stroke="#D73232" stroke-width="2"/>
<path d="M427.5 149L388 171.655L441 297.5L480.994 273.805L427.5 149Z" fill="white" stroke="#D73232" stroke-width="2"/>
<path d="M504.5 105L465 127.655L518 253.5L557.993 229.805L504.5 105Z" fill="white" stroke="#D73232" stroke-width="2"/>
<path d="M579.5 61.0002L540 83.6554L593 209.5L632.993 185.805L579.5 61.0002Z" fill="white" stroke="#D73232" stroke-width="2"/>
<path d="M336.047 468.34L336.044 357.321L228.923 295.47L228.925 350.979L228.926 406.489L336.047 468.34Z" fill="#BCBCBC" stroke="#D73232" stroke-width="2"/>
<path d="M309.627 452.954L309.624 356.89L244 319L244.002 367.032L244.003 415.064L309.627 452.954Z" fill="white" stroke="#D73232" stroke-width="2"/>
<rect width="47.054" height="83.5718" transform="matrix(0.86601 0.500028 3.18907e-05 1 256 337.599)" fill="white" stroke="#D73232" stroke-width="2"/>
<rect width="38.1066" height="79.1708" transform="matrix(0.86601 0.500028 3.18907e-05 1 260 345)" fill="white" stroke="#D73232" stroke-width="2"/>
<path d="M265.5 387V393.5" stroke="#D73232" stroke-width="2"/>
<path d="M655.536 172.805L336.5 357.999L336 468.5L655.536 283.999L655.536 172.805Z" fill="white" stroke="#D73232" stroke-width="2"/>
<path d="M381 442.5V357L622 217L622.5 303.5L566.5 335.465L522.5 360.853L498 374.99L430.5 413.938L381 442.5Z" fill="white" stroke="#D73232" stroke-width="2"/>
<path d="M386.5 439.5V360L436 331.161L503.5 291.834L528 277.561L572 251.926L572.25 251.78L616.5 226L617 306.5L572 332.465L528 357.853L503.5 371.99L436 410.938L386.5 439.5Z" fill="white"/>
<path d="M436 331.161L386.5 360V439.5L436 410.938M436 331.161V410.938M436 331.161L503.5 291.834M436 410.938L503.5 371.99M503.5 291.834V371.99M503.5 291.834L528 277.561M503.5 371.99L528 357.853M528 277.561V317.707V357.853M528 277.561L572.25 251.78L616.5 226L617 306.5L572 332.465M528 357.853L572 332.465M572 251.926V332.465" stroke="#D73232" stroke-width="2"/>
<path d="M357 429V388L364 384V425L357 429Z" stroke="#D73232" stroke-width="2"/>
<path d="M323.5 428V387L320 385V426L323.5 428Z" fill="white" stroke="#D73232" stroke-width="2"/>
<path d="M238.5 384V343L235 341V382L238.5 384Z" fill="white" stroke="#D73232" stroke-width="2"/>
<path d="M635 265V224L642 220V261L635 265Z" stroke="#D73232" stroke-width="2"/>
<path d="M113.235 216.499L90.9399 244.764L101.321 250.758L80.5153 274.741L92.3858 281.595L76.0034 301.275L150.473 344.273L134.089 305.674L145.959 312.528L125.151 264.517L135.532 270.511L113.235 216.499ZM108.77 320.194L108.771 357.905L117.708 363.065L117.706 325.354L108.77 320.194Z" fill="white" stroke="#D73232" stroke-width="2"/>
<g clip-path="url(#clip1_812_947)">
<path d="M555.954 402.475C556.528 400.202 556.846 397.947 556.846 395.781C556.847 386.251 550.86 381.812 543.007 384.76C542.331 375.207 535.135 371.526 526.349 376.599C517.625 381.636 510.479 393.468 509.7 403.755C500.904 409.402 493.912 421.832 493.912 432.131C493.912 434.297 494.229 436.185 494.804 437.795C490.118 443.921 487.002 451.734 487.002 458.6C487.001 469.266 494.495 473.592 503.732 468.259C507.76 465.933 511.451 462.156 514.342 457.753C515.705 458.599 517.335 458.984 519.119 458.96L519.118 492.26L531.646 485.026L531.647 452.626C533.83 450.513 535.819 448.027 537.5 445.316C540.207 445.92 543.487 445.304 547.024 443.262C556.261 437.929 563.755 424.949 563.755 414.283C563.755 407.417 560.639 403.203 555.954 402.475Z" fill="white" stroke="#D73232" stroke-width="2"/>
</g>
<g clip-path="url(#clip2_812_947)">
<path d="M806.954 397.475C807.528 395.202 807.846 392.947 807.846 390.781C807.847 381.251 801.86 376.812 794.007 379.76C793.331 370.207 786.135 366.526 777.349 371.599C768.625 376.636 761.479 388.468 760.7 398.755C751.904 404.402 744.912 416.832 744.912 427.131C744.912 429.297 745.229 431.185 745.804 432.795C741.118 438.921 738.002 446.734 738.002 453.6C738.001 464.266 745.495 468.592 754.732 463.259C758.76 460.933 762.451 457.156 765.342 452.753C766.705 453.599 768.335 453.984 770.119 453.96L770.118 487.26L782.646 480.026L782.647 447.626C784.83 445.513 786.819 443.027 788.5 440.316C791.207 440.92 794.487 440.304 798.024 438.262C807.261 432.929 814.755 419.949 814.755 409.283C814.755 402.417 811.639 398.203 806.954 397.475Z" fill="white" stroke="#D73232" stroke-width="2"/>
</g>
<g clip-path="url(#clip3_812_947)">
<path d="M844.954 114.475C845.528 112.202 845.846 109.947 845.846 107.781C845.847 98.2513 839.86 93.8124 832.007 96.7602C831.331 87.2072 824.135 83.5259 815.349 88.5986C806.625 93.6359 799.479 105.468 798.7 115.755C789.904 121.402 782.912 133.832 782.912 144.131C782.912 146.297 783.229 148.185 783.804 149.795C779.118 155.921 776.002 163.734 776.002 170.6C776.001 181.266 783.495 185.592 792.732 180.259C796.76 177.933 800.451 174.156 803.342 169.753C804.705 170.599 806.335 170.984 808.119 170.96L808.118 204.259L820.646 197.026L820.647 164.626C822.83 162.513 824.819 160.027 826.5 157.316C829.207 157.92 832.487 157.304 836.024 155.262C845.261 149.929 852.755 136.949 852.755 126.283C852.755 119.417 849.639 115.203 844.954 114.475Z" fill="white" stroke="#D73232" stroke-width="2"/>
</g>
<g clip-path="url(#clip4_812_947)">
<path d="M7.80355 77.475C7.2294 75.2021 6.91154 72.947 6.91147 70.7807C6.91116 61.2513 12.8978 56.8124 20.7505 59.7602C21.4268 50.2072 28.6232 46.5259 37.4088 51.5986C46.1329 56.6359 53.2785 68.4679 54.0579 78.7549C62.8538 84.4018 69.8457 96.8317 69.846 107.13C69.8461 109.297 69.5283 111.185 68.9543 112.795C73.6394 118.921 76.7561 126.734 76.7563 133.6C76.7566 144.266 69.263 148.592 60.0263 143.259C55.9974 140.933 52.3068 137.156 49.4158 132.753C48.0524 133.599 46.4224 133.984 44.6386 133.96L44.6397 167.259L32.1123 160.026L32.1112 127.626C29.9276 125.513 27.9388 123.027 26.2574 120.316C23.5511 120.92 20.2706 120.304 16.7338 118.262C7.49714 112.929 0.00294541 99.9487 0.00260586 89.2829C0.00238728 82.417 3.11868 78.2028 7.80355 77.475Z" fill="white" stroke="#D73232" stroke-width="2"/>
</g>
<path d="M781.239 206.499L803.534 234.764L793.153 240.758L813.959 264.741L802.088 271.595L818.471 291.275L744.001 334.274L760.385 295.674L748.515 302.528L769.323 254.518L758.942 260.512L781.239 206.499ZM785.704 310.195L785.703 347.905L776.767 353.065L776.768 315.354L785.704 310.195Z" fill="white" stroke="#D73232" stroke-width="2"/>
<path d="M639.239 351.499L661.534 379.764L651.153 385.758L671.959 409.741L660.088 416.595L676.471 436.275L602.001 479.274L618.385 440.674L606.515 447.528L627.323 399.518L616.942 405.512L639.239 351.499ZM643.704 455.195L643.703 492.905L634.767 498.065L634.768 460.354L643.704 455.195Z" fill="white" stroke="#D73232" stroke-width="2"/>
<path d="M430 396V402.5" stroke="#D73232" stroke-width="2"/>
<path d="M442 389V395.5" stroke="#D73232" stroke-width="2"/>
<path d="M566 317V323.5" stroke="#D73232" stroke-width="2"/>
<path d="M577 310V316.5" stroke="#D73232" stroke-width="2"/>
<circle cx="3.50511" cy="3.50511" r="3.50511" transform="matrix(-0.866041 -0.499972 -0.866041 0.499972 215.428 437.504)" fill="white" stroke="#D73232" stroke-width="2"/>
<circle cx="3.50511" cy="3.50511" r="3.50511" transform="matrix(-0.866041 -0.499972 -0.866041 0.499972 273.428 472.504)" fill="white" stroke="#D73232" stroke-width="2"/>
<circle cx="3.50511" cy="3.50511" r="3.50511" transform="matrix(-0.866041 -0.499972 -0.866041 0.499972 181.142 457.504)" fill="white" stroke="#D73232" stroke-width="2"/>
<circle cx="3.50511" cy="3.50511" r="3.50511" transform="matrix(-0.866041 -0.499972 -0.866041 0.499972 239.143 492.504)" fill="white" stroke="#D73232" stroke-width="2"/>
<circle cx="3.50511" cy="3.50511" r="3.50511" transform="matrix(-0.866041 -0.499972 -0.866041 0.499972 146.142 477.504)" fill="white" stroke="#D73232" stroke-width="2"/>
<circle cx="3.50511" cy="3.50511" r="3.50511" transform="matrix(-0.866041 -0.499972 -0.866041 0.499972 204.142 512.504)" fill="white" stroke="#D73232" stroke-width="2"/>
<circle cx="3.50511" cy="3.50511" r="3.50511" transform="matrix(-0.866041 -0.499972 -0.866041 0.499972 107.142 500.185)" fill="white" stroke="#D73232" stroke-width="2"/>
<circle cx="3.50511" cy="3.50511" r="3.50511" transform="matrix(-0.866041 -0.499972 -0.866041 0.499972 165.142 535.185)" fill="white" stroke="#D73232" stroke-width="2"/>
<circle cx="3.50511" cy="3.50511" r="3.50511" transform="matrix(-0.866041 -0.499972 -0.866041 0.499972 68.1426 522.185)" fill="white" stroke="#D73232" stroke-width="2"/>
<circle cx="3.50511" cy="3.50511" r="3.50511" transform="matrix(-0.866041 -0.499972 -0.866041 0.499972 126.142 557.185)" fill="white" stroke="#D73232" stroke-width="2"/>
<circle cx="3.50511" cy="3.50511" r="3.50511" transform="matrix(-0.866041 -0.499972 -0.866041 0.499972 31.1421 543.504)" fill="white" stroke="#D73232" stroke-width="2"/>
<circle cx="3.50511" cy="3.50511" r="3.50511" transform="matrix(-0.866041 -0.499972 -0.866041 0.499972 89.1426 578.504)" fill="white" stroke="#D73232" stroke-width="2"/>
<defs>
<clipPath id="clip0_812_947">
<rect width="88.6291" height="111.476" fill="white" transform="matrix(-0.86601 -0.500028 3.18351e-05 1 307.754 218.316)"/>
</clipPath>
<clipPath id="clip1_812_947">
<rect width="88.6291" height="111.476" fill="white" transform="matrix(0.86601 -0.500028 -3.18351e-05 1 487.003 399.317)"/>
</clipPath>
<clipPath id="clip2_812_947">
<rect width="88.6291" height="111.476" fill="white" transform="matrix(0.86601 -0.500028 -3.18351e-05 1 738.003 394.317)"/>
</clipPath>
<clipPath id="clip3_812_947">
<rect width="88.6291" height="111.476" fill="white" transform="matrix(0.86601 -0.500028 -3.18351e-05 1 776.003 111.317)"/>
</clipPath>
<clipPath id="clip4_812_947">
<rect width="88.6291" height="111.476" fill="white" transform="matrix(-0.86601 -0.500028 3.18351e-05 1 76.7544 74.3165)"/>
</clipPath>
</defs>
</svg>
