<svg width="800" height="594" viewBox="0 0 800 594" fill="none" xmlns="http://www.w3.org/2000/svg">
<g opacity="0.5">
<path d="M316.255 498.162L177.025 417.784L529.582 214.25L668.812 294.628L316.255 498.162Z" stroke="white" stroke-width="2" stroke-dasharray="4 4"/>
<path d="M208 418.5V307.5L527.5 123.5V234.5L208 418.5Z" fill="#D73232" stroke="white" stroke-width="2"/>
<rect width="123.695" height="111.019" transform="matrix(0.86601 0.500028 3.18907e-05 1 527.668 122.59)" fill="#D73232" stroke="white" stroke-width="2"/>
<path d="M315.439 480.47L207.671 418.254L527.439 233.65L635.207 295.865L315.439 480.47Z" fill="#D73232" stroke="white" stroke-width="2"/>
<path d="M0.859375 573.327L223.746 444.652M65.7651 574.812L258.041 464.451" stroke="white" stroke-width="2" stroke-dasharray="4 4"/>
<path d="M207.501 307.5L263.5 244.5L315 369" stroke="white" stroke-width="2"/>
<path d="M257.055 302.579L237 324.5L275.498 347.164L257.055 302.579Z" fill="#D73232" stroke="white" stroke-width="2"/>
<path d="M263.016 244.35L582.006 59.1947" stroke="white" stroke-width="2"/>
<path d="M581.973 59.7424L527 122.916L634.394 184.925L581.973 59.7424Z" stroke="white" stroke-width="2"/>
<path d="M207.923 307.47L207.925 362.98L207.926 418.489L315.047 480.34L315.044 369.321" stroke="white" stroke-width="2"/>
<path d="M544 319V207.5L608 168.5L608.5 279L544 319Z" fill="#D73232" stroke="white" stroke-width="2"/>
<path d="M570.124 332.87L570.121 221.851L463 160L463.002 215.509L463.004 271.019L570.124 332.87Z" fill="#D73232" stroke="white" stroke-width="2"/>
<rect width="38.1066" height="79.1708" transform="matrix(0.86601 0.500028 3.18907e-05 1 239 357)" fill="#D73232" stroke="white" stroke-width="2"/>
<path d="M244.5 399V405.5" stroke="white" stroke-width="2"/>
<path d="M385.5 363.5V253L503.5 184.5L504 295L385.5 363.5Z" fill="#D73232" stroke="white" stroke-width="2"/>
<path d="M450.124 401.87L450.121 290.851L343 229L343.002 284.509L343.004 340.019L450.124 401.87Z" fill="#D73232" stroke="white" stroke-width="2"/>
<rect width="38.1066" height="79.1708" transform="matrix(0.86601 0.500028 3.18907e-05 1 380 282)" fill="#D73232" stroke="white" stroke-width="2"/>
<rect width="38.1066" height="79.1708" transform="matrix(0.86601 0.500028 3.18907e-05 1 517 219)" fill="#D73232" stroke="white" stroke-width="2"/>
<path d="M365.5 451.5V372L415 343.161L482.5 303.835L507 289.561L595.5 238L596 318.5L551 344.465L507 369.853L482.5 383.99L415 422.938L365.5 451.5Z" fill="#D73232"/>
<path d="M415 343.161L365.5 372V451.5L415 422.938M415 343.161V422.938M415 343.161L482.5 303.835M415 422.938L482.5 383.99M482.5 303.835V383.99M482.5 303.835L507 289.561M482.5 383.99L507 369.853M507 289.561L595.5 238L596 318.5L551 344.465M507 289.561V329.707V369.853M507 369.853L551 344.465M551 266V344.465" stroke="white" stroke-width="2"/>
<path d="M207.5 307.5L315 370L634.536 184.805L526.768 122.59" stroke="white" stroke-width="2"/>
<path d="M409 387V393.5" stroke="white" stroke-width="2"/>
<path d="M421 380V386.5" stroke="white" stroke-width="2"/>
<path d="M409 333V339.5" stroke="white" stroke-width="2"/>
<path d="M545 308V314.5" stroke="white" stroke-width="2"/>
<path d="M556 301V307.5" stroke="white" stroke-width="2"/>
<path d="M92.2348 181.312L69.9399 209.33L80.321 215.272L59.5153 239.045L71.3858 245.839L55.0034 265.347L129.473 307.969L113.089 269.707L124.959 276.501L104.151 228.911L114.532 234.852L92.2348 181.312ZM87.77 284.101L87.7713 321.482L96.7076 326.596L96.7064 289.215L87.77 284.101Z" stroke="white" stroke-width="2" stroke-dasharray="4 4"/>
<path d="M291.235 21.7202L268.94 49.7382L279.321 55.6797L258.515 79.4528L270.386 86.2468L254.003 105.755L328.473 148.377L312.089 110.115L323.959 116.909L303.151 69.3188L313.532 75.2604L291.235 21.7202ZM286.77 124.509L286.771 161.89L295.708 167.004L295.706 129.624L286.77 124.509Z" stroke="white" stroke-width="2" stroke-dasharray="4 4"/>
<path d="M760.239 171.399L782.534 199.417L772.153 205.359L792.959 229.132L781.088 235.926L797.471 255.434L723.001 298.057L739.385 259.794L727.515 266.588L748.323 218.998L737.942 224.94L760.239 171.399ZM764.704 274.188L764.703 311.569L755.767 316.684L755.768 279.303L764.704 274.188Z" stroke="white" stroke-width="2" stroke-dasharray="4 4"/>
<path d="M618.239 315.131L640.534 343.149L630.153 349.091L650.959 372.864L639.088 379.658L655.471 399.166L581.001 441.788L597.385 403.526L585.515 410.32L606.323 362.73L595.942 368.672L618.239 315.131ZM622.704 417.92L622.703 455.301L613.767 460.416L613.768 423.035L622.704 417.92Z" fill="#D73232" stroke="white" stroke-width="2" stroke-dasharray="4 4"/>
</g>
</svg>
