<svg width="685" height="568" viewBox="0 0 685 568" fill="none" xmlns="http://www.w3.org/2000/svg">
<g opacity="0.5">
<path fill-rule="evenodd" clip-rule="evenodd" d="M375.41 325.244C374.281 324.593 373.567 323.224 373.534 321.291C373.469 317.427 376.156 312.774 379.535 310.898C381.225 309.96 382.767 309.894 383.896 310.546L567.876 416.767C569.005 417.418 569.719 418.787 569.752 420.72C569.817 424.584 567.13 429.237 563.751 431.113C562.062 432.051 560.519 432.117 559.39 431.465L375.41 325.244Z" fill="#D73232" stroke="white" stroke-width="2"/>
<circle cx="1.74433" cy="1.74433" r="1.74433" transform="matrix(0.866009 -0.500028 3.17238e-05 -1 561.807 426.448)" fill="white"/>
<path d="M566.515 422.059C566.515 420.06 565.112 419.25 563.381 420.25C561.65 421.249 560.247 423.679 560.247 425.678C560.247 427.676 561.65 428.486 563.381 427.487C565.111 426.488 566.515 424.057 566.515 422.059Z" stroke="white" stroke-width="2"/>
<path fill-rule="evenodd" clip-rule="evenodd" d="M529.731 421.695C529.731 426.42 532.735 431.145 538.743 434.75C550.759 441.959 570.241 441.959 582.257 434.75C588.265 431.145 591.269 426.42 591.269 421.695V374.003C591.269 369.279 588.265 364.554 582.257 360.949C570.241 353.74 550.759 353.74 538.743 360.949C532.735 364.554 529.731 369.279 529.731 374.003V421.695Z" fill="#D73232" stroke="white" stroke-width="2"/>
<circle cx="16.3676" cy="16.3676" r="16.3676" transform="matrix(0.866041 -0.499972 0.866041 0.499972 532.15 373.753)" fill="white"/>
<circle cx="23.3823" cy="23.3823" r="22.3823" transform="matrix(0.866041 -0.499972 0.866041 0.499972 520 373.381)" stroke="white" stroke-width="2"/>
<path fill-rule="evenodd" clip-rule="evenodd" d="M562.369 432.342C563.497 431.69 564.211 430.321 564.244 428.389C564.309 424.525 561.622 419.872 558.243 417.996C556.554 417.058 555.011 416.992 553.882 417.643L456.504 473.865C455.376 474.516 454.662 475.885 454.629 477.817C454.564 481.682 457.251 486.335 460.63 488.211C462.319 489.149 463.862 489.215 464.991 488.563L562.369 432.342Z" fill="#D73232" stroke="white" stroke-width="2"/>
<circle cx="1.74433" cy="1.74433" r="1.74433" transform="matrix(-0.866009 -0.500028 -3.17238e-05 -1 462.574 483.545)" fill="white"/>
<path d="M457.866 479.156C457.866 477.158 459.269 476.348 461 477.347C462.731 478.347 464.134 480.777 464.134 482.775C464.134 484.774 462.731 485.584 461 484.585C459.269 483.585 457.866 481.155 457.866 479.156Z" stroke="white" stroke-width="2"/>
<path fill-rule="evenodd" clip-rule="evenodd" d="M544.274 419.244C545.402 418.593 546.117 417.224 546.149 415.291C546.214 411.427 543.528 406.774 540.149 404.898C538.459 403.96 536.916 403.894 535.788 404.546L438.41 460.767C437.281 461.418 436.567 462.787 436.534 464.72C436.469 468.584 439.156 473.237 442.535 475.113C444.225 476.051 445.767 476.117 446.896 475.465L544.274 419.244Z" fill="#D73232" stroke="white" stroke-width="2"/>
<circle cx="1.74433" cy="1.74433" r="1.74433" transform="matrix(-0.866009 -0.500028 -3.17238e-05 -1 444.479 470.448)" fill="white"/>
<path d="M439.771 466.059C439.771 464.06 441.174 463.25 442.905 464.25C444.636 465.249 446.039 467.679 446.039 469.678C446.039 471.676 444.636 472.486 442.905 471.487C441.175 470.488 439.772 468.057 439.771 466.059Z" stroke="white" stroke-width="2"/>
<path d="M330.255 470.162L191.025 389.784L543.582 186.25L682.812 266.628L330.255 470.162Z" stroke="white" stroke-width="2" stroke-dasharray="4 4"/>
<path d="M222 390.5V279.5L541.5 95.5V206.5L222 390.5Z" fill="#D73232" stroke="white" stroke-width="2"/>
<rect width="123.695" height="111.019" transform="matrix(0.86601 0.500028 3.18907e-05 1 541.668 94.5903)" fill="#D73232" stroke="white" stroke-width="2"/>
<path d="M329.439 452.47L221.671 390.254L541.439 205.65L649.207 267.866L329.439 452.47Z" fill="#D73232" stroke="white" stroke-width="2"/>
<path d="M14.8594 545.327L237.746 416.653M79.7651 546.813L272.041 436.451" stroke="white" stroke-width="2" stroke-dasharray="4 4"/>
<path d="M221.501 279.5L277.5 216.5L329 341" stroke="white" stroke-width="2"/>
<path d="M271.055 274.579L251 296.5L289.498 319.164L271.055 274.579Z" fill="#D73232" stroke="white" stroke-width="2"/>
<path d="M277.017 216.35L596.007 31.1948" stroke="white" stroke-width="2"/>
<path d="M595.973 31.7425L541 94.9165L648.394 156.925L595.973 31.7425Z" stroke="white" stroke-width="2"/>
<path d="M221.923 279.47L221.925 334.98L221.926 390.489L329.047 452.34L329.044 341.321" stroke="white" stroke-width="2"/>
<path d="M558 291V179.5L622 140.5L622.5 251L558 291Z" fill="#D73232" stroke="white" stroke-width="2"/>
<path d="M584.124 304.87L584.121 193.851L477 132L477.002 187.509L477.004 243.019L584.124 304.87Z" fill="#D73232" stroke="white" stroke-width="2"/>
<rect width="38.1066" height="79.1708" transform="matrix(0.86601 0.500028 3.18907e-05 1 253 329)" fill="#D73232" stroke="white" stroke-width="2"/>
<path d="M258.5 371V377.5" stroke="white" stroke-width="2"/>
<path d="M399.5 335.5V225L517.5 156.5L518 267L399.5 335.5Z" fill="#D73232" stroke="white" stroke-width="2"/>
<path d="M464.124 373.87L464.121 262.851L357 201L357.002 256.509L357.004 312.019L464.124 373.87Z" fill="#D73232" stroke="white" stroke-width="2"/>
<rect width="38.1066" height="79.1708" transform="matrix(0.86601 0.500028 3.18907e-05 1 394 254)" fill="#D73232" stroke="white" stroke-width="2"/>
<rect width="38.1066" height="79.1708" transform="matrix(0.86601 0.500028 3.18907e-05 1 531 191)" fill="#D73232" stroke="white" stroke-width="2"/>
<path d="M379.5 423.5V344L429 315.161L496.5 275.835L521 261.561L609.5 210L610 290.5L565 316.465L521 341.854L496.5 355.99L429 394.938L379.5 423.5Z" fill="#D73232"/>
<path d="M429 315.161L379.5 344V423.5L429 394.938M429 315.161V394.938M429 315.161L496.5 275.835M429 394.938L496.5 355.99M496.5 275.835V355.99M496.5 275.835L521 261.561M496.5 355.99L521 341.854M521 261.561L609.5 210L610 290.5L565 316.465M521 261.561V301.707V341.854M521 341.854L565 316.465M565 238V316.465" stroke="white" stroke-width="2"/>
<path d="M221.5 279.5L329 342L648.536 156.805L540.768 94.59" stroke="white" stroke-width="2"/>
<path d="M423 359V365.5" stroke="white" stroke-width="2"/>
<path d="M435 352V358.5" stroke="white" stroke-width="2"/>
<path d="M423 305V311.5" stroke="white" stroke-width="2"/>
<path d="M559 280V286.5" stroke="white" stroke-width="2"/>
<path d="M570 273V279.5" stroke="white" stroke-width="2"/>
<path d="M66 548.819L306.686 410.212C311.185 407.621 316.748 407.732 321.139 410.501L340 422.391M360 384.5L360 431.375C360 432.949 358.265 433.906 356.933 433.067L340 422.391M340 422.391L499.5 332M499.5 332L515.5 344L515.5 313M499.5 332L630.5 257.5C630.5 247.833 630.5 228.5 630.5 228.5" stroke="white" stroke-width="2"/>
<path d="M52.5 549.5L306.688 403.286C311.186 400.698 316.746 400.811 321.135 403.578L337.995 414.207C339.231 414.987 340.794 415.03 342.072 414.32L487.5 333.5L487.5 309.5" stroke="white" stroke-width="2"/>
<path d="M44.5002 547.5L307.192 396.668C311.688 394.086 317.243 394.201 321.629 396.966L338.497 407.6C339.732 408.379 341.294 408.423 342.571 407.715L374 390.279M507 261.5L507 316.5L374 390.279M374 390.279L300 345L300 319.5M300 299L300 319.5M300 319.5L340.5 299L340.5 275" stroke="white" stroke-width="2"/>
<path d="M36.5 546.5L367.099 356.036C369.077 354.896 369.108 352.052 367.154 350.87L356.759 344.578C354.826 343.408 354.831 340.601 356.769 339.439L366.25 333.75L380 325.5V288" stroke="white" stroke-width="2"/>
<path d="M337 367.5L357.731 355.061C359.669 353.899 359.674 351.092 357.741 349.922L347.259 343.578C345.326 342.408 345.331 339.601 347.269 338.439L356.75 332.75L374 322.5" stroke="white" stroke-width="2"/>
<path d="M256 401L276.731 388.561C278.669 387.399 278.674 384.592 276.741 383.422L266.259 377.078C264.326 375.908 264.331 373.101 266.269 371.939L275.75 366.25L306.5 349" stroke="white" stroke-width="2"/>
<path d="M333 404L353.731 391.561C355.669 390.399 355.674 387.592 353.741 386.422L343.259 380.078C341.326 378.908 341.331 376.101 343.269 374.939L352.75 369.25L601.5 225V205" stroke="white" stroke-width="2"/>
<path d="M27 545L267.5 407.294M337 367.5L267.5 407.294M267.5 407.294L245.073 393.937C244.107 393.362 242.901 393.374 241.948 393.97L235.5 398V370" stroke="white" stroke-width="2"/>
<rect width="7.99923" height="15.9985" transform="matrix(0.86601 -0.500028 -3.18351e-05 1 357.001 370)" fill="#D73232" stroke="white" stroke-width="2"/>
<rect width="7.99923" height="8.54597" transform="matrix(0.86601 -0.500028 -3.18351e-05 1 297 296.453)" fill="#D73232" stroke="white" stroke-width="2"/>
<rect width="7.99923" height="8.54597" transform="matrix(0.86601 -0.500028 -3.18351e-05 1 599 199)" fill="#D73232" stroke="white" stroke-width="2"/>
<rect width="7.99923" height="8.54597" transform="matrix(0.86601 -0.500028 -3.18351e-05 1 337 273)" fill="#D73232" stroke="white" stroke-width="2"/>
<rect width="7.99923" height="8.54597" transform="matrix(-0.86601 -0.500028 3.18351e-05 1 383.927 282)" fill="#D73232" stroke="white" stroke-width="2"/>
<rect width="7.99923" height="8.54597" transform="matrix(-0.86601 -0.500028 3.18351e-05 1 238.927 363)" fill="#D73232" stroke="white" stroke-width="2"/>
<rect width="7.99923" height="15.9985" transform="matrix(0.86601 -0.500028 -3.18351e-05 1 484.001 296)" fill="#D73232" stroke="white" stroke-width="2"/>
<rect width="7.99923" height="15.9985" transform="matrix(0.86601 -0.500028 -3.18351e-05 1 504.001 249)" fill="#D73232" stroke="white" stroke-width="2"/>
<rect width="7.99923" height="15.9985" transform="matrix(0.86601 -0.500028 -3.18351e-05 1 512.001 301)" fill="#D73232" stroke="white" stroke-width="2"/>
<rect width="7.99923" height="15.9985" transform="matrix(-0.86601 -0.500028 3.18351e-05 1 633.928 214)" fill="#D73232" stroke="white" stroke-width="2"/>
</g>
</svg>
