<svg width="799" height="595" viewBox="0 0 799 595" fill="none" xmlns="http://www.w3.org/2000/svg">
<path d="M299.5 224.551L319.502 213L260.002 280.478L240 292.03L299.5 224.551Z" fill="#F4ABAB"/>
<path d="M345.5 197.551L365.502 186L306.002 253.478L286 265.03L345.5 197.551Z" fill="#F4ABAB"/>
<path d="M391.5 170.551L411.502 159L352.002 226.478L332 238.03L391.5 170.551Z" fill="#F4ABAB"/>
<path d="M435.5 144.551L455.502 133L396.002 200.478L376 212.03L435.5 144.551Z" fill="#F4ABAB"/>
<path d="M482.5 117.551L502.502 106L443.002 173.478L423 185.03L482.5 117.551Z" fill="#F4ABAB"/>
<path d="M528.5 90.5514L548.502 78.9999L489.002 146.478L469 158.03L528.5 90.5514Z" fill="#F4ABAB"/>
<path d="M315.255 500.162L176.025 419.784L528.582 216.25L667.812 296.628L315.255 500.162Z" stroke="#D73232" stroke-width="2" stroke-dasharray="4 4"/>
<path d="M314.439 482.47L206.671 420.254L526.439 235.65L634.207 297.865L314.439 482.47Z" fill="#EFE8E8" stroke="#D73232" stroke-width="2"/>
<path d="M0.999891 575.327L222.746 446.652M68.0002 575.327L257.041 466.451" stroke="#D73232" stroke-width="2" stroke-dasharray="4 4"/>
<path d="M206.501 309.5L262.5 246.5L314 371" stroke="#D73232" stroke-width="2"/>
<path d="M262 258L262.1 263.83L266.379 263.314L262 258ZM303 360L302.9 354.17L298.621 354.685L303 360ZM262.966 261.371L263.858 263.588L264.599 263.499L263.708 261.281L262.966 261.371ZM264.749 265.805L265.64 268.023L266.381 267.933L265.49 265.716L264.749 265.805ZM266.532 270.24L267.423 272.458L268.164 272.368L267.273 270.151L266.532 270.24ZM268.314 274.675L269.206 276.892L269.947 276.803L269.055 274.586L268.314 274.675ZM270.097 279.11L270.988 281.327L271.729 281.238L270.838 279.02L270.097 279.11ZM271.879 283.545L272.771 285.762L273.512 285.673L272.621 283.455L271.879 283.545ZM273.662 287.979L274.553 290.197L275.294 290.107L274.403 287.89L273.662 287.979ZM275.445 292.414L276.336 294.631L277.077 294.542L276.186 292.325L275.445 292.414ZM277.227 296.849L278.119 299.066L278.86 298.977L277.968 296.76L277.227 296.849ZM279.01 301.284L279.901 303.501L280.642 303.412L279.751 301.194L279.01 301.284ZM280.792 305.718L281.684 307.936L282.425 307.847L281.534 305.629L280.792 305.718ZM282.575 310.153L283.466 312.371L284.208 312.281L283.316 310.064L282.575 310.153ZM284.358 314.588L285.249 316.805L285.99 316.716L285.099 314.499L284.358 314.588ZM286.14 319.023L287.032 321.24L287.773 321.151L286.881 318.933L286.14 319.023ZM287.923 323.458L288.814 325.675L289.555 325.586L288.664 323.368L287.923 323.458ZM289.706 327.892L290.597 330.11L291.338 330.02L290.447 327.803L289.706 327.892ZM291.488 332.327L292.379 334.545L293.121 334.455L292.229 332.238L291.488 332.327ZM293.271 336.762L294.162 338.979L294.903 338.89L294.012 336.673L293.271 336.762ZM295.053 341.197L295.945 343.414L296.686 343.325L295.794 341.107L295.053 341.197ZM296.836 345.631L297.727 347.849L298.468 347.76L297.577 345.542L296.836 345.631ZM298.619 350.066L299.51 352.284L300.251 352.194L299.36 349.977L298.619 350.066ZM300.401 354.501L301.292 356.718L302.034 356.629L301.142 354.412L300.401 354.501Z" fill="#D73232"/>
<path d="M261 301L261.313 306.943L265.478 306.153L261 301ZM280 345L279.687 339.057L275.522 339.846L280 345ZM262.064 304.368L263.014 306.568L263.736 306.432L262.786 304.232L262.064 304.368ZM263.964 308.768L264.914 310.968L265.636 310.832L264.686 308.632L263.964 308.768ZM265.864 313.168L266.814 315.368L267.536 315.232L266.586 313.032L265.864 313.168ZM267.764 317.568L268.714 319.768L269.436 319.632L268.486 317.432L267.764 317.568ZM269.664 321.968L270.614 324.168L271.336 324.032L270.386 321.832L269.664 321.968ZM271.564 326.368L272.514 328.568L273.236 328.432L272.286 326.232L271.564 326.368ZM273.464 330.768L274.414 332.968L275.136 332.832L274.186 330.632L273.464 330.768ZM275.364 335.168L276.314 337.368L277.036 337.232L276.086 335.032L275.364 335.168ZM277.264 339.568L278.214 341.768L278.936 341.632L277.986 339.432L277.264 339.568Z" fill="#D73232"/>
<path d="M256.055 304.58L236.5 327L274.498 349.165L256.055 304.58Z" fill="white" stroke="#D73232" stroke-width="2"/>
<path d="M262.016 246.35L581.006 61.1947" stroke="#D73232" stroke-width="2"/>
<path d="M526 124.916L580.973 61.7424L633.394 186.925" stroke="#D73232" stroke-width="2"/>
<path d="M543.002 118.879L547.487 118.918L543.331 113.309L543.002 118.879ZM579.999 76.3628L575.514 76.3244L579.67 81.9337L579.999 76.3628ZM544.822 117.687L545.796 116.568L545.076 115.597L544.103 116.715L544.822 117.687ZM546.77 115.449L547.743 114.33L547.023 113.359L546.05 114.478L546.77 115.449ZM548.717 113.212L549.69 112.093L548.971 111.121L547.997 112.24L548.717 113.212ZM550.664 110.974L551.638 109.855L550.918 108.883L549.944 110.002L550.664 110.974ZM552.611 108.736L553.585 107.617L552.865 106.646L551.891 107.765L552.611 108.736ZM554.558 106.498L555.532 105.38L554.812 104.408L553.839 105.527L554.558 106.498ZM556.506 104.261L557.479 103.142L556.759 102.17L555.786 103.289L556.506 104.261ZM558.453 102.023L559.426 100.904L558.707 99.9325L557.733 101.051L558.453 102.023ZM560.4 99.7852L561.374 98.6664L560.654 97.6948L559.68 98.8136L560.4 99.7852ZM562.347 97.5475L563.321 96.4286L562.601 95.4571L561.627 96.5759L562.347 97.5475ZM564.294 95.3098L565.268 94.1909L564.548 93.2193L563.575 94.3382L564.294 95.3098ZM566.242 93.0721L567.215 91.9532L566.495 90.9816L565.522 92.1005L566.242 93.0721ZM568.189 90.8343L569.162 89.7155L568.443 88.7439L567.469 89.8628L568.189 90.8343ZM570.136 88.5966L571.11 87.4778L570.39 86.5062L569.416 87.6251L570.136 88.5966ZM572.083 86.3589L573.057 85.24L572.337 84.2685L571.363 85.3873L572.083 86.3589ZM574.031 84.1212L575.004 83.0023L574.284 82.0308L573.311 83.1496L574.031 84.1212ZM575.978 81.8835L576.951 80.7646L576.231 79.793L575.258 80.9119L575.978 81.8835ZM577.925 79.6458L578.899 78.5269L578.179 77.5553L577.205 78.6742L577.925 79.6458Z" fill="#D73232"/>
<path d="M206.923 309.47L206.925 364.98L206.926 420.489L314.047 482.34L314.044 371.321" stroke="#D73232" stroke-width="2"/>
<path d="M213 322L210.5 325.557L215.5 328.443L213 322ZM213.004 413.019L215.503 409.462L210.503 406.575L213.004 413.019ZM213.002 357.509L213.435 357.759L213.435 357.759L213.002 357.509ZM212.567 324.709L212.567 326.682L213.433 327.182L213.433 325.209L212.567 324.709ZM212.567 328.654L212.567 330.627L213.433 331.127L213.433 329.154L212.567 328.654ZM212.568 332.6L212.568 334.573L213.434 335.073L213.434 333.1L212.568 332.6ZM212.568 336.545L212.568 338.518L213.434 339.018L213.434 337.045L212.568 336.545ZM212.568 340.491L212.568 342.464L213.434 342.964L213.434 340.991L212.568 340.491ZM212.568 344.436L212.568 346.409L213.434 346.909L213.434 344.936L212.568 344.436ZM212.568 348.382L212.568 350.355L213.434 350.855L213.434 348.882L212.568 348.382ZM212.569 352.327L212.569 354.3L213.435 354.8L213.435 352.827L212.569 352.327ZM212.569 356.273L212.569 357.259L213.435 357.759L213.435 356.773L212.569 356.273ZM212.569 357.259L212.569 358.251L213.435 358.751L213.435 357.759L212.569 357.259ZM212.569 360.233L212.569 362.215L213.435 362.716L213.435 360.733L212.569 360.233ZM212.569 364.198L212.569 366.18L213.435 366.68L213.435 364.698L212.569 364.198ZM212.569 368.163L212.569 370.145L213.435 370.645L213.435 368.663L212.569 368.163ZM212.569 372.128L212.569 374.11L213.435 374.61L213.435 372.628L212.569 372.128ZM212.569 376.093L212.569 378.075L213.435 378.575L213.435 376.593L212.569 376.093ZM212.569 380.058L212.57 382.04L213.436 382.54L213.436 380.558L212.569 380.058ZM212.57 384.023L212.57 386.005L213.436 386.505L213.436 384.523L212.57 384.023ZM212.57 387.988L212.57 389.97L213.436 390.47L213.436 388.488L212.57 387.988ZM212.57 391.953L212.57 393.935L213.436 394.435L213.436 392.453L212.57 391.953ZM212.57 395.918L212.57 397.9L213.436 398.4L213.436 396.418L212.57 395.918ZM212.57 399.883L212.57 401.865L213.436 402.365L213.436 400.383L212.57 399.883ZM212.57 403.848L212.57 405.83L213.436 406.33L213.436 404.348L212.57 403.848ZM212.57 407.813L212.57 409.795L213.436 410.295L213.436 408.313L212.57 407.813Z" fill="#D73232"/>
<path d="M322.003 377L324.503 380.557L319.503 383.443L322.003 377ZM322 468.019L319.5 464.462L324.5 461.575L322 468.019ZM322.002 412.509L321.569 412.759L321.569 412.759L322.002 412.509ZM322.436 379.709L322.436 381.682L321.57 382.182L321.57 380.209L322.436 379.709ZM322.436 383.654L322.436 385.627L321.57 386.127L321.57 384.154L322.436 383.654ZM322.436 387.6L322.436 389.573L321.57 390.073L321.57 388.1L322.436 387.6ZM322.436 391.545L322.436 393.518L321.57 394.018L321.57 392.045L322.436 391.545ZM322.435 395.491L322.435 397.464L321.569 397.964L321.569 395.991L322.435 395.491ZM322.435 399.436L322.435 401.409L321.569 401.909L321.569 399.936L322.435 399.436ZM322.435 403.382L322.435 405.355L321.569 405.855L321.569 403.882L322.435 403.382ZM322.435 407.327L322.435 409.3L321.569 409.8L321.569 407.827L322.435 407.327ZM322.435 411.273L322.435 412.259L321.569 412.759L321.569 411.773L322.435 411.273ZM322.435 412.259L322.435 413.251L321.569 413.751L321.569 412.759L322.435 412.259ZM322.435 415.233L322.434 417.215L321.568 417.716L321.569 415.733L322.435 415.233ZM322.434 419.198L322.434 421.18L321.568 421.68L321.568 419.698L322.434 419.198ZM322.434 423.163L322.434 425.145L321.568 425.645L321.568 423.663L322.434 423.163ZM322.434 427.128L322.434 429.11L321.568 429.61L321.568 427.628L322.434 427.128ZM322.434 431.093L322.434 433.075L321.568 433.575L321.568 431.593L322.434 431.093ZM322.434 435.058L322.434 437.04L321.568 437.54L321.568 435.558L322.434 435.058ZM322.434 439.023L322.434 441.005L321.568 441.505L321.568 439.523L322.434 439.023ZM322.434 442.988L322.434 444.97L321.568 445.47L321.568 443.488L322.434 442.988ZM322.434 446.953L322.433 448.935L321.567 449.435L321.568 447.453L322.434 446.953ZM322.433 450.918L322.433 452.9L321.567 453.4L321.567 451.418L322.433 450.918ZM322.433 454.883L322.433 456.865L321.567 457.365L321.567 455.383L322.433 454.883ZM322.433 458.848L322.433 460.83L321.567 461.33L321.567 459.348L322.433 458.848ZM322.433 462.813L322.433 464.795L321.567 465.295L321.567 463.313L322.433 462.813Z" fill="#D73232"/>
<path d="M543 321V209.5L575.25 190.75L607.5 172V281L543 321Z" fill="#E5E5E5" stroke="#D73232" stroke-width="2"/>
<rect width="123.695" height="111.019" transform="matrix(0.86601 0.500028 3.18907e-05 1 526.668 124.59)" stroke="#D73232" stroke-width="2"/>
<path d="M569.124 334.87L569.121 223.851L462 162L462.002 217.509L462.004 273.019L569.124 334.87Z" fill="#F4F4F4" stroke="#D73232" stroke-width="2"/>
<rect width="38.1066" height="79.1708" transform="matrix(0.86601 0.500028 3.18907e-05 1 238 359)" fill="white" stroke="#D73232" stroke-width="2"/>
<path d="M241 367L245.186 372.574L245.461 366.968L241 367ZM260.5 379.5L256.314 373.925L256.039 379.531L260.5 379.5ZM243.414 369.048L245.039 370.09L245.086 369.119L243.461 368.077L243.414 369.048ZM246.664 371.131L248.289 372.173L248.336 371.202L246.711 370.16L246.664 371.131ZM249.914 373.215L251.539 374.256L251.586 373.285L249.961 372.244L249.914 373.215ZM253.164 375.298L254.789 376.34L254.836 375.369L253.211 374.327L253.164 375.298ZM256.414 377.381L258.039 378.423L258.086 377.452L256.461 376.41L256.414 377.381Z" fill="#D73232"/>
<path d="M215 322L219.335 327.38L219.325 321.601L215 322ZM308 375.5L303.665 370.12L303.675 375.898L308 375.5ZM217.584 323.986L219.306 324.977L219.305 323.976L217.583 322.985L217.584 323.986ZM221.029 325.968L222.751 326.959L222.749 325.958L221.027 324.967L221.029 325.968ZM224.473 327.949L226.195 328.94L226.194 327.939L224.471 326.948L224.473 327.949ZM227.917 329.931L229.64 330.921L229.638 329.921L227.916 328.93L227.917 329.931ZM231.362 331.912L233.084 332.903L233.083 331.902L231.36 330.911L231.362 331.912ZM234.806 333.894L236.529 334.884L236.527 333.884L234.805 332.893L234.806 333.894ZM238.251 335.875L239.973 336.866L239.971 335.865L238.249 334.874L238.251 335.875ZM241.695 337.857L243.417 338.847L243.416 337.847L241.694 336.856L241.695 337.857ZM245.14 339.838L246.862 340.829L246.86 339.828L245.138 338.837L245.14 339.838ZM248.584 341.82L250.306 342.81L250.305 341.81L248.583 340.819L248.584 341.82ZM252.029 343.801L253.751 344.792L253.749 343.791L252.027 342.8L252.029 343.801ZM255.473 345.783L257.195 346.773L257.194 345.772L255.471 344.782L255.473 345.783ZM258.917 347.764L260.64 348.755L260.638 347.754L258.916 346.763L258.917 347.764ZM262.362 349.746L264.084 350.736L264.083 349.735L262.36 348.745L262.362 349.746ZM265.806 351.727L267.529 352.718L267.527 351.717L265.805 350.726L265.806 351.727ZM269.251 353.709L270.973 354.699L270.971 353.698L269.249 352.708L269.251 353.709ZM272.695 355.69L274.417 356.681L274.416 355.68L272.694 354.689L272.695 355.69ZM276.14 357.672L277.862 358.662L277.86 357.661L276.138 356.671L276.14 357.672ZM279.584 359.653L281.306 360.644L281.305 359.643L279.583 358.652L279.584 359.653ZM283.029 361.635L284.751 362.625L284.749 361.624L283.027 360.634L283.029 361.635ZM286.473 363.616L288.195 364.607L288.194 363.606L286.471 362.615L286.473 363.616ZM289.917 365.598L291.64 366.588L291.638 365.587L289.916 364.597L289.917 365.598ZM293.362 367.579L295.084 368.57L295.083 367.569L293.36 366.578L293.362 367.579ZM296.806 369.561L298.529 370.551L298.527 369.55L296.805 368.56L296.806 369.561ZM300.251 371.542L301.973 372.533L301.971 371.532L300.249 370.541L300.251 371.542ZM303.695 373.523L305.418 374.514L305.416 373.513L303.694 372.523L303.695 373.523Z" fill="#D73232"/>
<path d="M384.5 365.5V255L502.5 186.5L503 297L384.5 365.5Z" fill="#E5E5E5" stroke="#D73232" stroke-width="2"/>
<path d="M449.124 403.87L449.121 292.851L342 231L342.002 286.509L342.004 342.019L449.124 403.87Z" fill="#F4F4F4" stroke="#D73232" stroke-width="2"/>
<rect width="38.1066" height="79.1708" transform="matrix(0.86601 0.500028 3.18907e-05 1 379 284)" fill="white" stroke="#D73232" stroke-width="2"/>
<rect width="38.1066" height="79.1708" transform="matrix(0.86601 0.500028 3.18907e-05 1 516 221)" fill="white" stroke="#D73232" stroke-width="2"/>
<path d="M364.5 453.5V374L414 345.161L481.5 305.835L506 291.561L594.5 240L595 320.5L550 346.465L506 371.853L481.5 385.99L414 424.938L364.5 453.5Z" fill="white"/>
<path d="M414 345.161L364.5 374V453.5L414 424.938M414 345.161V424.938M414 345.161L481.5 305.835M414 424.938L481.5 385.99M481.5 305.835V385.99M481.5 305.835L506 291.561M481.5 385.99L506 371.853M506 291.561L594.5 240L595 320.5L550 346.465M506 291.561V331.707V371.853M506 371.853L550 346.465M550 266V346.465" stroke="#D73232" stroke-width="2"/>
<path d="M633.536 186.805L314 372L206.5 309.5L525.768 124.59" stroke="#D73232" stroke-width="2"/>
<path d="M320.628 487.694L327.454 486.63L322.444 483.749L320.628 487.694ZM640.394 302.366L633.567 303.431L638.577 306.311L640.394 302.366ZM323.668 486.433L325.406 485.426L324.538 484.927L322.801 485.934L323.668 486.433ZM327.144 484.418L328.882 483.411L328.014 482.912L326.276 483.919L327.144 484.418ZM330.62 482.404L332.358 481.397L331.49 480.898L329.752 481.905L330.62 482.404ZM334.095 480.39L335.833 479.382L334.966 478.883L333.228 479.891L334.095 480.39ZM337.571 478.375L339.309 477.368L338.441 476.869L336.703 477.876L337.571 478.375ZM341.047 476.361L342.785 475.354L341.917 474.855L340.179 475.862L341.047 476.361ZM344.523 474.346L346.26 473.339L345.393 472.84L343.655 473.847L344.523 474.346ZM347.998 472.332L349.736 471.325L348.868 470.826L347.131 471.833L347.998 472.332ZM351.474 470.317L353.212 469.31L352.344 468.811L350.606 469.818L351.474 470.317ZM354.95 468.303L356.688 467.296L355.82 466.797L354.082 467.804L354.95 468.303ZM358.425 466.289L360.163 465.281L359.296 464.782L357.558 465.79L358.425 466.289ZM361.901 464.274L363.639 463.267L362.771 462.768L361.033 463.775L361.901 464.274ZM365.377 462.26L367.115 461.252L366.247 460.753L364.509 461.761L365.377 462.26ZM368.853 460.245L370.59 459.238L369.723 458.739L367.985 459.746L368.853 460.245ZM372.328 458.231L374.066 457.224L373.198 456.725L371.461 457.732L372.328 458.231ZM375.804 456.216L377.542 455.209L376.674 454.71L374.936 455.717L375.804 456.216ZM379.28 454.202L381.018 453.195L380.15 452.696L378.412 453.703L379.28 454.202ZM382.755 452.187L384.493 451.18L383.626 450.681L381.888 451.688L382.755 452.187ZM386.231 450.173L387.969 449.166L387.101 448.667L385.363 449.674L386.231 450.173ZM389.707 448.159L391.445 447.151L390.577 446.652L388.839 447.66L389.707 448.159ZM393.183 446.144L394.92 445.137L394.053 444.638L392.315 445.645L393.183 446.144ZM396.658 444.13L398.396 443.123L397.528 442.624L395.791 443.631L396.658 444.13ZM400.134 442.115L401.872 441.108L401.004 440.609L399.266 441.616L400.134 442.115ZM403.61 440.101L405.348 439.094L404.48 438.595L402.742 439.602L403.61 440.101ZM407.085 438.086L408.823 437.079L407.956 436.58L406.218 437.587L407.085 438.086ZM410.561 436.072L412.299 435.065L411.431 434.566L409.693 435.573L410.561 436.072ZM414.037 434.058L415.775 433.05L414.907 432.551L413.169 433.559L414.037 434.058ZM417.513 432.043L419.25 431.036L418.383 430.537L416.645 431.544L417.513 432.043ZM420.988 430.029L422.726 429.021L421.858 428.522L420.121 429.53L420.988 430.029ZM424.464 428.014L426.202 427.007L425.334 426.508L423.596 427.515L424.464 428.014ZM427.94 426L429.678 424.993L428.81 424.494L427.072 425.501L427.94 426ZM431.415 423.985L433.153 422.978L432.286 422.479L430.548 423.486L431.415 423.985ZM434.891 421.971L436.629 420.964L435.761 420.465L434.023 421.472L434.891 421.971ZM438.367 419.957L440.105 418.949L439.237 418.45L437.499 419.458L438.367 419.957ZM441.843 417.942L443.58 416.935L442.713 416.436L440.975 417.443L441.843 417.942ZM445.318 415.928L447.056 414.92L446.188 414.421L444.451 415.429L445.318 415.928ZM448.794 413.913L450.532 412.906L449.664 412.407L447.926 413.414L448.794 413.913ZM452.27 411.899L454.008 410.892L453.14 410.393L451.402 411.4L452.27 411.899ZM455.745 409.884L457.483 408.877L456.616 408.378L454.878 409.385L455.745 409.884ZM459.221 407.87L460.959 406.863L460.091 406.364L458.353 407.371L459.221 407.87ZM462.697 405.856L464.435 404.848L463.567 404.349L461.829 405.357L462.697 405.856ZM466.173 403.841L467.91 402.834L467.043 402.335L465.305 403.342L466.173 403.841ZM469.648 401.827L471.386 400.819L470.518 400.32L468.781 401.328L469.648 401.827ZM473.124 399.812L474.862 398.805L473.994 398.306L472.256 399.313L473.124 399.812ZM476.6 397.798L478.338 396.791L477.47 396.292L475.732 397.299L476.6 397.798ZM480.075 395.783L481.813 394.776L480.946 394.277L479.208 395.284L480.075 395.783ZM483.551 393.769L485.289 392.762L484.421 392.263L482.683 393.27L483.551 393.769ZM487.027 391.755L488.765 390.747L487.897 390.248L486.159 391.256L487.027 391.755ZM490.503 389.74L492.24 388.733L491.373 388.234L489.635 389.241L490.503 389.74ZM493.978 387.726L495.716 386.718L494.848 386.219L493.11 387.227L493.978 387.726ZM497.454 385.711L499.192 384.704L498.324 384.205L496.586 385.212L497.454 385.711ZM500.93 383.697L502.667 382.69L501.8 382.191L500.062 383.198L500.93 383.697ZM504.405 381.682L506.143 380.675L505.275 380.176L503.538 381.183L504.405 381.682ZM507.881 379.668L509.619 378.661L508.751 378.162L507.013 379.169L507.881 379.668ZM511.357 377.654L513.095 376.646L512.227 376.147L510.489 377.155L511.357 377.654ZM514.832 375.639L516.57 374.632L515.703 374.133L513.965 375.14L514.832 375.639ZM518.308 373.625L520.046 372.617L519.178 372.118L517.44 373.126L518.308 373.625ZM521.784 371.61L523.522 370.603L522.654 370.104L520.916 371.111L521.784 371.61ZM525.26 369.596L526.997 368.589L526.13 368.09L524.392 369.097L525.26 369.596ZM528.735 367.581L530.473 366.574L529.605 366.075L527.868 367.082L528.735 367.581ZM532.211 365.567L533.949 364.56L533.081 364.061L531.343 365.068L532.211 365.567ZM535.687 363.553L537.425 362.545L536.557 362.046L534.819 363.054L535.687 363.553ZM539.162 361.538L540.9 360.531L540.033 360.032L538.295 361.039L539.162 361.538ZM542.638 359.524L544.376 358.516L543.508 358.017L541.77 359.025L542.638 359.524ZM546.114 357.509L547.852 356.502L546.984 356.003L545.246 357.01L546.114 357.509ZM549.59 355.495L551.327 354.488L550.46 353.989L548.722 354.996L549.59 355.495ZM553.065 353.48L554.803 352.473L553.935 351.974L552.198 352.981L553.065 353.48ZM556.541 351.466L558.279 350.459L557.411 349.96L555.673 350.967L556.541 351.466ZM560.017 349.451L561.755 348.444L560.887 347.945L559.149 348.952L560.017 349.451ZM563.492 347.437L565.23 346.43L564.363 345.931L562.625 346.938L563.492 347.437ZM566.968 345.423L568.706 344.415L567.838 343.916L566.1 344.924L566.968 345.423ZM570.444 343.408L572.182 342.401L571.314 341.902L569.576 342.909L570.444 343.408ZM573.92 341.394L575.658 340.386L574.79 339.887L573.052 340.895L573.92 341.394ZM577.395 339.379L579.133 338.372L578.266 337.873L576.528 338.88L577.395 339.379ZM580.871 337.365L582.609 336.358L581.741 335.859L580.003 336.866L580.871 337.365ZM584.347 335.35L586.085 334.343L585.217 333.844L583.479 334.851L584.347 335.35ZM587.823 333.336L589.56 332.329L588.693 331.83L586.955 332.837L587.823 333.336ZM591.298 331.321L593.036 330.314L592.168 329.815L590.431 330.822L591.298 331.321ZM594.774 329.307L596.512 328.3L595.644 327.801L593.906 328.808L594.774 329.307ZM598.25 327.293L599.988 326.285L599.12 325.786L597.382 326.794L598.25 327.293ZM601.726 325.278L603.463 324.271L602.596 323.772L600.858 324.779L601.726 325.278ZM605.201 323.264L606.939 322.256L606.071 321.757L604.334 322.765L605.201 323.264ZM608.677 321.249L610.415 320.242L609.547 319.743L607.809 320.75L608.677 321.249ZM612.153 319.235L613.891 318.228L613.023 317.729L611.285 318.736L612.153 319.235ZM615.628 317.22L617.366 316.213L616.499 315.714L614.761 316.721L615.628 317.22ZM619.104 315.206L620.842 314.199L619.974 313.7L618.236 314.707L619.104 315.206ZM622.58 313.191L624.318 312.184L623.45 311.685L621.712 312.692L622.58 313.191ZM626.056 311.177L627.794 310.17L626.926 309.671L625.188 310.678L626.056 311.177ZM629.531 309.163L631.269 308.155L630.402 307.656L628.664 308.664L629.531 309.163ZM633.007 307.148L634.745 306.141L633.877 305.642L632.139 306.649L633.007 307.148ZM636.483 305.134L638.221 304.126L637.353 303.627L635.615 304.635L636.483 305.134Z" fill="#D73232"/>
<path d="M259.628 239.328L266.454 238.264L261.444 235.383L259.628 239.328ZM579.394 54L572.567 55.0643L577.577 57.9452L579.394 54ZM262.668 238.067L264.406 237.059L263.538 236.56L261.801 237.568L262.668 238.067ZM266.144 236.052L267.882 235.045L267.014 234.546L265.276 235.553L266.144 236.052ZM269.62 234.038L271.358 233.031L270.49 232.532L268.752 233.539L269.62 234.038ZM273.095 232.023L274.833 231.016L273.966 230.517L272.228 231.524L273.095 232.023ZM276.571 230.009L278.309 229.002L277.441 228.503L275.703 229.51L276.571 230.009ZM280.047 227.995L281.785 226.987L280.917 226.488L279.179 227.496L280.047 227.995ZM283.523 225.98L285.26 224.973L284.393 224.474L282.655 225.481L283.523 225.98ZM286.998 223.966L288.736 222.958L287.868 222.459L286.131 223.467L286.998 223.966ZM290.474 221.951L292.212 220.944L291.344 220.445L289.606 221.452L290.474 221.951ZM293.95 219.937L295.688 218.93L294.82 218.431L293.082 219.438L293.95 219.937ZM297.425 217.922L299.163 216.915L298.296 216.416L296.558 217.423L297.425 217.922ZM300.901 215.908L302.639 214.901L301.771 214.402L300.033 215.409L300.901 215.908ZM304.377 213.893L306.115 212.886L305.247 212.387L303.509 213.394L304.377 213.893ZM307.853 211.879L309.59 210.872L308.723 210.373L306.985 211.38L307.853 211.879ZM311.328 209.865L313.066 208.857L312.198 208.358L310.461 209.366L311.328 209.865ZM314.804 207.85L316.542 206.843L315.674 206.344L313.936 207.351L314.804 207.85ZM318.28 205.836L320.018 204.829L319.15 204.33L317.412 205.337L318.28 205.836ZM321.755 203.821L323.493 202.814L322.626 202.315L320.888 203.322L321.755 203.821ZM325.231 201.807L326.969 200.8L326.101 200.301L324.363 201.308L325.231 201.807ZM328.707 199.792L330.445 198.785L329.577 198.286L327.839 199.293L328.707 199.792ZM332.183 197.778L333.92 196.771L333.053 196.272L331.315 197.279L332.183 197.778ZM335.658 195.764L337.396 194.756L336.528 194.257L334.791 195.265L335.658 195.764ZM339.134 193.749L340.872 192.742L340.004 192.243L338.266 193.25L339.134 193.749ZM342.61 191.735L344.348 190.727L343.48 190.228L341.742 191.236L342.61 191.735ZM346.085 189.72L347.823 188.713L346.956 188.214L345.218 189.221L346.085 189.72ZM349.561 187.706L351.299 186.699L350.431 186.2L348.693 187.207L349.561 187.706ZM353.037 185.691L354.775 184.684L353.907 184.185L352.169 185.192L353.037 185.691ZM356.513 183.677L358.25 182.67L357.383 182.171L355.645 183.178L356.513 183.677ZM359.988 181.662L361.726 180.655L360.858 180.156L359.121 181.163L359.988 181.662ZM363.464 179.648L365.202 178.641L364.334 178.142L362.596 179.149L363.464 179.648ZM366.94 177.634L368.678 176.626L367.81 176.127L366.072 177.135L366.94 177.634ZM370.415 175.619L372.153 174.612L371.286 174.113L369.548 175.12L370.415 175.619ZM373.891 173.605L375.629 172.598L374.761 172.099L373.023 173.106L373.891 173.605ZM377.367 171.59L379.105 170.583L378.237 170.084L376.499 171.091L377.367 171.59ZM380.843 169.576L382.58 168.569L381.713 168.07L379.975 169.077L380.843 169.576ZM384.318 167.561L386.056 166.554L385.188 166.055L383.451 167.062L384.318 167.561ZM387.794 165.547L389.532 164.54L388.664 164.041L386.926 165.048L387.794 165.547ZM391.27 163.533L393.008 162.525L392.14 162.026L390.402 163.034L391.27 163.533ZM394.745 161.518L396.483 160.511L395.616 160.012L393.878 161.019L394.745 161.518ZM398.221 159.504L399.959 158.497L399.091 157.998L397.353 159.005L398.221 159.504ZM401.697 157.489L403.435 156.482L402.567 155.983L400.829 156.99L401.697 157.489ZM405.173 155.475L406.91 154.468L406.043 153.969L404.305 154.976L405.173 155.475ZM408.648 153.46L410.386 152.453L409.518 151.954L407.781 152.961L408.648 153.46ZM412.124 151.446L413.862 150.439L412.994 149.94L411.256 150.947L412.124 151.446ZM415.6 149.432L417.338 148.424L416.47 147.925L414.732 148.933L415.6 149.432ZM419.075 147.417L420.813 146.41L419.946 145.911L418.208 146.918L419.075 147.417ZM422.551 145.403L424.289 144.396L423.421 143.897L421.683 144.904L422.551 145.403ZM426.027 143.388L427.765 142.381L426.897 141.882L425.159 142.889L426.027 143.388ZM429.503 141.374L431.24 140.367L430.373 139.868L428.635 140.875L429.503 141.374ZM432.978 139.359L434.716 138.352L433.848 137.853L432.11 138.86L432.978 139.359ZM436.454 137.345L438.192 136.338L437.324 135.839L435.586 136.846L436.454 137.345ZM439.93 135.331L441.667 134.323L440.8 133.824L439.062 134.832L439.93 135.331ZM443.405 133.316L445.143 132.309L444.275 131.81L442.538 132.817L443.405 133.316ZM446.881 131.302L448.619 130.295L447.751 129.796L446.013 130.803L446.881 131.302ZM450.357 129.287L452.095 128.28L451.227 127.781L449.489 128.788L450.357 129.287ZM453.832 127.273L455.57 126.266L454.703 125.767L452.965 126.774L453.832 127.273ZM457.308 125.258L459.046 124.251L458.178 123.752L456.44 124.759L457.308 125.258ZM460.784 123.244L462.522 122.237L461.654 121.738L459.916 122.745L460.784 123.244ZM464.26 121.23L465.997 120.222L465.13 119.723L463.392 120.731L464.26 121.23ZM467.735 119.215L469.473 118.208L468.605 117.709L466.868 118.716L467.735 119.215ZM471.211 117.201L472.949 116.194L472.081 115.695L470.343 116.702L471.211 117.201ZM474.687 115.186L476.425 114.179L475.557 113.68L473.819 114.687L474.687 115.186ZM478.162 113.172L479.9 112.165L479.033 111.666L477.295 112.673L478.162 113.172ZM481.638 111.157L483.376 110.15L482.508 109.651L480.77 110.658L481.638 111.157ZM485.114 109.143L486.852 108.136L485.984 107.637L484.246 108.644L485.114 109.143ZM488.59 107.129L490.327 106.121L489.46 105.622L487.722 106.63L488.59 107.129ZM492.065 105.114L493.803 104.107L492.935 103.608L491.198 104.615L492.065 105.114ZM495.541 103.1L497.279 102.092L496.411 101.593L494.673 102.601L495.541 103.1ZM499.017 101.085L500.755 100.078L499.887 99.579L498.149 100.586L499.017 101.085ZM502.492 99.0708L504.23 98.0636L503.363 97.5646L501.625 98.5718L502.492 99.0708ZM505.968 97.0564L507.706 96.0491L506.838 95.5501L505.1 96.5574L505.968 97.0564ZM509.444 95.0419L511.182 94.0347L510.314 93.5357L508.576 94.5429L509.444 95.0419ZM512.92 93.0275L514.658 92.0202L513.79 91.5212L512.052 92.5285L512.92 93.0275ZM516.395 91.013L518.133 90.0058L517.266 89.5068L515.528 90.514L516.395 91.013ZM519.871 88.9986L521.609 87.9914L520.741 87.4924L519.003 88.4996L519.871 88.9986ZM523.347 86.9841L525.085 85.9769L524.217 85.4779L522.479 86.4851L523.347 86.9841ZM526.823 84.9697L528.56 83.9625L527.693 83.4635L525.955 84.4707L526.823 84.9697ZM530.298 82.9552L532.036 81.948L531.168 81.449L529.431 82.4563L530.298 82.9552ZM533.774 80.9408L535.512 79.9336L534.644 79.4346L532.906 80.4418L533.774 80.9408ZM537.25 78.9264L538.988 77.9191L538.12 77.4201L536.382 78.4274L537.25 78.9264ZM540.726 76.9119L542.463 75.9047L541.596 75.4057L539.858 76.4129L540.726 76.9119ZM544.201 74.8975L545.939 73.8902L545.071 73.3913L543.334 74.3985L544.201 74.8975ZM547.677 72.883L549.415 71.8758L548.547 71.3768L546.809 72.384L547.677 72.883ZM551.153 70.8686L552.891 69.8614L552.023 69.3624L550.285 70.3696L551.153 70.8686ZM554.628 68.8541L556.366 67.8469L555.499 67.3479L553.761 68.3552L554.628 68.8541ZM558.104 66.8397L559.842 65.8325L558.974 65.3335L557.236 66.3407L558.104 66.8397ZM561.58 64.8253L563.318 63.818L562.45 63.319L560.712 64.3263L561.58 64.8253ZM565.056 62.8108L566.794 61.8036L565.926 61.3046L564.188 62.3118L565.056 62.8108ZM568.531 60.7964L570.269 59.7891L569.402 59.2902L567.664 60.2974L568.531 60.7964ZM572.007 58.7819L573.745 57.7747L572.877 57.2757L571.139 58.2829L572.007 58.7819ZM575.483 56.7675L577.221 55.7603L576.353 55.2613L574.615 56.2685L575.483 56.7675Z" fill="#D73232"/>
<path d="M308.971 486.849L302.151 485.77L307.179 482.9L308.971 486.849ZM199.628 423L206.447 424.079L201.419 426.949L199.628 423ZM305.972 485.602L304.264 484.604L305.135 484.107L306.843 485.104L305.972 485.602ZM302.555 483.606L300.847 482.609L301.718 482.112L303.426 483.109L302.555 483.606ZM299.138 481.611L297.43 480.613L298.301 480.116L300.009 481.114L299.138 481.611ZM295.721 479.616L294.013 478.618L294.884 478.121L296.592 479.119L295.721 479.616ZM292.304 477.62L290.596 476.623L291.467 476.126L293.175 477.123L292.304 477.62ZM288.888 475.625L287.179 474.628L288.05 474.13L289.758 475.128L288.888 475.625ZM285.471 473.63L283.762 472.632L284.633 472.135L286.342 473.133L285.471 473.63ZM282.054 471.635L280.345 470.637L281.216 470.14L282.925 471.137L282.054 471.635ZM278.637 469.639L276.928 468.642L277.799 468.145L279.508 469.142L278.637 469.639ZM275.22 467.644L273.511 466.646L274.382 466.149L276.091 467.147L275.22 467.644ZM271.803 465.649L270.094 464.651L270.965 464.154L272.674 465.152L271.803 465.649ZM268.386 463.653L266.677 462.656L267.548 462.159L269.257 463.156L268.386 463.653ZM264.969 461.658L263.26 460.66L264.131 460.163L265.84 461.161L264.969 461.658ZM261.552 459.663L259.843 458.665L260.714 458.168L262.423 459.166L261.552 459.663ZM258.135 457.668L256.426 456.67L257.297 456.173L259.006 457.17L258.135 457.668ZM254.718 455.672L253.009 454.675L253.88 454.178L255.589 455.175L254.718 455.672ZM251.301 453.677L249.592 452.679L250.463 452.182L252.172 453.18L251.301 453.677ZM247.884 451.682L246.175 450.684L247.046 450.187L248.755 451.185L247.884 451.682ZM244.467 449.686L242.758 448.689L243.629 448.192L245.338 449.189L244.467 449.686ZM241.05 447.691L239.341 446.693L240.212 446.196L241.921 447.194L241.05 447.691ZM237.633 445.696L235.924 444.698L236.795 444.201L238.504 445.199L237.633 445.696ZM234.216 443.701L232.507 442.703L233.378 442.206L235.087 443.203L234.216 443.701ZM230.799 441.705L229.091 440.708L229.961 440.21L231.67 441.208L230.799 441.705ZM227.382 439.71L225.674 438.712L226.545 438.215L228.253 439.213L227.382 439.71ZM223.965 437.715L222.257 436.717L223.128 436.22L224.836 437.218L223.965 437.715ZM220.548 435.719L218.84 434.722L219.711 434.225L221.419 435.222L220.548 435.719ZM217.131 433.724L215.423 432.726L216.294 432.229L218.002 433.227L217.131 433.724ZM213.714 431.729L212.006 430.731L212.877 430.234L214.585 431.232L213.714 431.729ZM210.297 429.734L208.589 428.736L209.46 428.239L211.168 429.236L210.297 429.734ZM206.88 427.738L205.172 426.741L206.043 426.243L207.751 427.241L206.88 427.738ZM203.463 425.743L201.755 424.745L202.626 424.248L204.334 425.246L203.463 425.743Z" fill="#D73232"/>
<path d="M265 379L262.501 382.557L267.501 385.443L265 379ZM265.004 449.019L267.503 445.462L262.503 442.575L265.004 449.019ZM265.002 393.509L265.435 393.759L265.435 393.759L265.002 393.509ZM264.567 381.47L264.568 383.284L265.434 383.784L265.433 381.97L264.567 381.47ZM264.568 385.098L264.568 386.911L265.434 387.411L265.434 385.598L264.568 385.098ZM264.568 388.725L264.568 390.539L265.434 391.039L265.434 389.225L264.568 388.725ZM264.569 392.352L264.569 393.259L265.435 393.759L265.435 392.852L264.569 392.352ZM264.569 393.259L264.569 394.251L265.435 394.751L265.435 393.759L264.569 393.259ZM264.569 396.233L264.569 398.215L265.435 398.716L265.435 396.733L264.569 396.233ZM264.569 400.198L264.569 402.18L265.435 402.68L265.435 400.698L264.569 400.198ZM264.569 404.163L264.569 406.145L265.435 406.645L265.435 404.663L264.569 404.163ZM264.569 408.128L264.569 410.11L265.435 410.61L265.435 408.628L264.569 408.128ZM264.569 412.093L264.569 414.075L265.435 414.575L265.435 412.593L264.569 412.093ZM264.569 416.058L264.57 418.04L265.436 418.54L265.436 416.558L264.569 416.058ZM264.57 420.023L264.57 422.005L265.436 422.505L265.436 420.523L264.57 420.023ZM264.57 423.988L264.57 425.97L265.436 426.47L265.436 424.488L264.57 423.988ZM264.57 427.953L264.57 429.935L265.436 430.435L265.436 428.453L264.57 427.953ZM264.57 431.918L264.57 433.9L265.436 434.4L265.436 432.418L264.57 431.918ZM264.57 435.883L264.57 437.865L265.436 438.365L265.436 436.383L264.57 435.883ZM264.57 439.848L264.57 441.83L265.436 442.33L265.436 440.348L264.57 439.848ZM264.57 443.813L264.57 445.795L265.436 446.295L265.436 444.313L264.57 443.813Z" fill="#D73232"/>
<path d="M349 245L346.5 248.557L351.5 251.443L349 245ZM349.004 336.019L351.503 332.462L346.503 329.575L349.004 336.019ZM349.002 280.509L349.435 280.759L349.435 280.759L349.002 280.509ZM348.567 247.709L348.567 249.682L349.433 250.182L349.433 248.209L348.567 247.709ZM348.567 251.654L348.567 253.627L349.433 254.127L349.433 252.154L348.567 251.654ZM348.568 255.6L348.568 257.573L349.434 258.073L349.434 256.1L348.568 255.6ZM348.568 259.545L348.568 261.518L349.434 262.018L349.434 260.045L348.568 259.545ZM348.568 263.491L348.568 265.464L349.434 265.964L349.434 263.991L348.568 263.491ZM348.568 267.436L348.568 269.409L349.434 269.909L349.434 267.936L348.568 267.436ZM348.568 271.382L348.568 273.355L349.434 273.855L349.434 271.882L348.568 271.382ZM348.569 275.327L348.569 277.3L349.435 277.8L349.435 275.827L348.569 275.327ZM348.569 279.273L348.569 280.259L349.435 280.759L349.435 279.773L348.569 279.273ZM348.569 280.259L348.569 281.251L349.435 281.751L349.435 280.759L348.569 280.259ZM348.569 283.233L348.569 285.215L349.435 285.716L349.435 283.733L348.569 283.233ZM348.569 287.198L348.569 289.18L349.435 289.68L349.435 287.698L348.569 287.198ZM348.569 291.163L348.569 293.145L349.435 293.645L349.435 291.663L348.569 291.163ZM348.569 295.128L348.569 297.11L349.435 297.61L349.435 295.628L348.569 295.128ZM348.569 299.093L348.569 301.075L349.435 301.575L349.435 299.593L348.569 299.093ZM348.569 303.058L348.57 305.04L349.436 305.54L349.436 303.558L348.569 303.058ZM348.57 307.023L348.57 309.005L349.436 309.505L349.436 307.523L348.57 307.023ZM348.57 310.988L348.57 312.97L349.436 313.47L349.436 311.488L348.57 310.988ZM348.57 314.953L348.57 316.935L349.436 317.435L349.436 315.453L348.57 314.953ZM348.57 318.918L348.57 320.9L349.436 321.4L349.436 319.418L348.57 318.918ZM348.57 322.883L348.57 324.865L349.436 325.365L349.436 323.383L348.57 322.883ZM348.57 326.848L348.57 328.83L349.436 329.33L349.436 327.348L348.57 326.848ZM348.57 330.813L348.57 332.795L349.436 333.295L349.436 331.313L348.57 330.813Z" fill="#D73232"/>
<path d="M373.003 379L375.503 382.557L370.503 385.443L373.003 379ZM373 440.019L370.5 436.462L375.5 433.575L373 440.019ZM373.002 393.509L372.569 393.759L372.569 393.759L373.002 393.509ZM373.436 381.47L373.436 383.284L372.57 383.784L372.57 381.97L373.436 381.47ZM373.436 385.098L373.435 386.911L372.569 387.411L372.57 385.598L373.436 385.098ZM373.435 388.725L373.435 390.539L372.569 391.039L372.569 389.225L373.435 388.725ZM373.435 392.352L373.435 393.259L372.569 393.759L372.569 392.852L373.435 392.352ZM373.435 393.259L373.435 394.228L372.569 394.728L372.569 393.759L373.435 393.259ZM373.435 396.166L373.434 398.104L372.568 398.604L372.569 396.666L373.435 396.166ZM373.434 400.042L373.434 401.98L372.568 402.48L372.568 400.542L373.434 400.042ZM373.434 403.918L373.434 405.856L372.568 406.356L372.568 404.418L373.434 403.918ZM373.434 407.793L373.434 409.731L372.568 410.231L372.568 408.293L373.434 407.793ZM373.434 411.669L373.434 413.607L372.568 414.107L372.568 412.169L373.434 411.669ZM373.434 415.545L373.434 417.483L372.568 417.983L372.568 416.045L373.434 415.545ZM373.434 419.421L373.434 421.359L372.568 421.859L372.568 419.921L373.434 419.421ZM373.434 423.297L373.433 425.235L372.567 425.735L372.567 423.797L373.434 423.297ZM373.433 427.172L373.433 429.11L372.567 429.61L372.567 427.672L373.433 427.172ZM373.433 431.048L373.433 432.986L372.567 433.486L372.567 431.548L373.433 431.048ZM373.433 434.924L373.433 436.862L372.567 437.362L372.567 435.424L373.433 434.924Z" fill="#D73232"/>
<path d="M514.003 297.408L516.503 300.965L511.503 303.851L514.003 297.408ZM514 358.427L511.5 354.87L516.5 351.983L514 358.427ZM514.002 311.917L513.569 312.168L513.569 312.167L514.002 311.917ZM514.436 299.879L514.436 301.692L513.57 302.192L513.57 300.379L514.436 299.879ZM514.436 303.506L514.435 305.32L513.569 305.82L513.57 304.006L514.436 303.506ZM514.435 307.133L514.435 308.947L513.569 309.447L513.569 307.633L514.435 307.133ZM514.435 310.761L514.435 311.668L513.569 312.167L513.569 311.261L514.435 310.761ZM514.435 311.667L514.435 312.636L513.569 313.136L513.569 312.168L514.435 311.667ZM514.435 314.574L514.434 316.512L513.568 317.012L513.569 315.074L514.435 314.574ZM514.434 318.45L514.434 320.388L513.568 320.888L513.568 318.95L514.434 318.45ZM514.434 322.326L514.434 324.264L513.568 324.764L513.568 322.826L514.434 322.326ZM514.434 326.202L514.434 328.14L513.568 328.64L513.568 326.702L514.434 326.202ZM514.434 330.077L514.434 332.015L513.568 332.515L513.568 330.577L514.434 330.077ZM514.434 333.953L514.434 335.891L513.568 336.391L513.568 334.453L514.434 333.953ZM514.434 337.829L514.434 339.767L513.568 340.267L513.568 338.329L514.434 337.829ZM514.434 341.705L514.433 343.643L513.567 344.143L513.567 342.205L514.434 341.705ZM514.433 345.581L514.433 347.518L513.567 348.019L513.567 346.081L514.433 345.581ZM514.433 349.456L514.433 351.394L513.567 351.894L513.567 349.956L514.433 349.456ZM514.433 353.332L514.433 355.27L513.567 355.77L513.567 353.832L514.433 353.332Z" fill="#D73232"/>
<path d="M474.003 321L476.503 324.557L471.503 327.443L474.003 321ZM474 382.019L471.5 378.462L476.5 375.575L474 382.019ZM474.002 335.509L473.569 335.759L473.569 335.759L474.002 335.509ZM474.436 323.47L474.436 325.284L473.57 325.784L473.57 323.97L474.436 323.47ZM474.436 327.098L474.435 328.911L473.569 329.411L473.57 327.598L474.436 327.098ZM474.435 330.725L474.435 332.539L473.569 333.039L473.569 331.225L474.435 330.725ZM474.435 334.352L474.435 335.259L473.569 335.759L473.569 334.852L474.435 334.352ZM474.435 335.259L474.435 336.228L473.569 336.728L473.569 335.759L474.435 335.259ZM474.435 338.166L474.434 340.104L473.568 340.604L473.569 338.666L474.435 338.166ZM474.434 342.042L474.434 343.98L473.568 344.48L473.568 342.542L474.434 342.042ZM474.434 345.918L474.434 347.856L473.568 348.356L473.568 346.418L474.434 345.918ZM474.434 349.793L474.434 351.731L473.568 352.231L473.568 350.293L474.434 349.793ZM474.434 353.669L474.434 355.607L473.568 356.107L473.568 354.169L474.434 353.669ZM474.434 357.545L474.434 359.483L473.568 359.983L473.568 358.045L474.434 357.545ZM474.434 361.421L474.434 363.359L473.568 363.859L473.568 361.921L474.434 361.421ZM474.434 365.297L474.433 367.235L473.567 367.735L473.567 365.797L474.434 365.297ZM474.433 369.172L474.433 371.11L473.567 371.61L473.567 369.672L474.433 369.172ZM474.433 373.048L474.433 374.986L473.567 375.486L473.567 373.548L474.433 373.048ZM474.433 376.924L474.433 378.862L473.567 379.362L473.567 377.424L474.433 376.924Z" fill="#D73232"/>
<path d="M588.003 253L590.503 256.557L585.503 259.443L588.003 253ZM588 314.019L585.5 310.462L590.5 307.575L588 314.019ZM588.002 267.509L587.569 267.759L587.569 267.759L588.002 267.509ZM588.436 255.47L588.436 257.284L587.57 257.784L587.57 255.97L588.436 255.47ZM588.436 259.098L588.435 260.911L587.569 261.411L587.57 259.598L588.436 259.098ZM588.435 262.725L588.435 264.539L587.569 265.039L587.569 263.225L588.435 262.725ZM588.435 266.352L588.435 267.259L587.569 267.759L587.569 266.852L588.435 266.352ZM588.435 267.259L588.435 268.228L587.569 268.728L587.569 267.759L588.435 267.259ZM588.435 270.166L588.434 272.104L587.568 272.604L587.569 270.666L588.435 270.166ZM588.434 274.042L588.434 275.98L587.568 276.48L587.568 274.542L588.434 274.042ZM588.434 277.918L588.434 279.856L587.568 280.356L587.568 278.418L588.434 277.918ZM588.434 281.793L588.434 283.731L587.568 284.231L587.568 282.293L588.434 281.793ZM588.434 285.669L588.434 287.607L587.568 288.107L587.568 286.169L588.434 285.669ZM588.434 289.545L588.434 291.483L587.568 291.983L587.568 290.045L588.434 289.545ZM588.434 293.421L588.434 295.359L587.568 295.859L587.568 293.921L588.434 293.421ZM588.434 297.297L588.433 299.235L587.567 299.735L587.567 297.797L588.434 297.297ZM588.433 301.172L588.433 303.11L587.567 303.61L587.567 301.672L588.433 301.172ZM588.433 305.048L588.433 306.986L587.567 307.486L587.567 305.548L588.433 305.048ZM588.433 308.924L588.433 310.862L587.567 311.362L587.567 309.424L588.433 308.924Z" fill="#D73232"/>
<path d="M351 244.197L355.335 249.578L355.325 243.799L351 244.197ZM444 297.698L439.665 292.317L439.675 298.096L444 297.698ZM353.584 246.184L355.306 247.175L355.305 246.174L353.583 245.183L353.584 246.184ZM357.029 248.166L358.751 249.156L358.749 248.155L357.027 247.165L357.029 248.166ZM360.473 250.147L362.195 251.138L362.194 250.137L360.471 249.146L360.473 250.147ZM363.917 252.129L365.64 253.119L365.638 252.118L363.916 251.128L363.917 252.129ZM367.362 254.11L369.084 255.101L369.083 254.1L367.36 253.109L367.362 254.11ZM370.806 256.091L372.529 257.082L372.527 256.081L370.805 255.091L370.806 256.091ZM374.251 258.073L375.973 259.064L375.971 258.063L374.249 257.072L374.251 258.073ZM377.695 260.054L379.417 261.045L379.416 260.044L377.694 259.054L377.695 260.054ZM381.14 262.036L382.862 263.027L382.86 262.026L381.138 261.035L381.14 262.036ZM384.584 264.017L386.306 265.008L386.305 264.007L384.583 263.017L384.584 264.017ZM388.029 265.999L389.751 266.99L389.749 265.989L388.027 264.998L388.029 265.999ZM391.473 267.98L393.195 268.971L393.194 267.97L391.471 266.979L391.473 267.98ZM394.917 269.962L396.64 270.953L396.638 269.952L394.916 268.961L394.917 269.962ZM398.362 271.943L400.084 272.934L400.083 271.933L398.36 270.942L398.362 271.943ZM401.806 273.925L403.529 274.916L403.527 273.915L401.805 272.924L401.806 273.925ZM405.251 275.906L406.973 276.897L406.971 275.896L405.249 274.905L405.251 275.906ZM408.695 277.888L410.417 278.879L410.416 277.878L408.694 276.887L408.695 277.888ZM412.14 279.869L413.862 280.86L413.86 279.859L412.138 278.868L412.14 279.869ZM415.584 281.851L417.306 282.842L417.305 281.841L415.583 280.85L415.584 281.851ZM419.029 283.832L420.751 284.823L420.749 283.822L419.027 282.831L419.029 283.832ZM422.473 285.814L424.195 286.805L424.194 285.804L422.471 284.813L422.473 285.814ZM425.917 287.795L427.64 288.786L427.638 287.785L425.916 286.794L425.917 287.795ZM429.362 289.777L431.084 290.768L431.083 289.767L429.36 288.776L429.362 289.777ZM432.806 291.758L434.529 292.749L434.527 291.748L432.805 290.757L432.806 291.758ZM436.251 293.74L437.973 294.731L437.971 293.73L436.249 292.739L436.251 293.74ZM439.695 295.721L441.418 296.712L441.416 295.711L439.694 294.72L439.695 295.721Z" fill="#D73232"/>
<path d="M466 172.197L470.346 177.561L470.313 171.769L466 172.197ZM492 187.012L487.654 181.649L487.687 187.441L492 187.012ZM468.44 174.088L470.065 175.014L470.06 174.011L468.435 173.085L468.44 174.088ZM471.69 175.94L473.315 176.866L473.31 175.863L471.685 174.937L471.69 175.94ZM474.94 177.792L476.565 178.718L476.56 177.714L474.935 176.788L474.94 177.792ZM478.19 179.644L479.815 180.57L479.81 179.566L478.185 178.64L478.19 179.644ZM481.44 181.495L483.065 182.421L483.06 181.418L481.435 180.492L481.44 181.495ZM484.69 183.347L486.315 184.273L486.31 183.27L484.685 182.344L484.69 183.347ZM487.94 185.199L489.565 186.125L489.56 185.122L487.935 184.196L487.94 185.199Z" fill="#D73232"/>
<path d="M507 197.198L511.338 196.832L511.322 202.596L507 197.198ZM560 228L555.662 228.365L555.678 222.601L560 228ZM509.651 198.239L511.418 199.265L511.415 200.264L509.649 199.237L509.651 198.239ZM513.185 200.292L514.951 201.319L514.949 202.317L513.182 201.29L513.185 200.292ZM516.718 202.346L518.485 203.372L518.482 204.371L516.715 203.344L516.718 202.346ZM520.251 204.399L522.018 205.426L522.015 206.424L520.249 205.397L520.251 204.399ZM523.785 206.453L525.551 207.479L525.549 208.478L523.782 207.451L523.785 206.453ZM527.318 208.506L529.085 209.533L529.082 210.531L527.315 209.504L527.318 208.506ZM530.851 210.56L532.618 211.586L532.615 212.585L530.849 211.558L530.851 210.56ZM534.385 212.613L536.151 213.64L536.149 214.638L534.382 213.611L534.385 212.613ZM537.918 214.666L539.685 215.693L539.682 216.692L537.915 215.665L537.918 214.666ZM541.451 216.72L543.218 217.747L543.215 218.745L541.449 217.718L541.451 216.72ZM544.985 218.773L546.751 219.8L546.749 220.799L544.982 219.772L544.985 218.773ZM548.518 220.827L550.285 221.854L550.282 222.852L548.515 221.825L548.518 220.827ZM552.051 222.88L553.818 223.907L553.815 224.905L552.049 223.879L552.051 222.88ZM555.585 224.934L557.351 225.961L557.349 226.959L555.582 225.932L555.585 224.934Z" fill="#D73232"/>
<path d="M536 123L540.335 122.627L540.325 128.394L536 123ZM620.714 172.114L616.379 172.487L616.389 166.72L620.714 172.114ZM538.648 124.035L540.413 125.058L540.411 126.057L538.646 125.034L538.648 124.035ZM542.178 126.082L543.943 127.105L543.941 128.104L542.176 127.081L542.178 126.082ZM545.708 128.128L547.473 129.151L547.471 130.15L545.706 129.127L545.708 128.128ZM549.237 130.175L551.002 131.198L551.001 132.197L549.236 131.173L549.237 130.175ZM552.767 132.221L554.532 133.244L554.53 134.243L552.765 133.22L552.767 132.221ZM556.297 134.267L558.062 135.291L558.06 136.289L556.295 135.266L556.297 134.267ZM559.827 136.314L561.592 137.337L561.59 138.336L559.825 137.313L559.827 136.314ZM563.357 138.36L565.121 139.383L565.12 140.382L563.355 139.359L563.357 138.36ZM566.886 140.407L568.651 141.43L568.649 142.429L566.885 141.406L566.886 140.407ZM570.416 142.453L572.181 143.476L572.179 144.475L570.414 143.452L570.416 142.453ZM573.946 144.499L575.711 145.523L575.709 146.522L573.944 145.498L573.946 144.499ZM577.476 146.546L579.24 147.569L579.239 148.568L577.474 147.545L577.476 146.546ZM581.005 148.592L582.77 149.615L582.768 150.614L581.004 149.591L581.005 148.592ZM584.535 150.639L586.3 151.662L586.298 152.661L584.533 151.638L584.535 150.639ZM588.065 152.685L589.83 153.708L589.828 154.707L588.063 153.684L588.065 152.685ZM591.595 154.731L593.359 155.755L593.358 156.754L591.593 155.73L591.595 154.731ZM595.124 156.778L596.889 157.801L596.887 158.8L595.123 157.777L595.124 156.778ZM598.654 158.824L600.419 159.847L600.417 160.846L598.652 159.823L598.654 158.824ZM602.184 160.871L603.949 161.894L603.947 162.893L602.182 161.87L602.184 160.871ZM605.714 162.917L607.479 163.94L607.477 164.939L605.712 163.916L605.714 162.917ZM609.243 164.963L611.008 165.987L611.007 166.986L609.242 165.962L609.243 164.963ZM612.773 167.01L614.538 168.033L614.536 169.032L612.771 168.009L612.773 167.01ZM616.303 169.056L618.068 170.079L618.066 171.078L616.301 170.055L616.303 169.056Z" fill="#D73232"/>
<path d="M409.062 356.592L404.813 362.088L404.656 356.408L409.062 356.592ZM375 377.5L379.249 372.004L379.407 377.683L375 377.5ZM406.521 358.652L404.818 359.697L404.791 358.713L406.494 357.668L406.521 358.652ZM403.115 360.743L401.412 361.788L401.385 360.804L403.088 359.759L403.115 360.743ZM399.709 362.833L398.006 363.879L397.979 362.895L399.682 361.85L399.709 362.833ZM396.303 364.924L394.6 365.97L394.572 364.986L396.275 363.94L396.303 364.924ZM392.896 367.015L391.193 368.06L391.166 367.077L392.869 366.031L392.896 367.015ZM389.49 369.106L387.787 370.151L387.76 369.168L389.463 368.122L389.49 369.106ZM386.084 371.197L384.381 372.242L384.353 371.258L386.057 370.213L386.084 371.197ZM382.678 373.288L380.974 374.333L380.947 373.349L382.65 372.304L382.678 373.288ZM379.271 375.378L377.568 376.424L377.541 375.44L379.244 374.395L379.271 375.378Z" fill="#D73232"/>
<path d="M542.5 280L538.22 285.456L538.121 279.741L542.5 280ZM516 295.908L520.279 290.452L520.379 296.167L516 295.908ZM540.024 281.986L538.368 282.981L538.351 281.991L540.007 280.996L540.024 281.986ZM536.712 283.975L535.055 284.969L535.038 283.979L536.695 282.985L536.712 283.975ZM533.399 285.963L531.743 286.958L531.726 285.968L533.382 284.973L533.399 285.963ZM530.087 287.952L528.43 288.946L528.413 287.956L530.069 286.962L530.087 287.952ZM526.774 289.94L525.118 290.935L525.101 289.945L526.757 288.951L526.774 289.94ZM523.462 291.929L521.805 292.923L521.788 291.933L523.444 290.939L523.462 291.929ZM520.149 293.918L518.493 294.912L518.476 293.922L520.132 292.928L520.149 293.918Z" fill="#D73232"/>
<path d="M472.5 319L468.221 324.457L468.121 318.743L472.5 319ZM419 351.131L423.279 345.674L423.379 351.388L419 351.131ZM469.834 321.101L468.05 322.172L468.033 321.183L469.816 320.112L469.834 321.101ZM466.267 323.243L464.484 324.314L464.466 323.325L466.25 322.254L466.267 323.243ZM462.7 325.386L460.917 326.457L460.9 325.467L462.683 324.396L462.7 325.386ZM459.134 327.528L457.35 328.599L457.333 327.609L459.116 326.538L459.134 327.528ZM455.567 329.67L453.784 330.741L453.766 329.751L455.55 328.68L455.567 329.67ZM452 331.812L450.217 332.883L450.2 331.893L451.983 330.822L452 331.812ZM448.434 333.954L446.65 335.025L446.633 334.035L448.416 332.964L448.434 333.954ZM444.867 336.096L443.084 337.167L443.066 336.177L444.85 335.106L444.867 336.096ZM441.3 338.238L439.517 339.309L439.5 338.319L441.283 337.248L441.3 338.238ZM437.734 340.38L435.95 341.451L435.933 340.461L437.716 339.39L437.734 340.38ZM434.167 342.522L432.384 343.593L432.366 342.604L434.15 341.533L434.167 342.522ZM430.6 344.664L428.817 345.735L428.8 344.746L430.583 343.675L430.6 344.664ZM427.034 346.806L425.25 347.878L425.233 346.888L427.016 345.817L427.034 346.806ZM423.467 348.949L421.684 350.02L421.666 349.03L423.45 347.959L423.467 348.949Z" fill="#D73232"/>
<path d="M586 254.5L581.651 259.86L581.689 254.065L586 254.5ZM555 272.132L559.349 266.771L559.311 272.566L555 272.132ZM583.413 256.471L581.691 257.451L581.698 256.447L583.42 255.468L583.413 256.471ZM579.969 258.43L578.247 259.41L578.253 258.406L579.975 257.427L579.969 258.43ZM576.524 260.39L574.802 261.369L574.809 260.365L576.531 259.386L576.524 260.39ZM573.08 262.349L571.358 263.328L571.364 262.324L573.087 261.345L573.08 262.349ZM569.636 264.308L567.913 265.287L567.92 264.283L569.642 263.304L569.636 264.308ZM566.191 266.267L564.469 267.246L564.475 266.242L566.198 265.263L566.191 266.267ZM562.747 268.226L561.024 269.205L561.031 268.201L562.753 267.222L562.747 268.226ZM559.302 270.185L557.58 271.164L557.586 270.16L559.309 269.181L559.302 270.185Z" fill="#D73232"/>
<path d="M456.25 174.43L451.947 179.854L451.894 174.111L456.25 174.43ZM355 234.131L359.303 228.707L359.356 234.45L355 234.131ZM453.636 176.471L451.89 177.5L451.881 176.506L453.627 175.476L453.636 176.471ZM450.145 178.53L448.399 179.559L448.39 178.564L450.136 177.535L450.145 178.53ZM446.653 180.588L444.908 181.618L444.898 180.623L446.644 179.594L446.653 180.588ZM443.162 182.647L441.416 183.676L441.407 182.682L443.153 181.652L443.162 182.647ZM439.671 184.706L437.925 185.735L437.916 184.74L439.661 183.711L439.671 184.706ZM436.179 186.764L434.433 187.794L434.424 186.799L436.17 185.77L436.179 186.764ZM432.688 188.823L430.942 189.852L430.933 188.858L432.679 187.828L432.688 188.823ZM429.196 190.882L427.451 191.911L427.442 190.916L429.187 189.887L429.196 190.882ZM425.705 192.94L423.959 193.97L423.95 192.975L425.696 191.946L425.705 192.94ZM422.214 194.999L420.468 196.028L420.459 195.034L422.204 194.004L422.214 194.999ZM418.722 197.058L416.977 198.087L416.967 197.092L418.713 196.063L418.722 197.058ZM415.231 199.116L413.485 200.146L413.476 199.151L415.222 198.122L415.231 199.116ZM411.739 201.175L409.994 202.204L409.985 201.21L411.73 200.18L411.739 201.175ZM408.248 203.234L406.502 204.263L406.493 203.269L408.239 202.239L408.248 203.234ZM404.757 205.293L403.011 206.322L403.002 205.327L404.748 204.298L404.757 205.293ZM401.265 207.351L399.52 208.381L399.51 207.386L401.256 206.357L401.265 207.351ZM397.774 209.41L396.028 210.439L396.019 209.445L397.765 208.415L397.774 209.41ZM394.283 211.469L392.537 212.498L392.528 211.503L394.273 210.474L394.283 211.469ZM390.791 213.527L389.045 214.557L389.036 213.562L390.782 212.533L390.791 213.527ZM387.3 215.586L385.554 216.615L385.545 215.621L387.291 214.591L387.3 215.586ZM383.808 217.645L382.063 218.674L382.054 217.679L383.799 216.65L383.808 217.645ZM380.317 219.703L378.571 220.733L378.562 219.738L380.308 218.709L380.317 219.703ZM376.826 221.762L375.08 222.791L375.071 221.797L376.816 220.767L376.826 221.762ZM373.334 223.821L371.589 224.85L371.579 223.855L373.325 222.826L373.334 223.821ZM369.843 225.879L368.097 226.909L368.088 225.914L369.834 224.885L369.843 225.879ZM366.352 227.938L364.606 228.967L364.597 227.973L366.342 226.943L366.352 227.938ZM362.86 229.997L361.114 231.026L361.105 230.031L362.851 229.002L362.86 229.997ZM359.369 232.055L357.623 233.085L357.614 232.09L359.36 231.061L359.369 232.055Z" fill="#D73232"/>
<path d="M497.25 199L492.947 204.424L492.894 198.682L497.25 199ZM396 258.702L400.303 253.277L400.356 259.02L396 258.702ZM494.636 201.041L492.89 202.071L492.881 201.076L494.627 200.047L494.636 201.041ZM491.145 203.1L489.399 204.129L489.39 203.135L491.136 202.105L491.145 203.1ZM487.653 205.159L485.908 206.188L485.898 205.193L487.644 204.164L487.653 205.159ZM484.162 207.217L482.416 208.247L482.407 207.252L484.153 206.223L484.162 207.217ZM480.671 209.276L478.925 210.305L478.916 209.311L480.661 208.281L480.671 209.276ZM477.179 211.335L475.433 212.364L475.424 211.369L477.17 210.34L477.179 211.335ZM473.688 213.393L471.942 214.423L471.933 213.428L473.679 212.399L473.688 213.393ZM470.196 215.452L468.451 216.481L468.442 215.487L470.187 214.457L470.196 215.452ZM466.705 217.511L464.959 218.54L464.95 217.545L466.696 216.516L466.705 217.511ZM463.214 219.569L461.468 220.599L461.459 219.604L463.204 218.575L463.214 219.569ZM459.722 221.628L457.977 222.657L457.967 221.663L459.713 220.633L459.722 221.628ZM456.231 223.687L454.485 224.716L454.476 223.721L456.222 222.692L456.231 223.687ZM452.739 225.745L450.994 226.775L450.985 225.78L452.73 224.751L452.739 225.745ZM449.248 227.804L447.502 228.833L447.493 227.839L449.239 226.809L449.248 227.804ZM445.757 229.863L444.011 230.892L444.002 229.898L445.748 228.868L445.757 229.863ZM442.265 231.922L440.52 232.951L440.51 231.956L442.256 230.927L442.265 231.922ZM438.774 233.98L437.028 235.01L437.019 234.015L438.765 232.986L438.774 233.98ZM435.283 236.039L433.537 237.068L433.528 236.074L435.273 235.044L435.283 236.039ZM431.791 238.098L430.045 239.127L430.036 238.132L431.782 237.103L431.791 238.098ZM428.3 240.156L426.554 241.186L426.545 240.191L428.291 239.162L428.3 240.156ZM424.808 242.215L423.063 243.244L423.054 242.25L424.799 241.22L424.808 242.215ZM421.317 244.274L419.571 245.303L419.562 244.308L421.308 243.279L421.317 244.274ZM417.826 246.332L416.08 247.362L416.071 246.367L417.816 245.338L417.826 246.332ZM414.334 248.391L412.589 249.42L412.579 248.426L414.325 247.396L414.334 248.391ZM410.843 250.45L409.097 251.479L409.088 250.484L410.834 249.455L410.843 250.45ZM407.352 252.508L405.606 253.538L405.597 252.543L407.342 251.514L407.352 252.508ZM403.86 254.567L402.114 255.596L402.105 254.602L403.851 253.572L403.86 254.567ZM400.369 256.626L398.623 257.655L398.614 256.66L400.36 255.631L400.369 256.626Z" fill="#D73232"/>
<path d="M243.5 401V407.5" stroke="#D73232" stroke-width="2"/>
<path d="M408 389V395.5" stroke="#D73232" stroke-width="2"/>
<path d="M420 382V388.5" stroke="#D73232" stroke-width="2"/>
<path d="M408 335V341.5" stroke="#D73232" stroke-width="2"/>
<path d="M544 310V316.5" stroke="#D73232" stroke-width="2"/>
<path d="M555 303V309.5" stroke="#D73232" stroke-width="2"/>
<circle cx="11.9988" cy="11.9988" r="11.9988" transform="matrix(0.86601 0.500028 3.18351e-05 1 196 288)" fill="white" stroke="#D73232" stroke-width="2"/>
<circle cx="11.9988" cy="11.9988" r="11.9988" transform="matrix(0.86601 -0.500028 -3.18351e-05 1 436.609 287.999)" fill="white" stroke="#D73232" stroke-width="2"/>
<circle cx="11.9988" cy="11.9988" r="11.9988" transform="matrix(0.86601 0.500028 3.18351e-05 1 516 107)" fill="white" stroke="#D73232" stroke-width="2"/>
<circle cx="11.9988" cy="11.9988" r="11.9988" transform="matrix(0.86601 0.500028 3.18351e-05 1 260.609 361.999)" fill="white" stroke="#D73232" stroke-width="2"/>
<circle cx="11.9988" cy="11.9988" r="11.9988" transform="matrix(0.86601 -0.500028 -3.18351e-05 1 623.609 287.999)" fill="white" stroke="#D73232" stroke-width="2"/>
<path d="M295.149 382.122C295.55 382.353 295.897 382.711 296.177 383.195C296.457 383.68 296.6 384.225 296.6 384.819C296.6 385.43 296.411 385.827 296.041 386.015C295.671 386.202 295.202 386.132 294.635 385.805C293.539 385.172 292.821 384.086 292.723 382.877L293.834 383.37C293.887 383.915 294.182 384.4 294.635 384.662C295.126 384.945 295.482 384.74 295.482 384.173C295.482 383.606 295.149 383.003 294.673 382.728C294.31 382.519 294.045 382.532 293.887 382.781L292.881 382.061L293.252 378.809L296.192 380.507L296.192 381.616L294.106 380.411L293.879 382.314C294.098 381.821 294.522 381.76 295.149 382.122ZM300.31 384.491L302.049 385.495L302.049 389.998L301.149 389.479L301.149 385.22L300.484 389.095L298.829 388.139L298.163 383.496L298.164 387.755L297.264 387.236L297.264 382.732L298.995 383.731L299.653 388.301L300.31 384.491ZM305.051 388.101L302.662 386.722L302.662 386.006L303.486 385.548C303.637 385.467 303.756 385.395 303.841 385.334C303.927 385.267 303.988 385.197 304.023 385.125C304.058 385.052 304.076 384.966 304.076 384.867C304.076 384.762 304.046 384.664 303.985 384.57C303.93 384.48 303.852 384.406 303.751 384.348C303.655 384.293 303.552 384.262 303.441 384.256C303.335 384.253 303.217 384.281 303.086 384.339L302.632 383.431C302.793 383.362 302.972 383.334 303.169 383.349C303.37 383.36 303.605 383.443 303.872 383.597C304.199 383.786 304.461 384.031 304.658 384.33C304.859 384.627 304.96 384.947 304.96 385.291C304.96 385.465 304.932 385.612 304.877 385.731C304.822 385.845 304.733 385.948 304.612 386.041C304.492 386.128 304.333 386.22 304.136 386.316L303.751 386.495L305.051 387.246L305.051 388.101Z" fill="#D73232"/>
<path d="M267.781 375.12L271.642 376.201L271.642 383.985L273.492 385.053L273.492 386.748L267.781 383.451L267.781 381.755L269.989 383.03L269.989 377.41L267.781 376.802L267.781 375.12Z" fill="#D73232"/>
<path d="M208.423 308.393L206.423 309.28L209.856 311.263L209.856 312.959L203.983 309.567L203.983 308.099L207.371 306.437C207.821 306.217 208.041 305.849 208.041 305.356C208.041 304.621 207.567 303.907 206.873 303.506C206.122 303.073 205.659 303.353 205.659 304.314L203.948 303.326C203.948 302.325 204.226 301.684 204.769 301.41C205.313 301.15 206.029 301.27 206.92 301.784C208.631 302.772 209.741 304.521 209.741 306.297C209.741 307.298 209.301 308.006 208.423 308.393Z" fill="#D73232"/>
<path d="M525.068 120.426L528.12 122.188L528.12 128.076L529.114 128.65L529.115 130.332L528.12 129.758L528.12 131.533L526.467 130.579L526.467 128.803L522.444 126.48L522.444 124.798L525.068 120.426ZM526.467 127.121L526.467 121.808L524.108 125.759L526.467 127.121Z" fill="#D73232"/>
<path d="M219.704 332.338L221.699 333.49L221.699 337.34L222.349 337.715L222.349 338.815L221.699 338.439L221.699 339.6L220.618 338.976L220.618 337.815L217.988 336.296L217.988 335.197L219.704 332.338ZM220.618 336.715L220.618 333.242L219.076 335.825L220.618 336.715ZM222.94 339.618C222.94 339.173 223.235 339.003 223.62 339.225C223.983 339.435 224.293 339.972 224.293 340.399C224.293 340.81 223.983 340.997 223.62 340.788C223.25 340.574 222.94 340.037 222.94 339.618ZM226.458 336.238L228.453 337.39L228.453 341.239L229.103 341.615L229.103 342.714L228.453 342.339L228.453 343.5L227.372 342.876L227.372 341.715L224.742 340.196L224.742 339.096L226.458 336.238ZM227.372 340.615L227.372 337.141L225.83 339.725L227.372 340.615ZM232.742 341.473L234.481 342.476L234.481 346.98L233.582 346.461L233.581 342.201L232.916 346.077L231.261 345.121L230.596 340.478L230.596 344.737L229.696 344.218L229.696 339.714L231.427 340.713L232.085 345.282L232.742 341.473ZM237.483 345.083L235.095 343.704L235.095 342.988L235.919 342.53C236.07 342.448 236.188 342.377 236.274 342.316C236.36 342.249 236.42 342.179 236.455 342.107C236.491 342.034 236.508 341.948 236.508 341.849C236.508 341.744 236.478 341.645 236.417 341.552C236.362 341.462 236.284 341.388 236.183 341.33C236.087 341.274 235.984 341.244 235.873 341.238C235.767 341.235 235.649 341.263 235.518 341.321L235.064 340.413C235.226 340.343 235.405 340.316 235.601 340.33C235.803 340.342 236.037 340.425 236.304 340.579C236.632 340.768 236.894 341.013 237.09 341.312C237.292 341.609 237.392 341.929 237.392 342.272C237.393 342.447 237.365 342.594 237.309 342.713C237.254 342.827 237.166 342.93 237.045 343.023C236.924 343.11 236.765 343.202 236.569 343.298L236.183 343.477L237.483 344.227L237.483 345.083Z" fill="#D73232"/>
<path d="M537.296 142.034L539.82 142.741L539.82 147.829L541.03 148.528L541.03 149.636L537.296 147.48L537.296 146.372L538.739 147.205L538.739 143.531L537.296 143.133L537.296 142.034ZM541.896 149.324C541.48 148.482 541.276 147.622 541.276 146.723C541.276 145.824 541.48 145.2 541.896 144.838C542.304 144.472 542.818 144.472 543.445 144.834C544.073 145.196 544.586 145.79 544.995 146.628C545.403 147.465 545.607 148.325 545.607 149.224C545.607 150.123 545.403 150.747 544.995 151.114C544.587 151.48 544.073 151.48 543.445 151.118C542.818 150.756 542.304 150.162 541.896 149.324ZM542.697 146.113C542.493 146.37 542.395 146.793 542.395 147.369C542.395 147.945 542.493 148.482 542.697 148.975C542.894 149.464 543.143 149.8 543.445 149.975C543.748 150.149 543.997 150.101 544.194 149.839C544.39 149.578 544.488 149.154 544.488 148.578C544.488 148.002 544.39 147.465 544.193 146.977C543.997 146.488 543.748 146.152 543.445 145.977C543.143 145.803 542.893 145.851 542.697 146.113ZM545.867 151.731C545.867 151.285 546.161 151.115 546.547 151.338C546.91 151.547 547.22 152.084 547.22 152.512C547.22 152.922 546.91 153.11 546.547 152.9C546.176 152.686 545.867 152.149 545.867 151.731ZM550.861 152.869L549.554 153.449L551.798 154.745L551.798 155.854L547.959 153.637L547.959 152.677L550.173 151.59C550.468 151.446 550.612 151.206 550.612 150.883C550.612 150.403 550.302 149.936 549.848 149.674C549.357 149.391 549.055 149.574 549.055 150.202L547.936 149.556C547.936 148.902 548.117 148.483 548.472 148.304C548.828 148.134 549.296 148.212 549.878 148.548C550.997 149.194 551.723 150.338 551.723 151.499C551.723 152.153 551.436 152.616 550.861 152.869ZM555.662 153.581L557.4 154.585L557.4 159.088L556.501 158.569L556.501 154.31L555.836 158.185L554.18 157.229L553.515 152.586L553.515 156.845L552.616 156.326L552.616 151.822L554.346 152.821L555.004 157.391L555.662 153.581ZM560.402 157.191L558.014 155.812L558.014 155.096L558.838 154.638C558.989 154.556 559.107 154.485 559.193 154.424C559.279 154.357 559.339 154.287 559.374 154.215C559.41 154.142 559.427 154.056 559.427 153.957C559.427 153.852 559.397 153.753 559.337 153.66C559.281 153.57 559.203 153.496 559.102 153.438C559.007 153.383 558.903 153.352 558.792 153.346C558.687 153.343 558.568 153.371 558.437 153.429L557.984 152.521C558.145 152.452 558.324 152.424 558.52 152.438C558.722 152.45 558.956 152.533 559.223 152.687C559.551 152.876 559.813 153.121 560.009 153.42C560.211 153.717 560.312 154.037 560.312 154.38C560.312 154.555 560.284 154.702 560.229 154.821C560.173 154.935 560.085 155.038 559.964 155.131C559.843 155.218 559.684 155.31 559.488 155.406L559.102 155.585L560.402 156.336L560.402 157.191Z" fill="#D73232"/>
<path d="M443.028 238.655L445.553 236.446L445.553 241.535L446.762 240.837L446.762 241.945L443.028 244.101L443.028 242.993L444.472 242.159L444.472 238.485L443.028 239.755L443.028 238.655ZM450.135 237.554L448.827 239.644L451.072 238.348L451.072 239.457L447.232 241.674L447.232 240.713L449.447 237.069C449.742 236.585 449.885 236.179 449.885 235.856C449.885 235.376 449.576 235.267 449.122 235.529C448.631 235.813 448.328 236.345 448.328 236.973L447.21 237.619C447.21 236.965 447.391 236.336 447.746 235.747C448.102 235.167 448.57 234.704 449.152 234.368C450.271 233.722 450.997 234.028 450.997 235.188C450.996 235.843 450.709 236.637 450.135 237.554ZM454.935 232.722L456.674 231.718L456.674 236.222L455.774 236.741L455.774 232.482L455.109 237.125L453.454 238.081L452.789 234.206L452.789 238.465L451.889 238.985L451.889 234.481L453.62 233.482L454.278 237.291L454.935 232.722ZM459.676 230.858L457.288 232.237L457.288 231.521L458.112 230.111C458.263 229.855 458.381 229.647 458.467 229.487C458.553 229.322 458.613 229.182 458.648 229.068C458.684 228.955 458.701 228.849 458.701 228.75C458.701 228.645 458.671 228.581 458.611 228.558C458.555 228.532 458.477 228.548 458.376 228.606C458.28 228.661 458.177 228.75 458.066 228.872C457.961 228.991 457.842 229.156 457.711 229.365L457.258 228.981C457.419 228.725 457.598 228.491 457.794 228.279C457.996 228.057 458.23 227.87 458.497 227.716C458.825 227.527 459.087 227.468 459.283 227.541C459.485 227.605 459.586 227.809 459.586 228.152C459.586 228.327 459.558 228.505 459.502 228.689C459.447 228.866 459.359 229.071 459.238 229.304C459.117 229.531 458.958 229.806 458.762 230.129L458.376 230.753L459.676 230.002L459.676 230.858Z" fill="#D73232"/>
<path d="M527.626 298.492L527.626 299.452L526.371 301.651C526.787 301.472 527.134 301.464 527.406 301.629C527.678 301.804 527.814 302.144 527.814 302.659C527.814 303.218 527.633 303.785 527.278 304.348C526.923 304.911 526.454 305.365 525.887 305.692C524.746 306.351 524.028 306.068 523.96 304.859L525.078 304.065C525.086 304.68 525.403 304.828 525.895 304.545C526.401 304.252 526.696 303.742 526.696 303.209C526.696 302.686 526.356 302.55 525.728 302.912L525.245 303.192L525.245 302.223L526.303 300.364L524.217 301.568L524.217 300.46L527.626 298.492ZM528.45 303.427C528.45 302.982 528.745 302.471 529.131 302.248C529.493 302.039 529.803 302.218 529.803 302.646C529.803 303.056 529.493 303.601 529.131 303.811C528.76 304.025 528.45 303.846 528.45 303.427ZM532.048 295.938L533.28 295.227L531.874 298.858C532.214 298.199 532.819 297.727 533.31 297.653C533.802 297.579 534.217 297.959 534.217 298.762C534.217 299.364 534.036 299.966 533.666 300.59C533.295 301.214 532.827 301.686 532.26 302.013C531.693 302.34 531.232 302.406 530.861 302.218C530.491 302.03 530.302 301.633 530.302 301.022C530.302 300.647 530.431 300.128 530.68 299.469L532.048 295.938ZM531.663 300.935C531.821 301.027 532.018 301.009 532.26 300.869C532.502 300.73 532.706 300.516 532.864 300.241C533.023 299.966 533.099 299.696 533.099 299.407C533.099 299.119 533.023 298.927 532.864 298.836C532.706 298.744 532.502 298.775 532.26 298.914C532.018 299.054 531.821 299.255 531.663 299.53C531.504 299.805 531.421 300.088 531.421 300.376C531.421 300.664 531.504 300.843 531.663 300.935ZM537.928 294.149L539.667 293.145L539.667 297.649L538.767 298.168L538.767 293.909L538.102 298.552L536.447 299.508L535.782 295.633L535.781 299.892L534.882 300.411L534.882 295.908L536.613 294.908L537.27 298.718L537.928 294.149ZM542.669 292.284L540.28 293.664L540.281 292.948L541.104 291.538C541.256 291.282 541.374 291.074 541.46 290.914C541.545 290.748 541.606 290.609 541.641 290.495C541.676 290.382 541.694 290.276 541.694 290.177C541.694 290.072 541.664 290.008 541.603 289.985C541.548 289.958 541.47 289.974 541.369 290.033C541.273 290.088 541.17 290.177 541.059 290.299C540.953 290.418 540.835 290.583 540.704 290.792L540.25 290.408C540.412 290.152 540.591 289.918 540.787 289.705C540.989 289.484 541.223 289.297 541.49 289.142C541.818 288.953 542.08 288.895 542.276 288.968C542.478 289.032 542.578 289.235 542.578 289.579C542.578 289.753 542.551 289.932 542.495 290.116C542.44 290.293 542.352 290.498 542.231 290.731C542.11 290.958 541.951 291.233 541.754 291.556L541.369 292.18L542.669 291.429L542.669 292.284Z" fill="#D73232"/>
<path d="M451.513 388.711L453.509 387.559L453.509 391.408L454.159 391.033L454.159 392.133L453.509 392.508L453.509 393.669L452.428 394.293L452.428 393.132L449.797 394.651L449.797 393.551L451.513 388.711ZM452.428 392.032L452.428 388.559L450.886 392.923L452.428 392.032ZM454.749 392.254C454.749 391.809 455.044 391.298 455.43 391.076C455.792 390.866 456.102 391.045 456.102 391.473C456.102 391.883 455.792 392.429 455.429 392.638C455.059 392.852 454.749 392.673 454.749 392.254ZM456.719 386.369L459.244 384.161L459.244 389.249L460.453 388.551L460.453 389.659L456.719 391.815L456.719 390.707L458.163 389.873L458.163 386.199L456.719 387.469L456.719 386.369ZM463.939 383.143L465.678 382.139L465.678 386.642L464.778 387.162L464.778 382.903L464.113 387.546L462.458 388.502L461.793 384.626L461.793 388.886L460.893 389.405L460.893 384.901L462.624 383.902L463.282 387.712L463.939 383.143ZM468.68 381.278L466.292 382.657L466.292 381.941L467.116 380.532C467.267 380.276 467.385 380.068 467.471 379.908C467.556 379.742 467.617 379.602 467.652 379.489C467.687 379.375 467.705 379.269 467.705 379.17C467.705 379.066 467.675 379.002 467.614 378.978C467.559 378.952 467.481 378.968 467.38 379.026C467.284 379.082 467.181 379.17 467.07 379.292C466.964 379.412 466.846 379.576 466.715 379.786L466.261 379.402C466.423 379.146 466.602 378.911 466.798 378.699C467 378.478 467.234 378.29 467.501 378.136C467.829 377.947 468.091 377.889 468.287 377.961C468.489 378.025 468.589 378.229 468.589 378.572C468.589 378.747 468.562 378.926 468.506 379.109C468.451 379.287 468.363 379.492 468.242 379.724C468.121 379.951 467.962 380.226 467.766 380.549L467.38 381.173L468.68 380.423L468.68 381.278Z" fill="#D73232"/>
<path d="M635.269 292.581C635.882 292.227 636.413 292.16 636.841 292.407C637.269 292.654 637.489 293.235 637.489 294.143C637.489 295.077 637.2 296.019 636.633 296.96C636.066 297.901 635.35 298.622 634.483 299.123C632.806 300.091 631.708 299.697 631.558 298.021L633.257 296.813C633.338 297.554 633.789 297.774 634.483 297.374C635.234 296.94 635.777 295.999 635.778 295.131C635.778 294.263 635.269 293.929 634.54 294.35C633.986 294.67 633.581 295.158 633.338 295.819L631.8 296.493L632.367 290.866L636.864 288.269L636.864 289.964L633.673 291.807L633.327 295.118C633.662 293.976 634.309 293.135 635.269 292.581Z" fill="#D73232"/>
<path d="M450.007 288.186L450.007 289.655L448.088 293.019C448.724 292.746 449.256 292.732 449.672 292.986C450.088 293.253 450.296 293.773 450.296 294.561C450.296 295.416 450.019 296.283 449.475 297.144C448.932 298.006 448.215 298.7 447.348 299.2C445.602 300.208 444.504 299.775 444.4 297.926L446.111 296.711C446.122 297.652 446.608 297.879 447.359 297.445C448.134 296.998 448.585 296.217 448.585 295.402C448.585 294.601 448.065 294.394 447.105 294.948L446.365 295.376L446.365 293.894L447.984 291.05L444.793 292.893L444.793 291.197L450.007 288.186Z" fill="#D73232"/>
<circle cx="3.50511" cy="3.50511" r="3.50511" transform="matrix(-0.866041 -0.499972 -0.866041 0.499972 196.428 451.505)" stroke="#D73232" stroke-width="2" stroke-dasharray="4 4"/>
<circle cx="3.50511" cy="3.50511" r="3.50511" transform="matrix(-0.866041 -0.499972 -0.866041 0.499972 254.428 486.505)" stroke="#D73232" stroke-width="2" stroke-dasharray="4 4"/>
<circle cx="3.50511" cy="3.50511" r="3.50511" transform="matrix(-0.866041 -0.499972 -0.866041 0.499972 162.142 471.505)" stroke="#D73232" stroke-width="2" stroke-dasharray="4 4"/>
<circle cx="3.50511" cy="3.50511" r="3.50511" transform="matrix(-0.866041 -0.499972 -0.866041 0.499972 220.142 506.505)" stroke="#D73232" stroke-width="2" stroke-dasharray="4 4"/>
<circle cx="3.50511" cy="3.50511" r="3.50511" transform="matrix(-0.866041 -0.499972 -0.866041 0.499972 127.142 491.505)" stroke="#D73232" stroke-width="2" stroke-dasharray="4 4"/>
<circle cx="3.50511" cy="3.50511" r="3.50511" transform="matrix(-0.866041 -0.499972 -0.866041 0.499972 185.142 526.505)" stroke="#D73232" stroke-width="2" stroke-dasharray="4 4"/>
<circle cx="3.50511" cy="3.50511" r="3.50511" transform="matrix(-0.866041 -0.499972 -0.866041 0.499972 88.1421 514.185)" stroke="#D73232" stroke-width="2" stroke-dasharray="4 4"/>
<circle cx="3.50511" cy="3.50511" r="3.50511" transform="matrix(-0.866041 -0.499972 -0.866041 0.499972 146.142 549.185)" stroke="#D73232" stroke-width="2" stroke-dasharray="4 4"/>
<circle cx="3.50511" cy="3.50511" r="3.50511" transform="matrix(-0.866041 -0.499972 -0.866041 0.499972 49.1421 536.185)" stroke="#D73232" stroke-width="2" stroke-dasharray="4 4"/>
<circle cx="3.50511" cy="3.50511" r="3.50511" transform="matrix(-0.866041 -0.499972 -0.866041 0.499972 107.142 571.185)" stroke="#D73232" stroke-width="2" stroke-dasharray="4 4"/>
<circle cx="3.50511" cy="3.50511" r="3.50511" transform="matrix(-0.866041 -0.499972 -0.866041 0.499972 12.1421 557.505)" stroke="#D73232" stroke-width="2" stroke-dasharray="4 4"/>
<path d="M91.2346 181.312L68.9397 209.33L79.3208 215.272L58.5151 239.045L70.3855 245.839L54.0031 265.347L128.473 307.969L112.089 269.707L123.959 276.501L103.151 228.911L113.532 234.852L91.2346 181.312ZM86.7698 284.101L86.771 321.482L95.7074 326.596L95.7062 289.215L86.7698 284.101Z" stroke="#D73232" stroke-width="2" stroke-dasharray="4 4"/>
<path d="M290.235 21.7202L267.94 49.7382L278.321 55.6797L257.515 79.4528L269.386 86.2468L253.003 105.755L327.473 148.377L311.089 110.115L322.959 116.909L302.151 69.3188L312.532 75.2604L290.235 21.7202ZM285.77 124.509L285.771 161.89L294.707 167.004L294.706 129.624L285.77 124.509Z" stroke="#D73232" stroke-width="2" stroke-dasharray="4 4"/>
<path d="M759.239 171.399L781.534 199.417L771.153 205.359L791.959 229.132L780.088 235.926L796.47 255.434L722.001 298.057L738.385 259.794L726.515 266.588L747.323 218.998L736.941 224.94L759.239 171.399ZM763.704 274.188L763.703 311.569L754.766 316.684L754.767 279.303L763.704 274.188Z" stroke="#D73232" stroke-width="2" stroke-dasharray="4 4"/>
<path d="M617.239 315.131L639.534 343.149L629.153 349.091L649.959 372.864L638.088 379.658L654.47 399.166L580.001 441.788L596.385 403.526L584.515 410.32L605.323 362.73L594.942 368.672L617.239 315.131ZM621.704 417.92L621.703 455.301L612.766 460.416L612.767 423.035L621.704 417.92Z" fill="#F4F4F4" stroke="#D73232" stroke-width="2" stroke-dasharray="4 4"/>
</svg>
