<svg width="279" height="228" viewBox="0 0 279 228" fill="none" xmlns="http://www.w3.org/2000/svg">
<path d="M67.7288 52.6499V73.3049L67.6836 52.6499C67.6836 51.8849 67.7288 51.1649 67.9097 50.3999C67.774 51.1199 67.7288 51.9299 67.7288 52.6499Z" stroke="black" stroke-width="1.5" stroke-miterlimit="10" stroke-linecap="round" stroke-linejoin="round"/>
<path d="M70.7582 42.7949C70.4869 43.2449 70.2156 43.7399 69.9443 44.1899C70.1704 43.7399 70.3965 43.2899 70.6677 42.8399L70.7582 42.7949Z" stroke="black" stroke-width="1.5" stroke-miterlimit="10" stroke-linecap="round" stroke-linejoin="round"/>
<path d="M181.755 24.39C180.354 23.805 178.545 24.03 176.556 25.155L167.333 30.51L155.849 37.125L66.7794 88.65L55.2953 95.265V95.31L47.79 99.63C44.9868 101.25 42.5453 104.355 41.1437 107.685C40.8724 108.36 40.6012 109.035 40.4655 109.71C40.2847 110.205 40.1943 110.745 40.1038 111.24C40.1038 111.285 40.1038 111.33 40.1038 111.33C39.9682 111.96 39.923 112.59 39.923 113.22L40.1943 208.26C40.1943 208.935 40.2395 209.565 40.4203 210.105C40.4655 210.51 40.6012 210.915 40.782 211.23C41.0533 211.95 41.5054 212.535 42.048 212.985L4.79266 191.475C3.43627 190.62 2.57723 188.91 2.57723 186.435L2.26074 91.44C2.26074 89.01 3.07457 86.355 4.43095 83.925C5.87776 81.405 7.91234 79.155 10.1278 77.85L17.6331 73.485L29.1171 66.87L60.4044 48.78L60.4496 69.075L67.7288 73.305L77.54 67.68L77.4948 47.025L100.372 33.84L107.652 29.655L107.697 50.31L117.463 44.685L117.418 24.03C117.418 20.88 116.287 18.675 114.434 17.73C114.388 17.64 114.343 17.64 114.253 17.64L114.298 17.595C114.298 17.595 114.298 17.595 114.343 17.595L118.231 15.345L129.67 8.72996L138.939 3.37496C141.109 2.11496 143.098 1.93496 144.5 2.83496L181.755 24.39Z" fill="#D01818" stroke="black" stroke-width="1.5" stroke-miterlimit="10" stroke-linecap="round" stroke-linejoin="round"/>
<path d="M124.199 168.705L48.1064 212.715C43.7659 215.19 40.1941 213.21 40.1941 208.26L39.9229 113.175C39.9229 108.18 43.4494 102.105 47.7899 99.63L176.556 25.155C180.941 22.635 184.468 24.66 184.468 29.655L184.739 124.695C184.739 129.645 181.258 135.72 176.872 138.24L124.199 168.705Z" fill="white" stroke="black" stroke-width="1.5" stroke-miterlimit="10" stroke-linecap="round" stroke-linejoin="round"/>
<path d="M167.333 30.51L167.649 143.55L156.165 150.12L155.849 37.08L167.333 30.51Z" stroke="black" stroke-width="1.5" stroke-miterlimit="10" stroke-linecap="round" stroke-linejoin="round"/>
<path d="M118.231 15.3L155.848 37.08L167.333 30.51L129.67 8.72998L118.231 15.3Z" fill="white" stroke="black" stroke-width="1.5" stroke-miterlimit="10" stroke-linecap="round" stroke-linejoin="round"/>
<path d="M66.779 88.6499L67.0955 201.69L55.6114 208.26L55.2949 95.2199L66.779 88.6499Z" stroke="black" stroke-width="1.5" stroke-miterlimit="10" stroke-linecap="round" stroke-linejoin="round"/>
<path d="M17.6328 73.4399L55.295 95.2199L66.7791 88.6499L29.1169 66.8699L17.6328 73.4399Z" fill="white" stroke="black" stroke-width="1.5" stroke-miterlimit="10" stroke-linecap="round" stroke-linejoin="round"/>
<path d="M107.697 50.265L100.372 46.035V33.84L107.651 29.655L107.697 50.265Z" stroke="black" stroke-width="1.5" stroke-miterlimit="10" stroke-linecap="round" stroke-linejoin="round"/>
<path d="M114.207 17.5501C114.027 17.4601 113.846 17.4151 113.62 17.3701C111.992 16.7851 109.867 17.1001 107.606 18.4501L77.4495 35.8201C75.4149 36.9901 73.516 38.7901 71.9788 40.9051C71.7527 41.2201 71.5266 41.5351 71.3006 41.8501C71.0745 42.1651 70.8937 42.5251 70.6676 42.8401C70.3963 43.2901 70.1703 43.7401 69.9442 44.1901C69.5373 45.0001 69.1756 45.7651 68.9043 46.5751C68.7687 46.9801 68.633 47.3851 68.4974 47.7901C68.2713 48.5101 68.0905 49.2751 67.9548 49.9951C67.9548 50.1301 67.9096 50.2651 67.9096 50.4001C67.7288 51.1651 67.6836 51.8851 67.6836 52.6501L67.7288 73.3051L60.4495 69.0751L60.4043 48.7801V48.4201C60.4043 42.2551 64.7447 34.6951 70.1703 31.5901L100.327 14.2201C103.04 12.6451 105.481 12.5101 107.29 13.5451L114.207 17.5501Z" fill="white" stroke="black" stroke-width="1.5" stroke-miterlimit="10" stroke-linecap="round" stroke-linejoin="round"/>
<path d="M67.6836 52.6499C67.6836 51.8849 67.7288 51.1649 67.9097 50.3999C67.774 51.1649 67.7288 51.9299 67.7288 52.6499V73.3049L67.6836 52.6499Z" stroke="black" stroke-width="1.5" stroke-miterlimit="10" stroke-linecap="round" stroke-linejoin="round"/>
<path d="M70.6677 42.8399C70.8938 42.5249 71.0747 42.1649 71.3007 41.8499C71.1199 42.1649 70.939 42.4799 70.7582 42.7949C70.4869 43.2449 70.2156 43.7399 69.9443 44.1899C70.1704 43.7399 70.3965 43.2449 70.6677 42.8399Z" stroke="black" stroke-width="1.5" stroke-miterlimit="10" stroke-linecap="round" stroke-linejoin="round"/>
<path d="M114.615 17.7749C114.57 17.7299 114.479 17.7299 114.434 17.7299C114.389 17.6399 114.344 17.6399 114.253 17.6399C114.072 17.5049 113.846 17.4149 113.62 17.3699C113.846 17.4149 114.027 17.4599 114.208 17.5499C114.253 17.5949 114.298 17.5949 114.298 17.5949C114.298 17.5949 114.298 17.5949 114.344 17.5949C114.344 17.5949 114.344 17.6399 114.389 17.6399L114.615 17.7749Z" stroke="black" stroke-width="1.5" stroke-miterlimit="10" stroke-linecap="round" stroke-linejoin="round"/>
<path d="M117.463 44.6399L107.697 50.2649L107.651 29.6099L100.372 33.8399L77.4945 47.0249L77.5397 67.6799L67.7285 73.3049V52.6499C67.7285 51.9299 67.7737 51.1649 67.9094 50.3999C67.9094 50.2649 67.9546 50.1299 67.9546 49.9949C68.0902 49.2749 68.2711 48.5099 68.4971 47.7899C68.6328 47.3849 68.7684 46.9799 68.904 46.5749C69.1753 45.7649 69.537 44.9999 69.9439 44.1899C70.2152 43.7399 70.4865 43.2449 70.7578 42.7949C70.9386 42.4799 71.1195 42.1649 71.3003 41.8499C71.5264 41.5349 71.7525 41.2199 71.9785 40.9049C73.5158 38.7899 75.4147 36.9899 77.4493 35.8199L107.606 18.4499C109.867 17.1449 111.992 16.8299 113.619 17.3699C113.846 17.4149 114.072 17.5049 114.252 17.6399C114.343 17.6399 114.388 17.6399 114.433 17.7299C116.287 18.6749 117.417 20.8799 117.417 24.0299L117.463 44.6399Z" fill="white" stroke="black" stroke-width="1.5" stroke-miterlimit="10" stroke-linecap="round" stroke-linejoin="round"/>
<path d="M67.6836 52.6499C67.6836 51.8849 67.7288 51.1649 67.9097 50.3999C67.774 51.1649 67.7288 51.9299 67.7288 52.6499V73.3049L67.6836 52.6499Z" stroke="black" stroke-width="1.5" stroke-miterlimit="10" stroke-linecap="round" stroke-linejoin="round"/>
<path d="M71.3007 41.8049C71.1199 42.1199 70.939 42.4349 70.7582 42.7499C70.4869 43.1999 70.2156 43.6949 69.9443 44.1449C70.1704 43.6949 70.3965 43.2449 70.6677 42.7949C70.8938 42.5249 71.0747 42.1199 71.3007 41.8049Z" stroke="black" stroke-width="1.5" stroke-miterlimit="10" stroke-linecap="round" stroke-linejoin="round"/>
<path d="M114.434 17.685C114.389 17.595 114.344 17.595 114.253 17.595C114.072 17.46 113.846 17.37 113.62 17.325C113.846 17.37 114.027 17.415 114.208 17.505C114.253 17.55 114.298 17.55 114.298 17.55C114.298 17.55 114.298 17.55 114.344 17.55C114.344 17.55 114.344 17.595 114.389 17.595C114.389 17.64 114.389 17.64 114.434 17.685Z" stroke="black" stroke-width="1.5" stroke-miterlimit="10" stroke-linecap="round" stroke-linejoin="round"/>
<path d="M41.1434 107.64L4.43066 83.925" stroke="black" stroke-width="1.5" stroke-miterlimit="10" stroke-linecap="round" stroke-linejoin="round"/>
<path d="M93.5907 92.2499C97.2077 90.1799 100.779 89.6849 103.537 91.2599C107.29 93.4199 108.511 98.8649 107.109 105.12L115.79 110.025L120.673 112.815L126.958 116.37C128.224 115.2 129.58 114.21 130.891 113.445C134.508 111.375 138.125 110.88 140.838 112.41C144.139 114.255 145.45 118.62 144.862 123.84L136.859 119.295L127.5 127.53L125.014 139.68L133.016 144.225C132.338 144.72 131.66 145.17 130.982 145.575C127.365 147.645 123.793 148.14 121.035 146.565C117.282 144.405 116.061 139.005 117.463 132.75L111.224 129.15L106.341 126.36L97.6598 121.455C96.3486 122.625 95.0375 123.615 93.6811 124.38C90.1093 126.45 86.4923 126.945 83.7343 125.37C80.4337 123.525 79.1226 119.16 79.7103 113.94L87.713 118.485L97.072 110.25L99.5587 98.0999L91.5561 93.5549C92.2343 93.0599 92.9125 92.6549 93.5907 92.2499Z" fill="#D01818" stroke="black" stroke-width="1.5" stroke-miterlimit="10" stroke-linecap="round" stroke-linejoin="round"/>
<g clip-path="url(#clip0_295_2893)">
<path d="M255.093 127.079V132.166L254.948 145.416L254.875 156.051C254.875 157.94 253.644 159.83 251.156 161.259C246.158 164.19 238.044 164.19 233.045 161.283C230.509 159.806 229.229 157.892 229.229 155.978L229.399 127.418C229.93 127.878 230.558 128.314 231.258 128.726C237.247 132.19 246.93 132.19 252.895 128.726C253.74 128.217 254.489 127.684 255.093 127.079Z" fill="white" stroke="black" stroke-width="1.5" stroke-miterlimit="10" stroke-linecap="round" stroke-linejoin="round"/>
<path d="M254.996 137.471L254.972 140.887" stroke="black" stroke-width="1.5" stroke-miterlimit="10" stroke-linecap="round" stroke-linejoin="round"/>
<path d="M257.58 116.202L257.338 122.501C257.338 124.099 256.59 125.698 255.093 127.079C254.489 127.685 253.74 128.218 252.895 128.726C246.93 132.19 237.247 132.19 231.258 128.726C230.558 128.314 229.93 127.878 229.399 127.418C227.612 125.916 226.742 124.148 226.742 122.404L227.008 116.299C227.008 116.832 227.104 117.341 227.298 117.85C227.563 118.697 228.07 119.497 228.771 120.272C228.867 120.369 228.964 120.49 229.085 120.611C229.133 120.66 229.181 120.708 229.254 120.757C229.326 120.829 229.374 120.902 229.447 120.95C229.495 120.999 229.568 121.071 229.664 121.12C229.664 121.12 229.664 121.144 229.688 121.144C230.22 121.604 230.823 122.016 231.524 122.428C237.512 125.892 247.172 125.892 253.161 122.428C253.789 122.065 254.344 121.677 254.827 121.241C254.827 121.289 254.803 121.362 254.779 121.411C254.803 121.362 254.827 121.289 254.851 121.241V121.217C254.924 121.193 255.02 121.12 255.093 121.047C256.759 119.594 257.58 117.898 257.58 116.202Z" fill="#D73232" stroke="black" stroke-width="1.5" stroke-miterlimit="10" stroke-linecap="round" stroke-linejoin="round"/>
<path d="M227.298 117.849C227.104 117.341 227.008 116.832 227.008 116.299C227.032 116.832 227.129 117.341 227.298 117.849Z" stroke="black" stroke-width="1.5" stroke-miterlimit="10" stroke-linecap="round" stroke-linejoin="round"/>
<path d="M254.851 121.241C254.827 121.29 254.802 121.362 254.778 121.411C254.802 121.362 254.827 121.29 254.827 121.241H254.851Z" stroke="black" stroke-width="1.5" stroke-miterlimit="10" stroke-linecap="round" stroke-linejoin="round"/>
<path d="M257.58 116.202C257.58 117.898 256.759 119.594 255.093 121.047C255.021 121.12 254.924 121.192 254.852 121.217V121.241H254.827C254.345 121.677 253.789 122.065 253.161 122.428C247.172 125.892 237.513 125.892 231.524 122.428C230.824 122.016 230.22 121.604 229.689 121.144C229.665 121.144 229.665 121.12 229.665 121.12C229.568 121.071 229.496 120.999 229.447 120.95V120.926C229.375 120.853 229.327 120.805 229.254 120.756C229.182 120.708 229.133 120.66 229.085 120.611C228.964 120.49 228.868 120.369 228.771 120.272C228.071 119.497 227.564 118.697 227.298 117.85C227.129 117.341 227.032 116.832 227.008 116.299C226.912 113.974 228.409 111.648 231.452 109.856C233.166 108.862 235.195 108.136 237.368 107.724L237.344 112.908V117.05C237.344 117.777 237.803 118.479 238.745 119.037C240.628 120.127 243.671 120.127 245.53 119.037C246.448 118.479 246.907 117.777 246.931 117.074V112.884L246.955 107.7C249.177 108.112 251.302 108.838 253.089 109.88C256.107 111.624 257.605 113.925 257.58 116.202Z" fill="white" stroke="black" stroke-width="1.5" stroke-miterlimit="10" stroke-linecap="round" stroke-linejoin="round"/>
<path d="M227.298 117.849C227.104 117.341 227.008 116.832 227.008 116.299C227.032 116.832 227.129 117.341 227.298 117.849Z" stroke="black" stroke-width="1.5" stroke-miterlimit="10" stroke-linecap="round" stroke-linejoin="round"/>
<path d="M247.002 92.584L246.954 107.7L246.93 112.884V117.074C246.906 117.777 246.447 118.479 245.529 119.037C243.67 120.127 240.627 120.127 238.743 119.037C237.802 118.479 237.343 117.777 237.343 117.05V112.908L237.367 107.724L237.391 97.235L237.777 97.453C238.019 97.5984 238.333 97.5741 238.743 97.3561L247.002 92.584Z" fill="white" stroke="black" stroke-width="1.5" stroke-miterlimit="10" stroke-linecap="round" stroke-linejoin="round"/>
<path d="M237.416 89.144L237.392 97.2349L231.089 93.5528L231.717 92.4385L237.416 89.144Z" fill="#D73232" stroke="black" stroke-width="1.5" stroke-miterlimit="10" stroke-linecap="round" stroke-linejoin="round"/>
<path d="M270.741 60.487C270.185 60.1721 269.606 59.9056 269.026 59.6876C268.737 59.5665 268.423 59.4696 268.133 59.3727C267.843 59.2758 267.529 59.2031 267.239 59.1547C266.998 59.082 266.732 59.0336 266.491 58.9851C266.153 58.9367 265.79 58.8882 265.452 58.864C265.187 58.8398 264.921 58.8156 264.68 58.7913C263.786 58.7429 262.893 58.7671 262.047 58.8398C261.782 58.864 261.54 58.8882 261.275 58.9125C260.767 58.9609 260.26 59.0336 259.777 59.1305C259.077 59.2516 258.401 59.3969 257.821 59.5665C257.049 59.7603 256.372 59.9783 255.889 60.1479C255.648 60.2206 255.455 60.2932 255.286 60.3659C255.117 60.4143 254.996 60.4628 254.948 60.487L237.633 70.5158H237.609L221.937 61.3591L239.227 51.3303C239.951 51.0396 248.572 47.5756 255.02 51.3546L270.741 60.487Z" fill="white" stroke="black" stroke-width="1.5" stroke-miterlimit="10" stroke-linecap="round" stroke-linejoin="round"/>
<path d="M237.633 73.8103L231.113 77.5893L229.012 75.506L216.141 67.9966L221.912 64.6294V61.335L221.936 61.3592L237.609 70.5159L237.633 73.8103Z" fill="#D01818" stroke="black" stroke-width="1.5" stroke-miterlimit="10" stroke-linecap="round" stroke-linejoin="round"/>
<path d="M229.012 75.5058L228.263 75.9418L217.928 81.9252L202.207 72.7685L213.291 66.3491L216.141 67.9964L229.012 75.5058Z" fill="white" stroke="black" stroke-width="1.5" stroke-miterlimit="10" stroke-linecap="round" stroke-linejoin="round"/>
<path d="M217.976 103.872L202.279 94.7155L202.207 72.7686L217.928 81.9252L217.976 103.872Z" fill="#D73232" stroke="black" stroke-width="1.5" stroke-miterlimit="10" stroke-linecap="round" stroke-linejoin="round"/>
<path d="M277.792 78.3886C271.248 72.6475 263.81 70.8549 254.899 76.0146C254.392 76.3053 253.885 76.6444 253.354 76.9836L253.33 87.3999C253.33 88.2235 252.75 89.2652 252.026 89.677L247.003 92.5839L238.744 97.356C238.333 97.574 238.019 97.5982 237.778 97.4529L237.392 97.2349L237.416 89.144L231.717 92.4385L231.089 93.5528L228.819 97.5982L217.976 103.872L217.928 81.9253L228.263 75.9419L229.012 75.5059L231.113 77.5892L237.633 73.8102V70.5158L254.948 60.487C254.996 60.4628 255.117 60.4143 255.286 60.3659C255.431 60.3174 255.648 60.2205 255.889 60.1479C256.372 59.9783 257.048 59.7603 257.821 59.5665C258.425 59.4211 259.077 59.2516 259.777 59.1305C260.26 59.0336 260.767 58.9609 261.274 58.9124C261.54 58.8882 261.782 58.864 262.047 58.8398C262.892 58.7671 263.786 58.7429 264.679 58.7913C264.921 58.8155 265.187 58.8398 265.452 58.864C265.79 58.8882 266.153 58.9367 266.491 58.9851C266.732 59.0336 266.998 59.082 267.239 59.1547C267.529 59.2031 267.843 59.2758 268.133 59.3727C268.422 59.4696 268.736 59.5665 269.026 59.6876C269.606 59.9056 270.185 60.1721 270.741 60.487C274.749 62.8367 277.913 67.948 277.792 78.3886Z" fill="white" stroke="black" stroke-width="1.5" stroke-miterlimit="10" stroke-linecap="round" stroke-linejoin="round"/>
</g>
<g clip-path="url(#clip1_295_2893)">
<path d="M140.164 182.107C139.103 182.995 138.07 183.911 137.037 184.855C133.715 187.882 130.505 191.102 128.215 194.989C125.424 199.82 124.307 205.956 126.708 210.981C129.081 216.006 134.385 218.949 139.577 221.031C153.815 226.695 169.727 228.083 184.747 225.029C190.218 223.919 195.55 222.225 200.855 220.532C205.796 218.977 210.737 217.394 215.622 215.756" fill="white"/>
<path d="M215.622 215.756C219.503 214.229 237.593 207.399 241.334 205.595C245.521 203.596 249.709 201.347 252.78 197.876C255.823 194.378 257.553 189.409 256.046 185.05C255.32 182.856 253.841 180.996 252.054 179.552C251.3 187.354 245.912 194.961 235.834 200.958C221.569 209.371 201.525 212.314 183.211 209.815C175.925 208.815 168.946 206.927 162.665 204.234V207.261C162.637 209.537 161.018 210.453 159.036 209.315L149.293 203.707C147.311 202.568 145.691 199.792 145.691 197.515L145.719 192.435L145.747 180.33C145.747 178.053 147.366 177.137 149.376 178.275L153.033 180.358C153.145 178.248 153.805 173.61 154 171.5" fill="white"/>
<path d="M140.164 182.107C139.103 182.995 138.07 183.911 137.037 184.855C133.715 187.882 130.505 191.102 128.215 194.989C125.424 199.82 124.307 205.956 126.708 210.981C129.081 216.006 134.385 218.949 139.577 221.031C153.815 226.695 169.727 228.083 184.747 225.029C190.218 223.919 195.55 222.225 200.855 220.532C205.796 218.977 210.737 217.394 215.622 215.756C219.503 214.229 237.593 207.399 241.334 205.595C245.521 203.596 249.709 201.347 252.78 197.876C255.823 194.378 257.553 189.409 256.046 185.05C255.32 182.856 253.841 180.996 252.054 179.552C251.3 187.354 245.912 194.961 235.834 200.958C221.569 209.371 201.525 212.314 183.211 209.815C175.925 208.815 168.946 206.927 162.665 204.234V207.261C162.637 209.537 161.018 210.453 159.036 209.315L149.293 203.707C147.311 202.568 145.691 199.792 145.691 197.515L145.719 192.435L145.747 180.33C145.747 178.053 147.366 177.137 149.376 178.275L153.033 180.358C153.145 178.248 153.805 173.61 154 171.5L140.164 182.107Z" fill="white"/>
<path d="M140.164 182.107C139.103 182.995 138.07 183.911 137.037 184.855C133.715 187.882 130.505 191.102 128.215 194.989C125.424 199.82 124.307 205.956 126.708 210.981C129.081 216.006 134.385 218.949 139.577 221.031C153.815 226.695 169.727 228.083 184.747 225.029C190.218 223.919 195.55 222.225 200.855 220.532C205.796 218.977 210.737 217.394 215.622 215.756C219.503 214.229 237.593 207.399 241.334 205.595C245.521 203.596 249.709 201.347 252.78 197.876C255.823 194.378 257.553 189.409 256.046 185.05C255.32 182.856 253.841 180.996 252.054 179.552C251.3 187.354 245.912 194.961 235.834 200.958C221.569 209.371 201.525 212.314 183.211 209.815C175.925 208.815 168.946 206.927 162.665 204.234V207.261C162.637 209.537 161.018 210.453 159.036 209.315L149.293 203.707C147.311 202.568 145.691 199.792 145.691 197.515L145.719 192.435L145.747 180.33C145.747 178.053 147.366 177.137 149.376 178.275L153.033 180.358C153.145 178.248 153.805 173.61 154 171.5L140.164 182.107Z" stroke="black" stroke-width="1.5" stroke-miterlimit="10" stroke-linecap="round" stroke-linejoin="round"/>
<path d="M221.15 213.841C222.462 213.369 223.775 212.897 225.059 212.425" stroke="black" stroke-width="1.5" stroke-miterlimit="10" stroke-linecap="round" stroke-linejoin="round"/>
<path d="M140.164 182.107C141.029 185.661 142.872 189.159 145.719 192.435L145.747 180.33C145.747 178.053 147.367 177.137 149.377 178.275L153.034 180.358C153.145 178.248 153.285 176.138 153.48 174.028" stroke="black" stroke-width="1.5" stroke-miterlimit="10" stroke-linecap="round" stroke-linejoin="round"/>
<path d="M252.137 177.526V177.859C252.137 178.414 252.109 178.969 252.053 179.553C251.3 187.354 245.912 194.961 235.834 200.958C221.568 209.371 201.524 212.314 183.211 209.815C184.383 197.988 186.617 186.244 189.827 174.777C190.358 172.889 190.888 171.001 191.53 169.141C192.619 165.81 193.931 162.561 195.606 159.507C200.826 149.929 209.732 142.405 220.061 138.851C224.835 137.213 229.86 136.436 234.913 136.463H234.941C245.549 146.819 252.137 161.395 252.137 177.526Z" fill="white" stroke="black" stroke-width="1.5" stroke-miterlimit="10" stroke-linecap="round" stroke-linejoin="round"/>
<path d="M140 182C139.637 180.473 139.605 179.053 139.605 177.526V177.359C139.689 145.903 164.842 120.388 195.858 120.388C211.044 120.388 224.779 126.496 234.913 136.463C229.86 136.436 224.835 137.213 220.061 138.851C209.732 142.405 200.827 149.929 195.606 159.507C193.931 162.561 192.619 165.809 191.53 169.141C190.888 171.001 190.358 172.889 189.828 174.777C186.617 186.244 184.384 197.988 183.211 209.815C175.925 208.815 168.946 206.927 162.665 204.234L162.693 190.075C162.72 187.798 161.101 185.022 159.119 183.856C154.913 181.237 146.5 176.6 146.5 179C145.5 182.5 146 193 146 193C141.5 187 140.779 184.464 140 182Z" fill="#D01818" stroke="black" stroke-width="1.5" stroke-miterlimit="10" stroke-linecap="round" stroke-linejoin="round"/>
<path d="M153 180C153.447 175.28 154.596 164.699 155.797 160.451C157.332 154.954 159.091 149.485 161.827 144.487C167.298 134.464 176.622 126.607 187.426 122.887C191.195 121.582 195.103 120.805 199.067 120.527" stroke="black" stroke-width="1.5" stroke-miterlimit="10" stroke-linecap="round" stroke-linejoin="round"/>
<path d="M162.693 190.075L162.665 204.234V207.261C162.637 209.537 161.018 210.453 159.036 209.315L149.293 203.707C147.311 202.568 145.691 199.792 145.691 197.515L145.719 192.435L145.747 180.33C145.747 178.053 147.366 177.137 149.376 178.275L153.033 180.358L159.119 183.856C161.101 185.022 162.721 187.798 162.693 190.075Z" fill="white" stroke="black" stroke-width="1.5" stroke-miterlimit="10" stroke-linecap="round" stroke-linejoin="round"/>
</g>
<defs>
<clipPath id="clip0_295_2893">
<rect width="78" height="116.275" fill="white" transform="translate(201 48.3992)"/>
</clipPath>
<clipPath id="clip1_295_2893">
<rect width="134" height="109" fill="white" transform="translate(124 119)"/>
</clipPath>
</defs>
</svg>
