<svg width="194" height="229" viewBox="0 0 194 229" fill="none" xmlns="http://www.w3.org/2000/svg">
<g clip-path="url(#clip0_295_2895)">
<path d="M127.6 117.524V111.693L127.544 93.982L127.516 85.8657L136.204 90.7032C136.12 90.6495 136.008 90.5957 135.924 90.5151C138.699 92.1545 142.006 92.9607 145.678 92.8263L145.79 127.656L127.6 117.524Z" fill="#D01818" stroke="black" stroke-width="1.5" stroke-miterlimit="10" stroke-linecap="round" stroke-linejoin="round"/>
<path d="M173.79 112.149L159.748 109.838L145.79 127.656L145.678 92.8262C149.938 92.665 154.675 91.2675 159.692 88.4993C164.681 85.7312 169.446 81.8612 173.678 77.3193L173.79 112.149Z" fill="white" stroke="#242424" stroke-width="1.5" stroke-miterlimit="10" stroke-linecap="round" stroke-linejoin="round"/>
<path d="M182.956 13.5988C176.958 10.2395 168.661 10.7232 159.468 15.8026C141.278 25.8807 126.535 50.337 126.591 70.4126C126.619 80.3832 130.291 87.4245 136.205 90.7032L118.014 80.5713C112.1 77.2657 108.429 70.2782 108.401 60.3076C108.344 40.2051 123.087 15.7757 141.306 5.69758C150.471 0.618204 158.767 0.161329 164.794 3.46695L182.956 13.5988Z" fill="#D01818" stroke="black" stroke-width="1.5" stroke-miterlimit="10" stroke-linecap="round" stroke-linejoin="round"/>
<path d="M159.495 15.8027C177.714 5.72456 192.541 13.7871 192.597 33.8627C192.653 48.4289 184.889 65.3064 173.706 77.3196C169.473 81.8614 164.737 85.7046 159.72 88.4727C154.702 91.2408 149.966 92.6383 145.705 92.7996C134.438 93.2296 126.618 84.9789 126.59 70.4127C126.534 50.3371 141.277 25.8808 159.495 15.8027Z" fill="white" stroke="black" stroke-width="1.5" stroke-miterlimit="10" stroke-linecap="round" stroke-linejoin="round"/>
<path d="M144.894 84.7637C136.009 84.7637 135.028 74.7125 135 70.3856C134.944 53.2125 148.089 31.4168 163.701 22.79C167.569 20.6668 171.213 19.5381 174.296 19.5381C183.181 19.5381 184.162 29.5893 184.19 33.9162C184.218 46.0906 177.659 61.0062 167.429 71.9712C163.645 76.0293 159.637 79.2543 155.517 81.5387C151.873 83.5543 148.37 84.6831 145.371 84.7906L144.894 84.7637Z" stroke="#F50000" stroke-width="1.5" stroke-miterlimit="10" stroke-linecap="round" stroke-linejoin="round"/>
<path d="M159.552 37.8132L162.355 45.6876L171.324 40.7157L164.092 50.552L166.895 58.4264L159.608 56.6257L152.377 66.462L155.123 55.5239L147.836 53.7232L156.805 48.7514L159.552 37.8132Z" fill="#F50000" stroke="black" stroke-width="1.5" stroke-miterlimit="10" stroke-linecap="round" stroke-linejoin="round"/>
</g>
<path d="M80.8939 217.084C66.4407 222.764 47.9752 223.619 32.314 219.647C32.314 219.647 27.1551 218.345 24 217.084C20.5393 215.702 15.488 212.771 15.488 212.771C6.60036 207.219 2.11341 200.129 2.15656 193.082L2.1997 179.116C2.1997 180.611 2.41542 182.149 2.84686 183.644C2.93315 183.985 3.01943 184.327 3.14886 184.626C4.05488 187.402 5.69434 190.05 8.0241 192.57C8.36925 192.997 8.80069 193.424 9.23213 193.808C9.66357 194.235 10.1381 194.662 10.5696 195.047C11.9502 196.242 13.5034 197.396 15.2291 198.506C15.8331 198.848 16.4371 199.232 17.0411 199.574C31.4511 207.816 52.419 210.037 70.2805 206.194C72.0925 210.422 74.8537 213.625 78.2621 215.589L80.8939 217.084Z" fill="white" stroke="black" stroke-width="1.5" stroke-miterlimit="10" stroke-linecap="round" stroke-linejoin="round"/>
<path d="M70.2803 206.194C52.4188 210.037 31.451 207.817 17.041 199.574C16.437 199.232 15.8329 198.848 15.2289 198.506C13.5032 197.396 11.95 196.243 10.5694 195.047C10.138 194.662 9.66339 194.235 9.23195 193.808C8.80052 193.424 8.36908 192.997 8.02393 192.57C5.69417 190.05 4.05471 187.402 3.14869 184.626C3.01926 184.327 2.93297 183.985 2.84668 183.644C2.41525 182.149 2.19953 180.611 2.19953 179.117C2.15638 172.07 6.64333 165.023 15.5741 159.513C13.8483 164.468 12.7697 169.464 12.4677 174.333C12.4246 174.803 12.4246 175.316 12.3814 175.785C12.3814 175.828 12.3814 175.871 12.3814 175.871C12.4246 181.764 16.3507 187.658 24.2028 192.1C36.0674 198.933 53.4974 200.599 68.0368 197.097C68.382 200.556 69.1586 203.588 70.2803 206.194Z" fill="white" stroke="black" stroke-width="1.5" stroke-miterlimit="10" stroke-linecap="round" stroke-linejoin="round"/>
<path d="M84.5172 148.751C82.964 150.758 81.454 152.894 80.1165 155.072C78.8653 156.908 77.7436 158.83 76.7513 160.795C71.8761 169.764 68.7266 179.544 67.9931 188.769C67.8637 190.135 67.8205 191.545 67.8205 192.911C67.8205 194.364 67.9068 195.773 68.0363 197.097C53.4968 200.599 36.0668 198.933 24.2022 192.1C16.3501 187.658 12.424 181.765 12.3809 175.871C12.3809 175.871 12.3809 175.828 12.3809 175.785C12.424 175.316 12.424 174.803 12.4671 174.333C12.7692 169.465 13.8477 164.468 15.5735 159.514C20.233 146.06 29.5952 133.291 41.1146 127.055C29.8541 120.948 20.7076 104.463 15.9186 88.8313C16.2638 89.0448 16.6089 89.2584 16.9972 89.4719C20.4056 91.3938 24.2022 93.0167 28.2146 94.2553C43.2718 99.0813 61.6941 99.0813 76.7513 94.3407C80.8499 93.1021 84.7329 91.4365 88.1844 89.4719C88.4864 89.3011 88.7884 89.1303 89.0473 88.9594C84.2152 104.548 75.0687 120.948 63.8513 127.055C72.2212 131.582 79.4694 139.569 84.5172 148.751Z" fill="#D01818" stroke="#1D1D1D" stroke-width="1.5" stroke-miterlimit="10" stroke-linecap="round" stroke-linejoin="round"/>
<path d="M76.753 160.795C71.8777 169.763 68.7282 179.544 67.9948 188.769C63.3353 190.263 58.0286 191.075 52.5493 191.075C43.9637 191.075 35.6801 189.025 29.7263 185.437C25.2394 182.704 22.6507 179.458 22.5645 176.469L22.6507 175.401V175.187C23.5136 162.887 32.6601 153.321 44.0069 151.399C44.6972 151.271 45.3012 151.014 45.8621 150.587C47.0269 149.776 47.8035 148.367 47.8035 146.786V117.446C47.8035 115.438 46.5955 113.687 44.7835 113.047C38.6571 110.869 33.4798 106.213 30.5892 99.8926C29.7263 98.0562 28.9497 96.177 28.2163 94.2551C43.2734 99.0812 61.6958 99.0812 76.753 94.3405C76.0627 96.2197 75.2861 98.0989 74.4664 99.8926C72.4386 104.292 69.246 107.922 65.4493 110.442C63.8099 111.509 62.0841 112.363 60.2289 113.047C58.4169 113.687 57.2089 115.438 57.2089 117.446V146.829C57.2089 148.367 57.9423 149.776 59.1072 150.63C59.668 151.014 60.3152 151.313 61.0055 151.442C67.2613 152.509 72.87 155.926 76.753 160.795Z" fill="white" stroke="#242424" stroke-width="1.5" stroke-miterlimit="10" stroke-linecap="round" stroke-linejoin="round"/>
<path d="M102.854 55.1344L102.811 69.1855C102.811 76.5313 97.9353 83.8771 88.1848 89.4719C68.5976 100.747 36.7144 100.747 17.0408 89.4719C7.07464 83.7917 2.15625 76.3605 2.15625 68.9292L2.19939 54.8782C2.19939 62.3094 7.11778 69.7834 17.0408 75.4209C36.7144 86.6959 68.6407 86.6959 88.1848 75.4209C97.9353 69.7834 102.811 62.4803 102.854 55.1344Z" fill="white" stroke="black" stroke-width="1.5" stroke-miterlimit="10" stroke-linecap="round" stroke-linejoin="round"/>
<path d="M42.6679 26.6906C58.5448 24.8969 75.6728 27.5448 88.0119 34.5917C107.685 45.8667 107.815 64.1458 88.2276 75.4208C68.6404 86.6958 36.7572 86.6958 17.0836 75.4208C-2.2016 64.4021 -2.71933 46.6781 15.5305 35.4031C23.5121 30.7479 32.5722 27.8437 42.6679 26.6906Z" fill="white" stroke="black" stroke-width="1.5" stroke-miterlimit="10" stroke-linecap="round" stroke-linejoin="round"/>
<path d="M47.0685 39.3749C55.8267 38.3926 65.2321 39.8447 72.0488 43.7312C82.8778 49.9239 82.9641 60.003 72.1782 66.1957C61.3923 72.3885 43.8328 72.3885 33.0037 66.1957C22.3903 60.1312 22.0883 50.3937 32.1408 44.1582C36.5415 41.6385 41.5461 40.0582 47.0685 39.3749Z" fill="#D01818" stroke="black" stroke-width="1.5" stroke-miterlimit="10" stroke-linecap="round" stroke-linejoin="round"/>
<path d="M118.904 140.594C138.707 129.276 154.8 138.33 154.843 160.88C154.886 183.345 138.923 210.721 119.12 222.039C99.4034 233.314 83.3108 224.259 83.2677 201.795C83.2245 179.245 99.1877 151.869 118.904 140.594Z" fill="white" stroke="black" stroke-width="1.5" stroke-miterlimit="10" stroke-linecap="round" stroke-linejoin="round"/>
<path d="M144.402 138.074C137.887 134.316 128.914 134.871 118.947 140.594C99.1875 151.869 83.2243 179.202 83.2675 201.795C83.3106 212.942 87.2798 220.8 93.7514 224.473L78.3059 215.59C71.9207 211.917 67.9514 204.058 67.9083 192.912C67.8651 170.362 83.8283 142.986 103.545 131.711C113.511 125.988 122.571 125.475 129.086 129.276L144.402 138.074Z" fill="#D01818" stroke="black" stroke-width="1.5" stroke-miterlimit="10" stroke-linecap="round" stroke-linejoin="round"/>
<path d="M124.255 184.413C122.788 186.847 120.933 188.726 119.078 189.794C117.136 190.904 115.152 191.16 113.685 190.264C110.794 188.555 110.837 183.131 113.814 178.177C115.238 175.743 117.136 173.864 118.991 172.796C120.933 171.685 122.874 171.429 124.384 172.326C127.275 174.034 127.232 179.458 124.255 184.413Z" fill="#D01818" stroke="black" stroke-width="1.5" stroke-miterlimit="10" stroke-linecap="round" stroke-linejoin="round"/>
<defs>
<clipPath id="clip0_295_2895">
<rect width="87" height="129" fill="white" transform="translate(107)"/>
</clipPath>
</defs>
</svg>
