<svg width="304" height="254" viewBox="0 0 304 254" fill="none" xmlns="http://www.w3.org/2000/svg">
<path d="M152.616 201.696L125.878 217.181L125.734 170.966L152.52 155.53L152.616 201.696Z" stroke="black" stroke-width="1.5" stroke-miterlimit="10" stroke-linecap="round" stroke-linejoin="round"/>
<path d="M177.34 169.049L163.013 177.295L162.965 163.775V150.304L176.861 142.25L177.292 142.538V155.53L177.34 169.049Z" stroke="black" stroke-width="1.5" stroke-miterlimit="10" stroke-linecap="round" stroke-linejoin="round"/>
<path d="M88.0228 171.638L87.9749 187.65L71.0124 177.87L54.002 168.042L54.0499 152.03L71.0603 161.858L88.0228 171.638Z" stroke="black" stroke-width="1.5" stroke-miterlimit="10" stroke-linecap="round" stroke-linejoin="round"/>
<path d="M227.605 171.59L115.384 236.837L2.39648 171.59L28.7986 156.249L28.7027 175.521L113.036 224.612L125.878 217.181L152.615 201.697L200.963 173.795L201.059 156.249L227.605 171.59Z" fill="white" stroke="white" stroke-width="1.5" stroke-miterlimit="10" stroke-linecap="round" stroke-linejoin="round"/>
<path d="M115.384 236.837L115.336 251.603L2.39648 186.356L2.4444 171.59L115.384 236.837Z" fill="#D73232" stroke="#171717" stroke-width="1.5" stroke-miterlimit="10" stroke-linecap="round" stroke-linejoin="round"/>
<path d="M215.961 193.067L115.336 251.603L115.384 236.837L227.605 171.59L227.557 186.356L215.961 193.067Z" fill="white" stroke="#171717" stroke-width="1.5" stroke-miterlimit="10" stroke-linecap="round" stroke-linejoin="round"/>
<path d="M150.171 126.909L113.371 148.147L113.035 224.612L125.877 217.182L125.733 170.967L152.518 155.53L152.614 201.697L200.962 173.795L201.058 156.249L201.298 97.3777L150.171 126.909ZM191.666 160.755L177.339 169.049L163.012 177.295L162.964 163.776V150.304L176.86 142.25L191.618 133.717L191.666 147.236V160.755Z" fill="#D01818" stroke="black" stroke-width="1.5" stroke-miterlimit="10" stroke-linecap="round" stroke-linejoin="round"/>
<path d="M152.52 155.53L152.616 201.697L125.878 217.182L125.734 170.967L152.52 155.53Z" stroke="black" stroke-width="1.5" stroke-miterlimit="10" stroke-linecap="round" stroke-linejoin="round"/>
<path d="M177.34 169.049L163.013 177.295L162.965 163.775V150.304L176.861 142.25L177.292 142.538V155.53L177.34 169.049Z" stroke="black" stroke-width="1.5" stroke-miterlimit="10" stroke-linecap="round" stroke-linejoin="round"/>
<path d="M88.0228 171.638L87.9749 187.65L71.0124 177.87L54.002 168.042L54.0499 152.03L71.0603 161.858L88.0228 171.638Z" stroke="black" stroke-width="1.5" stroke-miterlimit="10" stroke-linecap="round" stroke-linejoin="round"/>
<path d="M201.299 97.3776L157.216 85.4403L72.8828 36.397L116.966 48.3342L201.299 97.3776Z" fill="white" stroke="black" stroke-width="1.5" stroke-miterlimit="10" stroke-linecap="round" stroke-linejoin="round"/>
<path d="M157.216 85.4403L134.552 117.848L113.372 148.147L78.0578 127.628L29.0391 99.1034L72.8828 36.397L157.216 85.4403Z" fill="#D01818" stroke="#242424" stroke-width="1.5" stroke-miterlimit="10" stroke-linecap="round" stroke-linejoin="round"/>
<path d="M201.3 97.3777L150.173 126.909L113.373 148.147L134.552 117.848L157.217 85.4404L201.3 97.3777Z" fill="white" stroke="#171717" stroke-width="1.5" stroke-miterlimit="10" stroke-linecap="round" stroke-linejoin="round"/>
<path d="M152.616 201.697L125.878 217.182L125.734 170.967L152.52 155.53L152.616 201.697Z" fill="white" stroke="black" stroke-width="1.5" stroke-miterlimit="10" stroke-linecap="round" stroke-linejoin="round"/>
<path d="M191.668 147.236L188.553 149.058L177.293 155.53V142.538L176.861 142.25L191.62 133.717L191.668 147.236Z" fill="white" stroke="black" stroke-width="1.5" stroke-miterlimit="10" stroke-linecap="round" stroke-linejoin="round"/>
<path d="M191.666 147.236V160.755L177.339 169.049L177.291 155.53L188.551 149.058L191.666 147.236Z" fill="white" stroke="black" stroke-width="1.5" stroke-miterlimit="10" stroke-linecap="round" stroke-linejoin="round"/>
<path d="M177.34 169.049L163.013 177.295L162.965 163.775V150.304L176.861 142.25L177.292 142.538V155.53L177.34 169.049Z" fill="white" stroke="black" stroke-width="1.5" stroke-miterlimit="10" stroke-linecap="round" stroke-linejoin="round"/>
<path d="M177.292 155.53L162.965 163.775" stroke="black" stroke-width="1.5" stroke-miterlimit="10" stroke-linecap="round" stroke-linejoin="round"/>
<path d="M177.291 142.538V142.058" stroke="black" stroke-width="1.5" stroke-miterlimit="10" stroke-linecap="round" stroke-linejoin="round"/>
<path d="M88.0716 155.674L88.0237 171.638L71.0612 161.858L54.0508 152.03L54.0987 141.531V136.018L58.8424 138.75L88.0716 155.674Z" fill="#D01818" stroke="white" stroke-width="1.5" stroke-miterlimit="10" stroke-linecap="round" stroke-linejoin="round"/>
<path d="M88.0228 171.638L87.9749 187.65L71.0124 177.87L54.002 168.042L54.0499 152.03L71.0603 161.858L88.0228 171.638Z" fill="#D01818" stroke="white" stroke-width="1.5" stroke-miterlimit="10" stroke-linecap="round" stroke-linejoin="round"/>
<path d="M71.1085 145.894L71.0605 177.87" stroke="white" stroke-width="1.5" stroke-miterlimit="10" stroke-linecap="round" stroke-linejoin="round"/>
<path d="M78.0573 127.628L29.0385 99.1035L28.799 156.249L28.7031 175.521L113.036 224.612L113.372 148.147L78.0573 127.628ZM88.024 171.638L87.9761 187.65L71.0135 177.87L54.0031 168.042L54.051 152.03L54.099 141.531V136.018L58.8427 138.75L88.0719 155.674L88.024 171.638Z" fill="white" stroke="black" stroke-width="1.5" stroke-miterlimit="10" stroke-linecap="round" stroke-linejoin="round"/>
<path d="M195.659 153.708C195.623 153.602 195.588 153.46 195.553 153.319C195.518 153.212 195.518 153.142 195.482 153.071C195.518 153.142 195.553 153.212 195.588 153.319C195.623 153.425 195.659 153.602 195.659 153.708Z" stroke="black" stroke-width="1.5" stroke-miterlimit="10" stroke-linecap="round" stroke-linejoin="round"/>
<path d="M195.589 153.319C195.553 153.212 195.518 153.142 195.483 153.071C195.518 153.142 195.518 153.212 195.553 153.319C195.589 153.46 195.624 153.602 195.659 153.708C195.659 153.602 195.624 153.425 195.589 153.319ZM203.371 64.352C203.16 63.0061 202.843 61.6603 202.385 60.2791C202.808 61.6249 203.125 63.0061 203.336 64.352C203.477 65.202 203.547 66.0166 203.547 66.7603C203.547 66.0166 203.477 65.202 203.371 64.352ZM233.622 82.4499L230.593 80.5728L230.558 68.8499L224.748 72.2499V76.9957L217.247 72.3916L200.977 101.398L205.59 98.7061L205.625 117.973L213.831 113.192L222.106 108.375L229.114 104.337L229.044 85.1061L233.622 82.4499ZM195.589 153.319C195.553 153.212 195.518 153.142 195.483 153.071C195.518 153.142 195.518 153.212 195.553 153.319C195.589 153.46 195.624 153.602 195.659 153.708C195.659 153.602 195.624 153.425 195.589 153.319ZM186.045 139.081C186.045 139.081 186.01 139.081 186.01 139.117C186.221 139.01 186.432 138.939 186.644 138.904C186.432 138.939 186.221 139.01 186.045 139.081Z" stroke="black" stroke-width="1.5" stroke-miterlimit="10" stroke-linecap="round" stroke-linejoin="round"/>
<path d="M195.483 153.071C195.518 153.142 195.553 153.212 195.588 153.319C195.624 153.425 195.659 153.602 195.659 153.708C196.081 155.373 195.905 156.789 195.166 157.781C194.18 159.056 192.454 159.304 190.658 158.383C190.482 158.312 190.341 158.206 190.165 158.135C188.263 157.037 186.503 155.125 185.129 152.717C183.509 149.883 182.734 146.767 182.911 144.181C183.157 141.844 184.073 140.214 185.517 139.364C185.657 139.258 185.833 139.187 186.01 139.117C186.01 139.081 186.045 139.081 186.045 139.081L194.321 134.229L248.307 102.637C248.025 95.9082 247.884 82.9457 247.92 81.5645L248.025 46.3603L200.554 74.0916C200.554 74.0916 200.554 74.0916 200.554 74.0562C200.8 73.9145 201.012 73.702 201.258 73.4895C201.469 73.277 201.681 73.0291 201.857 72.7811C201.927 72.7457 201.962 72.6749 201.962 72.6395C202.174 72.3562 202.35 72.0728 202.491 71.7541C202.667 71.3999 202.843 71.0457 202.949 70.6562C203.16 69.9832 203.336 69.2749 203.442 68.4957C203.442 68.4249 203.477 68.3187 203.477 68.2478C203.512 67.7874 203.547 67.2916 203.547 66.7603C203.547 66.0166 203.477 65.202 203.336 64.352C203.125 63.0062 202.808 61.6249 202.385 60.2791C202.139 59.5707 201.892 58.827 201.61 58.1187C201.329 57.4812 201.047 56.8437 200.73 56.2062C200.096 54.8603 199.357 53.5853 198.511 52.3812C198.124 51.8145 197.737 51.2832 197.349 50.7874C196.856 50.1499 196.328 49.5478 195.8 48.9812C193.863 46.927 191.961 45.3687 190.095 44.2707C189.707 44.0582 189.32 43.8457 188.968 43.7041C188.58 43.527 188.228 43.3853 187.876 43.2437H187.841C187.594 43.1374 187.348 43.0666 187.136 42.9957C186.96 42.9249 186.749 42.8541 186.573 42.8187C186.256 42.7478 185.974 42.677 185.693 42.6416C184.671 42.4645 183.65 42.4999 182.699 42.677C182.418 42.7478 182.171 42.8187 181.924 42.9249C181.643 42.9957 181.431 43.102 181.185 43.2082C177.734 44.7666 175.832 48.5916 175.938 53.9395L175.762 140.214C175.621 146.2 178.051 153.142 182.453 159.375C184.742 162.456 187.207 164.794 189.778 166.281C191.644 167.344 193.581 168.017 195.518 168.194C197.032 168.371 198.406 168.087 199.568 167.379L199.814 167.237C200.026 167.096 200.202 166.954 200.378 166.777C200.519 166.706 200.66 166.564 200.8 166.423C201.575 165.679 202.174 164.723 202.596 163.554C202.702 163.306 202.772 163.094 202.843 162.846C202.949 162.456 203.054 162.067 203.125 161.642C203.336 160.437 203.371 159.162 203.265 157.781C202.949 154.346 201.575 150.45 199.392 146.944C198.863 146.129 198.265 145.279 197.666 144.535C196.574 143.189 195.377 142.056 194.18 141.135M233.622 82.4499L230.593 80.5728L230.558 68.8499L224.747 72.2499V76.9957L217.246 72.3916L200.976 101.398L205.59 98.7062L205.625 117.973L213.83 113.192L222.106 108.375L229.114 104.337L229.044 85.1062L233.622 82.4499Z" fill="white"/>
<path d="M195.483 153.071C195.518 153.142 195.553 153.212 195.588 153.319C195.624 153.425 195.659 153.602 195.659 153.708C196.081 155.373 195.905 156.789 195.166 157.781C194.18 159.056 192.454 159.304 190.658 158.383C190.482 158.312 190.341 158.206 190.165 158.135C188.263 157.037 186.503 155.125 185.129 152.717C183.509 149.883 182.734 146.767 182.911 144.181C183.157 141.844 184.073 140.214 185.517 139.364C185.657 139.258 185.833 139.187 186.01 139.117C186.01 139.081 186.045 139.081 186.045 139.081L194.321 134.229L248.307 102.637C248.025 95.9082 247.884 82.9457 247.92 81.5645L248.025 46.3603L200.554 74.0916C200.554 74.0916 200.554 74.0916 200.554 74.0562C200.8 73.9145 201.012 73.702 201.258 73.4895C201.469 73.277 201.681 73.0291 201.857 72.7811C201.927 72.7457 201.962 72.6749 201.962 72.6395C202.174 72.3562 202.35 72.0728 202.491 71.7541C202.667 71.3999 202.843 71.0457 202.949 70.6562C203.16 69.9832 203.336 69.2749 203.442 68.4957C203.442 68.4249 203.477 68.3187 203.477 68.2478C203.512 67.7874 203.547 67.2916 203.547 66.7603C203.547 66.0166 203.477 65.202 203.336 64.352C203.125 63.0062 202.808 61.6249 202.385 60.2791C202.139 59.5707 201.892 58.827 201.61 58.1187C201.329 57.4812 201.047 56.8437 200.73 56.2062C200.096 54.8603 199.357 53.5853 198.511 52.3812C198.124 51.8145 197.737 51.2832 197.349 50.7874C196.856 50.1499 196.328 49.5478 195.8 48.9812C193.863 46.927 191.961 45.3687 190.095 44.2707C189.707 44.0582 189.32 43.8457 188.968 43.7041C188.58 43.527 188.228 43.3853 187.876 43.2437H187.841C187.594 43.1374 187.348 43.0666 187.136 42.9957C186.96 42.9249 186.749 42.8541 186.573 42.8187C186.256 42.7478 185.974 42.677 185.693 42.6416C184.671 42.4645 183.65 42.4999 182.699 42.677C182.418 42.7478 182.171 42.8187 181.924 42.9249C181.643 42.9957 181.431 43.102 181.185 43.2082C177.734 44.7666 175.832 48.5916 175.938 53.9395L175.762 140.214C175.621 146.2 178.051 153.142 182.453 159.375C184.742 162.456 187.207 164.794 189.778 166.281C191.644 167.344 193.581 168.017 195.518 168.194C197.032 168.371 198.406 168.087 199.568 167.379L199.814 167.237C200.026 167.096 200.202 166.954 200.378 166.777C200.519 166.706 200.66 166.564 200.8 166.423C201.575 165.679 202.174 164.723 202.596 163.554C202.702 163.306 202.772 163.094 202.843 162.846C202.949 162.456 203.054 162.067 203.125 161.642C203.336 160.437 203.371 159.162 203.265 157.781C202.949 154.346 201.575 150.45 199.392 146.944C198.863 146.129 198.265 145.279 197.666 144.535C196.574 143.189 195.377 142.056 194.18 141.135M233.622 82.4499L230.593 80.5728L230.558 68.8499L224.747 72.2499V76.9957L217.246 72.3916L200.976 101.398L205.59 98.7062L205.625 117.973L213.83 113.192L222.106 108.375L229.114 104.337L229.044 85.1062L233.622 82.4499Z" stroke="black" stroke-width="1.5" stroke-miterlimit="10" stroke-linecap="round" stroke-linejoin="round"/>
<path d="M195.659 153.708C195.623 153.602 195.588 153.46 195.553 153.319C195.518 153.212 195.518 153.142 195.482 153.071C195.518 153.142 195.553 153.212 195.588 153.319C195.623 153.425 195.659 153.602 195.659 153.708Z" stroke="black" stroke-width="1.5" stroke-miterlimit="10" stroke-linecap="round" stroke-linejoin="round"/>
<path d="M269.859 33.6104L248.025 46.3604L200.554 74.0916C200.554 74.0916 200.554 74.0916 200.554 74.0562C200.8 73.9145 201.011 73.702 201.258 73.4895C201.469 73.277 201.681 73.0291 201.857 72.7812C201.927 72.7458 201.962 72.675 201.962 72.6395C202.174 72.3562 202.35 72.0729 202.491 71.7541C202.667 71.4 202.843 71.0458 202.948 70.6562C203.195 69.9833 203.371 69.275 203.441 68.4958C203.441 68.425 203.477 68.3187 203.477 68.2479C203.512 67.7875 203.547 67.2916 203.547 66.7604C203.547 66.0166 203.477 65.202 203.371 64.352C203.16 63.0062 202.843 61.6604 202.385 60.2791C202.138 59.5708 201.892 58.827 201.61 58.1187C201.328 57.4812 201.047 56.8437 200.73 56.2062C200.096 54.8604 199.356 53.5854 198.511 52.3812C198.124 51.8145 197.736 51.2833 197.349 50.7875C196.856 50.15 196.328 49.5479 195.8 48.9812C193.863 46.927 191.961 45.3687 190.094 44.2708C189.707 44.0583 189.32 43.8458 188.968 43.7041C188.58 43.4916 188.228 43.35 187.876 43.2437H187.841C187.594 43.1375 187.348 43.0666 187.136 42.9958C186.96 42.925 186.749 42.8541 186.573 42.8187C186.256 42.7479 185.974 42.677 185.692 42.6416C184.671 42.4645 183.65 42.4645 182.699 42.6416C182.417 42.7125 182.171 42.7833 181.924 42.925C181.643 42.9604 181.396 43.0666 181.185 43.2083C180.938 43.2791 180.692 43.3854 180.48 43.527L250.209 2.79788C250.878 2.40829 251.582 2.12496 252.392 1.91246C254.716 1.48746 257.217 2.05413 259.787 3.54163C261.654 4.63954 263.591 6.19788 265.492 8.25204C269.401 12.3604 272.289 18.2395 273.064 23.6229C273.733 28.3333 272.5 32.052 269.859 33.6104Z" fill="white" stroke="black" stroke-width="1.5" stroke-miterlimit="10" stroke-linecap="round" stroke-linejoin="round"/>
<path d="M203.547 66.7603C203.547 66.0166 203.476 65.202 203.336 64.352C203.124 63.0061 202.807 61.6249 202.385 60.2791C202.843 61.6603 203.16 63.0061 203.371 64.352C203.476 65.202 203.547 66.0166 203.547 66.7603Z" stroke="black" stroke-width="1.5" stroke-miterlimit="10" stroke-linecap="round" stroke-linejoin="round"/>
<path d="M195.483 153.071C195.519 153.142 195.519 153.213 195.554 153.319C195.589 153.46 195.624 153.602 195.66 153.708C196.082 155.373 195.906 156.79 195.166 157.781C194.18 159.056 192.455 159.304 190.659 158.383C190.483 158.313 190.342 158.206 190.166 158.135C188.264 157.038 186.503 155.125 185.13 152.717C183.51 149.883 182.735 146.767 182.911 144.181C183.158 141.844 184.073 140.215 185.517 139.365C185.658 139.258 185.834 139.188 186.01 139.117C186.222 139.01 186.433 138.94 186.644 138.904C186.75 138.869 186.855 138.833 186.996 138.833C187.313 138.763 187.63 138.727 187.947 138.727C189.426 138.692 191.046 139.188 192.701 140.144C193.194 140.427 193.687 140.781 194.18 141.135" fill="white"/>
<path d="M195.483 153.071C195.519 153.142 195.519 153.213 195.554 153.319C195.589 153.46 195.624 153.602 195.66 153.708C196.082 155.373 195.906 156.79 195.166 157.781C194.18 159.056 192.455 159.304 190.659 158.383C190.483 158.313 190.342 158.206 190.166 158.135C188.264 157.038 186.503 155.125 185.13 152.717C183.51 149.883 182.735 146.767 182.911 144.181C183.158 141.844 184.073 140.215 185.517 139.365C185.658 139.258 185.834 139.188 186.01 139.117C186.222 139.01 186.433 138.94 186.644 138.904C186.75 138.869 186.855 138.833 186.996 138.833C187.313 138.763 187.63 138.727 187.947 138.727C189.426 138.692 191.046 139.188 192.701 140.144C193.194 140.427 193.687 140.781 194.18 141.135" stroke="black" stroke-width="1.5" stroke-miterlimit="10" stroke-linecap="round" stroke-linejoin="round"/>
<path d="M186.644 138.904C186.432 138.939 186.221 139.01 186.01 139.117C186.01 139.081 186.045 139.081 186.045 139.081C186.221 139.01 186.432 138.939 186.644 138.904Z" stroke="black" stroke-width="1.5" stroke-miterlimit="10" stroke-linecap="round" stroke-linejoin="round"/>
<path d="M195.659 153.708C195.623 153.602 195.588 153.46 195.553 153.319C195.518 153.212 195.518 153.142 195.482 153.071C195.518 153.142 195.553 153.212 195.588 153.319C195.623 153.425 195.659 153.602 195.659 153.708Z" stroke="black" stroke-width="1.5" stroke-miterlimit="10" stroke-linecap="round" stroke-linejoin="round"/>
<path d="M203.547 66.7603C203.547 66.0166 203.476 65.202 203.336 64.352C203.124 63.0061 202.807 61.6249 202.385 60.2791C202.843 61.6603 203.16 63.0061 203.371 64.352C203.476 65.202 203.547 66.0166 203.547 66.7603Z" stroke="black" stroke-width="1.5" stroke-miterlimit="10" stroke-linecap="round" stroke-linejoin="round"/>
<path d="M272.853 120.912C272.36 123.604 271.092 125.587 269.296 126.65L256.829 133.91L251.019 137.346L244.222 141.312L236.369 145.881L199.814 167.237C200.026 167.096 200.202 166.954 200.378 166.777C200.519 166.706 200.66 166.564 200.801 166.423C201.575 165.679 202.174 164.723 202.597 163.554C202.702 163.306 202.773 163.094 202.843 162.846C202.949 162.456 203.054 162.067 203.125 161.642C203.336 160.437 203.371 159.162 203.266 157.781C202.949 154.346 201.575 150.45 199.392 146.944C198.864 146.129 198.265 145.279 197.666 144.535C196.575 143.189 195.377 142.056 194.18 141.135C193.687 140.781 193.194 140.427 192.701 140.144C191.046 139.187 189.426 138.692 187.947 138.727C187.63 138.727 187.313 138.762 186.996 138.833C186.855 138.833 186.749 138.869 186.644 138.904C186.432 138.939 186.221 139.01 186.045 139.081L194.321 134.229L248.307 102.637L255.209 98.5999C255.914 98.2103 256.724 97.9978 257.639 97.9624C259.118 97.9624 260.738 98.4582 262.394 99.4145C264.119 100.406 265.845 101.894 267.359 103.771C267.993 104.55 268.556 105.364 269.085 106.214C272.148 111.102 273.592 116.733 272.853 120.912Z" fill="white" stroke="black" stroke-width="1.5" stroke-miterlimit="10" stroke-linecap="round" stroke-linejoin="round"/>
<path d="M230.594 80.5728L229.009 79.6165L224.748 76.9957V72.2499L230.559 68.8499L230.594 80.5728Z" stroke="#D73232" stroke-width="1.5" stroke-miterlimit="10" stroke-linecap="round" stroke-linejoin="round"/>
<path d="M229.114 104.337L222.106 108.375L213.83 113.192L205.625 117.973L205.59 98.7062L229.044 85.1062L229.114 104.337Z" stroke="#D73232" stroke-width="1.5" stroke-miterlimit="10" stroke-linecap="round" stroke-linejoin="round"/>
<path d="M233.622 82.4499L229.044 85.1062L205.59 98.7062L200.977 101.398L217.246 72.3916L224.747 76.9958L229.009 79.6166L230.593 80.5728L233.622 82.4499Z" stroke="#D73232" stroke-width="1.5" stroke-miterlimit="10" stroke-linecap="round" stroke-linejoin="round"/>
<path d="M222.106 97.9978V108.375L213.83 113.192L213.795 102.814L222.106 97.9978Z" stroke="#D73232" stroke-width="1.5" stroke-miterlimit="10" stroke-linecap="round" stroke-linejoin="round"/>
<g clip-path="url(#clip0_295_2896)">
<path d="M237.314 204.961L233.074 207.42L233.12 195.376C233.12 198.686 234.518 201.973 237.314 204.961Z" stroke="black" stroke-width="1.5" stroke-miterlimit="10" stroke-linecap="round" stroke-linejoin="round"/>
<path d="M302.855 195.491L302.81 207.443C302.787 212.592 299.418 217.741 292.657 221.694C281.566 228.153 264.768 229.325 251.545 225.211L251.591 213.258C264.814 217.373 281.612 216.224 292.703 209.742C299.464 205.811 302.832 200.663 302.855 195.491Z" fill="#D01818" stroke="black" stroke-width="1.5" stroke-miterlimit="10" stroke-linecap="round" stroke-linejoin="round"/>
<path d="M233.371 223.854L251.59 213.235L251.544 225.188L239.765 232.06" fill="#D73232"/>
<path d="M233.371 223.854L251.59 213.235L251.544 225.188L239.765 232.06" stroke="black" stroke-width="1.5" stroke-miterlimit="10" stroke-linecap="round" stroke-linejoin="round"/>
<path d="M235.412 230.129L235.366 242.082L228.949 238.358L228.995 226.406L235.412 230.129Z" fill="white" stroke="black" stroke-width="1.5" stroke-miterlimit="10" stroke-linecap="round" stroke-linejoin="round"/>
<path d="M239.788 227.578L239.742 239.53L235.365 242.082L235.411 230.129L239.788 227.578Z" fill="white" stroke="black" stroke-width="1.5" stroke-miterlimit="10" stroke-linecap="round" stroke-linejoin="round"/>
<path d="M220.033 231.646L228.994 226.406L228.948 238.358L226.427 239.829" fill="#D73232"/>
<path d="M220.033 231.646L228.994 226.406L228.948 238.358L226.427 239.829" stroke="black" stroke-width="1.5" stroke-miterlimit="10" stroke-linecap="round" stroke-linejoin="round"/>
<path d="M215.656 234.198L215.61 246.127L209.469 249.713L209.515 237.783L215.656 234.198Z" fill="#D73232" stroke="black" stroke-width="1.5" stroke-miterlimit="10" stroke-linecap="round" stroke-linejoin="round"/>
<path d="M209.492 237.76L209.469 249.713L197.163 248.586L195.146 241.415L195.192 229.486L197.209 236.657L209.492 237.76Z" fill="#D73232" stroke="black" stroke-width="1.5" stroke-miterlimit="10" stroke-linecap="round" stroke-linejoin="round"/>
<path d="M222.051 237.898L222.028 249.851L215.611 246.127L215.657 234.198L222.051 237.898Z" fill="white" stroke="black" stroke-width="1.5" stroke-miterlimit="10" stroke-linecap="round" stroke-linejoin="round"/>
<path d="M226.45 235.347L226.404 247.299L222.027 249.851L222.05 237.899L226.45 235.347Z" fill="white" stroke="black" stroke-width="1.5" stroke-miterlimit="10" stroke-linecap="round" stroke-linejoin="round"/>
<path d="M210.706 220.453L237.289 204.961C230.162 197.284 232.133 187.538 243.225 181.079C256.791 173.172 278.906 173.172 292.564 181.079C306.246 189.009 306.268 201.835 292.702 209.742C281.61 216.201 264.812 217.373 251.589 213.258L233.371 223.878L239.787 227.601L235.41 230.152L228.993 226.429L220.033 231.646L226.45 235.37L222.073 237.921L215.656 234.198L209.514 237.783L197.208 236.657L195.191 229.509L210.706 220.453Z" fill="white" stroke="black" stroke-width="1.5" stroke-miterlimit="10" stroke-linecap="round" stroke-linejoin="round"/>
<path d="M283.787 186.619C275.583 181.861 262.291 181.861 254.179 186.619C247.923 190.227 246.479 195.606 249.802 200.065C250.856 201.421 252.323 202.708 254.271 203.835C262.452 208.569 275.721 208.546 283.879 203.812C285.735 202.708 287.179 201.444 288.164 200.111C291.533 195.652 290.066 190.25 283.787 186.619Z" stroke="black" stroke-width="1.5" stroke-miterlimit="10" stroke-linecap="round" stroke-linejoin="round"/>
<path d="M283.788 196.387C275.584 191.63 262.292 191.653 254.18 196.387C252.278 197.468 250.811 198.709 249.803 200.065C250.857 201.421 252.324 202.708 254.271 203.835C262.453 208.57 275.721 208.547 283.88 203.812C285.736 202.708 287.18 201.444 288.165 200.111C287.157 198.755 285.69 197.491 283.788 196.387Z" fill="#D01818" stroke="black" stroke-width="1.5" stroke-miterlimit="10" stroke-linecap="round" stroke-linejoin="round"/>
</g>
<defs>
<clipPath id="clip0_295_2896">
<rect width="110" height="77" fill="white" transform="translate(194 174)"/>
</clipPath>
</defs>
</svg>
