<svg width="283" height="253" viewBox="0 0 283 253" fill="none" xmlns="http://www.w3.org/2000/svg">
<path d="M2.43479 143.173L2.17383 44.5034L22.7899 56.4201L23.2248 205.833L2.60877 193.873L2.43479 143.173Z" fill="#D01818" stroke="black" stroke-width="1.5" stroke-miterlimit="10" stroke-linecap="round" stroke-linejoin="round"/>
<path d="M75.7653 2.16675L96.3813 14.1267L22.7899 56.4201L2.17383 44.5034L75.7653 2.16675Z" fill="white" stroke="black" stroke-width="1.5" stroke-miterlimit="10" stroke-linecap="round" stroke-linejoin="round"/>
<path d="M96.3805 14.1267L96.4675 41.0367L119.476 27.82L119.824 150.28L23.224 205.833L22.7891 56.42L96.3805 14.1267Z" fill="white" stroke="black" stroke-width="1.5" stroke-miterlimit="10" stroke-linecap="round" stroke-linejoin="round"/>
<path d="M96.3809 14.1267L119.476 27.7767L96.4678 40.9934L96.3809 14.1267Z" fill="#D01818" stroke="black" stroke-width="1.5" stroke-miterlimit="10" stroke-linecap="round" stroke-linejoin="round"/>
<path d="M106.732 67.6867L106.95 141.093L36.6638 182.173L36.3594 63.5267L81.7669 37.3967" stroke="#D01818" stroke-width="1.5" stroke-miterlimit="10" stroke-linecap="round" stroke-linejoin="round"/>
<path d="M70.1974 104L36.5332 123.37" stroke="#D01818" stroke-width="1.5" stroke-miterlimit="10" stroke-linecap="round" stroke-linejoin="round"/>
<path d="M70.1543 95.3767L70.1978 112.623" stroke="#D01818" stroke-width="1.5" stroke-miterlimit="10" stroke-linecap="round" stroke-linejoin="round"/>
<path d="M62.1515 48.7068L62.2385 71.0668L49.2773 78.5201" stroke="#D01818" stroke-width="1.5" stroke-miterlimit="10" stroke-linecap="round" stroke-linejoin="round"/>
<path d="M79.7673 136.24L74.3741 139.317L64.7185 144.907L59.2383 148.027" stroke="#D01818" stroke-width="1.5" stroke-miterlimit="10" stroke-linecap="round" stroke-linejoin="round"/>
<path d="M69.8945 142.003L69.9815 162.717" stroke="#D01818" stroke-width="1.5" stroke-miterlimit="10" stroke-linecap="round" stroke-linejoin="round"/>
<path d="M91.9453 101.357L91.9888 114.27" stroke="#D01818" stroke-width="1.5" stroke-miterlimit="10" stroke-linecap="round" stroke-linejoin="round"/>
<path d="M280.75 182.465L183.235 239.037L89.9048 185.249C84.1448 181.927 79.5098 173.89 79.5098 167.29C79.5098 166.706 79.5548 166.167 79.6448 165.629C79.7798 164.686 80.0048 163.878 80.3198 163.159C80.4098 163.024 80.4548 162.89 80.5448 162.755C80.7248 162.441 80.9048 162.171 81.0848 161.902L81.1298 161.857C81.3998 161.543 81.6698 161.273 81.9848 161.004C82.2098 160.824 82.4348 160.69 82.7048 160.555C84.5948 159.567 87.1598 159.747 89.9948 161.363C95.7098 164.686 100.39 172.722 100.345 179.278L110.65 185.204L197.815 134.694L280.75 182.465Z" fill="white" stroke="black" stroke-width="1.5" stroke-miterlimit="10" stroke-linecap="round" stroke-linejoin="round"/>
<path d="M208.119 128.722L197.814 134.694L110.649 185.204C110.649 174.159 104.079 161.094 95.1693 153.327C93.5043 151.89 91.7943 150.633 89.9943 149.6C86.6643 147.669 83.5143 146.771 80.7243 146.771C80.2293 146.771 79.7343 146.816 79.2393 146.861C78.4743 146.951 77.7093 147.131 76.9893 147.4C76.6743 147.49 76.3593 147.58 76.0893 147.759C75.8193 147.849 75.5493 147.984 75.2793 148.163L172.794 91.6368C176.529 89.4368 181.749 89.7511 187.509 93.0735C198.894 99.6286 208.164 115.612 208.119 128.722Z" fill="white" stroke="black" stroke-width="1.5" stroke-miterlimit="10" stroke-linecap="round" stroke-linejoin="round"/>
<path d="M280.749 182.465L280.704 194.229L270.939 199.931L264.774 203.478L258.834 206.935L252.039 210.886L183.189 250.755L183.234 239.037V238.992L280.749 182.465Z" fill="white" stroke="black" stroke-width="1.5" stroke-miterlimit="10" stroke-linecap="round" stroke-linejoin="round"/>
<path d="M264.774 203.478L258.834 206.935" stroke="black" stroke-width="1.5" stroke-miterlimit="10" stroke-linecap="round" stroke-linejoin="round"/>
<path d="M183.235 239.037L183.19 250.755L89.8602 197.012C78.4752 190.457 69.2052 174.429 69.2502 161.363C69.2952 154.449 71.9052 149.69 76.0902 147.759C76.3602 147.625 76.6752 147.49 76.9902 147.4C77.7102 147.131 78.4752 146.951 79.2402 146.861C79.7352 146.816 80.2302 146.771 80.7252 146.771C83.5152 146.771 86.6652 147.669 89.9952 149.6C91.7952 150.633 93.5052 151.89 95.1702 153.327C104.08 161.094 110.65 174.159 110.65 185.204L100.345 179.278C100.39 172.723 95.7102 164.686 89.9952 161.363C87.1602 159.747 84.5952 159.567 82.7052 160.555C82.4352 160.69 82.2102 160.825 81.9852 161.004C81.6702 161.274 81.4002 161.543 81.1302 161.857L81.0852 161.902C80.9052 162.171 80.7252 162.441 80.5452 162.755C80.4552 162.89 80.4102 163.025 80.3202 163.159C80.0052 163.878 79.7802 164.686 79.6452 165.629C79.5552 166.167 79.5102 166.706 79.5102 167.29C79.5102 173.89 84.1452 181.927 89.9052 185.249L183.235 239.037Z" fill="#D01818" stroke="black" stroke-width="1.5" stroke-miterlimit="10" stroke-linecap="round" stroke-linejoin="round"/>
<path d="M183.234 238.992V239.037L89.9043 185.249L183.234 238.992Z" fill="white" stroke="black" stroke-width="1.5" stroke-miterlimit="10" stroke-linecap="round" stroke-linejoin="round"/>
<path d="M223.736 197.596L215.906 192.657L233.276 181.657L196.646 161.004L176.936 172.139L167.531 166.347L135.266 184.127L182.336 212.233L204.431 199.078L191.381 190.906L200.516 185.474L176.756 172.004" stroke="#D01818" stroke-width="1.5" stroke-miterlimit="10" stroke-linecap="round" stroke-linejoin="round"/>
<path d="M147.01 191.176L159.43 183.049" stroke="#D01818" stroke-width="1.5" stroke-miterlimit="10" stroke-linecap="round" stroke-linejoin="round"/>
</svg>
