<svg width="206" height="102" viewBox="0 0 206 102" fill="none" xmlns="http://www.w3.org/2000/svg">
<path d="M35.4774 0.816406L52.6295 74.4925H33.5828L18.7424 6.18424V74.4925H0.849609V0.816406H35.4774Z" fill="#242424"/>
<path d="M52.5488 74.4925H70.4416V16.6041V0.816406H52.5488V74.4925Z" fill="#242424"/>
<path d="M79 74.6761H96.8928V16.7877V1H79V74.6761Z" fill="#242424"/>
<path d="M137 1H105L105 17H137V1Z" fill="#242424"/>
<path d="M137 29H105L105 32H137V29Z" fill="#F50000"/>
<path d="M137 36H105L105 39H137V36Z" fill="#F50000"/>
<path d="M137 43H105L105 46H137V43Z" fill="#F50000"/>
<path d="M107.393 81.2015V84.2675H106.343V77.1835H107.393V80.2495H111.817V77.1835H112.867V84.2675H111.817V81.2015H107.393ZM115.467 83.3435C114.753 82.6435 114.389 81.7755 114.389 80.7255C114.389 79.6755 114.753 78.8075 115.467 78.0935C116.181 77.3935 117.063 77.0435 118.113 77.0435C119.163 77.0435 120.059 77.3935 120.773 78.0935C121.487 78.8075 121.837 79.6755 121.837 80.7255C121.837 81.7755 121.487 82.6435 120.773 83.3435C120.059 84.0575 119.163 84.4075 118.113 84.4075C117.063 84.4075 116.181 84.0575 115.467 83.3435ZM116.237 78.7935C115.719 79.3115 115.467 79.9555 115.467 80.7255C115.467 81.4955 115.719 82.1255 116.237 82.6435C116.741 83.1615 117.371 83.4275 118.113 83.4275C118.869 83.4275 119.499 83.1755 120.003 82.6575C120.507 82.1395 120.759 81.4955 120.759 80.7255C120.759 79.9555 120.507 79.3115 120.003 78.7935C119.499 78.2755 118.869 78.0235 118.113 78.0235C117.371 78.0235 116.741 78.2755 116.237 78.7935ZM127.411 77.0435C128.377 77.0435 129.175 77.3935 129.819 78.0935C130.449 78.8075 130.771 79.6755 130.771 80.7255C130.771 81.7755 130.449 82.6575 129.819 83.3575C129.175 84.0575 128.377 84.4075 127.411 84.4075C126.011 84.4075 124.863 83.5255 124.401 82.1815V87.0675H123.351V77.1835H124.401V79.2835C124.863 77.9255 126.011 77.0435 127.411 77.0435ZM127.117 83.4275C127.845 83.4275 128.461 83.1615 128.951 82.6435C129.441 82.1255 129.693 81.4955 129.693 80.7255C129.693 79.9555 129.441 79.3115 128.951 78.7935C128.461 78.2755 127.845 78.0235 127.117 78.0235C126.333 78.0235 125.689 78.2755 125.171 78.7935C124.653 79.3115 124.401 79.9555 124.401 80.7255C124.401 81.4955 124.653 82.1395 125.171 82.6575C125.689 83.1755 126.333 83.4275 127.117 83.4275ZM138.341 77.1835H140.217V84.2675H139.251V77.4075L137.123 84.2675H135.373L133.245 77.4075V84.2675H132.279V77.1835H134.155L136.255 83.9735L138.341 77.1835ZM144.883 77.0435C146.493 77.0435 147.599 77.9395 147.599 79.4655V84.2675H146.549V82.3355C146.073 83.7215 145.149 84.4075 143.777 84.4075C142.489 84.4075 141.593 83.6375 141.593 82.4615C141.593 81.1875 142.615 80.5155 144.085 80.3615L145.667 80.1795C146.255 80.1235 146.549 79.8575 146.549 79.3675C146.549 78.4855 145.877 77.9535 144.869 77.9535C143.861 77.9535 143.091 78.4435 142.825 79.4935L141.803 79.2135C142.139 77.8135 143.329 77.0435 144.883 77.0435ZM144.043 83.5255C144.757 83.5255 145.359 83.2875 145.835 82.7975C146.311 82.3215 146.549 81.7615 146.549 81.1175V80.5295C146.423 80.8095 146.101 80.9775 145.597 81.0335L144.071 81.2015C143.217 81.3135 142.643 81.7195 142.643 82.4055C142.643 83.0775 143.203 83.5255 144.043 83.5255ZM107.141 97.3435C106.427 96.6435 106.063 95.7755 106.063 94.7255C106.063 93.6755 106.427 92.8075 107.141 92.0935C107.855 91.3935 108.737 91.0435 109.787 91.0435C111.313 91.0435 112.601 91.8975 113.175 93.2555L112.209 93.5915C111.775 92.6255 110.865 92.0235 109.787 92.0235C109.045 92.0235 108.415 92.2755 107.911 92.7935C107.393 93.3115 107.141 93.9555 107.141 94.7255C107.141 95.4955 107.393 96.1255 107.911 96.6435C108.415 97.1615 109.045 97.4275 109.787 97.4275C110.865 97.4275 111.775 96.8255 112.209 95.8595L113.175 96.1955C112.601 97.5535 111.313 98.4075 109.787 98.4075C108.737 98.4075 107.855 98.0575 107.141 97.3435ZM117.202 92.1355V98.2675H116.152V92.1355H113.604V91.1835H119.75V92.1355H117.202ZM125.032 91.0435C125.998 91.0435 126.796 91.3935 127.44 92.0935C128.07 92.8075 128.392 93.6755 128.392 94.7255C128.392 95.7755 128.07 96.6575 127.44 97.3575C126.796 98.0575 125.998 98.4075 125.032 98.4075C123.632 98.4075 122.484 97.5255 122.022 96.1815V101.068H120.972V91.1835H122.022V93.2835C122.484 91.9255 123.632 91.0435 125.032 91.0435ZM124.738 97.4275C125.466 97.4275 126.082 97.1615 126.572 96.6435C127.062 96.1255 127.314 95.4955 127.314 94.7255C127.314 93.9555 127.062 93.3115 126.572 92.7935C126.082 92.2755 125.466 92.0235 124.738 92.0235C123.954 92.0235 123.31 92.2755 122.792 92.7935C122.274 93.3115 122.022 93.9555 122.022 94.7255C122.022 95.4955 122.274 96.1395 122.792 96.6575C123.31 97.1755 123.954 97.4275 124.738 97.4275ZM130.602 97.3435C129.888 96.6435 129.524 95.7755 129.524 94.7255C129.524 93.6755 129.888 92.8075 130.602 92.0935C131.316 91.3935 132.198 91.0435 133.248 91.0435C134.298 91.0435 135.194 91.3935 135.908 92.0935C136.622 92.8075 136.972 93.6755 136.972 94.7255C136.972 95.7755 136.622 96.6435 135.908 97.3435C135.194 98.0575 134.298 98.4075 133.248 98.4075C132.198 98.4075 131.316 98.0575 130.602 97.3435ZM131.372 92.7935C130.854 93.3115 130.602 93.9555 130.602 94.7255C130.602 95.4955 130.854 96.1255 131.372 96.6435C131.876 97.1615 132.506 97.4275 133.248 97.4275C134.004 97.4275 134.634 97.1755 135.138 96.6575C135.642 96.1395 135.894 95.4955 135.894 94.7255C135.894 93.9555 135.642 93.3115 135.138 92.7935C134.634 92.2755 134.004 92.0235 133.248 92.0235C132.506 92.0235 131.876 92.2755 131.372 92.7935ZM139.494 91.1835V98.0435L143.106 91.1835H145.052V98.2675H144.044V91.4075L140.432 98.2675H138.486V91.1835H139.494ZM149.877 92.1355V98.2675H148.827V92.1355H146.279V91.1835H152.425V92.1355H149.877ZM156.543 91.0435C157.635 91.0435 158.531 91.4215 159.245 92.1915C159.945 92.9615 160.253 93.9135 160.169 95.0475H153.939C154.009 95.7615 154.303 96.3355 154.807 96.7835C155.297 97.2455 155.913 97.4695 156.627 97.4695C157.733 97.4695 158.629 96.8955 159.077 95.9575L159.973 96.3355C159.371 97.5815 158.139 98.4075 156.613 98.4075C155.563 98.4075 154.681 98.0575 153.967 97.3435C153.253 96.6435 152.889 95.7755 152.889 94.7255C152.889 93.6755 153.239 92.8075 153.939 92.0935C154.639 91.3935 155.507 91.0435 156.543 91.0435ZM156.543 91.9815C155.255 91.9815 154.205 92.8915 153.967 94.1795H159.105C159.007 93.5495 158.713 93.0175 158.251 92.5975C157.775 92.1915 157.201 91.9815 156.543 91.9815ZM160.759 98.3515H160.675V97.4135H160.801C161.753 97.4135 162.187 97.1195 162.243 94.7255V91.1835H167.885V98.2675H166.835V92.1355H163.251V94.7255C163.251 96.0415 163.069 96.9795 162.691 97.5255C162.313 98.0715 161.669 98.3515 160.759 98.3515ZM172.891 98.2675H169.671V91.1835H170.721V93.6335H172.891C173.633 93.6335 174.235 93.8575 174.697 94.2915C175.159 94.7255 175.397 95.2855 175.397 95.9575C175.397 96.6155 175.159 97.1755 174.697 97.6095C174.235 98.0435 173.633 98.2675 172.891 98.2675ZM172.807 94.5855H170.721V97.3155H172.807C173.703 97.3155 174.319 96.7415 174.319 95.9575C174.319 95.1595 173.703 94.5855 172.807 94.5855ZM177.264 97.3435C176.55 96.6435 176.186 95.7755 176.186 94.7255C176.186 93.6755 176.55 92.8075 177.264 92.0935C177.978 91.3935 178.86 91.0435 179.91 91.0435C181.436 91.0435 182.724 91.8975 183.298 93.2555L182.332 93.5915C181.898 92.6255 180.988 92.0235 179.91 92.0235C179.168 92.0235 178.538 92.2755 178.034 92.7935C177.516 93.3115 177.264 93.9555 177.264 94.7255C177.264 95.4955 177.516 96.1255 178.034 96.6435C178.538 97.1615 179.168 97.4275 179.91 97.4275C180.988 97.4275 181.898 96.8255 182.332 95.8595L183.298 96.1955C182.724 97.5535 181.436 98.4075 179.91 98.4075C178.86 98.4075 177.978 98.0575 177.264 97.3435ZM187.325 92.1355V98.2675H186.275V92.1355H183.727V91.1835H189.873V92.1355H187.325ZM195.225 94.6975C196.443 94.8235 197.101 95.4395 197.101 96.4335C197.101 97.5115 196.163 98.2675 194.861 98.2675H191.095V91.1835H194.525C195.183 91.1835 195.715 91.3515 196.149 91.7015C196.583 92.0515 196.793 92.4855 196.793 93.0175C196.793 93.8715 196.219 94.4875 195.225 94.6975ZM194.483 92.0935H192.103V94.2775H194.483C195.225 94.2775 195.757 93.8015 195.757 93.1715C195.757 92.5555 195.225 92.0935 194.483 92.0935ZM192.103 95.1735V97.3575H194.819C195.547 97.3575 196.079 96.8955 196.079 96.2655C196.079 95.6495 195.547 95.1735 194.819 95.1735H192.103ZM201.539 91.0435C203.149 91.0435 204.255 91.9395 204.255 93.4655V98.2675H203.205V96.3355C202.729 97.7215 201.805 98.4075 200.433 98.4075C199.145 98.4075 198.249 97.6375 198.249 96.4615C198.249 95.1875 199.271 94.5155 200.741 94.3615L202.323 94.1795C202.911 94.1235 203.205 93.8575 203.205 93.3675C203.205 92.4855 202.533 91.9535 201.525 91.9535C200.517 91.9535 199.747 92.4435 199.481 93.4935L198.459 93.2135C198.795 91.8135 199.985 91.0435 201.539 91.0435ZM200.699 97.5255C201.413 97.5255 202.015 97.2875 202.491 96.7975C202.967 96.3215 203.205 95.7615 203.205 95.1175V94.5295C203.079 94.8095 202.757 94.9775 202.253 95.0335L200.727 95.2015C199.873 95.3135 199.299 95.7195 199.299 96.4055C199.299 97.0775 199.859 97.5255 200.699 97.5255Z" fill="#242424"/>
</svg>
