<svg width="233" height="578" viewBox="0 0 233 578" fill="none" xmlns="http://www.w3.org/2000/svg">
<rect x="3" y="1" width="226" height="573" fill="#242424" fill-opacity="0.86"/>
<path d="M150.46 497.264L155.136 496.06V504.222H157.376V506H150.46V504.222H153.134V498.328L150.46 499.028V497.264ZM157.857 497.264L162.533 496.06V504.222H164.773V506H157.857V504.222H160.531V498.328L157.857 499.028V497.264ZM165.843 504.88C165.843 504.166 166.389 503.62 167.103 503.62C167.775 503.62 168.349 504.194 168.349 504.88C168.349 505.538 167.775 506.126 167.103 506.126C166.417 506.126 165.843 505.552 165.843 504.88ZM175.094 502.08L172.672 504.222H176.83V506H169.718V504.46L173.82 500.666C174.366 500.162 174.632 499.644 174.632 499.126C174.632 498.356 174.058 497.894 173.218 497.894C172.308 497.894 171.748 498.468 171.748 499.476H169.676C169.676 498.426 170.012 497.586 170.67 496.97C171.328 496.368 172.196 496.06 173.274 496.06C175.346 496.06 176.69 497.222 176.69 499.084C176.69 500.134 176.158 501.142 175.094 502.08ZM177.784 497.978V496.2H184.784V497.74L183.636 500.218H184.784V501.982H182.824L180.962 506H178.764L180.682 501.982H177.784V500.218H181.522L182.586 497.978H177.784ZM195.716 498.776H198.936V506H197.27V499.168L196.038 506H192.972L191.74 499.168V506H190.074V498.776H193.28L194.498 505.496L195.716 498.776ZM204.497 500.176H200.073V499.028L201.599 497.53C201.879 497.259 202.099 497.035 202.257 496.858C202.416 496.671 202.528 496.503 202.593 496.354C202.659 496.205 202.691 496.051 202.691 495.892C202.691 495.724 202.635 495.593 202.523 495.5C202.421 495.407 202.276 495.36 202.089 495.36C201.912 495.36 201.721 495.407 201.515 495.5C201.319 495.593 201.1 495.747 200.857 495.962L200.017 494.926C200.316 494.665 200.647 494.455 201.011 494.296C201.385 494.128 201.819 494.044 202.313 494.044C202.92 494.044 203.405 494.193 203.769 494.492C204.143 494.781 204.329 495.201 204.329 495.752C204.329 496.032 204.278 496.293 204.175 496.536C204.073 496.769 203.909 497.017 203.685 497.278C203.461 497.53 203.167 497.824 202.803 498.16L202.089 498.804H204.497V500.176Z" fill="white"/>
<path d="M35.4604 497.264L40.1364 496.06V504.222H42.3764V506H35.4604V504.222H38.1344V498.328L35.4604 499.028V497.264ZM42.8569 497.264L47.5329 496.06V504.222H49.7729V506H42.8569V504.222H45.5309V498.328L42.8569 499.028V497.264ZM50.8432 504.88C50.8432 504.166 51.3892 503.62 52.1032 503.62C52.7752 503.62 53.3492 504.194 53.3492 504.88C53.3492 505.538 52.7752 506.126 52.1032 506.126C51.4172 506.126 50.8432 505.552 50.8432 504.88ZM60.0943 502.08L57.6723 504.222H61.8303V506H54.7183V504.46L58.8203 500.666C59.3663 500.162 59.6323 499.644 59.6323 499.126C59.6323 498.356 59.0583 497.894 58.2183 497.894C57.3083 497.894 56.7483 498.468 56.7483 499.476H54.6763C54.6763 498.426 55.0123 497.586 55.6703 496.97C56.3283 496.368 57.1963 496.06 58.2743 496.06C60.3463 496.06 61.6903 497.222 61.6903 499.084C61.6903 500.134 61.1583 501.142 60.0943 502.08ZM62.7839 497.978V496.2H69.7839V497.74L68.6359 500.218H69.7839V501.982H67.8239L65.9619 506H63.7639L65.6819 501.982H62.7839V500.218H66.5219L67.5859 497.978H62.7839ZM80.7164 498.776H83.9364V506H82.2704V499.168L81.0384 506H77.9724L76.7404 499.168V506H75.0744V498.776H78.2804L79.4984 505.496L80.7164 498.776ZM89.4973 500.176H85.0733V499.028L86.5993 497.53C86.8793 497.259 87.0986 497.035 87.2573 496.858C87.416 496.671 87.528 496.503 87.5933 496.354C87.6586 496.205 87.6913 496.051 87.6913 495.892C87.6913 495.724 87.6353 495.593 87.5233 495.5C87.4206 495.407 87.276 495.36 87.0893 495.36C86.912 495.36 86.7206 495.407 86.5153 495.5C86.3193 495.593 86.1 495.747 85.8573 495.962L85.0173 494.926C85.316 494.665 85.6473 494.455 86.0113 494.296C86.3846 494.128 86.8186 494.044 87.3133 494.044C87.92 494.044 88.4053 494.193 88.7693 494.492C89.1426 494.781 89.3293 495.201 89.3293 495.752C89.3293 496.032 89.278 496.293 89.1753 496.536C89.0726 496.769 88.9093 497.017 88.6853 497.278C88.4613 497.53 88.1673 497.824 87.8033 498.16L87.0893 498.804H89.4973V500.176Z" fill="white"/>
<path d="M17.1354 303.756C17.8774 303.756 18.5214 304.008 19.0394 304.526C19.5574 305.044 19.8234 305.786 19.8234 306.738C19.8234 307.718 19.4734 308.53 18.7874 309.174C18.1014 309.818 17.2334 310.14 16.1834 310.14C14.1534 310.14 12.8234 309.062 12.6414 307.214L14.6994 306.976C14.7974 307.802 15.3434 308.306 16.1834 308.306C17.0934 308.306 17.7514 307.648 17.7514 306.738C17.7514 305.828 17.1354 305.17 16.2534 305.17C15.5814 305.17 15.0914 305.436 14.7974 305.982L12.9354 305.758L13.6214 300.2H19.0674V301.978H15.2034L14.7834 305.24C15.1894 304.246 15.9734 303.756 17.1354 303.756ZM20.8569 308.88C20.8569 308.166 21.4029 307.62 22.1169 307.62C22.7889 307.62 23.3629 308.194 23.3629 308.88C23.3629 309.538 22.7889 310.126 22.1169 310.126C21.4309 310.126 20.8569 309.552 20.8569 308.88ZM24.9867 308.698C24.2167 307.732 23.8387 306.542 23.8387 305.1C23.8387 303.658 24.2167 302.468 24.9867 301.502C25.7427 300.536 26.6947 300.06 27.8567 300.06C29.0187 300.06 29.9707 300.536 30.7267 301.502C31.4827 302.468 31.8607 303.658 31.8607 305.1C31.8607 306.542 31.4827 307.732 30.7267 308.698C29.9707 309.664 29.0187 310.14 27.8567 310.14C26.6947 310.14 25.7427 309.664 24.9867 308.698ZM26.4707 302.804C26.0927 303.406 25.9107 304.176 25.9107 305.1C25.9107 306.024 26.0927 306.794 26.4707 307.396C26.8347 307.998 27.2967 308.306 27.8567 308.306C28.4167 308.306 28.8787 307.998 29.2427 307.396C29.6067 306.794 29.7887 306.024 29.7887 305.1C29.7887 304.176 29.6067 303.406 29.2427 302.804C28.8787 302.202 28.4167 301.894 27.8567 301.894C27.2967 301.894 26.8347 302.202 26.4707 302.804ZM32.7839 301.978V300.2H39.7839V301.74L38.6359 304.218H39.7839V305.982H37.8239L35.9619 310H33.7639L35.6819 305.982H32.7839V304.218H36.5219L37.5859 301.978H32.7839ZM50.7164 302.776H53.9364V310H52.2704V303.168L51.0384 310H47.9724L46.7404 303.168V310H45.0744V302.776H48.2804L49.4984 309.496L50.7164 302.776ZM59.4973 304.176H55.0733V303.028L56.5993 301.53C56.8793 301.259 57.0986 301.035 57.2573 300.858C57.416 300.671 57.528 300.503 57.5933 300.354C57.6586 300.205 57.6913 300.051 57.6913 299.892C57.6913 299.724 57.6353 299.593 57.5233 299.5C57.4206 299.407 57.276 299.36 57.0893 299.36C56.912 299.36 56.7206 299.407 56.5153 299.5C56.3193 299.593 56.1 299.747 55.8573 299.962L55.0173 298.926C55.316 298.665 55.6473 298.455 56.0113 298.296C56.3846 298.128 56.8186 298.044 57.3133 298.044C57.92 298.044 58.4053 298.193 58.7693 298.492C59.1426 298.781 59.3293 299.201 59.3293 299.752C59.3293 300.032 59.278 300.293 59.1753 300.536C59.0726 300.769 58.9093 301.017 58.6853 301.278C58.4613 301.53 58.1673 301.824 57.8033 302.16L57.0893 302.804H59.4973V304.176Z" fill="white"/>
<path d="M174.546 368.756C175.288 368.756 175.932 369.008 176.45 369.526C176.968 370.044 177.234 370.786 177.234 371.738C177.234 372.718 176.884 373.53 176.198 374.174C175.512 374.818 174.644 375.14 173.594 375.14C171.564 375.14 170.234 374.062 170.052 372.214L172.11 371.976C172.208 372.802 172.754 373.306 173.594 373.306C174.504 373.306 175.162 372.648 175.162 371.738C175.162 370.828 174.546 370.17 173.664 370.17C172.992 370.17 172.502 370.436 172.208 370.982L170.346 370.758L171.032 365.2H176.478V366.978H172.614L172.194 370.24C172.6 369.246 173.384 368.756 174.546 368.756ZM178.267 373.88C178.267 373.166 178.813 372.62 179.527 372.62C180.199 372.62 180.773 373.194 180.773 373.88C180.773 374.538 180.199 375.126 179.527 375.126C178.841 375.126 178.267 374.552 178.267 373.88ZM182.397 373.698C181.627 372.732 181.249 371.542 181.249 370.1C181.249 368.658 181.627 367.468 182.397 366.502C183.153 365.536 184.105 365.06 185.267 365.06C186.429 365.06 187.381 365.536 188.137 366.502C188.893 367.468 189.271 368.658 189.271 370.1C189.271 371.542 188.893 372.732 188.137 373.698C187.381 374.664 186.429 375.14 185.267 375.14C184.105 375.14 183.153 374.664 182.397 373.698ZM183.881 367.804C183.503 368.406 183.321 369.176 183.321 370.1C183.321 371.024 183.503 371.794 183.881 372.396C184.245 372.998 184.707 373.306 185.267 373.306C185.827 373.306 186.289 372.998 186.653 372.396C187.017 371.794 187.199 371.024 187.199 370.1C187.199 369.176 187.017 368.406 186.653 367.804C186.289 367.202 185.827 366.894 185.267 366.894C184.707 366.894 184.245 367.202 183.881 367.804ZM190.146 366.264L194.822 365.06V373.222H197.062V375H190.146V373.222H192.82V367.328L190.146 368.028V366.264ZM207.716 367.776H210.936V375H209.27V368.168L208.038 375H204.972L203.74 368.168V375H202.074V367.776H205.28L206.498 374.496L207.716 367.776ZM216.497 369.176H212.073V368.028L213.599 366.53C213.879 366.259 214.099 366.035 214.257 365.858C214.416 365.671 214.528 365.503 214.593 365.354C214.659 365.205 214.691 365.051 214.691 364.892C214.691 364.724 214.635 364.593 214.523 364.5C214.421 364.407 214.276 364.36 214.089 364.36C213.912 364.36 213.721 364.407 213.515 364.5C213.319 364.593 213.1 364.747 212.857 364.962L212.017 363.926C212.316 363.665 212.647 363.455 213.011 363.296C213.385 363.128 213.819 363.044 214.313 363.044C214.92 363.044 215.405 363.193 215.769 363.492C216.143 363.781 216.329 364.201 216.329 364.752C216.329 365.032 216.278 365.293 216.175 365.536C216.073 365.769 215.909 366.017 215.685 366.278C215.461 366.53 215.167 366.824 214.803 367.16L214.089 367.804H216.497V369.176Z" fill="white"/>
<path d="M88.9171 295.96C90.2751 296.352 91.0731 297.318 91.0731 298.396C91.0731 299.194 90.7511 299.838 90.0931 300.356C89.4351 300.874 88.5391 301.14 87.4051 301.14C86.2851 301.14 85.3891 300.874 84.7311 300.356C84.0731 299.838 83.7371 299.18 83.7371 298.396C83.7371 297.318 84.5491 296.352 85.8931 295.96C84.8151 295.526 84.1011 294.672 84.1011 293.678C84.1011 292.95 84.4231 292.334 85.0531 291.816C85.6831 291.312 86.4671 291.06 87.4051 291.06C88.3431 291.06 89.1411 291.312 89.7711 291.816C90.4011 292.334 90.7231 292.95 90.7231 293.678C90.7231 294.672 90.0231 295.526 88.9171 295.96ZM88.3431 293.174C87.8391 292.726 86.9711 292.726 86.4811 293.174C85.9771 293.636 85.9771 294.392 86.4811 294.826C86.9711 295.274 87.8391 295.274 88.3431 294.826C88.8331 294.392 88.8331 293.636 88.3431 293.174ZM86.2011 298.998C86.4951 299.236 86.9011 299.362 87.4051 299.362C87.9091 299.362 88.3151 299.236 88.6231 298.998C88.9171 298.76 89.0711 298.466 89.0711 298.088C89.0711 297.346 88.3991 296.772 87.4051 296.772C86.4391 296.772 85.7531 297.346 85.7531 298.088C85.7531 298.466 85.9071 298.76 86.2011 298.998ZM92.267 299.88C92.267 299.166 92.813 298.62 93.527 298.62C94.199 298.62 94.773 299.194 94.773 299.88C94.773 300.538 94.199 301.126 93.527 301.126C92.841 301.126 92.267 300.552 92.267 299.88ZM96.3968 299.698C95.6268 298.732 95.2488 297.542 95.2488 296.1C95.2488 294.658 95.6268 293.468 96.3968 292.502C97.1528 291.536 98.1048 291.06 99.2668 291.06C100.429 291.06 101.381 291.536 102.137 292.502C102.893 293.468 103.271 294.658 103.271 296.1C103.271 297.542 102.893 298.732 102.137 299.698C101.381 300.664 100.429 301.14 99.2668 301.14C98.1048 301.14 97.1528 300.664 96.3968 299.698ZM97.8808 293.804C97.5028 294.406 97.3208 295.176 97.3208 296.1C97.3208 297.024 97.5028 297.794 97.8808 298.396C98.2448 298.998 98.7068 299.306 99.2668 299.306C99.8268 299.306 100.289 298.998 100.653 298.396C101.017 297.794 101.199 297.024 101.199 296.1C101.199 295.176 101.017 294.406 100.653 293.804C100.289 293.202 99.8268 292.894 99.2668 292.894C98.7068 292.894 98.2448 293.202 97.8808 293.804ZM104.146 292.264L108.822 291.06V299.222H111.062V301H104.146V299.222H106.82V293.328L104.146 294.028V292.264ZM121.716 293.776H124.936V301H123.27V294.168L122.038 301H118.972L117.74 294.168V301H116.074V293.776H119.28L120.498 300.496L121.716 293.776ZM130.497 295.176H126.073V294.028L127.599 292.53C127.879 292.259 128.099 292.035 128.257 291.858C128.416 291.671 128.528 291.503 128.593 291.354C128.659 291.205 128.691 291.051 128.691 290.892C128.691 290.724 128.635 290.593 128.523 290.5C128.421 290.407 128.276 290.36 128.089 290.36C127.912 290.36 127.721 290.407 127.515 290.5C127.319 290.593 127.1 290.747 126.857 290.962L126.017 289.926C126.316 289.665 126.647 289.455 127.011 289.296C127.385 289.128 127.819 289.044 128.313 289.044C128.92 289.044 129.405 289.193 129.769 289.492C130.143 289.781 130.329 290.201 130.329 290.752C130.329 291.032 130.278 291.293 130.175 291.536C130.073 291.769 129.909 292.017 129.685 292.278C129.461 292.53 129.167 292.824 128.803 293.16L128.089 293.804H130.497V295.176Z" fill="white"/>
<path d="M169.355 271.2V272.74L167.031 275.106C167.801 275.204 168.445 275.512 168.949 276.03C169.453 276.562 169.705 277.234 169.705 278.06C169.705 278.956 169.369 279.698 168.711 280.272C168.053 280.846 167.185 281.14 166.135 281.14C164.021 281.14 162.691 280.02 162.565 278.018L164.637 277.78C164.651 278.774 165.239 279.306 166.149 279.306C167.087 279.306 167.633 278.76 167.633 277.906C167.633 277.066 167.003 276.534 165.841 276.534H164.945V274.98L166.905 272.978H163.041V271.2H169.355ZM170.882 279.88C170.882 279.166 171.428 278.62 172.142 278.62C172.814 278.62 173.388 279.194 173.388 279.88C173.388 280.538 172.814 281.126 172.142 281.126C171.456 281.126 170.882 280.552 170.882 279.88ZM174.531 272.264L179.207 271.06V279.222H181.447V281H174.531V279.222H177.205V273.328L174.531 274.028V272.264ZM182.43 272.04C183.116 271.382 183.97 271.06 185.02 271.06C186.07 271.06 186.938 271.382 187.624 272.026C188.31 272.67 188.646 273.482 188.646 274.462C188.646 275.064 188.408 275.778 187.946 276.604L185.412 281H183.13L185.762 276.436C185.132 277.206 183.998 277.402 183.088 277.066C182.178 276.744 181.394 275.764 181.394 274.462C181.394 273.496 181.744 272.698 182.43 272.04ZM183.914 275.582C184.208 275.876 184.572 276.03 185.02 276.03C185.468 276.03 185.846 275.876 186.14 275.582C186.434 275.288 186.574 274.924 186.574 274.462C186.574 274 186.434 273.622 186.14 273.328C185.846 273.034 185.468 272.894 185.02 272.894C184.572 272.894 184.208 273.034 183.914 273.328C183.62 273.622 183.466 274 183.466 274.462C183.466 274.924 183.62 275.288 183.914 275.582ZM199.716 273.776H202.936V281H201.27V274.168L200.038 281H196.972L195.74 274.168V281H194.074V273.776H197.28L198.498 280.496L199.716 273.776ZM208.497 275.176H204.073V274.028L205.599 272.53C205.879 272.259 206.099 272.035 206.257 271.858C206.416 271.671 206.528 271.503 206.593 271.354C206.659 271.205 206.691 271.051 206.691 270.892C206.691 270.724 206.635 270.593 206.523 270.5C206.421 270.407 206.276 270.36 206.089 270.36C205.912 270.36 205.721 270.407 205.515 270.5C205.319 270.593 205.1 270.747 204.857 270.962L204.017 269.926C204.316 269.665 204.647 269.455 205.011 269.296C205.385 269.128 205.819 269.044 206.313 269.044C206.92 269.044 207.405 269.193 207.769 269.492C208.143 269.781 208.329 270.201 208.329 270.752C208.329 271.032 208.278 271.293 208.175 271.536C208.073 271.769 207.909 272.017 207.685 272.278C207.461 272.53 207.167 272.824 206.803 273.16L206.089 273.804H208.497V275.176Z" fill="white"/>
<path d="M94.6958 178.08L92.2738 180.222H96.4318V182H89.3198V180.46L93.4218 176.666C93.9678 176.162 94.2338 175.644 94.2338 175.126C94.2338 174.356 93.6598 173.894 92.8198 173.894C91.9098 173.894 91.3498 174.468 91.3498 175.476H89.2778C89.2778 174.426 89.6138 173.586 90.2718 172.97C90.9298 172.368 91.7978 172.06 92.8758 172.06C94.9478 172.06 96.2918 173.222 96.2918 175.084C96.2918 176.134 95.7598 177.142 94.6958 178.08ZM102.135 175.756C102.877 175.756 103.521 176.008 104.039 176.526C104.557 177.044 104.823 177.786 104.823 178.738C104.823 179.718 104.473 180.53 103.787 181.174C103.101 181.818 102.233 182.14 101.183 182.14C99.1534 182.14 97.8234 181.062 97.6414 179.214L99.6994 178.976C99.7974 179.802 100.343 180.306 101.183 180.306C102.093 180.306 102.751 179.648 102.751 178.738C102.751 177.828 102.135 177.17 101.253 177.17C100.581 177.17 100.091 177.436 99.7974 177.982L97.9354 177.758L98.6214 172.2H104.067V173.978H100.203L99.7834 177.24C100.189 176.246 100.973 175.756 102.135 175.756ZM105.857 180.88C105.857 180.166 106.403 179.62 107.117 179.62C107.789 179.62 108.363 180.194 108.363 180.88C108.363 181.538 107.789 182.126 107.117 182.126C106.431 182.126 105.857 181.552 105.857 180.88ZM109.987 180.698C109.217 179.732 108.839 178.542 108.839 177.1C108.839 175.658 109.217 174.468 109.987 173.502C110.743 172.536 111.695 172.06 112.857 172.06C114.019 172.06 114.971 172.536 115.727 173.502C116.483 174.468 116.861 175.658 116.861 177.1C116.861 178.542 116.483 179.732 115.727 180.698C114.971 181.664 114.019 182.14 112.857 182.14C111.695 182.14 110.743 181.664 109.987 180.698ZM111.471 174.804C111.093 175.406 110.911 176.176 110.911 177.1C110.911 178.024 111.093 178.794 111.471 179.396C111.835 179.998 112.297 180.306 112.857 180.306C113.417 180.306 113.879 179.998 114.243 179.396C114.607 178.794 114.789 178.024 114.789 177.1C114.789 176.176 114.607 175.406 114.243 174.804C113.879 174.202 113.417 173.894 112.857 173.894C112.297 173.894 111.835 174.202 111.471 174.804ZM117.784 173.978V172.2H124.784V173.74L123.636 176.218H124.784V177.982H122.824L120.962 182H118.764L120.682 177.982H117.784V176.218H121.522L122.586 173.978H117.784ZM135.716 174.776H138.936V182H137.27V175.168L136.038 182H132.972L131.74 175.168V182H130.074V174.776H133.28L134.498 181.496L135.716 174.776ZM144.497 176.176H140.073V175.028L141.599 173.53C141.879 173.259 142.099 173.035 142.257 172.858C142.416 172.671 142.528 172.503 142.593 172.354C142.659 172.205 142.691 172.051 142.691 171.892C142.691 171.724 142.635 171.593 142.523 171.5C142.421 171.407 142.276 171.36 142.089 171.36C141.912 171.36 141.721 171.407 141.515 171.5C141.319 171.593 141.1 171.747 140.857 171.962L140.017 170.926C140.316 170.665 140.647 170.455 141.011 170.296C141.385 170.128 141.819 170.044 142.313 170.044C142.92 170.044 143.405 170.193 143.769 170.492C144.143 170.781 144.329 171.201 144.329 171.752C144.329 172.032 144.278 172.293 144.175 172.536C144.073 172.769 143.909 173.017 143.685 173.278C143.461 173.53 143.167 173.824 142.803 174.16L142.089 174.804H144.497V176.176Z" fill="white"/>
<path d="M88.5307 41.264L93.2067 40.06V48.222H95.4467V50H88.5307V48.222H91.2047V42.328L88.5307 43.028V41.264ZM98.8766 40.2H102.573V46.374H103.777V48.138H102.573V50H100.571V48.138H95.6986V46.374L98.8766 40.2ZM100.571 46.374V40.802L97.7146 46.374H100.571ZM104.871 48.88C104.871 48.166 105.417 47.62 106.131 47.62C106.803 47.62 107.377 48.194 107.377 48.88C107.377 49.538 106.803 50.126 106.131 50.126C105.445 50.126 104.871 49.552 104.871 48.88ZM115.06 40.2V41.74L112.736 44.106C113.506 44.204 114.15 44.512 114.654 45.03C115.158 45.562 115.41 46.234 115.41 47.06C115.41 47.956 115.074 48.698 114.416 49.272C113.758 49.846 112.89 50.14 111.84 50.14C109.726 50.14 108.396 49.02 108.27 47.018L110.342 46.78C110.356 47.774 110.944 48.306 111.854 48.306C112.792 48.306 113.338 47.76 113.338 46.906C113.338 46.066 112.708 45.534 111.546 45.534H110.65V43.98L112.61 41.978H108.746V40.2H115.06ZM119.628 40.2H121.91L119.306 44.722C119.936 43.98 121.056 43.784 121.966 44.12C122.876 44.456 123.646 45.45 123.646 46.738C123.646 47.704 123.31 48.502 122.624 49.16C121.938 49.818 121.07 50.14 120.02 50.14C118.97 50.14 118.116 49.818 117.43 49.174C116.744 48.53 116.394 47.718 116.394 46.738C116.394 46.136 116.632 45.422 117.094 44.596L119.628 40.2ZM118.914 47.858C119.208 48.152 119.572 48.306 120.02 48.306C120.468 48.306 120.846 48.152 121.14 47.858C121.434 47.564 121.574 47.2 121.574 46.738C121.574 46.276 121.434 45.898 121.14 45.604C120.846 45.31 120.468 45.17 120.02 45.17C119.572 45.17 119.208 45.31 118.914 45.604C118.62 45.898 118.466 46.276 118.466 46.738C118.466 47.2 118.62 47.564 118.914 47.858ZM134.716 42.776H137.936V50H136.27V43.168L135.038 50H131.972L130.74 43.168V50H129.074V42.776H132.28L133.498 49.496L134.716 42.776ZM143.497 44.176H139.073V43.028L140.599 41.53C140.879 41.2593 141.099 41.0353 141.257 40.858C141.416 40.6713 141.528 40.5033 141.593 40.354C141.659 40.2047 141.691 40.0507 141.691 39.892C141.691 39.724 141.635 39.5933 141.523 39.5C141.421 39.4067 141.276 39.36 141.089 39.36C140.912 39.36 140.721 39.4067 140.515 39.5C140.319 39.5933 140.1 39.7473 139.857 39.962L139.017 38.926C139.316 38.6647 139.647 38.4547 140.011 38.296C140.385 38.128 140.819 38.044 141.313 38.044C141.92 38.044 142.405 38.1933 142.769 38.492C143.143 38.7813 143.329 39.2013 143.329 39.752C143.329 40.032 143.278 40.2933 143.175 40.536C143.073 40.7693 142.909 41.0167 142.685 41.278C142.461 41.53 142.167 41.824 141.803 42.16L141.089 42.804H143.497V44.176Z" fill="white"/>
<path d="M4 0V95.5M229 0V95.5M4 279H68V328M4 279V328M4 279V235.5M68 415H4M68 415H78M68 415V387M4 415V437.5M4 415V387M4 95.5H116.5M4 95.5V173M229 95.5H150M229 95.5V138.75M229 245.5H112M229 245.5V307.5M229 245.5V182M141.5 219.5V307.5M158 344H141.5V307.5M157 377.5V415M157 415H229M157 415H150M229 415V445M229 415V346M106 415H114.25M122.5 415H114.25M114.25 415V574M114.25 574H145M114.25 574H91M141.5 307.5H166M191 307.5H229M229 307.5V320.5M4 328H20.5M4 328V357.5M54 328H68M68 328V354.5M177 574H229V470M56 574H4V467.5" stroke="white" stroke-width="7"/>
<path d="M229 138V182.5" stroke="white" stroke-width="3"/>
<path d="M4 172V237" stroke="white" stroke-width="3"/>
<path d="M4 334V399" stroke="white" stroke-width="3"/>
<path d="M4 427V492" stroke="white" stroke-width="3"/>
<path d="M229 427V492" stroke="white" stroke-width="3"/>
<path d="M193 574L128 574" stroke="white" stroke-width="3"/>
<path d="M99 574L34 574" stroke="white" stroke-width="3"/>
<path d="M229 307V372" stroke="white" stroke-width="3"/>
<mask id="path-19-inside-1_301_3785" fill="white">
<path d="M64.5 354C60.1007 354 55.7445 354.867 51.6801 356.55C47.6157 358.234 43.9227 360.701 40.8119 363.812C37.7012 366.923 35.2336 370.616 33.55 374.68C31.8665 378.745 31 383.101 31 387.5L64.5 387.5L64.5 354Z"/>
</mask>
<path d="M64.5 354C60.1007 354 55.7445 354.867 51.6801 356.55C47.6157 358.234 43.9227 360.701 40.8119 363.812C37.7012 366.923 35.2336 370.616 33.55 374.68C31.8665 378.745 31 383.101 31 387.5L64.5 387.5L64.5 354Z" stroke="white" stroke-width="4" mask="url(#path-19-inside-1_301_3785)"/>
<mask id="path-20-inside-2_301_3785" fill="white">
<path d="M116.5 132C120.899 132 125.255 131.133 129.32 129.45C133.384 127.766 137.077 125.299 140.188 122.188C143.299 119.077 145.766 115.384 147.45 111.32C149.133 107.255 150 102.899 150 98.5L116.5 98.5L116.5 132Z"/>
</mask>
<path d="M116.5 132C120.899 132 125.255 131.133 129.32 129.45C133.384 127.766 137.077 125.299 140.188 122.188C143.299 119.077 145.766 115.384 147.45 111.32C149.133 107.255 150 102.899 150 98.5L116.5 98.5L116.5 132Z" stroke="white" stroke-width="4" mask="url(#path-20-inside-2_301_3785)"/>
<mask id="path-21-inside-3_301_3785" fill="white">
<path d="M165.5 336C168.849 336 172.165 335.34 175.258 334.059C178.352 332.777 181.163 330.899 183.531 328.531C185.899 326.163 187.777 323.352 189.059 320.258C190.34 317.165 191 313.849 191 310.5L165.5 310.5L165.5 336Z"/>
</mask>
<path d="M165.5 336C168.849 336 172.165 335.34 175.258 334.059C178.352 332.777 181.163 330.899 183.531 328.531C185.899 326.163 187.777 323.352 189.059 320.258C190.34 317.165 191 313.849 191 310.5L165.5 310.5L165.5 336Z" stroke="white" stroke-width="4" mask="url(#path-21-inside-3_301_3785)"/>
<mask id="path-22-inside-4_301_3785" fill="white">
<path d="M122 446C125.677 446 129.318 445.276 132.715 443.869C136.112 442.461 139.199 440.399 141.799 437.799C144.399 435.199 146.461 432.112 147.869 428.715C149.276 425.318 150 421.677 150 418L122 418L122 446Z"/>
</mask>
<path d="M122 446C125.677 446 129.318 445.276 132.715 443.869C136.112 442.461 139.199 440.399 141.799 437.799C144.399 435.199 146.461 432.112 147.869 428.715C149.276 425.318 150 421.677 150 418L122 418L122 446Z" stroke="white" stroke-width="4" mask="url(#path-22-inside-4_301_3785)"/>
<mask id="path-23-inside-5_301_3785" fill="white">
<path d="M122 346.5C122 350.637 122.815 354.733 124.398 358.555C125.981 362.376 128.301 365.849 131.226 368.774C134.151 371.699 137.624 374.019 141.445 375.602C145.267 377.185 149.363 378 153.5 378L153.5 346.5L122 346.5Z"/>
</mask>
<path d="M122 346.5C122 350.637 122.815 354.733 124.398 358.555C125.981 362.376 128.301 365.849 131.226 368.774C134.151 371.699 137.624 374.019 141.445 375.602C145.267 377.185 149.363 378 153.5 378L153.5 346.5L122 346.5Z" stroke="white" stroke-width="4" mask="url(#path-23-inside-5_301_3785)"/>
<mask id="path-24-inside-6_301_3785" fill="white">
<path d="M106 446C102.323 446 98.682 445.276 95.2849 443.869C91.8877 442.461 88.8011 440.399 86.201 437.799C83.601 435.199 81.5385 432.112 80.1314 428.715C78.7242 425.318 78 421.677 78 418L106 418L106 446Z"/>
</mask>
<path d="M106 446C102.323 446 98.682 445.276 95.2849 443.869C91.8877 442.461 88.8011 440.399 86.201 437.799C83.601 435.199 81.5385 432.112 80.1314 428.715C78.7242 425.318 78 421.677 78 418L106 418L106 446Z" stroke="white" stroke-width="4" mask="url(#path-24-inside-6_301_3785)"/>
</svg>
